%TF.GenerationSoftware,KiCad,Pcbnew,5.1.6-c6e7f7d~87~ubuntu18.04.1*%
%TF.CreationDate,2020-11-18T13:25:47-05:00*%
%TF.ProjectId,remote,72656d6f-7465-42e6-9b69-6361645f7063,rev?*%
%TF.SameCoordinates,Original*%
%TF.FileFunction,Copper,L1,Top*%
%TF.FilePolarity,Positive*%
%FSLAX46Y46*%
G04 Gerber Fmt 4.6, Leading zero omitted, Abs format (unit mm)*
G04 Created by KiCad (PCBNEW 5.1.6-c6e7f7d~87~ubuntu18.04.1) date 2020-11-18 13:25:47*
%MOMM*%
%LPD*%
G01*
G04 APERTURE LIST*
%TA.AperFunction,ComponentPad*%
%ADD10C,2.600000*%
%TD*%
%TA.AperFunction,ComponentPad*%
%ADD11R,2.600000X2.600000*%
%TD*%
%TA.AperFunction,ComponentPad*%
%ADD12C,1.600000*%
%TD*%
%TA.AperFunction,ComponentPad*%
%ADD13O,1.600000X1.600000*%
%TD*%
%TA.AperFunction,ComponentPad*%
%ADD14O,1.700000X1.700000*%
%TD*%
%TA.AperFunction,ComponentPad*%
%ADD15R,1.700000X1.700000*%
%TD*%
%TA.AperFunction,ComponentPad*%
%ADD16C,1.700000*%
%TD*%
%TA.AperFunction,ViaPad*%
%ADD17C,0.800000*%
%TD*%
%TA.AperFunction,Conductor*%
%ADD18C,0.800000*%
%TD*%
%TA.AperFunction,Conductor*%
%ADD19C,0.304800*%
%TD*%
G04 APERTURE END LIST*
D10*
%TO.P,J8,2*%
%TO.N,VBAT*%
X76708000Y-77136000D03*
D11*
%TO.P,J8,1*%
%TO.N,GND*%
X76708000Y-72136000D03*
%TD*%
D12*
%TO.P,RS1,1*%
%TO.N,+3V3*%
X96012000Y-104394000D03*
D13*
%TO.P,RS1,2*%
%TO.N,37*%
X96012000Y-94234000D03*
%TD*%
D14*
%TO.P,J2,18*%
%TO.N,SDA*%
X119888000Y-85598000D03*
%TO.P,J2,17*%
%TO.N,N/C*%
X117348000Y-85598000D03*
%TO.P,J2,16*%
X114808000Y-85598000D03*
%TO.P,J2,15*%
X112268000Y-85598000D03*
%TO.P,J2,14*%
X109728000Y-85598000D03*
%TO.P,J2,13*%
X107188000Y-85598000D03*
%TO.P,J2,12*%
X104648000Y-85598000D03*
%TO.P,J2,11*%
X102108000Y-85598000D03*
%TO.P,J2,10*%
X99568000Y-85598000D03*
%TO.P,J2,9*%
X97028000Y-85598000D03*
%TO.P,J2,8*%
X94488000Y-85598000D03*
%TO.P,J2,7*%
%TO.N,39*%
X91948000Y-85598000D03*
%TO.P,J2,6*%
%TO.N,38*%
X89408000Y-85598000D03*
%TO.P,J2,5*%
%TO.N,37*%
X86868000Y-85598000D03*
%TO.P,J2,4*%
%TO.N,36*%
X84328000Y-85598000D03*
%TO.P,J2,3*%
%TO.N,N/C*%
X81788000Y-85598000D03*
%TO.P,J2,2*%
%TO.N,+3V3*%
X79248000Y-85598000D03*
D15*
%TO.P,J2,1*%
%TO.N,GND*%
X76708000Y-85598000D03*
%TD*%
D14*
%TO.P,J1,18*%
%TO.N,N/C*%
X119888000Y-110998000D03*
%TO.P,J1,17*%
X117348000Y-110998000D03*
%TO.P,J1,16*%
X114808000Y-110998000D03*
%TO.P,J1,15*%
X112268000Y-110998000D03*
%TO.P,J1,14*%
X109728000Y-110998000D03*
%TO.P,J1,13*%
X107188000Y-110998000D03*
%TO.P,J1,12*%
X104648000Y-110998000D03*
%TO.P,J1,11*%
X102108000Y-110998000D03*
%TO.P,J1,10*%
X99568000Y-110998000D03*
%TO.P,J1,9*%
%TO.N,SCL*%
X97028000Y-110998000D03*
%TO.P,J1,8*%
%TO.N,N/C*%
X94488000Y-110998000D03*
%TO.P,J1,7*%
X91948000Y-110998000D03*
%TO.P,J1,6*%
X89408000Y-110998000D03*
%TO.P,J1,5*%
X86868000Y-110998000D03*
%TO.P,J1,4*%
X84328000Y-110998000D03*
%TO.P,J1,3*%
%TO.N,VBAT*%
X81788000Y-110998000D03*
%TO.P,J1,2*%
%TO.N,N/C*%
X79248000Y-110998000D03*
D15*
%TO.P,J1,1*%
%TO.N,GND*%
X76708000Y-110998000D03*
%TD*%
D12*
%TO.P,RS3,1*%
%TO.N,+3V3*%
X103886000Y-104394000D03*
D13*
%TO.P,RS3,2*%
%TO.N,39*%
X103886000Y-94234000D03*
%TD*%
D14*
%TO.P,J5,2*%
%TO.N,VBAT*%
X84836000Y-75692000D03*
D15*
%TO.P,J5,1*%
%TO.N,GND*%
X84836000Y-73152000D03*
%TD*%
D16*
%TO.P,SW0,4*%
%TO.N,GND*%
X81970000Y-119484000D03*
%TO.P,SW0,3*%
X81970000Y-125984000D03*
%TO.P,SW0,2*%
%TO.N,36*%
X77470000Y-119484000D03*
%TO.P,SW0,1*%
X77470000Y-125984000D03*
%TD*%
%TO.P,SW1,4*%
%TO.N,GND*%
X94416000Y-119484000D03*
%TO.P,SW1,3*%
X94416000Y-125984000D03*
%TO.P,SW1,2*%
%TO.N,37*%
X89916000Y-119484000D03*
%TO.P,SW1,1*%
X89916000Y-125984000D03*
%TD*%
%TO.P,SW3,4*%
%TO.N,GND*%
X119308000Y-119484000D03*
%TO.P,SW3,3*%
X119308000Y-125984000D03*
%TO.P,SW3,2*%
%TO.N,39*%
X114808000Y-119484000D03*
%TO.P,SW3,1*%
X114808000Y-125984000D03*
%TD*%
%TO.P,SW2,4*%
%TO.N,GND*%
X106862000Y-119484000D03*
%TO.P,SW2,3*%
X106862000Y-125984000D03*
%TO.P,SW2,2*%
%TO.N,38*%
X102362000Y-119484000D03*
%TO.P,SW2,1*%
X102362000Y-125984000D03*
%TD*%
D12*
%TO.P,RS0,1*%
%TO.N,+3V3*%
X92202000Y-104394000D03*
D13*
%TO.P,RS0,2*%
%TO.N,36*%
X92202000Y-94234000D03*
%TD*%
D12*
%TO.P,RS2,1*%
%TO.N,+3V3*%
X100076000Y-104394000D03*
D13*
%TO.P,RS2,2*%
%TO.N,38*%
X100076000Y-94234000D03*
%TD*%
D14*
%TO.P,J11,8*%
%TO.N,N/C*%
X151638000Y-84074000D03*
%TO.P,J11,7*%
X149098000Y-84074000D03*
%TO.P,J11,6*%
%TO.N,SDA*%
X146558000Y-84074000D03*
%TO.P,J11,5*%
%TO.N,N/C*%
X144018000Y-84074000D03*
%TO.P,J11,4*%
%TO.N,SCL*%
X141478000Y-84074000D03*
%TO.P,J11,3*%
%TO.N,GND*%
X138938000Y-84074000D03*
%TO.P,J11,2*%
%TO.N,N/C*%
X136398000Y-84074000D03*
D15*
%TO.P,J11,1*%
%TO.N,+3V3*%
X133858000Y-84074000D03*
%TD*%
D14*
%TO.P,J9,7*%
%TO.N,N/C*%
X133858000Y-109220000D03*
%TO.P,J9,6*%
X133858000Y-111760000D03*
%TO.P,J9,5*%
X133858000Y-114300000D03*
%TO.P,J9,4*%
%TO.N,SDA*%
X133858000Y-116840000D03*
%TO.P,J9,3*%
%TO.N,SCL*%
X133858000Y-119380000D03*
%TO.P,J9,2*%
%TO.N,GND*%
X133858000Y-121920000D03*
D15*
%TO.P,J9,1*%
%TO.N,+3V3*%
X133858000Y-124460000D03*
%TD*%
D12*
%TO.P,R3,1*%
%TO.N,+3V3*%
X138176000Y-101346000D03*
D13*
%TO.P,R3,2*%
%TO.N,SDA*%
X148336000Y-101346000D03*
%TD*%
D12*
%TO.P,R2,1*%
%TO.N,+3V3*%
X138176000Y-104648000D03*
D13*
%TO.P,R2,2*%
%TO.N,SCL*%
X148336000Y-104648000D03*
%TD*%
D17*
%TO.N,36*%
X80010000Y-103632000D03*
X85852000Y-102362000D03*
%TO.N,37*%
X80264000Y-106172000D03*
X87630000Y-103124000D03*
%TD*%
D18*
%TO.N,+3V3*%
X79248000Y-91440000D02*
X92202000Y-104394000D01*
X79248000Y-85598000D02*
X79248000Y-91440000D01*
X103886000Y-104394000D02*
X100076000Y-104394000D01*
X96012000Y-104394000D02*
X100076000Y-104394000D01*
X92202000Y-104394000D02*
X96012000Y-104394000D01*
X138176000Y-101346000D02*
X138176000Y-94488000D01*
X133858000Y-90170000D02*
X133858000Y-84074000D01*
X138176000Y-94488000D02*
X133858000Y-90170000D01*
X138176000Y-104648000D02*
X138176000Y-101346000D01*
X138176000Y-104648000D02*
X141478000Y-104648000D01*
X141478000Y-104648000D02*
X144526000Y-107696000D01*
X144526000Y-107696000D02*
X144526000Y-121158000D01*
X141224000Y-124460000D02*
X133858000Y-124460000D01*
X144526000Y-121158000D02*
X141224000Y-124460000D01*
X137922000Y-104394000D02*
X138176000Y-104648000D01*
X103886000Y-104394000D02*
X137922000Y-104394000D01*
%TO.N,GND*%
X81970000Y-119484000D02*
X81970000Y-125984000D01*
X94416000Y-119484000D02*
X94416000Y-125984000D01*
X81970000Y-125984000D02*
X81970000Y-127944000D01*
X81970000Y-127944000D02*
X82804000Y-128778000D01*
X91622000Y-128778000D02*
X94416000Y-125984000D01*
X82804000Y-128778000D02*
X91622000Y-128778000D01*
X94416000Y-125984000D02*
X97210000Y-128778000D01*
X97210000Y-128778000D02*
X105410000Y-128778000D01*
X106862000Y-127326000D02*
X106862000Y-125984000D01*
X105410000Y-128778000D02*
X106862000Y-127326000D01*
X119308000Y-125984000D02*
X116514000Y-128778000D01*
X109656000Y-128778000D02*
X106862000Y-125984000D01*
X116514000Y-128778000D02*
X109656000Y-128778000D01*
X119308000Y-119484000D02*
X116918000Y-117094000D01*
X116918000Y-117094000D02*
X108458000Y-117094000D01*
X106862000Y-118690000D02*
X106862000Y-119484000D01*
X108458000Y-117094000D02*
X106862000Y-118690000D01*
X119308000Y-119484000D02*
X119308000Y-125984000D01*
X106862000Y-119484000D02*
X106862000Y-125984000D01*
X106862000Y-119484000D02*
X104726000Y-117348000D01*
X96552000Y-117348000D02*
X94416000Y-119484000D01*
X104726000Y-117348000D02*
X96552000Y-117348000D01*
X94416000Y-119484000D02*
X92280000Y-117348000D01*
X76708000Y-72136000D02*
X75946000Y-72136000D01*
X75946000Y-72136000D02*
X73914000Y-74168000D01*
X73914000Y-82804000D02*
X76708000Y-85598000D01*
X73914000Y-74168000D02*
X73914000Y-82804000D01*
X77724000Y-73152000D02*
X76708000Y-72136000D01*
X84836000Y-73152000D02*
X77724000Y-73152000D01*
X76708000Y-85598000D02*
X76708000Y-110998000D01*
X119308000Y-119484000D02*
X124818000Y-119484000D01*
X127254000Y-121920000D02*
X133858000Y-121920000D01*
X124818000Y-119484000D02*
X127254000Y-121920000D01*
X81970000Y-119484000D02*
X76454000Y-113968000D01*
X76454000Y-111252000D02*
X76708000Y-110998000D01*
X76454000Y-113968000D02*
X76454000Y-111252000D01*
X81970000Y-119484000D02*
X84074000Y-117380000D01*
X92280000Y-117348000D02*
X84074000Y-117348000D01*
X84074000Y-117380000D02*
X84074000Y-117348000D01*
X84836000Y-73152000D02*
X130048000Y-73152000D01*
X138938000Y-82042000D02*
X138938000Y-84074000D01*
X130048000Y-73152000D02*
X138938000Y-82042000D01*
D19*
%TO.N,SCL*%
X97028000Y-110998000D02*
X97028000Y-108712000D01*
X97028000Y-108712000D02*
X98298000Y-107442000D01*
X98298000Y-107442000D02*
X125730000Y-107442000D01*
X125730000Y-107442000D02*
X130048000Y-111760000D01*
X130048000Y-111760000D02*
X130048000Y-117348000D01*
X132080000Y-119380000D02*
X133858000Y-119380000D01*
X130048000Y-117348000D02*
X132080000Y-119380000D01*
X148336000Y-104648000D02*
X147066000Y-104648000D01*
X141478000Y-99060000D02*
X141478000Y-84074000D01*
X147066000Y-104648000D02*
X141478000Y-99060000D01*
D18*
%TO.N,VBAT*%
X78152000Y-75692000D02*
X76708000Y-77136000D01*
X84836000Y-75692000D02*
X78152000Y-75692000D01*
D19*
%TO.N,36*%
X85852000Y-102362000D02*
X84582000Y-103632000D01*
X80010000Y-103632000D02*
X83566000Y-103632000D01*
X84582000Y-103632000D02*
X83566000Y-103632000D01*
X83566000Y-103632000D02*
X83820000Y-103632000D01*
X92202000Y-94234000D02*
X90170000Y-94234000D01*
X84328000Y-88392000D02*
X84328000Y-85598000D01*
X90170000Y-94234000D02*
X84328000Y-88392000D01*
%TO.N,37*%
X80264000Y-106172000D02*
X84582000Y-106172000D01*
X84582000Y-106172000D02*
X87630000Y-103124000D01*
X86868000Y-85598000D02*
X86868000Y-86868000D01*
X86868000Y-86868000D02*
X90932000Y-90932000D01*
X92710000Y-90932000D02*
X96012000Y-94234000D01*
X90932000Y-90932000D02*
X92710000Y-90932000D01*
%TO.N,38*%
X92202000Y-89408000D02*
X89408000Y-86614000D01*
X100076000Y-94234000D02*
X95250000Y-89408000D01*
X89408000Y-86614000D02*
X89408000Y-85598000D01*
X95250000Y-89408000D02*
X92202000Y-89408000D01*
%TO.N,39*%
X91948000Y-85598000D02*
X91948000Y-86868000D01*
X91948000Y-86868000D02*
X93218000Y-88138000D01*
X93218000Y-88138000D02*
X98044000Y-88138000D01*
X103886000Y-93980000D02*
X103886000Y-94234000D01*
X98044000Y-88138000D02*
X103886000Y-93980000D01*
%TD*%
M02*
