M48
; DRILL file {KiCad 5.1.6-c6e7f7d~87~ubuntu18.04.1} date Tue Nov 17 20:25:27 2020
; FORMAT={-:-/ absolute / inch / decimal}
; #@! TF.CreationDate,2020-11-17T20:25:27-05:00
; #@! TF.GenerationSoftware,Kicad,Pcbnew,5.1.6-c6e7f7d~87~ubuntu18.04.1
; #@! TF.FileFunction,Plated,1,2,PTH
FMAT,2
INCH
T1C0.0157
T2C0.0315
T3C0.0394
T4C0.0512
%
G90
G05
T1
X3.09Y-4.61
X3.7Y-3.81
X4.08Y-5.14
X4.63Y-3.6
X5.02Y-4.75
X5.04Y-4.98
X5.22Y-4.75
X5.38Y-4.93
X5.54Y-4.86
T2
X5.61Y-4.66
X5.61Y-5.06
X5.31Y-4.66
X5.31Y-5.06
X5.91Y-4.66
X5.91Y-5.06
X5.16Y-4.66
X5.16Y-5.06
X5.76Y-4.66
X5.76Y-5.06
X4.18Y-2.86
X4.58Y-2.86
X5.46Y-4.66
X5.46Y-5.06
X4.18Y-2.99
X4.58Y-2.99
T3
X3.57Y-5.93
X3.57Y-6.03
X4.04Y-3.35
X4.14Y-3.35
X4.24Y-3.35
X4.34Y-3.35
X4.44Y-3.35
X4.54Y-3.35
X4.64Y-3.35
X4.74Y-3.35
X5.44Y-5.5041
X5.44Y-5.76
X5.6172Y-5.5041
X5.6172Y-5.76
X3.9806Y-3.7476
X3.9806Y-3.8476
X3.9806Y-3.9476
X3.9806Y-4.0476
X3.9806Y-4.1476
X3.9806Y-4.2476
X3.9806Y-4.3476
X3.9806Y-4.4476
X3.9806Y-4.5476
X3.9806Y-4.6476
X3.9806Y-4.7476
X3.9806Y-4.8476
X4.7837Y-3.7476
X4.7837Y-3.8476
X4.7837Y-3.9476
X4.7837Y-4.0476
X4.7837Y-4.1476
X4.7837Y-4.2476
X4.7837Y-4.3476
X4.7837Y-4.4476
X4.7837Y-4.5476
X4.7837Y-4.6476
X4.7837Y-4.7476
X4.7837Y-4.8476
X4.7837Y-4.9476
X4.7837Y-5.0476
X4.7837Y-5.1476
X4.7837Y-5.2476
X3.56Y-3.88
X3.56Y-3.98
X3.56Y-4.08
X3.56Y-4.18
X3.56Y-4.28
X5.19Y-3.43
X5.19Y-3.53
X5.19Y-3.63
X5.19Y-3.73
X5.19Y-3.83
X5.19Y-3.93
X5.19Y-4.03
X3.56Y-4.95
X3.56Y-5.05
X3.56Y-5.15
X3.56Y-5.25
X3.56Y-5.35
X5.84Y-6.0141
X5.84Y-6.27
X6.0172Y-6.0141
X6.0172Y-6.27
X5.41Y-4.27
X5.51Y-4.27
X5.61Y-4.27
X5.71Y-4.27
X5.04Y-6.0141
X5.04Y-6.27
X5.2172Y-6.0141
X5.2172Y-6.27
X5.04Y-5.5041
X5.04Y-5.76
X5.2172Y-5.5041
X5.2172Y-5.76
X5.84Y-5.5041
X5.84Y-5.76
X6.0172Y-5.5041
X6.0172Y-5.76
X5.44Y-6.0141
X5.44Y-6.27
X5.6172Y-6.0141
X5.6172Y-6.27
X3.5571Y-2.9664
X3.5571Y-3.0664
X3.5571Y-3.1664
X3.5571Y-3.2664
T4
X3.24Y-3.7
X3.24Y-3.8969
X3.24Y-4.0937
X3.24Y-4.2906
X3.24Y-4.4874
X3.24Y-4.8
X3.24Y-4.9969
X3.24Y-5.1937
X3.24Y-5.3906
X3.24Y-5.5874
X3.24Y-5.89
X3.24Y-6.0869
X3.241Y-2.8035
X3.241Y-3.0004
X3.241Y-3.1972
X3.241Y-3.3941
T0
M30
