%TF.GenerationSoftware,KiCad,Pcbnew,5.1.6-c6e7f7d~87~ubuntu18.04.1*%
%TF.CreationDate,2020-11-18T13:25:47-05:00*%
%TF.ProjectId,remote,72656d6f-7465-42e6-9b69-6361645f7063,rev?*%
%TF.SameCoordinates,Original*%
%TF.FileFunction,Soldermask,Top*%
%TF.FilePolarity,Negative*%
%FSLAX46Y46*%
G04 Gerber Fmt 4.6, Leading zero omitted, Abs format (unit mm)*
G04 Created by KiCad (PCBNEW 5.1.6-c6e7f7d~87~ubuntu18.04.1) date 2020-11-18 13:25:47*
%MOMM*%
%LPD*%
G01*
G04 APERTURE LIST*
%ADD10C,2.700000*%
%ADD11R,2.700000X2.700000*%
%ADD12C,1.700000*%
%ADD13O,1.700000X1.700000*%
%ADD14O,1.800000X1.800000*%
%ADD15R,1.800000X1.800000*%
%ADD16C,1.800000*%
%ADD17C,2.800000*%
G04 APERTURE END LIST*
D10*
%TO.C,J8*%
X76708000Y-77136000D03*
D11*
X76708000Y-72136000D03*
%TD*%
D12*
%TO.C,RS1*%
X96012000Y-104394000D03*
D13*
X96012000Y-94234000D03*
%TD*%
D14*
%TO.C,J2*%
X119888000Y-85598000D03*
X117348000Y-85598000D03*
X114808000Y-85598000D03*
X112268000Y-85598000D03*
X109728000Y-85598000D03*
X107188000Y-85598000D03*
X104648000Y-85598000D03*
X102108000Y-85598000D03*
X99568000Y-85598000D03*
X97028000Y-85598000D03*
X94488000Y-85598000D03*
X91948000Y-85598000D03*
X89408000Y-85598000D03*
X86868000Y-85598000D03*
X84328000Y-85598000D03*
X81788000Y-85598000D03*
X79248000Y-85598000D03*
D15*
X76708000Y-85598000D03*
%TD*%
D14*
%TO.C,J1*%
X119888000Y-110998000D03*
X117348000Y-110998000D03*
X114808000Y-110998000D03*
X112268000Y-110998000D03*
X109728000Y-110998000D03*
X107188000Y-110998000D03*
X104648000Y-110998000D03*
X102108000Y-110998000D03*
X99568000Y-110998000D03*
X97028000Y-110998000D03*
X94488000Y-110998000D03*
X91948000Y-110998000D03*
X89408000Y-110998000D03*
X86868000Y-110998000D03*
X84328000Y-110998000D03*
X81788000Y-110998000D03*
X79248000Y-110998000D03*
D15*
X76708000Y-110998000D03*
%TD*%
D12*
%TO.C,RS3*%
X103886000Y-104394000D03*
D13*
X103886000Y-94234000D03*
%TD*%
D14*
%TO.C,J5*%
X84836000Y-75692000D03*
D15*
X84836000Y-73152000D03*
%TD*%
D16*
%TO.C,SW0*%
X81970000Y-119484000D03*
X81970000Y-125984000D03*
X77470000Y-119484000D03*
X77470000Y-125984000D03*
%TD*%
%TO.C,SW1*%
X94416000Y-119484000D03*
X94416000Y-125984000D03*
X89916000Y-119484000D03*
X89916000Y-125984000D03*
%TD*%
%TO.C,SW3*%
X119308000Y-119484000D03*
X119308000Y-125984000D03*
X114808000Y-119484000D03*
X114808000Y-125984000D03*
%TD*%
%TO.C,SW2*%
X106862000Y-119484000D03*
X106862000Y-125984000D03*
X102362000Y-119484000D03*
X102362000Y-125984000D03*
%TD*%
D12*
%TO.C,RS0*%
X92202000Y-104394000D03*
D13*
X92202000Y-94234000D03*
%TD*%
D12*
%TO.C,RS2*%
X100076000Y-104394000D03*
D13*
X100076000Y-94234000D03*
%TD*%
D14*
%TO.C,J11*%
X151638000Y-84074000D03*
X149098000Y-84074000D03*
X146558000Y-84074000D03*
X144018000Y-84074000D03*
X141478000Y-84074000D03*
X138938000Y-84074000D03*
X136398000Y-84074000D03*
D15*
X133858000Y-84074000D03*
%TD*%
D14*
%TO.C,J9*%
X133858000Y-109220000D03*
X133858000Y-111760000D03*
X133858000Y-114300000D03*
X133858000Y-116840000D03*
X133858000Y-119380000D03*
X133858000Y-121920000D03*
D15*
X133858000Y-124460000D03*
%TD*%
D17*
%TO.C,H4*%
X152654000Y-133350000D03*
%TD*%
%TO.C,H3*%
X72644000Y-133604000D03*
%TD*%
%TO.C,H2*%
X152654000Y-63246000D03*
%TD*%
%TO.C,H1*%
X72644000Y-63246000D03*
%TD*%
D12*
%TO.C,R3*%
X138176000Y-101346000D03*
D13*
X148336000Y-101346000D03*
%TD*%
D12*
%TO.C,R2*%
X138176000Y-104648000D03*
D13*
X148336000Y-104648000D03*
%TD*%
M02*
