%TF.GenerationSoftware,KiCad,Pcbnew,5.1.6-c6e7f7d~87~ubuntu18.04.1*%
%TF.CreationDate,2020-11-17T20:25:25-05:00*%
%TF.ProjectId,remote,72656d6f-7465-42e6-9b69-6361645f7063,rev?*%
%TF.SameCoordinates,Original*%
%TF.FileFunction,Copper,L2,Bot*%
%TF.FilePolarity,Positive*%
%FSLAX46Y46*%
G04 Gerber Fmt 4.6, Leading zero omitted, Abs format (unit mm)*
G04 Created by KiCad (PCBNEW 5.1.6-c6e7f7d~87~ubuntu18.04.1) date 2020-11-17 20:25:25*
%MOMM*%
%LPD*%
G01*
G04 APERTURE LIST*
%TA.AperFunction,ComponentPad*%
%ADD10O,1.600000X1.600000*%
%TD*%
%TA.AperFunction,ComponentPad*%
%ADD11C,1.600000*%
%TD*%
%TA.AperFunction,ComponentPad*%
%ADD12O,1.700000X1.700000*%
%TD*%
%TA.AperFunction,ComponentPad*%
%ADD13R,1.700000X1.700000*%
%TD*%
%TA.AperFunction,ComponentPad*%
%ADD14C,1.700000*%
%TD*%
%TA.AperFunction,ComponentPad*%
%ADD15C,2.600000*%
%TD*%
%TA.AperFunction,ComponentPad*%
%ADD16R,2.600000X2.600000*%
%TD*%
%TA.AperFunction,ViaPad*%
%ADD17C,0.800000*%
%TD*%
%TA.AperFunction,Conductor*%
%ADD18C,0.304800*%
%TD*%
%TA.AperFunction,Conductor*%
%ADD19C,0.508000*%
%TD*%
%TA.AperFunction,Conductor*%
%ADD20C,0.800000*%
%TD*%
G04 APERTURE END LIST*
D10*
%TO.P,RS3,2*%
%TO.N,A3*%
X138684000Y-118364000D03*
D11*
%TO.P,RS3,1*%
%TO.N,+3V3*%
X138684000Y-128524000D03*
%TD*%
D12*
%TO.P,J5,2*%
%TO.N,VBAT*%
X90678000Y-153162000D03*
D13*
%TO.P,J5,1*%
%TO.N,GND*%
X90678000Y-150622000D03*
%TD*%
D14*
%TO.P,SW0,1*%
%TO.N,A0*%
X128016000Y-146304000D03*
%TO.P,SW0,2*%
X128016000Y-139804000D03*
%TO.P,SW0,3*%
%TO.N,GND*%
X132516000Y-146304000D03*
%TO.P,SW0,4*%
X132516000Y-139804000D03*
%TD*%
%TO.P,SW1,1*%
%TO.N,A1*%
X138176000Y-146304000D03*
%TO.P,SW1,2*%
X138176000Y-139804000D03*
%TO.P,SW1,3*%
%TO.N,GND*%
X142676000Y-146304000D03*
%TO.P,SW1,4*%
X142676000Y-139804000D03*
%TD*%
%TO.P,SW3,1*%
%TO.N,A3*%
X128016000Y-159258000D03*
%TO.P,SW3,2*%
X128016000Y-152758000D03*
%TO.P,SW3,3*%
%TO.N,GND*%
X132516000Y-159258000D03*
%TO.P,SW3,4*%
X132516000Y-152758000D03*
%TD*%
%TO.P,SW2,1*%
%TO.N,A2*%
X148336000Y-146304000D03*
%TO.P,SW2,2*%
X148336000Y-139804000D03*
%TO.P,SW2,3*%
%TO.N,GND*%
X152836000Y-146304000D03*
%TO.P,SW2,4*%
X152836000Y-139804000D03*
%TD*%
%TO.P,SW5,1*%
%TO.N,A5*%
X148336000Y-159258000D03*
%TO.P,SW5,2*%
X148336000Y-152758000D03*
%TO.P,SW5,3*%
%TO.N,GND*%
X152836000Y-159258000D03*
%TO.P,SW5,4*%
X152836000Y-152758000D03*
%TD*%
%TO.P,SW4,1*%
%TO.N,A4*%
X138176000Y-159258000D03*
%TO.P,SW4,2*%
X138176000Y-152758000D03*
%TO.P,SW4,3*%
%TO.N,GND*%
X142676000Y-159258000D03*
%TO.P,SW4,4*%
X142676000Y-152758000D03*
%TD*%
D10*
%TO.P,RS0,2*%
%TO.N,A0*%
X150114000Y-118364000D03*
D11*
%TO.P,RS0,1*%
%TO.N,+3V3*%
X150114000Y-128524000D03*
%TD*%
D10*
%TO.P,RS1,2*%
%TO.N,A1*%
X146304000Y-118364000D03*
D11*
%TO.P,RS1,1*%
%TO.N,+3V3*%
X146304000Y-128524000D03*
%TD*%
D10*
%TO.P,RS2,2*%
%TO.N,A2*%
X142494000Y-118364000D03*
D11*
%TO.P,RS2,1*%
%TO.N,+3V3*%
X142494000Y-128524000D03*
%TD*%
D10*
%TO.P,RS5,2*%
%TO.N,A5*%
X131064000Y-118364000D03*
D11*
%TO.P,RS5,1*%
%TO.N,+3V3*%
X131064000Y-128524000D03*
%TD*%
D10*
%TO.P,RS4,2*%
%TO.N,A4*%
X134874000Y-118364000D03*
D11*
%TO.P,RS4,1*%
%TO.N,+3V3*%
X134874000Y-128524000D03*
%TD*%
D15*
%TO.P,J3,5*%
%TO.N,VBAT*%
X82296000Y-141920000D03*
%TO.P,J3,4*%
%TO.N,GND*%
X82296000Y-136920000D03*
%TO.P,J3,3*%
%TO.N,+3V3*%
X82296000Y-131920000D03*
%TO.P,J3,2*%
%TO.N,RX0*%
X82296000Y-126920000D03*
D16*
%TO.P,J3,1*%
%TO.N,TX1*%
X82296000Y-121920000D03*
%TD*%
D15*
%TO.P,J4,4*%
%TO.N,GND*%
X82321000Y-86209000D03*
%TO.P,J4,3*%
%TO.N,+3V3*%
X82321000Y-81209000D03*
%TO.P,J4,2*%
%TO.N,SCL*%
X82321000Y-76209000D03*
D16*
%TO.P,J4,1*%
%TO.N,SDA*%
X82321000Y-71209000D03*
%TD*%
D15*
%TO.P,J1,5*%
%TO.N,VBAT*%
X82296000Y-113980000D03*
%TO.P,J1,4*%
%TO.N,GND*%
X82296000Y-108980000D03*
%TO.P,J1,3*%
%TO.N,+3V3*%
X82296000Y-103980000D03*
%TO.P,J1,2*%
%TO.N,D11*%
X82296000Y-98980000D03*
D16*
%TO.P,J1,1*%
%TO.N,D10*%
X82296000Y-93980000D03*
%TD*%
D12*
%TO.P,J12,5*%
%TO.N,VBAT*%
X90424000Y-135890000D03*
%TO.P,J12,4*%
%TO.N,GND*%
X90424000Y-133350000D03*
%TO.P,J12,3*%
%TO.N,+3V3*%
X90424000Y-130810000D03*
%TO.P,J12,2*%
%TO.N,RX0*%
X90424000Y-128270000D03*
D13*
%TO.P,J12,1*%
%TO.N,TX1*%
X90424000Y-125730000D03*
%TD*%
D12*
%TO.P,J11,8*%
%TO.N,N/C*%
X120396000Y-85090000D03*
%TO.P,J11,7*%
X117856000Y-85090000D03*
%TO.P,J11,6*%
%TO.N,SDA*%
X115316000Y-85090000D03*
%TO.P,J11,5*%
%TO.N,N/C*%
X112776000Y-85090000D03*
%TO.P,J11,4*%
%TO.N,SCL*%
X110236000Y-85090000D03*
%TO.P,J11,3*%
%TO.N,GND*%
X107696000Y-85090000D03*
%TO.P,J11,2*%
%TO.N,N/C*%
X105156000Y-85090000D03*
D13*
%TO.P,J11,1*%
%TO.N,+3V3*%
X102616000Y-85090000D03*
%TD*%
D12*
%TO.P,J9,7*%
%TO.N,N/C*%
X131826000Y-87122000D03*
%TO.P,J9,6*%
X131826000Y-89662000D03*
%TO.P,J9,5*%
X131826000Y-92202000D03*
%TO.P,J9,4*%
%TO.N,SDA*%
X131826000Y-94742000D03*
%TO.P,J9,3*%
%TO.N,SCL*%
X131826000Y-97282000D03*
%TO.P,J9,2*%
%TO.N,GND*%
X131826000Y-99822000D03*
D13*
%TO.P,J9,1*%
%TO.N,+3V3*%
X131826000Y-102362000D03*
%TD*%
D12*
%TO.P,J2,5*%
%TO.N,VBAT*%
X90424000Y-108712000D03*
%TO.P,J2,4*%
%TO.N,GND*%
X90424000Y-106172000D03*
%TO.P,J2,3*%
%TO.N,+3V3*%
X90424000Y-103632000D03*
%TO.P,J2,2*%
%TO.N,D11*%
X90424000Y-101092000D03*
D13*
%TO.P,J2,1*%
%TO.N,D10*%
X90424000Y-98552000D03*
%TD*%
D12*
%TO.P,J10,4*%
%TO.N,SDA*%
X90350000Y-75347000D03*
%TO.P,J10,3*%
%TO.N,SCL*%
X90350000Y-77887000D03*
%TO.P,J10,2*%
%TO.N,+3V3*%
X90350000Y-80427000D03*
D13*
%TO.P,J10,1*%
%TO.N,GND*%
X90350000Y-82967000D03*
%TD*%
D11*
%TO.P,R3,1*%
%TO.N,+3V3*%
X106172000Y-72644000D03*
D10*
%TO.P,R3,2*%
%TO.N,SDA*%
X116332000Y-72644000D03*
%TD*%
D11*
%TO.P,R2,1*%
%TO.N,+3V3*%
X106172000Y-75946000D03*
D10*
%TO.P,R2,2*%
%TO.N,SCL*%
X116332000Y-75946000D03*
%TD*%
D15*
%TO.P,J8,2*%
%TO.N,VBAT*%
X82296000Y-154606000D03*
D16*
%TO.P,J8,1*%
%TO.N,GND*%
X82296000Y-149606000D03*
%TD*%
D13*
%TO.P,J7,1*%
%TO.N,N/C*%
X121506000Y-133290000D03*
D12*
%TO.P,J7,2*%
%TO.N,+3V3*%
X121506000Y-130750000D03*
%TO.P,J7,3*%
%TO.N,N/C*%
X121506000Y-128210000D03*
%TO.P,J7,4*%
%TO.N,GND*%
X121506000Y-125670000D03*
%TO.P,J7,5*%
%TO.N,A0*%
X121506000Y-123130000D03*
%TO.P,J7,6*%
%TO.N,A1*%
X121506000Y-120590000D03*
%TO.P,J7,7*%
%TO.N,A2*%
X121506000Y-118050000D03*
%TO.P,J7,8*%
%TO.N,A3*%
X121506000Y-115510000D03*
%TO.P,J7,9*%
%TO.N,A4*%
X121506000Y-112970000D03*
%TO.P,J7,10*%
%TO.N,A5*%
X121506000Y-110430000D03*
%TO.P,J7,11*%
%TO.N,N/C*%
X121506000Y-107890000D03*
%TO.P,J7,12*%
X121506000Y-105350000D03*
%TO.P,J7,13*%
X121506000Y-102810000D03*
%TO.P,J7,14*%
%TO.N,RX0*%
X121506000Y-100270000D03*
%TO.P,J7,15*%
%TO.N,TX1*%
X121506000Y-97730000D03*
%TO.P,J7,16*%
%TO.N,N/C*%
X121506000Y-95190000D03*
%TD*%
%TO.P,J6,12*%
%TO.N,VBAT*%
X101106000Y-123130000D03*
%TO.P,J6,11*%
%TO.N,N/C*%
X101106000Y-120590000D03*
%TO.P,J6,10*%
X101106000Y-118050000D03*
%TO.P,J6,9*%
X101106000Y-115510000D03*
%TO.P,J6,8*%
X101106000Y-112970000D03*
%TO.P,J6,7*%
%TO.N,D11*%
X101106000Y-110430000D03*
%TO.P,J6,6*%
%TO.N,D10*%
X101106000Y-107890000D03*
%TO.P,J6,5*%
%TO.N,N/C*%
X101106000Y-105350000D03*
%TO.P,J6,4*%
X101106000Y-102810000D03*
%TO.P,J6,3*%
X101106000Y-100270000D03*
%TO.P,J6,2*%
%TO.N,SCL*%
X101106000Y-97730000D03*
D13*
%TO.P,J6,1*%
%TO.N,SDA*%
X101106000Y-95190000D03*
%TD*%
D12*
%TO.P,J13,4*%
%TO.N,SDA*%
X145034000Y-108458000D03*
%TO.P,J13,3*%
%TO.N,SCL*%
X142494000Y-108458000D03*
%TO.P,J13,2*%
%TO.N,+3V3*%
X139954000Y-108458000D03*
D13*
%TO.P,J13,1*%
%TO.N,GND*%
X137414000Y-108458000D03*
%TD*%
D17*
%TO.N,+3V3*%
X78486000Y-117094000D03*
X93980000Y-96774000D03*
X103632000Y-130556000D03*
%TO.N,SCL*%
X117602000Y-91440000D03*
%TO.N,A0*%
X128016000Y-126492000D03*
%TO.N,A1*%
X136652000Y-125222000D03*
%TO.N,A2*%
X140716000Y-123444000D03*
%TO.N,A3*%
X127508000Y-120650000D03*
%TO.N,A4*%
X132588000Y-120650000D03*
%TD*%
D18*
%TO.N,+3V3*%
X102616000Y-85090000D02*
X102616000Y-85344000D01*
D19*
X106172000Y-75946000D02*
X106172000Y-72644000D01*
D20*
X78486000Y-107790000D02*
X82296000Y-103980000D01*
X78486000Y-117094000D02*
X78486000Y-107790000D01*
X82644000Y-103632000D02*
X82296000Y-103980000D01*
X90424000Y-103632000D02*
X82644000Y-103632000D01*
X102616000Y-85090000D02*
X98806000Y-85090000D01*
X98806000Y-85090000D02*
X93980000Y-89916000D01*
X93980000Y-89916000D02*
X93980000Y-96774000D01*
X82321000Y-81209000D02*
X87193000Y-81209000D01*
X87975000Y-80427000D02*
X90350000Y-80427000D01*
X87193000Y-81209000D02*
X87975000Y-80427000D01*
X94143000Y-80427000D02*
X98806000Y-85090000D01*
X90350000Y-80427000D02*
X94143000Y-80427000D01*
X102616000Y-79502000D02*
X106172000Y-75946000D01*
X102616000Y-85090000D02*
X102616000Y-79502000D01*
X121506000Y-130750000D02*
X103826000Y-130750000D01*
X103826000Y-130750000D02*
X103632000Y-130556000D01*
X139954000Y-108458000D02*
X139954000Y-106934000D01*
X135382000Y-102362000D02*
X131826000Y-102362000D01*
X139954000Y-106934000D02*
X135382000Y-102362000D01*
%TO.N,GND*%
X85104000Y-106172000D02*
X82296000Y-108980000D01*
X90424000Y-106172000D02*
X85104000Y-106172000D01*
X90424000Y-133350000D02*
X92964000Y-133350000D01*
X92964000Y-133350000D02*
X94234000Y-132080000D01*
X94234000Y-132080000D02*
X94234000Y-108966000D01*
X91440000Y-106172000D02*
X90424000Y-106172000D01*
X94234000Y-108966000D02*
X91440000Y-106172000D01*
X82296000Y-136920000D02*
X79742000Y-136920000D01*
X79742000Y-136920000D02*
X78994000Y-137668000D01*
X78994000Y-137668000D02*
X78994000Y-147828000D01*
X80772000Y-149606000D02*
X82296000Y-149606000D01*
X78994000Y-147828000D02*
X80772000Y-149606000D01*
X83312000Y-150622000D02*
X82296000Y-149606000D01*
X90678000Y-150622000D02*
X83312000Y-150622000D01*
X121506000Y-125670000D02*
X123250000Y-125670000D01*
X123250000Y-125670000D02*
X123952000Y-124968000D01*
X123952000Y-124968000D02*
X123952000Y-121158000D01*
X136652000Y-108458000D02*
X137414000Y-108458000D01*
X123952000Y-121158000D02*
X136652000Y-108458000D01*
X137414000Y-108458000D02*
X131826000Y-108458000D01*
X131826000Y-108458000D02*
X129286000Y-105918000D01*
X129286000Y-105918000D02*
X129286000Y-100584000D01*
X130048000Y-99822000D02*
X131826000Y-99822000D01*
X129286000Y-100584000D02*
X130048000Y-99822000D01*
D18*
%TO.N,SDA*%
X86459000Y-75347000D02*
X82321000Y-71209000D01*
X90350000Y-75347000D02*
X86459000Y-75347000D01*
X118364000Y-76200000D02*
X118364000Y-79756000D01*
X115316000Y-82804000D02*
X115316000Y-85090000D01*
X118364000Y-79756000D02*
X115316000Y-82804000D01*
X116332000Y-72644000D02*
X118364000Y-74676000D01*
X118364000Y-74676000D02*
X118364000Y-76200000D01*
X131826000Y-94742000D02*
X133096000Y-94742000D01*
X145034000Y-106680000D02*
X145034000Y-108458000D01*
X133096000Y-94742000D02*
X145034000Y-106680000D01*
%TO.N,SCL*%
X110236000Y-89154000D02*
X110236000Y-85090000D01*
X117602000Y-91440000D02*
X112522000Y-91440000D01*
X112522000Y-91440000D02*
X110236000Y-89154000D01*
X106232000Y-97730000D02*
X112522000Y-91440000D01*
X101106000Y-97730000D02*
X106232000Y-97730000D01*
X83999000Y-77887000D02*
X82321000Y-76209000D01*
X90350000Y-77887000D02*
X83999000Y-77887000D01*
X116332000Y-75946000D02*
X110236000Y-82042000D01*
X110236000Y-82042000D02*
X110236000Y-85090000D01*
X132520081Y-97282000D02*
X131826000Y-97282000D01*
X142494000Y-107255919D02*
X132520081Y-97282000D01*
X142494000Y-108458000D02*
X142494000Y-107255919D01*
D20*
%TO.N,VBAT*%
X84394000Y-141920000D02*
X90424000Y-135890000D01*
X82296000Y-141920000D02*
X84394000Y-141920000D01*
X91440000Y-136906000D02*
X90424000Y-135890000D01*
X82296000Y-113980000D02*
X84648000Y-113980000D01*
X89916000Y-108712000D02*
X90424000Y-108712000D01*
X84648000Y-113980000D02*
X89916000Y-108712000D01*
X99314000Y-136906000D02*
X101106000Y-135114000D01*
X91440000Y-136906000D02*
X99314000Y-136906000D01*
X101106000Y-123130000D02*
X101106000Y-135114000D01*
X83740000Y-153162000D02*
X82296000Y-154606000D01*
X90678000Y-153162000D02*
X83740000Y-153162000D01*
D18*
%TO.N,D11*%
X90424000Y-101092000D02*
X94996000Y-101092000D01*
X94996000Y-101092000D02*
X96520000Y-102616000D01*
X96520000Y-102616000D02*
X96520000Y-106680000D01*
X100270000Y-110430000D02*
X101106000Y-110430000D01*
X96520000Y-106680000D02*
X100270000Y-110430000D01*
X90424000Y-101092000D02*
X84408000Y-101092000D01*
X84408000Y-101092000D02*
X82296000Y-98980000D01*
%TO.N,D10*%
X101106000Y-107890000D02*
X99762000Y-107890000D01*
X99762000Y-107890000D02*
X97536000Y-105664000D01*
X97536000Y-105664000D02*
X97536000Y-101346000D01*
X94742000Y-98552000D02*
X90424000Y-98552000D01*
X97536000Y-101346000D02*
X94742000Y-98552000D01*
X90424000Y-98552000D02*
X86868000Y-98552000D01*
X86868000Y-98552000D02*
X82296000Y-93980000D01*
%TO.N,RX0*%
X83646000Y-128270000D02*
X82296000Y-126920000D01*
X90424000Y-128270000D02*
X83646000Y-128270000D01*
%TO.N,TX1*%
X86106000Y-125730000D02*
X82296000Y-121920000D01*
X90424000Y-125730000D02*
X86106000Y-125730000D01*
%TO.N,A0*%
X128016000Y-139804000D02*
X128016000Y-126492000D01*
X128016000Y-146304000D02*
X128016000Y-139804000D01*
%TO.N,A1*%
X138176000Y-139804000D02*
X138176000Y-132334000D01*
X136652000Y-130810000D02*
X136652000Y-125222000D01*
X138176000Y-132334000D02*
X136652000Y-130810000D01*
X138176000Y-139804000D02*
X138176000Y-146304000D01*
%TO.N,A2*%
X148336000Y-139804000D02*
X140716000Y-132184000D01*
X140716000Y-132184000D02*
X140716000Y-123444000D01*
X148336000Y-139804000D02*
X148336000Y-146304000D01*
%TO.N,A3*%
X128016000Y-152758000D02*
X125476000Y-150218000D01*
X125476000Y-122682000D02*
X127508000Y-120650000D01*
X125476000Y-150218000D02*
X125476000Y-122682000D01*
X128016000Y-159258000D02*
X128016000Y-152758000D01*
%TO.N,A4*%
X138176000Y-152758000D02*
X138176000Y-151384000D01*
X138176000Y-151384000D02*
X135636000Y-148844000D01*
X135636000Y-148844000D02*
X135636000Y-132842000D01*
X135636000Y-132842000D02*
X133096000Y-130302000D01*
X133096000Y-130302000D02*
X133096000Y-121158000D01*
X133096000Y-121158000D02*
X132588000Y-120650000D01*
X138176000Y-159258000D02*
X138176000Y-152758000D01*
%TO.N,A5*%
X148336000Y-152758000D02*
X148336000Y-151384000D01*
X148336000Y-151384000D02*
X150368000Y-149352000D01*
X131064000Y-118364000D02*
X132334000Y-118364000D01*
X132334000Y-118364000D02*
X135128000Y-121158000D01*
X135128000Y-121158000D02*
X143510000Y-121158000D01*
X143510000Y-121158000D02*
X148082000Y-125730000D01*
X148082000Y-125730000D02*
X148082000Y-136144000D01*
X150622000Y-138684000D02*
X150622000Y-149098000D01*
X148082000Y-136144000D02*
X150622000Y-138684000D01*
X150368000Y-149352000D02*
X150622000Y-149098000D01*
X148336000Y-152758000D02*
X148336000Y-159258000D01*
%TD*%
M02*
