%TF.GenerationSoftware,KiCad,Pcbnew,5.1.6-c6e7f7d~87~ubuntu18.04.1*%
%TF.CreationDate,2020-11-14T14:43:28-05:00*%
%TF.ProjectId,remote,72656d6f-7465-42e6-9b69-6361645f7063,rev?*%
%TF.SameCoordinates,Original*%
%TF.FileFunction,Copper,L1,Top*%
%TF.FilePolarity,Positive*%
%FSLAX46Y46*%
G04 Gerber Fmt 4.6, Leading zero omitted, Abs format (unit mm)*
G04 Created by KiCad (PCBNEW 5.1.6-c6e7f7d~87~ubuntu18.04.1) date 2020-11-14 14:43:28*
%MOMM*%
%LPD*%
G01*
G04 APERTURE LIST*
%TA.AperFunction,ComponentPad*%
%ADD10C,2.600000*%
%TD*%
%TA.AperFunction,ComponentPad*%
%ADD11R,2.600000X2.600000*%
%TD*%
%TA.AperFunction,ComponentPad*%
%ADD12O,1.700000X1.700000*%
%TD*%
%TA.AperFunction,ComponentPad*%
%ADD13R,1.700000X1.700000*%
%TD*%
%TA.AperFunction,ComponentPad*%
%ADD14C,1.600000*%
%TD*%
%TA.AperFunction,ComponentPad*%
%ADD15O,1.600000X1.600000*%
%TD*%
%TA.AperFunction,ViaPad*%
%ADD16C,0.800000*%
%TD*%
%TA.AperFunction,Conductor*%
%ADD17C,0.800000*%
%TD*%
%TA.AperFunction,Conductor*%
%ADD18C,0.304800*%
%TD*%
G04 APERTURE END LIST*
D10*
%TO.P,J3,5*%
%TO.N,VBAT*%
X82296000Y-141920000D03*
%TO.P,J3,4*%
%TO.N,GND*%
X82296000Y-136920000D03*
%TO.P,J3,3*%
%TO.N,+3V3*%
X82296000Y-131920000D03*
%TO.P,J3,2*%
%TO.N,RX0*%
X82296000Y-126920000D03*
D11*
%TO.P,J3,1*%
%TO.N,TX1*%
X82296000Y-121920000D03*
%TD*%
D10*
%TO.P,J4,4*%
%TO.N,GND*%
X82321000Y-86209000D03*
%TO.P,J4,3*%
%TO.N,+3V3*%
X82321000Y-81209000D03*
%TO.P,J4,2*%
%TO.N,SCL*%
X82321000Y-76209000D03*
D11*
%TO.P,J4,1*%
%TO.N,SDA*%
X82321000Y-71209000D03*
%TD*%
D10*
%TO.P,J1,5*%
%TO.N,VBAT*%
X82296000Y-113980000D03*
%TO.P,J1,4*%
%TO.N,GND*%
X82296000Y-108980000D03*
%TO.P,J1,3*%
%TO.N,+3V3*%
X82296000Y-103980000D03*
%TO.P,J1,2*%
%TO.N,D11*%
X82296000Y-98980000D03*
D11*
%TO.P,J1,1*%
%TO.N,D10*%
X82296000Y-93980000D03*
%TD*%
D12*
%TO.P,J12,5*%
%TO.N,VBAT*%
X90424000Y-135890000D03*
%TO.P,J12,4*%
%TO.N,GND*%
X90424000Y-133350000D03*
%TO.P,J12,3*%
%TO.N,+3V3*%
X90424000Y-130810000D03*
%TO.P,J12,2*%
%TO.N,RX0*%
X90424000Y-128270000D03*
D13*
%TO.P,J12,1*%
%TO.N,TX1*%
X90424000Y-125730000D03*
%TD*%
D12*
%TO.P,J11,8*%
%TO.N,N/C*%
X120396000Y-85090000D03*
%TO.P,J11,7*%
X117856000Y-85090000D03*
%TO.P,J11,6*%
%TO.N,SDA*%
X115316000Y-85090000D03*
%TO.P,J11,5*%
%TO.N,N/C*%
X112776000Y-85090000D03*
%TO.P,J11,4*%
%TO.N,SCL*%
X110236000Y-85090000D03*
%TO.P,J11,3*%
%TO.N,GND*%
X107696000Y-85090000D03*
%TO.P,J11,2*%
%TO.N,N/C*%
X105156000Y-85090000D03*
D13*
%TO.P,J11,1*%
%TO.N,+3V3*%
X102616000Y-85090000D03*
%TD*%
D12*
%TO.P,J9,7*%
%TO.N,N/C*%
X132588000Y-116840000D03*
%TO.P,J9,6*%
X132588000Y-119380000D03*
%TO.P,J9,5*%
X132588000Y-121920000D03*
%TO.P,J9,4*%
%TO.N,SDA*%
X132588000Y-124460000D03*
%TO.P,J9,3*%
%TO.N,SCL*%
X132588000Y-127000000D03*
%TO.P,J9,2*%
%TO.N,GND*%
X132588000Y-129540000D03*
D13*
%TO.P,J9,1*%
%TO.N,+3V3*%
X132588000Y-132080000D03*
%TD*%
D12*
%TO.P,J2,5*%
%TO.N,VBAT*%
X90424000Y-108712000D03*
%TO.P,J2,4*%
%TO.N,GND*%
X90424000Y-106172000D03*
%TO.P,J2,3*%
%TO.N,+3V3*%
X90424000Y-103632000D03*
%TO.P,J2,2*%
%TO.N,D11*%
X90424000Y-101092000D03*
D13*
%TO.P,J2,1*%
%TO.N,D10*%
X90424000Y-98552000D03*
%TD*%
D12*
%TO.P,J10,4*%
%TO.N,SDA*%
X90350000Y-75347000D03*
%TO.P,J10,3*%
%TO.N,SCL*%
X90350000Y-77887000D03*
%TO.P,J10,2*%
%TO.N,+3V3*%
X90350000Y-80427000D03*
D13*
%TO.P,J10,1*%
%TO.N,GND*%
X90350000Y-82967000D03*
%TD*%
D14*
%TO.P,R3,1*%
%TO.N,+3V3*%
X106172000Y-72644000D03*
D15*
%TO.P,R3,2*%
%TO.N,SDA*%
X116332000Y-72644000D03*
%TD*%
D14*
%TO.P,R2,1*%
%TO.N,+3V3*%
X106172000Y-75946000D03*
D15*
%TO.P,R2,2*%
%TO.N,SCL*%
X116332000Y-75946000D03*
%TD*%
D10*
%TO.P,J8,2*%
%TO.N,VBAT*%
X143869000Y-144780000D03*
D11*
%TO.P,J8,1*%
%TO.N,GND*%
X138869000Y-144780000D03*
%TD*%
D13*
%TO.P,J7,1*%
%TO.N,N/C*%
X121506000Y-133290000D03*
D12*
%TO.P,J7,2*%
%TO.N,+3V3*%
X121506000Y-130750000D03*
%TO.P,J7,3*%
%TO.N,N/C*%
X121506000Y-128210000D03*
%TO.P,J7,4*%
%TO.N,GND*%
X121506000Y-125670000D03*
%TO.P,J7,5*%
%TO.N,N/C*%
X121506000Y-123130000D03*
%TO.P,J7,6*%
X121506000Y-120590000D03*
%TO.P,J7,7*%
X121506000Y-118050000D03*
%TO.P,J7,8*%
X121506000Y-115510000D03*
%TO.P,J7,9*%
X121506000Y-112970000D03*
%TO.P,J7,10*%
X121506000Y-110430000D03*
%TO.P,J7,11*%
X121506000Y-107890000D03*
%TO.P,J7,12*%
X121506000Y-105350000D03*
%TO.P,J7,13*%
X121506000Y-102810000D03*
%TO.P,J7,14*%
%TO.N,RX0*%
X121506000Y-100270000D03*
%TO.P,J7,15*%
%TO.N,TX1*%
X121506000Y-97730000D03*
%TO.P,J7,16*%
%TO.N,N/C*%
X121506000Y-95190000D03*
%TD*%
%TO.P,J6,12*%
%TO.N,VBAT*%
X101106000Y-123130000D03*
%TO.P,J6,11*%
%TO.N,N/C*%
X101106000Y-120590000D03*
%TO.P,J6,10*%
X101106000Y-118050000D03*
%TO.P,J6,9*%
X101106000Y-115510000D03*
%TO.P,J6,8*%
X101106000Y-112970000D03*
%TO.P,J6,7*%
%TO.N,D11*%
X101106000Y-110430000D03*
%TO.P,J6,6*%
%TO.N,D10*%
X101106000Y-107890000D03*
%TO.P,J6,5*%
%TO.N,N/C*%
X101106000Y-105350000D03*
%TO.P,J6,4*%
X101106000Y-102810000D03*
%TO.P,J6,3*%
X101106000Y-100270000D03*
%TO.P,J6,2*%
%TO.N,SCL*%
X101106000Y-97730000D03*
D13*
%TO.P,J6,1*%
%TO.N,SDA*%
X101106000Y-95190000D03*
%TD*%
D12*
%TO.P,J5,2*%
%TO.N,VBAT*%
X132080000Y-144780000D03*
D13*
%TO.P,J5,1*%
%TO.N,GND*%
X129540000Y-144780000D03*
%TD*%
D12*
%TO.P,J13,4*%
%TO.N,SDA*%
X144526000Y-71882000D03*
%TO.P,J13,3*%
%TO.N,SCL*%
X141986000Y-71882000D03*
%TO.P,J13,2*%
%TO.N,+3V3*%
X139446000Y-71882000D03*
D13*
%TO.P,J13,1*%
%TO.N,GND*%
X136906000Y-71882000D03*
%TD*%
D16*
%TO.N,+3V3*%
X78486000Y-117094000D03*
X93980000Y-96774000D03*
X103632000Y-130556000D03*
%TO.N,SCL*%
X117602000Y-91440000D03*
X120904000Y-75946000D03*
%TD*%
D17*
%TO.N,+3V3*%
X132588000Y-132080000D02*
X126492000Y-132080000D01*
X125162000Y-130750000D02*
X121506000Y-130750000D01*
X126492000Y-132080000D02*
X125162000Y-130750000D01*
X82296000Y-131920000D02*
X80104000Y-131920000D01*
X80104000Y-131920000D02*
X78486000Y-130302000D01*
X78486000Y-130302000D02*
X78486000Y-117094000D01*
X93980000Y-96774000D02*
X93980000Y-101854000D01*
X92202000Y-103632000D02*
X90424000Y-103632000D01*
X93980000Y-101854000D02*
X92202000Y-103632000D01*
X90678000Y-130556000D02*
X90424000Y-130810000D01*
X103632000Y-130556000D02*
X90678000Y-130556000D01*
X83406000Y-130810000D02*
X82296000Y-131920000D01*
X90424000Y-130810000D02*
X83406000Y-130810000D01*
%TO.N,GND*%
X82296000Y-136920000D02*
X84822000Y-136920000D01*
X88392000Y-133350000D02*
X90424000Y-133350000D01*
X84822000Y-136920000D02*
X88392000Y-133350000D01*
X90424000Y-133350000D02*
X110236000Y-133350000D01*
X117916000Y-125670000D02*
X121506000Y-125670000D01*
X110236000Y-133350000D02*
X117916000Y-125670000D01*
X121506000Y-125670000D02*
X124654000Y-125670000D01*
X128524000Y-129540000D02*
X132588000Y-129540000D01*
X124654000Y-125670000D02*
X128524000Y-129540000D01*
X132588000Y-129540000D02*
X135382000Y-129540000D01*
X138869000Y-133027000D02*
X138869000Y-144780000D01*
X135382000Y-129540000D02*
X138869000Y-133027000D01*
X138869000Y-144780000D02*
X138176000Y-144780000D01*
X138176000Y-144780000D02*
X134620000Y-141224000D01*
X134620000Y-141224000D02*
X130556000Y-141224000D01*
X129540000Y-142240000D02*
X129540000Y-144780000D01*
X130556000Y-141224000D02*
X129540000Y-142240000D01*
X107696000Y-85090000D02*
X107696000Y-87122000D01*
X107696000Y-87122000D02*
X106934000Y-87884000D01*
X83996000Y-87884000D02*
X82321000Y-86209000D01*
X106934000Y-87884000D02*
X83996000Y-87884000D01*
X82296000Y-108980000D02*
X77978000Y-104662000D01*
X77978000Y-90552000D02*
X82321000Y-86209000D01*
X77978000Y-104662000D02*
X77978000Y-90552000D01*
X82321000Y-86209000D02*
X85472000Y-83058000D01*
X90259000Y-83058000D02*
X90350000Y-82967000D01*
X85472000Y-83058000D02*
X90259000Y-83058000D01*
X90350000Y-82967000D02*
X95595000Y-82967000D01*
X95595000Y-82967000D02*
X97790000Y-80772000D01*
X97790000Y-80772000D02*
X104902000Y-80772000D01*
X107696000Y-83566000D02*
X107696000Y-85090000D01*
X104902000Y-80772000D02*
X107696000Y-83566000D01*
X107696000Y-85090000D02*
X107696000Y-82804000D01*
X107696000Y-82804000D02*
X108712000Y-81788000D01*
X108712000Y-81788000D02*
X131826000Y-81788000D01*
X136906000Y-76708000D02*
X136906000Y-71882000D01*
X131826000Y-81788000D02*
X136906000Y-76708000D01*
D18*
%TO.N,SDA*%
X132588000Y-124460000D02*
X131064000Y-124460000D01*
X131064000Y-124460000D02*
X128778000Y-122174000D01*
X128778000Y-122174000D02*
X128778000Y-96266000D01*
X128778000Y-96266000D02*
X121412000Y-88900000D01*
X115316000Y-86614000D02*
X115316000Y-85090000D01*
X117602000Y-88900000D02*
X115316000Y-86614000D01*
X111566000Y-95190000D02*
X117856000Y-88900000D01*
X101106000Y-95190000D02*
X111566000Y-95190000D01*
X121412000Y-88900000D02*
X117856000Y-88900000D01*
X117856000Y-88900000D02*
X117602000Y-88900000D01*
X116332000Y-72644000D02*
X110998000Y-72644000D01*
X110998000Y-72644000D02*
X108712000Y-70358000D01*
X95339000Y-70358000D02*
X90350000Y-75347000D01*
X108712000Y-70358000D02*
X95339000Y-70358000D01*
%TO.N,SCL*%
X132588000Y-127000000D02*
X130556000Y-127000000D01*
X130556000Y-127000000D02*
X126746000Y-123190000D01*
X126746000Y-123190000D02*
X126746000Y-97028000D01*
X126746000Y-97028000D02*
X121158000Y-91440000D01*
X121158000Y-91440000D02*
X117602000Y-91440000D01*
X120904000Y-75946000D02*
X116332000Y-75946000D01*
X116332000Y-75946000D02*
X110490000Y-75946000D01*
X110490000Y-75946000D02*
X108712000Y-74168000D01*
X94069000Y-74168000D02*
X90350000Y-77887000D01*
X108712000Y-74168000D02*
X94069000Y-74168000D01*
D17*
%TO.N,VBAT*%
X143869000Y-144780000D02*
X140313000Y-148336000D01*
X135636000Y-148336000D02*
X132080000Y-144780000D01*
X140313000Y-148336000D02*
X135636000Y-148336000D01*
X101106000Y-123130000D02*
X98746000Y-123130000D01*
X90424000Y-114808000D02*
X90424000Y-108712000D01*
X98746000Y-123130000D02*
X90424000Y-114808000D01*
D18*
%TO.N,RX0*%
X90424000Y-128270000D02*
X105664000Y-128270000D01*
X105664000Y-128270000D02*
X115824000Y-118110000D01*
X115824000Y-118110000D02*
X115824000Y-103124000D01*
X118678000Y-100270000D02*
X121506000Y-100270000D01*
X115824000Y-103124000D02*
X118678000Y-100270000D01*
%TO.N,TX1*%
X121506000Y-97730000D02*
X119440000Y-97730000D01*
X119440000Y-97730000D02*
X114554000Y-102616000D01*
X114554000Y-102616000D02*
X114554000Y-117602000D01*
X114554000Y-117602000D02*
X105410000Y-126746000D01*
X91440000Y-126746000D02*
X90424000Y-125730000D01*
X105410000Y-126746000D02*
X91440000Y-126746000D01*
%TD*%
M02*
