%TF.GenerationSoftware,KiCad,Pcbnew,5.1.6-c6e7f7d~87~ubuntu18.04.1*%
%TF.CreationDate,2020-11-13T10:53:28-05:00*%
%TF.ProjectId,remote,72656d6f-7465-42e6-9b69-6361645f7063,rev?*%
%TF.SameCoordinates,Original*%
%TF.FileFunction,Legend,Top*%
%TF.FilePolarity,Positive*%
%FSLAX46Y46*%
G04 Gerber Fmt 4.6, Leading zero omitted, Abs format (unit mm)*
G04 Created by KiCad (PCBNEW 5.1.6-c6e7f7d~87~ubuntu18.04.1) date 2020-11-13 10:53:28*
%MOMM*%
%LPD*%
G01*
G04 APERTURE LIST*
%ADD10C,0.150000*%
%ADD11C,0.010000*%
%ADD12C,0.120000*%
G04 APERTURE END LIST*
D10*
X83487333Y-152598380D02*
X83487333Y-151598380D01*
X83915904Y-152598380D02*
X83915904Y-152074571D01*
X83868285Y-151979333D01*
X83773047Y-151931714D01*
X83630190Y-151931714D01*
X83534952Y-151979333D01*
X83487333Y-152026952D01*
X84249238Y-151931714D02*
X84630190Y-151931714D01*
X84392095Y-151598380D02*
X84392095Y-152455523D01*
X84439714Y-152550761D01*
X84534952Y-152598380D01*
X84630190Y-152598380D01*
X84820666Y-151931714D02*
X85201619Y-151931714D01*
X84963523Y-151598380D02*
X84963523Y-152455523D01*
X85011142Y-152550761D01*
X85106380Y-152598380D01*
X85201619Y-152598380D01*
X85534952Y-151931714D02*
X85534952Y-152931714D01*
X85534952Y-151979333D02*
X85630190Y-151931714D01*
X85820666Y-151931714D01*
X85915904Y-151979333D01*
X85963523Y-152026952D01*
X86011142Y-152122190D01*
X86011142Y-152407904D01*
X85963523Y-152503142D01*
X85915904Y-152550761D01*
X85820666Y-152598380D01*
X85630190Y-152598380D01*
X85534952Y-152550761D01*
X86439714Y-152503142D02*
X86487333Y-152550761D01*
X86439714Y-152598380D01*
X86392095Y-152550761D01*
X86439714Y-152503142D01*
X86439714Y-152598380D01*
X86439714Y-151979333D02*
X86487333Y-152026952D01*
X86439714Y-152074571D01*
X86392095Y-152026952D01*
X86439714Y-151979333D01*
X86439714Y-152074571D01*
X87630190Y-151550761D02*
X86773047Y-152836476D01*
X88677809Y-151550761D02*
X87820666Y-152836476D01*
X89011142Y-151931714D02*
X89011142Y-152931714D01*
X89011142Y-151979333D02*
X89106380Y-151931714D01*
X89296857Y-151931714D01*
X89392095Y-151979333D01*
X89439714Y-152026952D01*
X89487333Y-152122190D01*
X89487333Y-152407904D01*
X89439714Y-152503142D01*
X89392095Y-152550761D01*
X89296857Y-152598380D01*
X89106380Y-152598380D01*
X89011142Y-152550761D01*
X89820666Y-151931714D02*
X90058761Y-152598380D01*
X90296857Y-151931714D01*
X90820666Y-152598380D02*
X90725428Y-152550761D01*
X90677809Y-152503142D01*
X90630190Y-152407904D01*
X90630190Y-152122190D01*
X90677809Y-152026952D01*
X90725428Y-151979333D01*
X90820666Y-151931714D01*
X90963523Y-151931714D01*
X91058761Y-151979333D01*
X91106380Y-152026952D01*
X91154000Y-152122190D01*
X91154000Y-152407904D01*
X91106380Y-152503142D01*
X91058761Y-152550761D01*
X90963523Y-152598380D01*
X90820666Y-152598380D01*
X91534952Y-152550761D02*
X91630190Y-152598380D01*
X91820666Y-152598380D01*
X91915904Y-152550761D01*
X91963523Y-152455523D01*
X91963523Y-152407904D01*
X91915904Y-152312666D01*
X91820666Y-152265047D01*
X91677809Y-152265047D01*
X91582571Y-152217428D01*
X91534952Y-152122190D01*
X91534952Y-152074571D01*
X91582571Y-151979333D01*
X91677809Y-151931714D01*
X91820666Y-151931714D01*
X91915904Y-151979333D01*
X92392095Y-152503142D02*
X92439714Y-152550761D01*
X92392095Y-152598380D01*
X92344476Y-152550761D01*
X92392095Y-152503142D01*
X92392095Y-152598380D01*
X93011142Y-152598380D02*
X92915904Y-152550761D01*
X92868285Y-152503142D01*
X92820666Y-152407904D01*
X92820666Y-152122190D01*
X92868285Y-152026952D01*
X92915904Y-151979333D01*
X93011142Y-151931714D01*
X93154000Y-151931714D01*
X93249238Y-151979333D01*
X93296857Y-152026952D01*
X93344476Y-152122190D01*
X93344476Y-152407904D01*
X93296857Y-152503142D01*
X93249238Y-152550761D01*
X93154000Y-152598380D01*
X93011142Y-152598380D01*
X93773047Y-152598380D02*
X93773047Y-151931714D01*
X93773047Y-152122190D02*
X93820666Y-152026952D01*
X93868285Y-151979333D01*
X93963523Y-151931714D01*
X94058761Y-151931714D01*
X94820666Y-151931714D02*
X94820666Y-152741238D01*
X94773047Y-152836476D01*
X94725428Y-152884095D01*
X94630190Y-152931714D01*
X94487333Y-152931714D01*
X94392095Y-152884095D01*
X94820666Y-152550761D02*
X94725428Y-152598380D01*
X94534952Y-152598380D01*
X94439714Y-152550761D01*
X94392095Y-152503142D01*
X94344476Y-152407904D01*
X94344476Y-152122190D01*
X94392095Y-152026952D01*
X94439714Y-151979333D01*
X94534952Y-151931714D01*
X94725428Y-151931714D01*
X94820666Y-151979333D01*
X158158571Y-74100285D02*
X157158571Y-74100285D01*
X157444285Y-74100285D02*
X157301428Y-74028857D01*
X157230000Y-73957428D01*
X157158571Y-73814571D01*
X157158571Y-73671714D01*
X158087142Y-72600285D02*
X158158571Y-72743142D01*
X158158571Y-73028857D01*
X158087142Y-73171714D01*
X157944285Y-73243142D01*
X157372857Y-73243142D01*
X157230000Y-73171714D01*
X157158571Y-73028857D01*
X157158571Y-72743142D01*
X157230000Y-72600285D01*
X157372857Y-72528857D01*
X157515714Y-72528857D01*
X157658571Y-73243142D01*
X157158571Y-72028857D02*
X158158571Y-71671714D01*
X157158571Y-71314571D01*
X157730000Y-70814571D02*
X157730000Y-70100285D01*
X158158571Y-70957428D02*
X156658571Y-70457428D01*
X158158571Y-69957428D01*
X127508095Y-129294000D02*
X127412857Y-129246380D01*
X127270000Y-129246380D01*
X127127142Y-129294000D01*
X127031904Y-129389238D01*
X126984285Y-129484476D01*
X126936666Y-129674952D01*
X126936666Y-129817809D01*
X126984285Y-130008285D01*
X127031904Y-130103523D01*
X127127142Y-130198761D01*
X127270000Y-130246380D01*
X127365238Y-130246380D01*
X127508095Y-130198761D01*
X127555714Y-130151142D01*
X127555714Y-129817809D01*
X127365238Y-129817809D01*
X127984285Y-130246380D02*
X127984285Y-129246380D01*
X128555714Y-130246380D01*
X128555714Y-129246380D01*
X129031904Y-130246380D02*
X129031904Y-129246380D01*
X129270000Y-129246380D01*
X129412857Y-129294000D01*
X129508095Y-129389238D01*
X129555714Y-129484476D01*
X129603333Y-129674952D01*
X129603333Y-129817809D01*
X129555714Y-130008285D01*
X129508095Y-130103523D01*
X129412857Y-130198761D01*
X129270000Y-130246380D01*
X129031904Y-130246380D01*
X127762095Y-131786380D02*
X128381142Y-131786380D01*
X128047809Y-132167333D01*
X128190666Y-132167333D01*
X128285904Y-132214952D01*
X128333523Y-132262571D01*
X128381142Y-132357809D01*
X128381142Y-132595904D01*
X128333523Y-132691142D01*
X128285904Y-132738761D01*
X128190666Y-132786380D01*
X127904952Y-132786380D01*
X127809714Y-132738761D01*
X127762095Y-132691142D01*
X128666857Y-131786380D02*
X129000190Y-132786380D01*
X129333523Y-131786380D01*
X127055714Y-125118761D02*
X127198571Y-125166380D01*
X127436666Y-125166380D01*
X127531904Y-125118761D01*
X127579523Y-125071142D01*
X127627142Y-124975904D01*
X127627142Y-124880666D01*
X127579523Y-124785428D01*
X127531904Y-124737809D01*
X127436666Y-124690190D01*
X127246190Y-124642571D01*
X127150952Y-124594952D01*
X127103333Y-124547333D01*
X127055714Y-124452095D01*
X127055714Y-124356857D01*
X127103333Y-124261619D01*
X127150952Y-124214000D01*
X127246190Y-124166380D01*
X127484285Y-124166380D01*
X127627142Y-124214000D01*
X128055714Y-125166380D02*
X128055714Y-124166380D01*
X128293809Y-124166380D01*
X128436666Y-124214000D01*
X128531904Y-124309238D01*
X128579523Y-124404476D01*
X128627142Y-124594952D01*
X128627142Y-124737809D01*
X128579523Y-124928285D01*
X128531904Y-125023523D01*
X128436666Y-125118761D01*
X128293809Y-125166380D01*
X128055714Y-125166380D01*
X129008095Y-124880666D02*
X129484285Y-124880666D01*
X128912857Y-125166380D02*
X129246190Y-124166380D01*
X129579523Y-125166380D01*
X127333523Y-127658761D02*
X127476380Y-127706380D01*
X127714476Y-127706380D01*
X127809714Y-127658761D01*
X127857333Y-127611142D01*
X127904952Y-127515904D01*
X127904952Y-127420666D01*
X127857333Y-127325428D01*
X127809714Y-127277809D01*
X127714476Y-127230190D01*
X127524000Y-127182571D01*
X127428761Y-127134952D01*
X127381142Y-127087333D01*
X127333523Y-126992095D01*
X127333523Y-126896857D01*
X127381142Y-126801619D01*
X127428761Y-126754000D01*
X127524000Y-126706380D01*
X127762095Y-126706380D01*
X127904952Y-126754000D01*
X128904952Y-127611142D02*
X128857333Y-127658761D01*
X128714476Y-127706380D01*
X128619238Y-127706380D01*
X128476380Y-127658761D01*
X128381142Y-127563523D01*
X128333523Y-127468285D01*
X128285904Y-127277809D01*
X128285904Y-127134952D01*
X128333523Y-126944476D01*
X128381142Y-126849238D01*
X128476380Y-126754000D01*
X128619238Y-126706380D01*
X128714476Y-126706380D01*
X128857333Y-126754000D01*
X128904952Y-126801619D01*
X129809714Y-127706380D02*
X129333523Y-127706380D01*
X129333523Y-126706380D01*
X136406000Y-76199904D02*
X136358380Y-76295142D01*
X136358380Y-76438000D01*
X136406000Y-76580857D01*
X136501238Y-76676095D01*
X136596476Y-76723714D01*
X136786952Y-76771333D01*
X136929809Y-76771333D01*
X137120285Y-76723714D01*
X137215523Y-76676095D01*
X137310761Y-76580857D01*
X137358380Y-76438000D01*
X137358380Y-76342761D01*
X137310761Y-76199904D01*
X137263142Y-76152285D01*
X136929809Y-76152285D01*
X136929809Y-76342761D01*
X137358380Y-75723714D02*
X136358380Y-75723714D01*
X137358380Y-75152285D01*
X136358380Y-75152285D01*
X137358380Y-74676095D02*
X136358380Y-74676095D01*
X136358380Y-74438000D01*
X136406000Y-74295142D01*
X136501238Y-74199904D01*
X136596476Y-74152285D01*
X136786952Y-74104666D01*
X136929809Y-74104666D01*
X137120285Y-74152285D01*
X137215523Y-74199904D01*
X137310761Y-74295142D01*
X137358380Y-74438000D01*
X137358380Y-74676095D01*
X138898380Y-75691904D02*
X138898380Y-75072857D01*
X139279333Y-75406190D01*
X139279333Y-75263333D01*
X139326952Y-75168095D01*
X139374571Y-75120476D01*
X139469809Y-75072857D01*
X139707904Y-75072857D01*
X139803142Y-75120476D01*
X139850761Y-75168095D01*
X139898380Y-75263333D01*
X139898380Y-75549047D01*
X139850761Y-75644285D01*
X139803142Y-75691904D01*
X138898380Y-74787142D02*
X139898380Y-74453809D01*
X138898380Y-74120476D01*
X144930761Y-76398285D02*
X144978380Y-76255428D01*
X144978380Y-76017333D01*
X144930761Y-75922095D01*
X144883142Y-75874476D01*
X144787904Y-75826857D01*
X144692666Y-75826857D01*
X144597428Y-75874476D01*
X144549809Y-75922095D01*
X144502190Y-76017333D01*
X144454571Y-76207809D01*
X144406952Y-76303047D01*
X144359333Y-76350666D01*
X144264095Y-76398285D01*
X144168857Y-76398285D01*
X144073619Y-76350666D01*
X144026000Y-76303047D01*
X143978380Y-76207809D01*
X143978380Y-75969714D01*
X144026000Y-75826857D01*
X144978380Y-75398285D02*
X143978380Y-75398285D01*
X143978380Y-75160190D01*
X144026000Y-75017333D01*
X144121238Y-74922095D01*
X144216476Y-74874476D01*
X144406952Y-74826857D01*
X144549809Y-74826857D01*
X144740285Y-74874476D01*
X144835523Y-74922095D01*
X144930761Y-75017333D01*
X144978380Y-75160190D01*
X144978380Y-75398285D01*
X144692666Y-74445904D02*
X144692666Y-73969714D01*
X144978380Y-74541142D02*
X143978380Y-74207809D01*
X144978380Y-73874476D01*
X142390761Y-76374476D02*
X142438380Y-76231619D01*
X142438380Y-75993523D01*
X142390761Y-75898285D01*
X142343142Y-75850666D01*
X142247904Y-75803047D01*
X142152666Y-75803047D01*
X142057428Y-75850666D01*
X142009809Y-75898285D01*
X141962190Y-75993523D01*
X141914571Y-76184000D01*
X141866952Y-76279238D01*
X141819333Y-76326857D01*
X141724095Y-76374476D01*
X141628857Y-76374476D01*
X141533619Y-76326857D01*
X141486000Y-76279238D01*
X141438380Y-76184000D01*
X141438380Y-75945904D01*
X141486000Y-75803047D01*
X142343142Y-74803047D02*
X142390761Y-74850666D01*
X142438380Y-74993523D01*
X142438380Y-75088761D01*
X142390761Y-75231619D01*
X142295523Y-75326857D01*
X142200285Y-75374476D01*
X142009809Y-75422095D01*
X141866952Y-75422095D01*
X141676476Y-75374476D01*
X141581238Y-75326857D01*
X141486000Y-75231619D01*
X141438380Y-75088761D01*
X141438380Y-74993523D01*
X141486000Y-74850666D01*
X141533619Y-74803047D01*
X142438380Y-73898285D02*
X142438380Y-74374476D01*
X141438380Y-74374476D01*
X115720761Y-90368285D02*
X115768380Y-90225428D01*
X115768380Y-89987333D01*
X115720761Y-89892095D01*
X115673142Y-89844476D01*
X115577904Y-89796857D01*
X115482666Y-89796857D01*
X115387428Y-89844476D01*
X115339809Y-89892095D01*
X115292190Y-89987333D01*
X115244571Y-90177809D01*
X115196952Y-90273047D01*
X115149333Y-90320666D01*
X115054095Y-90368285D01*
X114958857Y-90368285D01*
X114863619Y-90320666D01*
X114816000Y-90273047D01*
X114768380Y-90177809D01*
X114768380Y-89939714D01*
X114816000Y-89796857D01*
X115768380Y-89368285D02*
X114768380Y-89368285D01*
X114768380Y-89130190D01*
X114816000Y-88987333D01*
X114911238Y-88892095D01*
X115006476Y-88844476D01*
X115196952Y-88796857D01*
X115339809Y-88796857D01*
X115530285Y-88844476D01*
X115625523Y-88892095D01*
X115720761Y-88987333D01*
X115768380Y-89130190D01*
X115768380Y-89368285D01*
X115482666Y-88415904D02*
X115482666Y-87939714D01*
X115768380Y-88511142D02*
X114768380Y-88177809D01*
X115768380Y-87844476D01*
X102068380Y-89153904D02*
X102068380Y-88534857D01*
X102449333Y-88868190D01*
X102449333Y-88725333D01*
X102496952Y-88630095D01*
X102544571Y-88582476D01*
X102639809Y-88534857D01*
X102877904Y-88534857D01*
X102973142Y-88582476D01*
X103020761Y-88630095D01*
X103068380Y-88725333D01*
X103068380Y-89011047D01*
X103020761Y-89106285D01*
X102973142Y-89153904D01*
X102068380Y-88249142D02*
X103068380Y-87915809D01*
X102068380Y-87582476D01*
X107196000Y-89915904D02*
X107148380Y-90011142D01*
X107148380Y-90154000D01*
X107196000Y-90296857D01*
X107291238Y-90392095D01*
X107386476Y-90439714D01*
X107576952Y-90487333D01*
X107719809Y-90487333D01*
X107910285Y-90439714D01*
X108005523Y-90392095D01*
X108100761Y-90296857D01*
X108148380Y-90154000D01*
X108148380Y-90058761D01*
X108100761Y-89915904D01*
X108053142Y-89868285D01*
X107719809Y-89868285D01*
X107719809Y-90058761D01*
X108148380Y-89439714D02*
X107148380Y-89439714D01*
X108148380Y-88868285D01*
X107148380Y-88868285D01*
X108148380Y-88392095D02*
X107148380Y-88392095D01*
X107148380Y-88154000D01*
X107196000Y-88011142D01*
X107291238Y-87915904D01*
X107386476Y-87868285D01*
X107576952Y-87820666D01*
X107719809Y-87820666D01*
X107910285Y-87868285D01*
X108005523Y-87915904D01*
X108100761Y-88011142D01*
X108148380Y-88154000D01*
X108148380Y-88392095D01*
X110640761Y-90344476D02*
X110688380Y-90201619D01*
X110688380Y-89963523D01*
X110640761Y-89868285D01*
X110593142Y-89820666D01*
X110497904Y-89773047D01*
X110402666Y-89773047D01*
X110307428Y-89820666D01*
X110259809Y-89868285D01*
X110212190Y-89963523D01*
X110164571Y-90154000D01*
X110116952Y-90249238D01*
X110069333Y-90296857D01*
X109974095Y-90344476D01*
X109878857Y-90344476D01*
X109783619Y-90296857D01*
X109736000Y-90249238D01*
X109688380Y-90154000D01*
X109688380Y-89915904D01*
X109736000Y-89773047D01*
X110593142Y-88773047D02*
X110640761Y-88820666D01*
X110688380Y-88963523D01*
X110688380Y-89058761D01*
X110640761Y-89201619D01*
X110545523Y-89296857D01*
X110450285Y-89344476D01*
X110259809Y-89392095D01*
X110116952Y-89392095D01*
X109926476Y-89344476D01*
X109831238Y-89296857D01*
X109736000Y-89201619D01*
X109688380Y-89058761D01*
X109688380Y-88963523D01*
X109736000Y-88820666D01*
X109783619Y-88773047D01*
X110688380Y-87868285D02*
X110688380Y-88344476D01*
X109688380Y-88344476D01*
X75841142Y-130911714D02*
X75841142Y-131654571D01*
X75384000Y-131254571D01*
X75384000Y-131426000D01*
X75326857Y-131540285D01*
X75269714Y-131597428D01*
X75155428Y-131654571D01*
X74869714Y-131654571D01*
X74755428Y-131597428D01*
X74698285Y-131540285D01*
X74641142Y-131426000D01*
X74641142Y-131083142D01*
X74698285Y-130968857D01*
X74755428Y-130911714D01*
X75841142Y-131997428D02*
X74641142Y-132397428D01*
X75841142Y-132797428D01*
X75841142Y-140522571D02*
X74641142Y-140922571D01*
X75841142Y-141322571D01*
X75269714Y-142122571D02*
X75212571Y-142294000D01*
X75155428Y-142351142D01*
X75041142Y-142408285D01*
X74869714Y-142408285D01*
X74755428Y-142351142D01*
X74698285Y-142294000D01*
X74641142Y-142179714D01*
X74641142Y-141722571D01*
X75841142Y-141722571D01*
X75841142Y-142122571D01*
X75784000Y-142236857D01*
X75726857Y-142294000D01*
X75612571Y-142351142D01*
X75498285Y-142351142D01*
X75384000Y-142294000D01*
X75326857Y-142236857D01*
X75269714Y-142122571D01*
X75269714Y-141722571D01*
X74984000Y-142865428D02*
X74984000Y-143436857D01*
X74641142Y-142751142D02*
X75841142Y-143151142D01*
X74641142Y-143551142D01*
X75841142Y-143779714D02*
X75841142Y-144465428D01*
X74641142Y-144122571D02*
X75841142Y-144122571D01*
X75784000Y-136245714D02*
X75841142Y-136131428D01*
X75841142Y-135960000D01*
X75784000Y-135788571D01*
X75669714Y-135674285D01*
X75555428Y-135617142D01*
X75326857Y-135560000D01*
X75155428Y-135560000D01*
X74926857Y-135617142D01*
X74812571Y-135674285D01*
X74698285Y-135788571D01*
X74641142Y-135960000D01*
X74641142Y-136074285D01*
X74698285Y-136245714D01*
X74755428Y-136302857D01*
X75155428Y-136302857D01*
X75155428Y-136074285D01*
X74641142Y-136817142D02*
X75841142Y-136817142D01*
X74641142Y-137502857D01*
X75841142Y-137502857D01*
X74641142Y-138074285D02*
X75841142Y-138074285D01*
X75841142Y-138360000D01*
X75784000Y-138531428D01*
X75669714Y-138645714D01*
X75555428Y-138702857D01*
X75326857Y-138760000D01*
X75155428Y-138760000D01*
X74926857Y-138702857D01*
X74812571Y-138645714D01*
X74698285Y-138531428D01*
X74641142Y-138360000D01*
X74641142Y-138074285D01*
X74641142Y-125974571D02*
X75212571Y-125574571D01*
X74641142Y-125288857D02*
X75841142Y-125288857D01*
X75841142Y-125746000D01*
X75784000Y-125860285D01*
X75726857Y-125917428D01*
X75612571Y-125974571D01*
X75441142Y-125974571D01*
X75326857Y-125917428D01*
X75269714Y-125860285D01*
X75212571Y-125746000D01*
X75212571Y-125288857D01*
X75841142Y-126374571D02*
X74641142Y-127174571D01*
X75841142Y-127174571D02*
X74641142Y-126374571D01*
X75841142Y-127860285D02*
X75841142Y-127974571D01*
X75784000Y-128088857D01*
X75726857Y-128146000D01*
X75612571Y-128203142D01*
X75384000Y-128260285D01*
X75098285Y-128260285D01*
X74869714Y-128203142D01*
X74755428Y-128146000D01*
X74698285Y-128088857D01*
X74641142Y-127974571D01*
X74641142Y-127860285D01*
X74698285Y-127746000D01*
X74755428Y-127688857D01*
X74869714Y-127631714D01*
X75098285Y-127574571D01*
X75384000Y-127574571D01*
X75612571Y-127631714D01*
X75726857Y-127688857D01*
X75784000Y-127746000D01*
X75841142Y-127860285D01*
X75841142Y-120434285D02*
X75841142Y-121120000D01*
X74641142Y-120777142D02*
X75841142Y-120777142D01*
X75841142Y-121405714D02*
X74641142Y-122205714D01*
X75841142Y-122205714D02*
X74641142Y-121405714D01*
X74641142Y-123291428D02*
X74641142Y-122605714D01*
X74641142Y-122948571D02*
X75841142Y-122948571D01*
X75669714Y-122834285D01*
X75555428Y-122720000D01*
X75498285Y-122605714D01*
X93083142Y-128976380D02*
X92749809Y-128500190D01*
X92511714Y-128976380D02*
X92511714Y-127976380D01*
X92892666Y-127976380D01*
X92987904Y-128024000D01*
X93035523Y-128071619D01*
X93083142Y-128166857D01*
X93083142Y-128309714D01*
X93035523Y-128404952D01*
X92987904Y-128452571D01*
X92892666Y-128500190D01*
X92511714Y-128500190D01*
X93416476Y-127976380D02*
X94083142Y-128976380D01*
X94083142Y-127976380D02*
X93416476Y-128976380D01*
X94654571Y-127976380D02*
X94749809Y-127976380D01*
X94845047Y-128024000D01*
X94892666Y-128071619D01*
X94940285Y-128166857D01*
X94987904Y-128357333D01*
X94987904Y-128595428D01*
X94940285Y-128785904D01*
X94892666Y-128881142D01*
X94845047Y-128928761D01*
X94749809Y-128976380D01*
X94654571Y-128976380D01*
X94559333Y-128928761D01*
X94511714Y-128881142D01*
X94464095Y-128785904D01*
X94416476Y-128595428D01*
X94416476Y-128357333D01*
X94464095Y-128166857D01*
X94511714Y-128071619D01*
X94559333Y-128024000D01*
X94654571Y-127976380D01*
X92591142Y-135596380D02*
X92924476Y-136596380D01*
X93257809Y-135596380D01*
X93924476Y-136072571D02*
X94067333Y-136120190D01*
X94114952Y-136167809D01*
X94162571Y-136263047D01*
X94162571Y-136405904D01*
X94114952Y-136501142D01*
X94067333Y-136548761D01*
X93972095Y-136596380D01*
X93591142Y-136596380D01*
X93591142Y-135596380D01*
X93924476Y-135596380D01*
X94019714Y-135644000D01*
X94067333Y-135691619D01*
X94114952Y-135786857D01*
X94114952Y-135882095D01*
X94067333Y-135977333D01*
X94019714Y-136024952D01*
X93924476Y-136072571D01*
X93591142Y-136072571D01*
X94543523Y-136310666D02*
X95019714Y-136310666D01*
X94448285Y-136596380D02*
X94781619Y-135596380D01*
X95114952Y-136596380D01*
X95305428Y-135596380D02*
X95876857Y-135596380D01*
X95591142Y-136596380D02*
X95591142Y-135596380D01*
X92487904Y-125436380D02*
X93059333Y-125436380D01*
X92773619Y-126436380D02*
X92773619Y-125436380D01*
X93297428Y-125436380D02*
X93964095Y-126436380D01*
X93964095Y-125436380D02*
X93297428Y-126436380D01*
X94868857Y-126436380D02*
X94297428Y-126436380D01*
X94583142Y-126436380D02*
X94583142Y-125436380D01*
X94487904Y-125579238D01*
X94392666Y-125674476D01*
X94297428Y-125722095D01*
X93218095Y-133104000D02*
X93122857Y-133056380D01*
X92980000Y-133056380D01*
X92837142Y-133104000D01*
X92741904Y-133199238D01*
X92694285Y-133294476D01*
X92646666Y-133484952D01*
X92646666Y-133627809D01*
X92694285Y-133818285D01*
X92741904Y-133913523D01*
X92837142Y-134008761D01*
X92980000Y-134056380D01*
X93075238Y-134056380D01*
X93218095Y-134008761D01*
X93265714Y-133961142D01*
X93265714Y-133627809D01*
X93075238Y-133627809D01*
X93694285Y-134056380D02*
X93694285Y-133056380D01*
X94265714Y-134056380D01*
X94265714Y-133056380D01*
X94741904Y-134056380D02*
X94741904Y-133056380D01*
X94980000Y-133056380D01*
X95122857Y-133104000D01*
X95218095Y-133199238D01*
X95265714Y-133294476D01*
X95313333Y-133484952D01*
X95313333Y-133627809D01*
X95265714Y-133818285D01*
X95218095Y-133913523D01*
X95122857Y-134008761D01*
X94980000Y-134056380D01*
X94741904Y-134056380D01*
X92710095Y-130516380D02*
X93329142Y-130516380D01*
X92995809Y-130897333D01*
X93138666Y-130897333D01*
X93233904Y-130944952D01*
X93281523Y-130992571D01*
X93329142Y-131087809D01*
X93329142Y-131325904D01*
X93281523Y-131421142D01*
X93233904Y-131468761D01*
X93138666Y-131516380D01*
X92852952Y-131516380D01*
X92757714Y-131468761D01*
X92710095Y-131421142D01*
X93614857Y-130516380D02*
X93948190Y-131516380D01*
X94281523Y-130516380D01*
X92511714Y-99004380D02*
X92511714Y-98004380D01*
X92749809Y-98004380D01*
X92892666Y-98052000D01*
X92987904Y-98147238D01*
X93035523Y-98242476D01*
X93083142Y-98432952D01*
X93083142Y-98575809D01*
X93035523Y-98766285D01*
X92987904Y-98861523D01*
X92892666Y-98956761D01*
X92749809Y-99004380D01*
X92511714Y-99004380D01*
X94035523Y-99004380D02*
X93464095Y-99004380D01*
X93749809Y-99004380D02*
X93749809Y-98004380D01*
X93654571Y-98147238D01*
X93559333Y-98242476D01*
X93464095Y-98290095D01*
X94654571Y-98004380D02*
X94749809Y-98004380D01*
X94845047Y-98052000D01*
X94892666Y-98099619D01*
X94940285Y-98194857D01*
X94987904Y-98385333D01*
X94987904Y-98623428D01*
X94940285Y-98813904D01*
X94892666Y-98909142D01*
X94845047Y-98956761D01*
X94749809Y-99004380D01*
X94654571Y-99004380D01*
X94559333Y-98956761D01*
X94511714Y-98909142D01*
X94464095Y-98813904D01*
X94416476Y-98623428D01*
X94416476Y-98385333D01*
X94464095Y-98194857D01*
X94511714Y-98099619D01*
X94559333Y-98052000D01*
X94654571Y-98004380D01*
X92511714Y-101544380D02*
X92511714Y-100544380D01*
X92749809Y-100544380D01*
X92892666Y-100592000D01*
X92987904Y-100687238D01*
X93035523Y-100782476D01*
X93083142Y-100972952D01*
X93083142Y-101115809D01*
X93035523Y-101306285D01*
X92987904Y-101401523D01*
X92892666Y-101496761D01*
X92749809Y-101544380D01*
X92511714Y-101544380D01*
X94035523Y-101544380D02*
X93464095Y-101544380D01*
X93749809Y-101544380D02*
X93749809Y-100544380D01*
X93654571Y-100687238D01*
X93559333Y-100782476D01*
X93464095Y-100830095D01*
X94987904Y-101544380D02*
X94416476Y-101544380D01*
X94702190Y-101544380D02*
X94702190Y-100544380D01*
X94606952Y-100687238D01*
X94511714Y-100782476D01*
X94416476Y-100830095D01*
X92710095Y-103084380D02*
X93329142Y-103084380D01*
X92995809Y-103465333D01*
X93138666Y-103465333D01*
X93233904Y-103512952D01*
X93281523Y-103560571D01*
X93329142Y-103655809D01*
X93329142Y-103893904D01*
X93281523Y-103989142D01*
X93233904Y-104036761D01*
X93138666Y-104084380D01*
X92852952Y-104084380D01*
X92757714Y-104036761D01*
X92710095Y-103989142D01*
X93614857Y-103084380D02*
X93948190Y-104084380D01*
X94281523Y-103084380D01*
X92591142Y-108164380D02*
X92924476Y-109164380D01*
X93257809Y-108164380D01*
X93924476Y-108640571D02*
X94067333Y-108688190D01*
X94114952Y-108735809D01*
X94162571Y-108831047D01*
X94162571Y-108973904D01*
X94114952Y-109069142D01*
X94067333Y-109116761D01*
X93972095Y-109164380D01*
X93591142Y-109164380D01*
X93591142Y-108164380D01*
X93924476Y-108164380D01*
X94019714Y-108212000D01*
X94067333Y-108259619D01*
X94114952Y-108354857D01*
X94114952Y-108450095D01*
X94067333Y-108545333D01*
X94019714Y-108592952D01*
X93924476Y-108640571D01*
X93591142Y-108640571D01*
X94543523Y-108878666D02*
X95019714Y-108878666D01*
X94448285Y-109164380D02*
X94781619Y-108164380D01*
X95114952Y-109164380D01*
X95305428Y-108164380D02*
X95876857Y-108164380D01*
X95591142Y-109164380D02*
X95591142Y-108164380D01*
X89713047Y-64392857D02*
X89594000Y-64511904D01*
X89236857Y-64630952D01*
X88998761Y-64630952D01*
X88641619Y-64511904D01*
X88403523Y-64273809D01*
X88284476Y-64035714D01*
X88165428Y-63559523D01*
X88165428Y-63202380D01*
X88284476Y-62726190D01*
X88403523Y-62488095D01*
X88641619Y-62250000D01*
X88998761Y-62130952D01*
X89236857Y-62130952D01*
X89594000Y-62250000D01*
X89713047Y-62369047D01*
X91260666Y-62130952D02*
X91736857Y-62130952D01*
X91974952Y-62250000D01*
X92213047Y-62488095D01*
X92332095Y-62964285D01*
X92332095Y-63797619D01*
X92213047Y-64273809D01*
X91974952Y-64511904D01*
X91736857Y-64630952D01*
X91260666Y-64630952D01*
X91022571Y-64511904D01*
X90784476Y-64273809D01*
X90665428Y-63797619D01*
X90665428Y-62964285D01*
X90784476Y-62488095D01*
X91022571Y-62250000D01*
X91260666Y-62130952D01*
X93284476Y-62369047D02*
X93403523Y-62250000D01*
X93641619Y-62130952D01*
X94236857Y-62130952D01*
X94474952Y-62250000D01*
X94594000Y-62369047D01*
X94713047Y-62607142D01*
X94713047Y-62845238D01*
X94594000Y-63202380D01*
X93165428Y-64630952D01*
X94713047Y-64630952D01*
X95903523Y-64511904D02*
X95903523Y-64630952D01*
X95784476Y-64869047D01*
X95665428Y-64988095D01*
X98522571Y-62130952D02*
X99951142Y-62130952D01*
X99236857Y-64630952D02*
X99236857Y-62130952D01*
X101736857Y-64511904D02*
X101498761Y-64630952D01*
X101022571Y-64630952D01*
X100784476Y-64511904D01*
X100665428Y-64273809D01*
X100665428Y-63321428D01*
X100784476Y-63083333D01*
X101022571Y-62964285D01*
X101498761Y-62964285D01*
X101736857Y-63083333D01*
X101855904Y-63321428D01*
X101855904Y-63559523D01*
X100665428Y-63797619D01*
X102927333Y-64630952D02*
X102927333Y-62964285D01*
X102927333Y-63202380D02*
X103046380Y-63083333D01*
X103284476Y-62964285D01*
X103641619Y-62964285D01*
X103879714Y-63083333D01*
X103998761Y-63321428D01*
X103998761Y-64630952D01*
X103998761Y-63321428D02*
X104117809Y-63083333D01*
X104355904Y-62964285D01*
X104713047Y-62964285D01*
X104951142Y-63083333D01*
X105070190Y-63321428D01*
X105070190Y-64630952D01*
X106260666Y-62964285D02*
X106260666Y-65464285D01*
X106260666Y-63083333D02*
X106498761Y-62964285D01*
X106974952Y-62964285D01*
X107213047Y-63083333D01*
X107332095Y-63202380D01*
X107451142Y-63440476D01*
X107451142Y-64154761D01*
X107332095Y-64392857D01*
X107213047Y-64511904D01*
X106974952Y-64630952D01*
X106498761Y-64630952D01*
X106260666Y-64511904D01*
X108641619Y-64511904D02*
X108641619Y-64630952D01*
X108522571Y-64869047D01*
X108403523Y-64988095D01*
X111617809Y-64630952D02*
X111617809Y-62130952D01*
X111617809Y-63321428D02*
X113046380Y-63321428D01*
X113046380Y-64630952D02*
X113046380Y-62130952D01*
X115308285Y-62964285D02*
X115308285Y-64630952D01*
X114236857Y-62964285D02*
X114236857Y-64273809D01*
X114355904Y-64511904D01*
X114593999Y-64630952D01*
X114951142Y-64630952D01*
X115189238Y-64511904D01*
X115308285Y-64392857D01*
X116498761Y-64630952D02*
X116498761Y-62964285D01*
X116498761Y-63202380D02*
X116617809Y-63083333D01*
X116855904Y-62964285D01*
X117213047Y-62964285D01*
X117451142Y-63083333D01*
X117570190Y-63321428D01*
X117570190Y-64630952D01*
X117570190Y-63321428D02*
X117689238Y-63083333D01*
X117927333Y-62964285D01*
X118284476Y-62964285D01*
X118522571Y-63083333D01*
X118641619Y-63321428D01*
X118641619Y-64630952D01*
X119832095Y-64630952D02*
X119832095Y-62964285D01*
X119832095Y-62130952D02*
X119713047Y-62250000D01*
X119832095Y-62369047D01*
X119951142Y-62250000D01*
X119832095Y-62130952D01*
X119832095Y-62369047D01*
X122093999Y-64630952D02*
X122093999Y-62130952D01*
X122093999Y-64511904D02*
X121855904Y-64630952D01*
X121379714Y-64630952D01*
X121141619Y-64511904D01*
X121022571Y-64392857D01*
X120903523Y-64154761D01*
X120903523Y-63440476D01*
X121022571Y-63202380D01*
X121141619Y-63083333D01*
X121379714Y-62964285D01*
X121855904Y-62964285D01*
X122093999Y-63083333D01*
X123284476Y-64630952D02*
X123284476Y-62964285D01*
X123284476Y-62130952D02*
X123165428Y-62250000D01*
X123284476Y-62369047D01*
X123403523Y-62250000D01*
X123284476Y-62130952D01*
X123284476Y-62369047D01*
X124117809Y-62964285D02*
X125070190Y-62964285D01*
X124474952Y-62130952D02*
X124474952Y-64273809D01*
X124593999Y-64511904D01*
X124832095Y-64630952D01*
X125070190Y-64630952D01*
X125665428Y-62964285D02*
X126260666Y-64630952D01*
X126855904Y-62964285D02*
X126260666Y-64630952D01*
X126022571Y-65226190D01*
X125903523Y-65345238D01*
X125665428Y-65464285D01*
X127927333Y-64511904D02*
X127927333Y-64630952D01*
X127808285Y-64869047D01*
X127689238Y-64988095D01*
X130903523Y-64630952D02*
X130903523Y-62130952D01*
X131855904Y-62130952D01*
X132093999Y-62250000D01*
X132213047Y-62369047D01*
X132332095Y-62607142D01*
X132332095Y-62964285D01*
X132213047Y-63202380D01*
X132093999Y-63321428D01*
X131855904Y-63440476D01*
X130903523Y-63440476D01*
X133403523Y-64630952D02*
X133403523Y-62964285D01*
X133403523Y-63440476D02*
X133522571Y-63202380D01*
X133641619Y-63083333D01*
X133879714Y-62964285D01*
X134117809Y-62964285D01*
X135903523Y-64511904D02*
X135665428Y-64630952D01*
X135189238Y-64630952D01*
X134951142Y-64511904D01*
X134832095Y-64273809D01*
X134832095Y-63321428D01*
X134951142Y-63083333D01*
X135189238Y-62964285D01*
X135665428Y-62964285D01*
X135903523Y-63083333D01*
X136022571Y-63321428D01*
X136022571Y-63559523D01*
X134832095Y-63797619D01*
X136974952Y-64511904D02*
X137213047Y-64630952D01*
X137689238Y-64630952D01*
X137927333Y-64511904D01*
X138046380Y-64273809D01*
X138046380Y-64154761D01*
X137927333Y-63916666D01*
X137689238Y-63797619D01*
X137332095Y-63797619D01*
X137093999Y-63678571D01*
X136974952Y-63440476D01*
X136974952Y-63321428D01*
X137093999Y-63083333D01*
X137332095Y-62964285D01*
X137689238Y-62964285D01*
X137927333Y-63083333D01*
X138998761Y-64511904D02*
X139236857Y-64630952D01*
X139713047Y-64630952D01*
X139951142Y-64511904D01*
X140070190Y-64273809D01*
X140070190Y-64154761D01*
X139951142Y-63916666D01*
X139713047Y-63797619D01*
X139355904Y-63797619D01*
X139117809Y-63678571D01*
X138998761Y-63440476D01*
X138998761Y-63321428D01*
X139117809Y-63083333D01*
X139355904Y-62964285D01*
X139713047Y-62964285D01*
X139951142Y-63083333D01*
X142213047Y-62964285D02*
X142213047Y-64630952D01*
X141141619Y-62964285D02*
X141141619Y-64273809D01*
X141260666Y-64511904D01*
X141498761Y-64630952D01*
X141855904Y-64630952D01*
X142093999Y-64511904D01*
X142213047Y-64392857D01*
X143403523Y-64630952D02*
X143403523Y-62964285D01*
X143403523Y-63440476D02*
X143522571Y-63202380D01*
X143641619Y-63083333D01*
X143879714Y-62964285D01*
X144117809Y-62964285D01*
X145903523Y-64511904D02*
X145665428Y-64630952D01*
X145189238Y-64630952D01*
X144951142Y-64511904D01*
X144832095Y-64273809D01*
X144832095Y-63321428D01*
X144951142Y-63083333D01*
X145189238Y-62964285D01*
X145665428Y-62964285D01*
X145903523Y-63083333D01*
X146022571Y-63321428D01*
X146022571Y-63559523D01*
X144832095Y-63797619D01*
X74641142Y-92522857D02*
X75841142Y-92522857D01*
X75841142Y-92808571D01*
X75784000Y-92980000D01*
X75669714Y-93094285D01*
X75555428Y-93151428D01*
X75326857Y-93208571D01*
X75155428Y-93208571D01*
X74926857Y-93151428D01*
X74812571Y-93094285D01*
X74698285Y-92980000D01*
X74641142Y-92808571D01*
X74641142Y-92522857D01*
X74641142Y-94351428D02*
X74641142Y-93665714D01*
X74641142Y-94008571D02*
X75841142Y-94008571D01*
X75669714Y-93894285D01*
X75555428Y-93780000D01*
X75498285Y-93665714D01*
X75841142Y-95094285D02*
X75841142Y-95208571D01*
X75784000Y-95322857D01*
X75726857Y-95380000D01*
X75612571Y-95437142D01*
X75384000Y-95494285D01*
X75098285Y-95494285D01*
X74869714Y-95437142D01*
X74755428Y-95380000D01*
X74698285Y-95322857D01*
X74641142Y-95208571D01*
X74641142Y-95094285D01*
X74698285Y-94980000D01*
X74755428Y-94922857D01*
X74869714Y-94865714D01*
X75098285Y-94808571D01*
X75384000Y-94808571D01*
X75612571Y-94865714D01*
X75726857Y-94922857D01*
X75784000Y-94980000D01*
X75841142Y-95094285D01*
X74641142Y-97348857D02*
X75841142Y-97348857D01*
X75841142Y-97634571D01*
X75784000Y-97806000D01*
X75669714Y-97920285D01*
X75555428Y-97977428D01*
X75326857Y-98034571D01*
X75155428Y-98034571D01*
X74926857Y-97977428D01*
X74812571Y-97920285D01*
X74698285Y-97806000D01*
X74641142Y-97634571D01*
X74641142Y-97348857D01*
X74641142Y-99177428D02*
X74641142Y-98491714D01*
X74641142Y-98834571D02*
X75841142Y-98834571D01*
X75669714Y-98720285D01*
X75555428Y-98606000D01*
X75498285Y-98491714D01*
X74641142Y-100320285D02*
X74641142Y-99634571D01*
X74641142Y-99977428D02*
X75841142Y-99977428D01*
X75669714Y-99863142D01*
X75555428Y-99748857D01*
X75498285Y-99634571D01*
X75841142Y-103225714D02*
X75841142Y-103968571D01*
X75384000Y-103568571D01*
X75384000Y-103740000D01*
X75326857Y-103854285D01*
X75269714Y-103911428D01*
X75155428Y-103968571D01*
X74869714Y-103968571D01*
X74755428Y-103911428D01*
X74698285Y-103854285D01*
X74641142Y-103740000D01*
X74641142Y-103397142D01*
X74698285Y-103282857D01*
X74755428Y-103225714D01*
X75841142Y-104311428D02*
X74641142Y-104711428D01*
X75841142Y-105111428D01*
X75841142Y-112582571D02*
X74641142Y-112982571D01*
X75841142Y-113382571D01*
X75269714Y-114182571D02*
X75212571Y-114354000D01*
X75155428Y-114411142D01*
X75041142Y-114468285D01*
X74869714Y-114468285D01*
X74755428Y-114411142D01*
X74698285Y-114354000D01*
X74641142Y-114239714D01*
X74641142Y-113782571D01*
X75841142Y-113782571D01*
X75841142Y-114182571D01*
X75784000Y-114296857D01*
X75726857Y-114354000D01*
X75612571Y-114411142D01*
X75498285Y-114411142D01*
X75384000Y-114354000D01*
X75326857Y-114296857D01*
X75269714Y-114182571D01*
X75269714Y-113782571D01*
X74984000Y-114925428D02*
X74984000Y-115496857D01*
X74641142Y-114811142D02*
X75841142Y-115211142D01*
X74641142Y-115611142D01*
X75841142Y-115839714D02*
X75841142Y-116525428D01*
X74641142Y-116182571D02*
X75841142Y-116182571D01*
X75784000Y-108305714D02*
X75841142Y-108191428D01*
X75841142Y-108020000D01*
X75784000Y-107848571D01*
X75669714Y-107734285D01*
X75555428Y-107677142D01*
X75326857Y-107620000D01*
X75155428Y-107620000D01*
X74926857Y-107677142D01*
X74812571Y-107734285D01*
X74698285Y-107848571D01*
X74641142Y-108020000D01*
X74641142Y-108134285D01*
X74698285Y-108305714D01*
X74755428Y-108362857D01*
X75155428Y-108362857D01*
X75155428Y-108134285D01*
X74641142Y-108877142D02*
X75841142Y-108877142D01*
X74641142Y-109562857D01*
X75841142Y-109562857D01*
X74641142Y-110134285D02*
X75841142Y-110134285D01*
X75841142Y-110420000D01*
X75784000Y-110591428D01*
X75669714Y-110705714D01*
X75555428Y-110762857D01*
X75326857Y-110820000D01*
X75155428Y-110820000D01*
X74926857Y-110762857D01*
X74812571Y-110705714D01*
X74698285Y-110591428D01*
X74641142Y-110420000D01*
X74641142Y-110134285D01*
X106823428Y-113903142D02*
X106156761Y-113903142D01*
X106156761Y-114950761D02*
X106156761Y-112950761D01*
X107109142Y-112950761D01*
X108632952Y-114855523D02*
X108442476Y-114950761D01*
X108061523Y-114950761D01*
X107871047Y-114855523D01*
X107775809Y-114665047D01*
X107775809Y-113903142D01*
X107871047Y-113712666D01*
X108061523Y-113617428D01*
X108442476Y-113617428D01*
X108632952Y-113712666D01*
X108728190Y-113903142D01*
X108728190Y-114093619D01*
X107775809Y-114284095D01*
X110442476Y-114950761D02*
X110442476Y-113903142D01*
X110347238Y-113712666D01*
X110156761Y-113617428D01*
X109775809Y-113617428D01*
X109585333Y-113712666D01*
X110442476Y-114855523D02*
X110252000Y-114950761D01*
X109775809Y-114950761D01*
X109585333Y-114855523D01*
X109490095Y-114665047D01*
X109490095Y-114474571D01*
X109585333Y-114284095D01*
X109775809Y-114188857D01*
X110252000Y-114188857D01*
X110442476Y-114093619D01*
X111109142Y-113617428D02*
X111871047Y-113617428D01*
X111394857Y-112950761D02*
X111394857Y-114665047D01*
X111490095Y-114855523D01*
X111680571Y-114950761D01*
X111871047Y-114950761D01*
X112537714Y-114950761D02*
X112537714Y-112950761D01*
X113394857Y-114950761D02*
X113394857Y-113903142D01*
X113299619Y-113712666D01*
X113109142Y-113617428D01*
X112823428Y-113617428D01*
X112632952Y-113712666D01*
X112537714Y-113807904D01*
X115109142Y-114855523D02*
X114918666Y-114950761D01*
X114537714Y-114950761D01*
X114347238Y-114855523D01*
X114252000Y-114665047D01*
X114252000Y-113903142D01*
X114347238Y-113712666D01*
X114537714Y-113617428D01*
X114918666Y-113617428D01*
X115109142Y-113712666D01*
X115204380Y-113903142D01*
X115204380Y-114093619D01*
X114252000Y-114284095D01*
X116061523Y-114950761D02*
X116061523Y-113617428D01*
X116061523Y-113998380D02*
X116156761Y-113807904D01*
X116252000Y-113712666D01*
X116442476Y-113617428D01*
X116632952Y-113617428D01*
X106902857Y-79359142D02*
X107188571Y-79454380D01*
X107283809Y-79549619D01*
X107379047Y-79740095D01*
X107379047Y-80025809D01*
X107283809Y-80216285D01*
X107188571Y-80311523D01*
X106998095Y-80406761D01*
X106236190Y-80406761D01*
X106236190Y-78406761D01*
X106902857Y-78406761D01*
X107093333Y-78502000D01*
X107188571Y-78597238D01*
X107283809Y-78787714D01*
X107283809Y-78978190D01*
X107188571Y-79168666D01*
X107093333Y-79263904D01*
X106902857Y-79359142D01*
X106236190Y-79359142D01*
X108236190Y-80406761D02*
X108236190Y-78406761D01*
X108902857Y-79835333D01*
X109569523Y-78406761D01*
X109569523Y-80406761D01*
X110521904Y-80406761D02*
X110521904Y-78406761D01*
X111283809Y-78406761D01*
X111474285Y-78502000D01*
X111569523Y-78597238D01*
X111664761Y-78787714D01*
X111664761Y-79073428D01*
X111569523Y-79263904D01*
X111474285Y-79359142D01*
X111283809Y-79454380D01*
X110521904Y-79454380D01*
X112331428Y-78406761D02*
X113569523Y-78406761D01*
X112902857Y-79168666D01*
X113188571Y-79168666D01*
X113379047Y-79263904D01*
X113474285Y-79359142D01*
X113569523Y-79549619D01*
X113569523Y-80025809D01*
X113474285Y-80216285D01*
X113379047Y-80311523D01*
X113188571Y-80406761D01*
X112617142Y-80406761D01*
X112426666Y-80311523D01*
X112331428Y-80216285D01*
X114521904Y-80406761D02*
X114902857Y-80406761D01*
X115093333Y-80311523D01*
X115188571Y-80216285D01*
X115379047Y-79930571D01*
X115474285Y-79549619D01*
X115474285Y-78787714D01*
X115379047Y-78597238D01*
X115283809Y-78502000D01*
X115093333Y-78406761D01*
X114712380Y-78406761D01*
X114521904Y-78502000D01*
X114426666Y-78597238D01*
X114331428Y-78787714D01*
X114331428Y-79263904D01*
X114426666Y-79454380D01*
X114521904Y-79549619D01*
X114712380Y-79644857D01*
X115093333Y-79644857D01*
X115283809Y-79549619D01*
X115379047Y-79454380D01*
X115474285Y-79263904D01*
X116712380Y-78406761D02*
X116902857Y-78406761D01*
X117093333Y-78502000D01*
X117188571Y-78597238D01*
X117283809Y-78787714D01*
X117379047Y-79168666D01*
X117379047Y-79644857D01*
X117283809Y-80025809D01*
X117188571Y-80216285D01*
X117093333Y-80311523D01*
X116902857Y-80406761D01*
X116712380Y-80406761D01*
X116521904Y-80311523D01*
X116426666Y-80216285D01*
X116331428Y-80025809D01*
X116236190Y-79644857D01*
X116236190Y-79168666D01*
X116331428Y-78787714D01*
X116426666Y-78597238D01*
X116521904Y-78502000D01*
X116712380Y-78406761D01*
X137811238Y-78863761D02*
X138192190Y-78863761D01*
X138382666Y-78959000D01*
X138573142Y-79149476D01*
X138668380Y-79530428D01*
X138668380Y-80197095D01*
X138573142Y-80578047D01*
X138382666Y-80768523D01*
X138192190Y-80863761D01*
X137811238Y-80863761D01*
X137620761Y-80768523D01*
X137430285Y-80578047D01*
X137335047Y-80197095D01*
X137335047Y-79530428D01*
X137430285Y-79149476D01*
X137620761Y-78959000D01*
X137811238Y-78863761D01*
X140477904Y-80863761D02*
X139525523Y-80863761D01*
X139525523Y-78863761D01*
X141144571Y-79816142D02*
X141811238Y-79816142D01*
X142096952Y-80863761D02*
X141144571Y-80863761D01*
X141144571Y-78863761D01*
X142096952Y-78863761D01*
X142954095Y-80863761D02*
X142954095Y-78863761D01*
X143430285Y-78863761D01*
X143716000Y-78959000D01*
X143906476Y-79149476D01*
X144001714Y-79339952D01*
X144096952Y-79720904D01*
X144096952Y-80006619D01*
X144001714Y-80387571D01*
X143906476Y-80578047D01*
X143716000Y-80768523D01*
X143430285Y-80863761D01*
X142954095Y-80863761D01*
X135239809Y-84013761D02*
X135239809Y-82013761D01*
X135716000Y-82013761D01*
X136001714Y-82109000D01*
X136192190Y-82299476D01*
X136287428Y-82489952D01*
X136382666Y-82870904D01*
X136382666Y-83156619D01*
X136287428Y-83537571D01*
X136192190Y-83728047D01*
X136001714Y-83918523D01*
X135716000Y-84013761D01*
X135239809Y-84013761D01*
X137239809Y-84013761D02*
X137239809Y-82013761D01*
X138096952Y-83918523D02*
X138382666Y-84013761D01*
X138858857Y-84013761D01*
X139049333Y-83918523D01*
X139144571Y-83823285D01*
X139239809Y-83632809D01*
X139239809Y-83442333D01*
X139144571Y-83251857D01*
X139049333Y-83156619D01*
X138858857Y-83061380D01*
X138477904Y-82966142D01*
X138287428Y-82870904D01*
X138192190Y-82775666D01*
X138096952Y-82585190D01*
X138096952Y-82394714D01*
X138192190Y-82204238D01*
X138287428Y-82109000D01*
X138477904Y-82013761D01*
X138954095Y-82013761D01*
X139239809Y-82109000D01*
X140096952Y-84013761D02*
X140096952Y-82013761D01*
X140858857Y-82013761D01*
X141049333Y-82109000D01*
X141144571Y-82204238D01*
X141239809Y-82394714D01*
X141239809Y-82680428D01*
X141144571Y-82870904D01*
X141049333Y-82966142D01*
X140858857Y-83061380D01*
X140096952Y-83061380D01*
X143049333Y-84013761D02*
X142096952Y-84013761D01*
X142096952Y-82013761D01*
X143620761Y-83442333D02*
X144573142Y-83442333D01*
X143430285Y-84013761D02*
X144096952Y-82013761D01*
X144763619Y-84013761D01*
X145811238Y-83061380D02*
X145811238Y-84013761D01*
X145144571Y-82013761D02*
X145811238Y-83061380D01*
X146477904Y-82013761D01*
X137763809Y-106219523D02*
X138049523Y-106314761D01*
X138525714Y-106314761D01*
X138716190Y-106219523D01*
X138811428Y-106124285D01*
X138906666Y-105933809D01*
X138906666Y-105743333D01*
X138811428Y-105552857D01*
X138716190Y-105457619D01*
X138525714Y-105362380D01*
X138144761Y-105267142D01*
X137954285Y-105171904D01*
X137859047Y-105076666D01*
X137763809Y-104886190D01*
X137763809Y-104695714D01*
X137859047Y-104505238D01*
X137954285Y-104410000D01*
X138144761Y-104314761D01*
X138620952Y-104314761D01*
X138906666Y-104410000D01*
X140906666Y-106124285D02*
X140811428Y-106219523D01*
X140525714Y-106314761D01*
X140335238Y-106314761D01*
X140049523Y-106219523D01*
X139859047Y-106029047D01*
X139763809Y-105838571D01*
X139668571Y-105457619D01*
X139668571Y-105171904D01*
X139763809Y-104790952D01*
X139859047Y-104600476D01*
X140049523Y-104410000D01*
X140335238Y-104314761D01*
X140525714Y-104314761D01*
X140811428Y-104410000D01*
X140906666Y-104505238D01*
X141763809Y-106314761D02*
X141763809Y-104314761D01*
X142240000Y-104314761D01*
X142525714Y-104410000D01*
X142716190Y-104600476D01*
X142811428Y-104790952D01*
X142906666Y-105171904D01*
X142906666Y-105457619D01*
X142811428Y-105838571D01*
X142716190Y-106029047D01*
X142525714Y-106219523D01*
X142240000Y-106314761D01*
X141763809Y-106314761D01*
X143573333Y-104314761D02*
X144811428Y-104314761D01*
X144144761Y-105076666D01*
X144430476Y-105076666D01*
X144620952Y-105171904D01*
X144716190Y-105267142D01*
X144811428Y-105457619D01*
X144811428Y-105933809D01*
X144716190Y-106124285D01*
X144620952Y-106219523D01*
X144430476Y-106314761D01*
X143859047Y-106314761D01*
X143668571Y-106219523D01*
X143573333Y-106124285D01*
X146049523Y-104314761D02*
X146240000Y-104314761D01*
X146430476Y-104410000D01*
X146525714Y-104505238D01*
X146620952Y-104695714D01*
X146716190Y-105076666D01*
X146716190Y-105552857D01*
X146620952Y-105933809D01*
X146525714Y-106124285D01*
X146430476Y-106219523D01*
X146240000Y-106314761D01*
X146049523Y-106314761D01*
X145859047Y-106219523D01*
X145763809Y-106124285D01*
X145668571Y-105933809D01*
X145573333Y-105552857D01*
X145573333Y-105076666D01*
X145668571Y-104695714D01*
X145763809Y-104505238D01*
X145859047Y-104410000D01*
X146049523Y-104314761D01*
X142703714Y-151488857D02*
X143103714Y-152688857D01*
X143503714Y-151488857D01*
X143903714Y-152688857D02*
X143903714Y-151488857D01*
X144475142Y-152688857D02*
X144475142Y-151488857D01*
X145160857Y-152688857D01*
X145160857Y-151488857D01*
X138023714Y-151546000D02*
X137909428Y-151488857D01*
X137738000Y-151488857D01*
X137566571Y-151546000D01*
X137452285Y-151660285D01*
X137395142Y-151774571D01*
X137338000Y-152003142D01*
X137338000Y-152174571D01*
X137395142Y-152403142D01*
X137452285Y-152517428D01*
X137566571Y-152631714D01*
X137738000Y-152688857D01*
X137852285Y-152688857D01*
X138023714Y-152631714D01*
X138080857Y-152574571D01*
X138080857Y-152174571D01*
X137852285Y-152174571D01*
X138595142Y-152688857D02*
X138595142Y-151488857D01*
X139280857Y-152688857D01*
X139280857Y-151488857D01*
X139852285Y-152688857D02*
X139852285Y-151488857D01*
X140138000Y-151488857D01*
X140309428Y-151546000D01*
X140423714Y-151660285D01*
X140480857Y-151774571D01*
X140538000Y-152003142D01*
X140538000Y-152174571D01*
X140480857Y-152403142D01*
X140423714Y-152517428D01*
X140309428Y-152631714D01*
X140138000Y-152688857D01*
X139852285Y-152688857D01*
X75784000Y-85191714D02*
X75841142Y-85077428D01*
X75841142Y-84906000D01*
X75784000Y-84734571D01*
X75669714Y-84620285D01*
X75555428Y-84563142D01*
X75326857Y-84506000D01*
X75155428Y-84506000D01*
X74926857Y-84563142D01*
X74812571Y-84620285D01*
X74698285Y-84734571D01*
X74641142Y-84906000D01*
X74641142Y-85020285D01*
X74698285Y-85191714D01*
X74755428Y-85248857D01*
X75155428Y-85248857D01*
X75155428Y-85020285D01*
X74641142Y-85763142D02*
X75841142Y-85763142D01*
X74641142Y-86448857D01*
X75841142Y-86448857D01*
X74641142Y-87020285D02*
X75841142Y-87020285D01*
X75841142Y-87306000D01*
X75784000Y-87477428D01*
X75669714Y-87591714D01*
X75555428Y-87648857D01*
X75326857Y-87706000D01*
X75155428Y-87706000D01*
X74926857Y-87648857D01*
X74812571Y-87591714D01*
X74698285Y-87477428D01*
X74641142Y-87306000D01*
X74641142Y-87020285D01*
X75841142Y-80111714D02*
X75841142Y-80854571D01*
X75384000Y-80454571D01*
X75384000Y-80626000D01*
X75326857Y-80740285D01*
X75269714Y-80797428D01*
X75155428Y-80854571D01*
X74869714Y-80854571D01*
X74755428Y-80797428D01*
X74698285Y-80740285D01*
X74641142Y-80626000D01*
X74641142Y-80283142D01*
X74698285Y-80168857D01*
X74755428Y-80111714D01*
X75841142Y-81197428D02*
X74641142Y-81597428D01*
X75841142Y-81997428D01*
X74698285Y-74517428D02*
X74641142Y-74688857D01*
X74641142Y-74974571D01*
X74698285Y-75088857D01*
X74755428Y-75146000D01*
X74869714Y-75203142D01*
X74984000Y-75203142D01*
X75098285Y-75146000D01*
X75155428Y-75088857D01*
X75212571Y-74974571D01*
X75269714Y-74746000D01*
X75326857Y-74631714D01*
X75384000Y-74574571D01*
X75498285Y-74517428D01*
X75612571Y-74517428D01*
X75726857Y-74574571D01*
X75784000Y-74631714D01*
X75841142Y-74746000D01*
X75841142Y-75031714D01*
X75784000Y-75203142D01*
X74755428Y-76403142D02*
X74698285Y-76346000D01*
X74641142Y-76174571D01*
X74641142Y-76060285D01*
X74698285Y-75888857D01*
X74812571Y-75774571D01*
X74926857Y-75717428D01*
X75155428Y-75660285D01*
X75326857Y-75660285D01*
X75555428Y-75717428D01*
X75669714Y-75774571D01*
X75784000Y-75888857D01*
X75841142Y-76060285D01*
X75841142Y-76174571D01*
X75784000Y-76346000D01*
X75726857Y-76403142D01*
X74641142Y-77488857D02*
X74641142Y-76917428D01*
X75841142Y-76917428D01*
X74698285Y-69662857D02*
X74641142Y-69834285D01*
X74641142Y-70120000D01*
X74698285Y-70234285D01*
X74755428Y-70291428D01*
X74869714Y-70348571D01*
X74984000Y-70348571D01*
X75098285Y-70291428D01*
X75155428Y-70234285D01*
X75212571Y-70120000D01*
X75269714Y-69891428D01*
X75326857Y-69777142D01*
X75384000Y-69720000D01*
X75498285Y-69662857D01*
X75612571Y-69662857D01*
X75726857Y-69720000D01*
X75784000Y-69777142D01*
X75841142Y-69891428D01*
X75841142Y-70177142D01*
X75784000Y-70348571D01*
X74641142Y-70862857D02*
X75841142Y-70862857D01*
X75841142Y-71148571D01*
X75784000Y-71320000D01*
X75669714Y-71434285D01*
X75555428Y-71491428D01*
X75326857Y-71548571D01*
X75155428Y-71548571D01*
X74926857Y-71491428D01*
X74812571Y-71434285D01*
X74698285Y-71320000D01*
X74641142Y-71148571D01*
X74641142Y-70862857D01*
X74984000Y-72005714D02*
X74984000Y-72577142D01*
X74641142Y-71891428D02*
X75841142Y-72291428D01*
X74641142Y-72691428D01*
X93218095Y-105672000D02*
X93122857Y-105624380D01*
X92980000Y-105624380D01*
X92837142Y-105672000D01*
X92741904Y-105767238D01*
X92694285Y-105862476D01*
X92646666Y-106052952D01*
X92646666Y-106195809D01*
X92694285Y-106386285D01*
X92741904Y-106481523D01*
X92837142Y-106576761D01*
X92980000Y-106624380D01*
X93075238Y-106624380D01*
X93218095Y-106576761D01*
X93265714Y-106529142D01*
X93265714Y-106195809D01*
X93075238Y-106195809D01*
X93694285Y-106624380D02*
X93694285Y-105624380D01*
X94265714Y-106624380D01*
X94265714Y-105624380D01*
X94741904Y-106624380D02*
X94741904Y-105624380D01*
X94980000Y-105624380D01*
X95122857Y-105672000D01*
X95218095Y-105767238D01*
X95265714Y-105862476D01*
X95313333Y-106052952D01*
X95313333Y-106195809D01*
X95265714Y-106386285D01*
X95218095Y-106481523D01*
X95122857Y-106576761D01*
X94980000Y-106624380D01*
X94741904Y-106624380D01*
X92765714Y-75842761D02*
X92908571Y-75890380D01*
X93146666Y-75890380D01*
X93241904Y-75842761D01*
X93289523Y-75795142D01*
X93337142Y-75699904D01*
X93337142Y-75604666D01*
X93289523Y-75509428D01*
X93241904Y-75461809D01*
X93146666Y-75414190D01*
X92956190Y-75366571D01*
X92860952Y-75318952D01*
X92813333Y-75271333D01*
X92765714Y-75176095D01*
X92765714Y-75080857D01*
X92813333Y-74985619D01*
X92860952Y-74938000D01*
X92956190Y-74890380D01*
X93194285Y-74890380D01*
X93337142Y-74938000D01*
X93765714Y-75890380D02*
X93765714Y-74890380D01*
X94003809Y-74890380D01*
X94146666Y-74938000D01*
X94241904Y-75033238D01*
X94289523Y-75128476D01*
X94337142Y-75318952D01*
X94337142Y-75461809D01*
X94289523Y-75652285D01*
X94241904Y-75747523D01*
X94146666Y-75842761D01*
X94003809Y-75890380D01*
X93765714Y-75890380D01*
X94718095Y-75604666D02*
X95194285Y-75604666D01*
X94622857Y-75890380D02*
X94956190Y-74890380D01*
X95289523Y-75890380D01*
X92789523Y-78382761D02*
X92932380Y-78430380D01*
X93170476Y-78430380D01*
X93265714Y-78382761D01*
X93313333Y-78335142D01*
X93360952Y-78239904D01*
X93360952Y-78144666D01*
X93313333Y-78049428D01*
X93265714Y-78001809D01*
X93170476Y-77954190D01*
X92980000Y-77906571D01*
X92884761Y-77858952D01*
X92837142Y-77811333D01*
X92789523Y-77716095D01*
X92789523Y-77620857D01*
X92837142Y-77525619D01*
X92884761Y-77478000D01*
X92980000Y-77430380D01*
X93218095Y-77430380D01*
X93360952Y-77478000D01*
X94360952Y-78335142D02*
X94313333Y-78382761D01*
X94170476Y-78430380D01*
X94075238Y-78430380D01*
X93932380Y-78382761D01*
X93837142Y-78287523D01*
X93789523Y-78192285D01*
X93741904Y-78001809D01*
X93741904Y-77858952D01*
X93789523Y-77668476D01*
X93837142Y-77573238D01*
X93932380Y-77478000D01*
X94075238Y-77430380D01*
X94170476Y-77430380D01*
X94313333Y-77478000D01*
X94360952Y-77525619D01*
X95265714Y-78430380D02*
X94789523Y-78430380D01*
X94789523Y-77430380D01*
X92964095Y-79970380D02*
X93583142Y-79970380D01*
X93249809Y-80351333D01*
X93392666Y-80351333D01*
X93487904Y-80398952D01*
X93535523Y-80446571D01*
X93583142Y-80541809D01*
X93583142Y-80779904D01*
X93535523Y-80875142D01*
X93487904Y-80922761D01*
X93392666Y-80970380D01*
X93106952Y-80970380D01*
X93011714Y-80922761D01*
X92964095Y-80875142D01*
X93868857Y-79970380D02*
X94202190Y-80970380D01*
X94535523Y-79970380D01*
X93218095Y-82558000D02*
X93122857Y-82510380D01*
X92980000Y-82510380D01*
X92837142Y-82558000D01*
X92741904Y-82653238D01*
X92694285Y-82748476D01*
X92646666Y-82938952D01*
X92646666Y-83081809D01*
X92694285Y-83272285D01*
X92741904Y-83367523D01*
X92837142Y-83462761D01*
X92980000Y-83510380D01*
X93075238Y-83510380D01*
X93218095Y-83462761D01*
X93265714Y-83415142D01*
X93265714Y-83081809D01*
X93075238Y-83081809D01*
X93694285Y-83510380D02*
X93694285Y-82510380D01*
X94265714Y-83510380D01*
X94265714Y-82510380D01*
X94741904Y-83510380D02*
X94741904Y-82510380D01*
X94980000Y-82510380D01*
X95122857Y-82558000D01*
X95218095Y-82653238D01*
X95265714Y-82748476D01*
X95313333Y-82938952D01*
X95313333Y-83081809D01*
X95265714Y-83272285D01*
X95218095Y-83367523D01*
X95122857Y-83462761D01*
X94980000Y-83510380D01*
X94741904Y-83510380D01*
X158492666Y-144664666D02*
X155692666Y-144664666D01*
X158492666Y-143464666D02*
X157026000Y-143464666D01*
X156759333Y-143598000D01*
X156626000Y-143864666D01*
X156626000Y-144264666D01*
X156759333Y-144531333D01*
X156892666Y-144664666D01*
X156626000Y-142531333D02*
X156626000Y-141464666D01*
X155692666Y-142131333D02*
X158092666Y-142131333D01*
X158359333Y-141998000D01*
X158492666Y-141731333D01*
X158492666Y-141464666D01*
X156626000Y-140931333D02*
X156626000Y-139864666D01*
X155692666Y-140531333D02*
X158092666Y-140531333D01*
X158359333Y-140398000D01*
X158492666Y-140131333D01*
X158492666Y-139864666D01*
X156626000Y-138931333D02*
X159426000Y-138931333D01*
X156759333Y-138931333D02*
X156626000Y-138664666D01*
X156626000Y-138131333D01*
X156759333Y-137864666D01*
X156892666Y-137731333D01*
X157159333Y-137598000D01*
X157959333Y-137598000D01*
X158226000Y-137731333D01*
X158359333Y-137864666D01*
X158492666Y-138131333D01*
X158492666Y-138664666D01*
X158359333Y-138931333D01*
X158226000Y-136398000D02*
X158359333Y-136264666D01*
X158492666Y-136398000D01*
X158359333Y-136531333D01*
X158226000Y-136398000D01*
X158492666Y-136398000D01*
X156759333Y-136398000D02*
X156892666Y-136264666D01*
X157026000Y-136398000D01*
X156892666Y-136531333D01*
X156759333Y-136398000D01*
X157026000Y-136398000D01*
X155559333Y-133064666D02*
X159159333Y-135464666D01*
X155559333Y-130131333D02*
X159159333Y-132531333D01*
X156626000Y-129198000D02*
X159426000Y-129198000D01*
X156759333Y-129198000D02*
X156626000Y-128931333D01*
X156626000Y-128398000D01*
X156759333Y-128131333D01*
X156892666Y-127998000D01*
X157159333Y-127864666D01*
X157959333Y-127864666D01*
X158226000Y-127998000D01*
X158359333Y-128131333D01*
X158492666Y-128398000D01*
X158492666Y-128931333D01*
X158359333Y-129198000D01*
X156626000Y-126931333D02*
X158492666Y-126264666D01*
X156626000Y-125598000D01*
X158492666Y-124131333D02*
X158359333Y-124398000D01*
X158226000Y-124531333D01*
X157959333Y-124664666D01*
X157159333Y-124664666D01*
X156892666Y-124531333D01*
X156759333Y-124398000D01*
X156626000Y-124131333D01*
X156626000Y-123731333D01*
X156759333Y-123464666D01*
X156892666Y-123331333D01*
X157159333Y-123198000D01*
X157959333Y-123198000D01*
X158226000Y-123331333D01*
X158359333Y-123464666D01*
X158492666Y-123731333D01*
X158492666Y-124131333D01*
X158359333Y-122131333D02*
X158492666Y-121864666D01*
X158492666Y-121331333D01*
X158359333Y-121064666D01*
X158092666Y-120931333D01*
X157959333Y-120931333D01*
X157692666Y-121064666D01*
X157559333Y-121331333D01*
X157559333Y-121731333D01*
X157426000Y-121998000D01*
X157159333Y-122131333D01*
X157026000Y-122131333D01*
X156759333Y-121998000D01*
X156626000Y-121731333D01*
X156626000Y-121331333D01*
X156759333Y-121064666D01*
X158226000Y-119731333D02*
X158359333Y-119598000D01*
X158492666Y-119731333D01*
X158359333Y-119864666D01*
X158226000Y-119731333D01*
X158492666Y-119731333D01*
X158492666Y-117998000D02*
X158359333Y-118264666D01*
X158226000Y-118398000D01*
X157959333Y-118531333D01*
X157159333Y-118531333D01*
X156892666Y-118398000D01*
X156759333Y-118264666D01*
X156626000Y-117998000D01*
X156626000Y-117598000D01*
X156759333Y-117331333D01*
X156892666Y-117198000D01*
X157159333Y-117064666D01*
X157959333Y-117064666D01*
X158226000Y-117198000D01*
X158359333Y-117331333D01*
X158492666Y-117598000D01*
X158492666Y-117998000D01*
X158492666Y-115864666D02*
X156626000Y-115864666D01*
X157159333Y-115864666D02*
X156892666Y-115731333D01*
X156759333Y-115598000D01*
X156626000Y-115331333D01*
X156626000Y-115064666D01*
X156626000Y-112931333D02*
X158892666Y-112931333D01*
X159159333Y-113064666D01*
X159292666Y-113198000D01*
X159426000Y-113464666D01*
X159426000Y-113864666D01*
X159292666Y-114131333D01*
X158359333Y-112931333D02*
X158492666Y-113198000D01*
X158492666Y-113731333D01*
X158359333Y-113998000D01*
X158226000Y-114131333D01*
X157959333Y-114264666D01*
X157159333Y-114264666D01*
X156892666Y-114131333D01*
X156759333Y-113998000D01*
X156626000Y-113731333D01*
X156626000Y-113198000D01*
X156759333Y-112931333D01*
X155559333Y-109598000D02*
X159159333Y-111998000D01*
X158359333Y-107464666D02*
X158492666Y-107731333D01*
X158492666Y-108264666D01*
X158359333Y-108531333D01*
X158226000Y-108664666D01*
X157959333Y-108798000D01*
X157159333Y-108798000D01*
X156892666Y-108664666D01*
X156759333Y-108531333D01*
X156626000Y-108264666D01*
X156626000Y-107731333D01*
X156759333Y-107464666D01*
X158492666Y-105064666D02*
X157026000Y-105064666D01*
X156759333Y-105198000D01*
X156626000Y-105464666D01*
X156626000Y-105998000D01*
X156759333Y-106264666D01*
X158359333Y-105064666D02*
X158492666Y-105331333D01*
X158492666Y-105998000D01*
X158359333Y-106264666D01*
X158092666Y-106398000D01*
X157826000Y-106398000D01*
X157559333Y-106264666D01*
X157426000Y-105998000D01*
X157426000Y-105331333D01*
X157292666Y-105064666D01*
X158492666Y-103731333D02*
X156626000Y-103731333D01*
X157159333Y-103731333D02*
X156892666Y-103598000D01*
X156759333Y-103464666D01*
X156626000Y-103198000D01*
X156626000Y-102931333D01*
X158492666Y-101998000D02*
X155692666Y-101998000D01*
X156759333Y-101998000D02*
X156626000Y-101731333D01*
X156626000Y-101198000D01*
X156759333Y-100931333D01*
X156892666Y-100798000D01*
X157159333Y-100664666D01*
X157959333Y-100664666D01*
X158226000Y-100798000D01*
X158359333Y-100931333D01*
X158492666Y-101198000D01*
X158492666Y-101731333D01*
X158359333Y-101998000D01*
X158492666Y-99064666D02*
X158359333Y-99331333D01*
X158226000Y-99464666D01*
X157959333Y-99598000D01*
X157159333Y-99598000D01*
X156892666Y-99464666D01*
X156759333Y-99331333D01*
X156626000Y-99064666D01*
X156626000Y-98664666D01*
X156759333Y-98398000D01*
X156892666Y-98264666D01*
X157159333Y-98131333D01*
X157959333Y-98131333D01*
X158226000Y-98264666D01*
X158359333Y-98398000D01*
X158492666Y-98664666D01*
X158492666Y-99064666D01*
X156626000Y-96931333D02*
X158492666Y-96931333D01*
X156892666Y-96931333D02*
X156759333Y-96798000D01*
X156626000Y-96531333D01*
X156626000Y-96131333D01*
X156759333Y-95864666D01*
X157026000Y-95731333D01*
X158492666Y-95731333D01*
X157426000Y-94398000D02*
X157426000Y-92264666D01*
X158492666Y-89731333D02*
X155692666Y-89731333D01*
X158359333Y-89731333D02*
X158492666Y-89998000D01*
X158492666Y-90531333D01*
X158359333Y-90798000D01*
X158226000Y-90931333D01*
X157959333Y-91064666D01*
X157159333Y-91064666D01*
X156892666Y-90931333D01*
X156759333Y-90798000D01*
X156626000Y-90531333D01*
X156626000Y-89998000D01*
X156759333Y-89731333D01*
X158492666Y-88398000D02*
X156626000Y-88398000D01*
X155692666Y-88398000D02*
X155826000Y-88531333D01*
X155959333Y-88398000D01*
X155826000Y-88264666D01*
X155692666Y-88398000D01*
X155959333Y-88398000D01*
X158492666Y-86664666D02*
X158359333Y-86931333D01*
X158226000Y-87064666D01*
X157959333Y-87198000D01*
X157159333Y-87198000D01*
X156892666Y-87064666D01*
X156759333Y-86931333D01*
X156626000Y-86664666D01*
X156626000Y-86264666D01*
X156759333Y-85998000D01*
X156892666Y-85864666D01*
X157159333Y-85731333D01*
X157959333Y-85731333D01*
X158226000Y-85864666D01*
X158359333Y-85998000D01*
X158492666Y-86264666D01*
X158492666Y-86664666D01*
X158492666Y-84798000D02*
X156626000Y-83331333D01*
X156626000Y-84798000D02*
X158492666Y-83331333D01*
X158492666Y-82264666D02*
X156626000Y-82264666D01*
X155692666Y-82264666D02*
X155826000Y-82398000D01*
X155959333Y-82264666D01*
X155826000Y-82131333D01*
X155692666Y-82264666D01*
X155959333Y-82264666D01*
X158492666Y-79731333D02*
X155692666Y-79731333D01*
X158359333Y-79731333D02*
X158492666Y-79998000D01*
X158492666Y-80531333D01*
X158359333Y-80798000D01*
X158226000Y-80931333D01*
X157959333Y-81064666D01*
X157159333Y-81064666D01*
X156892666Y-80931333D01*
X156759333Y-80798000D01*
X156626000Y-80531333D01*
X156626000Y-79998000D01*
X156759333Y-79731333D01*
X158359333Y-77331333D02*
X158492666Y-77598000D01*
X158492666Y-78131333D01*
X158359333Y-78398000D01*
X158092666Y-78531333D01*
X157026000Y-78531333D01*
X156759333Y-78398000D01*
X156626000Y-78131333D01*
X156626000Y-77598000D01*
X156759333Y-77331333D01*
X157026000Y-77198000D01*
X157292666Y-77198000D01*
X157559333Y-78531333D01*
D11*
%TO.C,G\u002A\u002A\u002A*%
G36*
X97306827Y-148016370D02*
G01*
X97367772Y-148048251D01*
X97557537Y-148201514D01*
X97625266Y-148452325D01*
X97595106Y-148902786D01*
X97586375Y-148972618D01*
X97557043Y-149591552D01*
X97592803Y-150301828D01*
X97632876Y-150620202D01*
X97716857Y-151327055D01*
X97693012Y-151745891D01*
X97560229Y-151891989D01*
X97540287Y-151892150D01*
X97354915Y-151815743D01*
X96975056Y-151622141D01*
X96512578Y-151369682D01*
X96029009Y-151078464D01*
X95670194Y-150824874D01*
X95520996Y-150673704D01*
X95543684Y-150569458D01*
X95905898Y-150569458D01*
X96034312Y-150701787D01*
X96354868Y-150916335D01*
X96770536Y-151154771D01*
X97184286Y-151358764D01*
X97297729Y-151406180D01*
X97304266Y-151261594D01*
X97301147Y-150864696D01*
X97289247Y-150284523D01*
X97278426Y-149883032D01*
X97240204Y-149023817D01*
X97184494Y-148483198D01*
X97110616Y-148258689D01*
X97017893Y-148347808D01*
X96934324Y-148624082D01*
X96774841Y-149035505D01*
X96502145Y-149541307D01*
X96363842Y-149757142D01*
X96100232Y-150169724D01*
X95934699Y-150478341D01*
X95905898Y-150569458D01*
X95543684Y-150569458D01*
X95568784Y-150454137D01*
X95766325Y-150074696D01*
X95982350Y-149745081D01*
X96304655Y-149217929D01*
X96545555Y-148690311D01*
X96619508Y-148437845D01*
X96743683Y-148024444D01*
X96949557Y-147896048D01*
X97306827Y-148016370D01*
G37*
X97306827Y-148016370D02*
X97367772Y-148048251D01*
X97557537Y-148201514D01*
X97625266Y-148452325D01*
X97595106Y-148902786D01*
X97586375Y-148972618D01*
X97557043Y-149591552D01*
X97592803Y-150301828D01*
X97632876Y-150620202D01*
X97716857Y-151327055D01*
X97693012Y-151745891D01*
X97560229Y-151891989D01*
X97540287Y-151892150D01*
X97354915Y-151815743D01*
X96975056Y-151622141D01*
X96512578Y-151369682D01*
X96029009Y-151078464D01*
X95670194Y-150824874D01*
X95520996Y-150673704D01*
X95543684Y-150569458D01*
X95905898Y-150569458D01*
X96034312Y-150701787D01*
X96354868Y-150916335D01*
X96770536Y-151154771D01*
X97184286Y-151358764D01*
X97297729Y-151406180D01*
X97304266Y-151261594D01*
X97301147Y-150864696D01*
X97289247Y-150284523D01*
X97278426Y-149883032D01*
X97240204Y-149023817D01*
X97184494Y-148483198D01*
X97110616Y-148258689D01*
X97017893Y-148347808D01*
X96934324Y-148624082D01*
X96774841Y-149035505D01*
X96502145Y-149541307D01*
X96363842Y-149757142D01*
X96100232Y-150169724D01*
X95934699Y-150478341D01*
X95905898Y-150569458D01*
X95543684Y-150569458D01*
X95568784Y-150454137D01*
X95766325Y-150074696D01*
X95982350Y-149745081D01*
X96304655Y-149217929D01*
X96545555Y-148690311D01*
X96619508Y-148437845D01*
X96743683Y-148024444D01*
X96949557Y-147896048D01*
X97306827Y-148016370D01*
G36*
X83151716Y-149552876D02*
G01*
X83328130Y-149838431D01*
X83438937Y-150281732D01*
X83383689Y-150694088D01*
X83195976Y-150982532D01*
X82909386Y-151054098D01*
X82890513Y-151049657D01*
X82644228Y-151064617D01*
X82537211Y-151327551D01*
X82531669Y-151368599D01*
X82456368Y-151623030D01*
X82361911Y-151645921D01*
X82299061Y-151431733D01*
X82255444Y-150995888D01*
X82241341Y-150505182D01*
X82246450Y-150235427D01*
X82650868Y-150235427D01*
X82684121Y-150411405D01*
X82833465Y-150606751D01*
X82978318Y-150529041D01*
X83045105Y-150219228D01*
X83045139Y-150210456D01*
X82994666Y-149908270D01*
X82897776Y-149808557D01*
X82716268Y-149940795D01*
X82650868Y-150235427D01*
X82246450Y-150235427D01*
X82251886Y-149948501D01*
X82298646Y-149641204D01*
X82404312Y-149511438D01*
X82562860Y-149487038D01*
X82887078Y-149470793D01*
X83004949Y-149451368D01*
X83151716Y-149552876D01*
G37*
X83151716Y-149552876D02*
X83328130Y-149838431D01*
X83438937Y-150281732D01*
X83383689Y-150694088D01*
X83195976Y-150982532D01*
X82909386Y-151054098D01*
X82890513Y-151049657D01*
X82644228Y-151064617D01*
X82537211Y-151327551D01*
X82531669Y-151368599D01*
X82456368Y-151623030D01*
X82361911Y-151645921D01*
X82299061Y-151431733D01*
X82255444Y-150995888D01*
X82241341Y-150505182D01*
X82246450Y-150235427D01*
X82650868Y-150235427D01*
X82684121Y-150411405D01*
X82833465Y-150606751D01*
X82978318Y-150529041D01*
X83045105Y-150219228D01*
X83045139Y-150210456D01*
X82994666Y-149908270D01*
X82897776Y-149808557D01*
X82716268Y-149940795D01*
X82650868Y-150235427D01*
X82246450Y-150235427D01*
X82251886Y-149948501D01*
X82298646Y-149641204D01*
X82404312Y-149511438D01*
X82562860Y-149487038D01*
X82887078Y-149470793D01*
X83004949Y-149451368D01*
X83151716Y-149552876D01*
G36*
X81678375Y-149533248D02*
G01*
X81797845Y-149655771D01*
X82050051Y-150110915D01*
X82014107Y-150563664D01*
X81914166Y-150783683D01*
X81631531Y-151050494D01*
X81285749Y-151054772D01*
X80986166Y-150805319D01*
X80931416Y-150704589D01*
X80816443Y-150229249D01*
X80819436Y-150210456D01*
X81276784Y-150210456D01*
X81331814Y-150512573D01*
X81437544Y-150612355D01*
X81558391Y-150474780D01*
X81598303Y-150210456D01*
X81543274Y-149908339D01*
X81437544Y-149808557D01*
X81316697Y-149946132D01*
X81276784Y-150210456D01*
X80819436Y-150210456D01*
X80882360Y-149815485D01*
X81080458Y-149522257D01*
X81362032Y-149408525D01*
X81678375Y-149533248D01*
G37*
X81678375Y-149533248D02*
X81797845Y-149655771D01*
X82050051Y-150110915D01*
X82014107Y-150563664D01*
X81914166Y-150783683D01*
X81631531Y-151050494D01*
X81285749Y-151054772D01*
X80986166Y-150805319D01*
X80931416Y-150704589D01*
X80816443Y-150229249D01*
X80819436Y-150210456D01*
X81276784Y-150210456D01*
X81331814Y-150512573D01*
X81437544Y-150612355D01*
X81558391Y-150474780D01*
X81598303Y-150210456D01*
X81543274Y-149908339D01*
X81437544Y-149808557D01*
X81316697Y-149946132D01*
X81276784Y-150210456D01*
X80819436Y-150210456D01*
X80882360Y-149815485D01*
X81080458Y-149522257D01*
X81362032Y-149408525D01*
X81678375Y-149533248D01*
G36*
X84441316Y-149457047D02*
G01*
X84682533Y-149758284D01*
X84810496Y-150093388D01*
X84813493Y-150141559D01*
X84715562Y-150384360D01*
X84402107Y-150451595D01*
X84123616Y-150503861D01*
X84094117Y-150618894D01*
X84309751Y-150711113D01*
X84524523Y-150682404D01*
X84765311Y-150656804D01*
X84779731Y-150796434D01*
X84567686Y-151007006D01*
X84223632Y-151055950D01*
X83903977Y-150923733D01*
X83887249Y-150907882D01*
X83719890Y-150574543D01*
X83695056Y-150139831D01*
X83733706Y-149969317D01*
X84009696Y-149969317D01*
X84132030Y-150125405D01*
X84170455Y-150130076D01*
X84326543Y-150007742D01*
X84331215Y-149969317D01*
X84208881Y-149813229D01*
X84170455Y-149808557D01*
X84014367Y-149930891D01*
X84009696Y-149969317D01*
X83733706Y-149969317D01*
X83791455Y-149714552D01*
X83987800Y-149409513D01*
X84191124Y-149326279D01*
X84441316Y-149457047D01*
G37*
X84441316Y-149457047D02*
X84682533Y-149758284D01*
X84810496Y-150093388D01*
X84813493Y-150141559D01*
X84715562Y-150384360D01*
X84402107Y-150451595D01*
X84123616Y-150503861D01*
X84094117Y-150618894D01*
X84309751Y-150711113D01*
X84524523Y-150682404D01*
X84765311Y-150656804D01*
X84779731Y-150796434D01*
X84567686Y-151007006D01*
X84223632Y-151055950D01*
X83903977Y-150923733D01*
X83887249Y-150907882D01*
X83719890Y-150574543D01*
X83695056Y-150139831D01*
X83733706Y-149969317D01*
X84009696Y-149969317D01*
X84132030Y-150125405D01*
X84170455Y-150130076D01*
X84326543Y-150007742D01*
X84331215Y-149969317D01*
X84208881Y-149813229D01*
X84170455Y-149808557D01*
X84014367Y-149930891D01*
X84009696Y-149969317D01*
X83733706Y-149969317D01*
X83791455Y-149714552D01*
X83987800Y-149409513D01*
X84191124Y-149326279D01*
X84441316Y-149457047D01*
G36*
X85978084Y-149430931D02*
G01*
X86057577Y-149623076D01*
X86094499Y-149997568D01*
X86091552Y-150440016D01*
X86051436Y-150836026D01*
X85976851Y-151071207D01*
X85938810Y-151094633D01*
X85838142Y-150952015D01*
X85782150Y-150595738D01*
X85778050Y-150451595D01*
X85742396Y-150048923D01*
X85653327Y-149824955D01*
X85617291Y-149808557D01*
X85516623Y-149951175D01*
X85460631Y-150307452D01*
X85456531Y-150451595D01*
X85411116Y-150926371D01*
X85275676Y-151095084D01*
X85081426Y-150987460D01*
X85014758Y-150772703D01*
X84977256Y-150364583D01*
X84974253Y-150202404D01*
X84996924Y-149767105D01*
X85104048Y-149550930D01*
X85354293Y-149452520D01*
X85415426Y-149440185D01*
X85779917Y-149402498D01*
X85978084Y-149430931D01*
G37*
X85978084Y-149430931D02*
X86057577Y-149623076D01*
X86094499Y-149997568D01*
X86091552Y-150440016D01*
X86051436Y-150836026D01*
X85976851Y-151071207D01*
X85938810Y-151094633D01*
X85838142Y-150952015D01*
X85782150Y-150595738D01*
X85778050Y-150451595D01*
X85742396Y-150048923D01*
X85653327Y-149824955D01*
X85617291Y-149808557D01*
X85516623Y-149951175D01*
X85460631Y-150307452D01*
X85456531Y-150451595D01*
X85411116Y-150926371D01*
X85275676Y-151095084D01*
X85081426Y-150987460D01*
X85014758Y-150772703D01*
X84977256Y-150364583D01*
X84974253Y-150202404D01*
X84996924Y-149767105D01*
X85104048Y-149550930D01*
X85354293Y-149452520D01*
X85415426Y-149440185D01*
X85779917Y-149402498D01*
X85978084Y-149430931D01*
G36*
X87963178Y-149552531D02*
G01*
X87988493Y-149607608D01*
X87910962Y-149770318D01*
X87680371Y-149819438D01*
X87305265Y-149830318D01*
X87674939Y-150008317D01*
X87941291Y-150267228D01*
X88010933Y-150610188D01*
X87890151Y-150916388D01*
X87620169Y-151061225D01*
X87300731Y-151050470D01*
X87178080Y-150994242D01*
X87061991Y-150765549D01*
X87209125Y-150664301D01*
X87385645Y-150692735D01*
X87656061Y-150731930D01*
X87664844Y-150608634D01*
X87414112Y-150344236D01*
X87345455Y-150286486D01*
X87104129Y-150027221D01*
X87112267Y-149790201D01*
X87162027Y-149698059D01*
X87422557Y-149469729D01*
X87734314Y-149416326D01*
X87963178Y-149552531D01*
G37*
X87963178Y-149552531D02*
X87988493Y-149607608D01*
X87910962Y-149770318D01*
X87680371Y-149819438D01*
X87305265Y-149830318D01*
X87674939Y-150008317D01*
X87941291Y-150267228D01*
X88010933Y-150610188D01*
X87890151Y-150916388D01*
X87620169Y-151061225D01*
X87300731Y-151050470D01*
X87178080Y-150994242D01*
X87061991Y-150765549D01*
X87209125Y-150664301D01*
X87385645Y-150692735D01*
X87656061Y-150731930D01*
X87664844Y-150608634D01*
X87414112Y-150344236D01*
X87345455Y-150286486D01*
X87104129Y-150027221D01*
X87112267Y-149790201D01*
X87162027Y-149698059D01*
X87422557Y-149469729D01*
X87734314Y-149416326D01*
X87963178Y-149552531D01*
G36*
X89150721Y-149460401D02*
G01*
X89311835Y-149633476D01*
X89314759Y-149664997D01*
X89179964Y-149781686D01*
X88993240Y-149808557D01*
X88741117Y-149902751D01*
X88671721Y-150210456D01*
X88744923Y-150523359D01*
X89004350Y-150612352D01*
X89006637Y-150612355D01*
X89251645Y-150689156D01*
X89274644Y-150813304D01*
X89065955Y-151028098D01*
X88747514Y-151030855D01*
X88547806Y-150906414D01*
X88392897Y-150574570D01*
X88359401Y-150117579D01*
X88444701Y-149693799D01*
X88570965Y-149503949D01*
X88852752Y-149406180D01*
X89150721Y-149460401D01*
G37*
X89150721Y-149460401D02*
X89311835Y-149633476D01*
X89314759Y-149664997D01*
X89179964Y-149781686D01*
X88993240Y-149808557D01*
X88741117Y-149902751D01*
X88671721Y-150210456D01*
X88744923Y-150523359D01*
X89004350Y-150612352D01*
X89006637Y-150612355D01*
X89251645Y-150689156D01*
X89274644Y-150813304D01*
X89065955Y-151028098D01*
X88747514Y-151030855D01*
X88547806Y-150906414D01*
X88392897Y-150574570D01*
X88359401Y-150117579D01*
X88444701Y-149693799D01*
X88570965Y-149503949D01*
X88852752Y-149406180D01*
X89150721Y-149460401D01*
G36*
X89876543Y-149582898D02*
G01*
X89948656Y-149908013D01*
X89957797Y-150200969D01*
X89914664Y-150728150D01*
X89796461Y-151012351D01*
X89619977Y-151018964D01*
X89578321Y-150983090D01*
X89515150Y-150771904D01*
X89478901Y-150364011D01*
X89475519Y-150183663D01*
X89509487Y-149716625D01*
X89624127Y-149509970D01*
X89716658Y-149487038D01*
X89876543Y-149582898D01*
G37*
X89876543Y-149582898D02*
X89948656Y-149908013D01*
X89957797Y-150200969D01*
X89914664Y-150728150D01*
X89796461Y-151012351D01*
X89619977Y-151018964D01*
X89578321Y-150983090D01*
X89515150Y-150771904D01*
X89478901Y-150364011D01*
X89475519Y-150183663D01*
X89509487Y-149716625D01*
X89624127Y-149509970D01*
X89716658Y-149487038D01*
X89876543Y-149582898D01*
G36*
X90946404Y-149456821D02*
G01*
X91018632Y-149521321D01*
X91248589Y-149888303D01*
X91250428Y-150213680D01*
X91029965Y-150407785D01*
X90960160Y-150422899D01*
X90713014Y-150513384D01*
X90683979Y-150616827D01*
X90885882Y-150690552D01*
X91029818Y-150660097D01*
X91218654Y-150652992D01*
X91213027Y-150787687D01*
X91001467Y-151029454D01*
X90680653Y-151058583D01*
X90373925Y-150884412D01*
X90260468Y-150715566D01*
X90156656Y-150267707D01*
X90199614Y-149969317D01*
X90600835Y-149969317D01*
X90723169Y-150125405D01*
X90761595Y-150130076D01*
X90917683Y-150007742D01*
X90922354Y-149969317D01*
X90800020Y-149813229D01*
X90761595Y-149808557D01*
X90605507Y-149930891D01*
X90600835Y-149969317D01*
X90199614Y-149969317D01*
X90216892Y-149849306D01*
X90397628Y-149528960D01*
X90655314Y-149375266D01*
X90946404Y-149456821D01*
G37*
X90946404Y-149456821D02*
X91018632Y-149521321D01*
X91248589Y-149888303D01*
X91250428Y-150213680D01*
X91029965Y-150407785D01*
X90960160Y-150422899D01*
X90713014Y-150513384D01*
X90683979Y-150616827D01*
X90885882Y-150690552D01*
X91029818Y-150660097D01*
X91218654Y-150652992D01*
X91213027Y-150787687D01*
X91001467Y-151029454D01*
X90680653Y-151058583D01*
X90373925Y-150884412D01*
X90260468Y-150715566D01*
X90156656Y-150267707D01*
X90199614Y-149969317D01*
X90600835Y-149969317D01*
X90723169Y-150125405D01*
X90761595Y-150130076D01*
X90917683Y-150007742D01*
X90922354Y-149969317D01*
X90800020Y-149813229D01*
X90761595Y-149808557D01*
X90605507Y-149930891D01*
X90600835Y-149969317D01*
X90199614Y-149969317D01*
X90216892Y-149849306D01*
X90397628Y-149528960D01*
X90655314Y-149375266D01*
X90946404Y-149456821D01*
G36*
X92325392Y-149453214D02*
G01*
X92521672Y-149543065D01*
X92625343Y-149785256D01*
X92678975Y-150177515D01*
X92681949Y-150603823D01*
X92633646Y-150948162D01*
X92533446Y-151094514D01*
X92529949Y-151094633D01*
X92422970Y-150953485D01*
X92370325Y-150607151D01*
X92369190Y-150541463D01*
X92331193Y-150144458D01*
X92238398Y-149909755D01*
X92225275Y-149899348D01*
X92061863Y-149940585D01*
X91938449Y-150226996D01*
X91887020Y-150682335D01*
X91886911Y-150705883D01*
X91830190Y-151001651D01*
X91726152Y-151094633D01*
X91633524Y-150950247D01*
X91575426Y-150581918D01*
X91565392Y-150309577D01*
X91582736Y-149832320D01*
X91662638Y-149584547D01*
X91846899Y-149474894D01*
X91959014Y-149449275D01*
X92325392Y-149453214D01*
G37*
X92325392Y-149453214D02*
X92521672Y-149543065D01*
X92625343Y-149785256D01*
X92678975Y-150177515D01*
X92681949Y-150603823D01*
X92633646Y-150948162D01*
X92533446Y-151094514D01*
X92529949Y-151094633D01*
X92422970Y-150953485D01*
X92370325Y-150607151D01*
X92369190Y-150541463D01*
X92331193Y-150144458D01*
X92238398Y-149909755D01*
X92225275Y-149899348D01*
X92061863Y-149940585D01*
X91938449Y-150226996D01*
X91887020Y-150682335D01*
X91886911Y-150705883D01*
X91830190Y-151001651D01*
X91726152Y-151094633D01*
X91633524Y-150950247D01*
X91575426Y-150581918D01*
X91565392Y-150309577D01*
X91582736Y-149832320D01*
X91662638Y-149584547D01*
X91846899Y-149474894D01*
X91959014Y-149449275D01*
X92325392Y-149453214D01*
G36*
X93707104Y-149417951D02*
G01*
X93951068Y-149591740D01*
X93908253Y-149751734D01*
X93655265Y-149808557D01*
X93403142Y-149902751D01*
X93333746Y-150210456D01*
X93406948Y-150523359D01*
X93666376Y-150612352D01*
X93668662Y-150612355D01*
X93913670Y-150689156D01*
X93936670Y-150813304D01*
X93723945Y-151024466D01*
X93378053Y-151033482D01*
X93186384Y-150947816D01*
X93013075Y-150671754D01*
X92967016Y-150244301D01*
X93047009Y-149808808D01*
X93198032Y-149553856D01*
X93513124Y-149400443D01*
X93707104Y-149417951D01*
G37*
X93707104Y-149417951D02*
X93951068Y-149591740D01*
X93908253Y-149751734D01*
X93655265Y-149808557D01*
X93403142Y-149902751D01*
X93333746Y-150210456D01*
X93406948Y-150523359D01*
X93666376Y-150612352D01*
X93668662Y-150612355D01*
X93913670Y-150689156D01*
X93936670Y-150813304D01*
X93723945Y-151024466D01*
X93378053Y-151033482D01*
X93186384Y-150947816D01*
X93013075Y-150671754D01*
X92967016Y-150244301D01*
X93047009Y-149808808D01*
X93198032Y-149553856D01*
X93513124Y-149400443D01*
X93707104Y-149417951D01*
G36*
X95124274Y-149639997D02*
G01*
X95262264Y-150027111D01*
X95262860Y-150057685D01*
X95196578Y-150355744D01*
X94935655Y-150449511D01*
X94851474Y-150451595D01*
X94572983Y-150503861D01*
X94543484Y-150618894D01*
X94759118Y-150711113D01*
X94973890Y-150682404D01*
X95214678Y-150656804D01*
X95229098Y-150796434D01*
X95017053Y-151007006D01*
X94672999Y-151055950D01*
X94353345Y-150923733D01*
X94336616Y-150907882D01*
X94170024Y-150568171D01*
X94142260Y-150122562D01*
X94201975Y-149884173D01*
X94526567Y-149884173D01*
X94539443Y-149969317D01*
X94676949Y-150122511D01*
X94700202Y-150130076D01*
X94828013Y-150017953D01*
X94860962Y-149969317D01*
X94822787Y-149833122D01*
X94700202Y-149808557D01*
X94526567Y-149884173D01*
X94201975Y-149884173D01*
X94244483Y-149714483D01*
X94423024Y-149506326D01*
X94811848Y-149444947D01*
X95124274Y-149639997D01*
G37*
X95124274Y-149639997D02*
X95262264Y-150027111D01*
X95262860Y-150057685D01*
X95196578Y-150355744D01*
X94935655Y-150449511D01*
X94851474Y-150451595D01*
X94572983Y-150503861D01*
X94543484Y-150618894D01*
X94759118Y-150711113D01*
X94973890Y-150682404D01*
X95214678Y-150656804D01*
X95229098Y-150796434D01*
X95017053Y-151007006D01*
X94672999Y-151055950D01*
X94353345Y-150923733D01*
X94336616Y-150907882D01*
X94170024Y-150568171D01*
X94142260Y-150122562D01*
X94201975Y-149884173D01*
X94526567Y-149884173D01*
X94539443Y-149969317D01*
X94676949Y-150122511D01*
X94700202Y-150130076D01*
X94828013Y-150017953D01*
X94860962Y-149969317D01*
X94822787Y-149833122D01*
X94700202Y-149808557D01*
X94526567Y-149884173D01*
X94201975Y-149884173D01*
X94244483Y-149714483D01*
X94423024Y-149506326D01*
X94811848Y-149444947D01*
X95124274Y-149639997D01*
G36*
X80834696Y-147290581D02*
G01*
X81178600Y-147337391D01*
X81338413Y-147496822D01*
X81402308Y-147867395D01*
X81407727Y-147930852D01*
X81380821Y-148469051D01*
X81219369Y-148817274D01*
X80954178Y-148920833D01*
X80863132Y-148897625D01*
X80675294Y-148936032D01*
X80633746Y-149148320D01*
X80569501Y-149418748D01*
X80472987Y-149487038D01*
X80390259Y-149338521D01*
X80333184Y-148941219D01*
X80312227Y-148375708D01*
X80312227Y-148001622D01*
X80633746Y-148001622D01*
X80668434Y-148375458D01*
X80744269Y-148579417D01*
X80965021Y-148656191D01*
X81134298Y-148469746D01*
X81196405Y-148109388D01*
X81111364Y-147717249D01*
X80915076Y-147588528D01*
X80708716Y-147625904D01*
X80636219Y-147893028D01*
X80633746Y-148001622D01*
X80312227Y-148001622D01*
X80312227Y-147264377D01*
X80834696Y-147290581D01*
G37*
X80834696Y-147290581D02*
X81178600Y-147337391D01*
X81338413Y-147496822D01*
X81402308Y-147867395D01*
X81407727Y-147930852D01*
X81380821Y-148469051D01*
X81219369Y-148817274D01*
X80954178Y-148920833D01*
X80863132Y-148897625D01*
X80675294Y-148936032D01*
X80633746Y-149148320D01*
X80569501Y-149418748D01*
X80472987Y-149487038D01*
X80390259Y-149338521D01*
X80333184Y-148941219D01*
X80312227Y-148375708D01*
X80312227Y-148001622D01*
X80633746Y-148001622D01*
X80668434Y-148375458D01*
X80744269Y-148579417D01*
X80965021Y-148656191D01*
X81134298Y-148469746D01*
X81196405Y-148109388D01*
X81111364Y-147717249D01*
X80915076Y-147588528D01*
X80708716Y-147625904D01*
X80636219Y-147893028D01*
X80633746Y-148001622D01*
X80312227Y-148001622D01*
X80312227Y-147264377D01*
X80834696Y-147290581D01*
G36*
X96500773Y-147260692D02*
G01*
X96523996Y-147373938D01*
X96459288Y-147636719D01*
X96295318Y-148109612D01*
X96177671Y-148429978D01*
X95957378Y-148940299D01*
X95736380Y-149315503D01*
X95584379Y-149460868D01*
X95428920Y-149486785D01*
X95499800Y-149351604D01*
X95568107Y-149266941D01*
X95683572Y-148971626D01*
X95648160Y-148512731D01*
X95455493Y-147844829D01*
X95314574Y-147460812D01*
X95324674Y-147264470D01*
X95393647Y-147236405D01*
X95539766Y-147375138D01*
X95662770Y-147709754D01*
X95664759Y-147718684D01*
X95777683Y-148056066D01*
X95903150Y-148200865D01*
X95905898Y-148200962D01*
X96030901Y-148062490D01*
X96144874Y-147728409D01*
X96147038Y-147718684D01*
X96263690Y-147381186D01*
X96398053Y-147236496D01*
X96400950Y-147236405D01*
X96500773Y-147260692D01*
G37*
X96500773Y-147260692D02*
X96523996Y-147373938D01*
X96459288Y-147636719D01*
X96295318Y-148109612D01*
X96177671Y-148429978D01*
X95957378Y-148940299D01*
X95736380Y-149315503D01*
X95584379Y-149460868D01*
X95428920Y-149486785D01*
X95499800Y-149351604D01*
X95568107Y-149266941D01*
X95683572Y-148971626D01*
X95648160Y-148512731D01*
X95455493Y-147844829D01*
X95314574Y-147460812D01*
X95324674Y-147264470D01*
X95393647Y-147236405D01*
X95539766Y-147375138D01*
X95662770Y-147709754D01*
X95664759Y-147718684D01*
X95777683Y-148056066D01*
X95903150Y-148200865D01*
X95905898Y-148200962D01*
X96030901Y-148062490D01*
X96144874Y-147728409D01*
X96147038Y-147718684D01*
X96263690Y-147381186D01*
X96398053Y-147236496D01*
X96400950Y-147236405D01*
X96500773Y-147260692D01*
G36*
X89930592Y-148930806D02*
G01*
X89957797Y-149004760D01*
X89827589Y-149147382D01*
X89716658Y-149165519D01*
X89502724Y-149078714D01*
X89475519Y-149004760D01*
X89605727Y-148862137D01*
X89716658Y-148844000D01*
X89930592Y-148930806D01*
G37*
X89930592Y-148930806D02*
X89957797Y-149004760D01*
X89827589Y-149147382D01*
X89716658Y-149165519D01*
X89502724Y-149078714D01*
X89475519Y-149004760D01*
X89605727Y-148862137D01*
X89716658Y-148844000D01*
X89930592Y-148930806D01*
G36*
X83352411Y-147481886D02*
G01*
X83508841Y-147895509D01*
X83527417Y-148134611D01*
X83433653Y-148600262D01*
X83196169Y-148869091D01*
X82880681Y-148895744D01*
X82645723Y-148743138D01*
X82462044Y-148373343D01*
X82452870Y-148039893D01*
X82660378Y-148039893D01*
X82693856Y-148401912D01*
X82851463Y-148649070D01*
X83075517Y-148638981D01*
X83266781Y-148389940D01*
X83298350Y-148290479D01*
X83322612Y-147840145D01*
X83138123Y-147592588D01*
X82967059Y-147557924D01*
X82754986Y-147695775D01*
X82660378Y-148039893D01*
X82452870Y-148039893D01*
X82449258Y-147908642D01*
X82596271Y-147497584D01*
X82750334Y-147342320D01*
X83081482Y-147279042D01*
X83352411Y-147481886D01*
G37*
X83352411Y-147481886D02*
X83508841Y-147895509D01*
X83527417Y-148134611D01*
X83433653Y-148600262D01*
X83196169Y-148869091D01*
X82880681Y-148895744D01*
X82645723Y-148743138D01*
X82462044Y-148373343D01*
X82452870Y-148039893D01*
X82660378Y-148039893D01*
X82693856Y-148401912D01*
X82851463Y-148649070D01*
X83075517Y-148638981D01*
X83266781Y-148389940D01*
X83298350Y-148290479D01*
X83322612Y-147840145D01*
X83138123Y-147592588D01*
X82967059Y-147557924D01*
X82754986Y-147695775D01*
X82660378Y-148039893D01*
X82452870Y-148039893D01*
X82449258Y-147908642D01*
X82596271Y-147497584D01*
X82750334Y-147342320D01*
X83081482Y-147279042D01*
X83352411Y-147481886D01*
G36*
X87519690Y-147342525D02*
G01*
X87763353Y-147632258D01*
X87838915Y-147855672D01*
X87824441Y-148096300D01*
X87625971Y-148189721D01*
X87377142Y-148200962D01*
X87043070Y-148220863D01*
X86976356Y-148310017D01*
X87073402Y-148453278D01*
X87375780Y-148628452D01*
X87575364Y-148629088D01*
X87816267Y-148621231D01*
X87867924Y-148679542D01*
X87738103Y-148838775D01*
X87442497Y-148891855D01*
X87121887Y-148829529D01*
X86980919Y-148737827D01*
X86777731Y-148384553D01*
X86745759Y-147978893D01*
X86820140Y-147718684D01*
X86983746Y-147718684D01*
X87041406Y-147837199D01*
X87305265Y-147879443D01*
X87584640Y-147829442D01*
X87626784Y-147718684D01*
X87393512Y-147569139D01*
X87305265Y-147557924D01*
X87035610Y-147659844D01*
X86983746Y-147718684D01*
X86820140Y-147718684D01*
X86853006Y-147603709D01*
X87067476Y-147341864D01*
X87357174Y-147276220D01*
X87519690Y-147342525D01*
G37*
X87519690Y-147342525D02*
X87763353Y-147632258D01*
X87838915Y-147855672D01*
X87824441Y-148096300D01*
X87625971Y-148189721D01*
X87377142Y-148200962D01*
X87043070Y-148220863D01*
X86976356Y-148310017D01*
X87073402Y-148453278D01*
X87375780Y-148628452D01*
X87575364Y-148629088D01*
X87816267Y-148621231D01*
X87867924Y-148679542D01*
X87738103Y-148838775D01*
X87442497Y-148891855D01*
X87121887Y-148829529D01*
X86980919Y-148737827D01*
X86777731Y-148384553D01*
X86745759Y-147978893D01*
X86820140Y-147718684D01*
X86983746Y-147718684D01*
X87041406Y-147837199D01*
X87305265Y-147879443D01*
X87584640Y-147829442D01*
X87626784Y-147718684D01*
X87393512Y-147569139D01*
X87305265Y-147557924D01*
X87035610Y-147659844D01*
X86983746Y-147718684D01*
X86820140Y-147718684D01*
X86853006Y-147603709D01*
X87067476Y-147341864D01*
X87357174Y-147276220D01*
X87519690Y-147342525D01*
G36*
X91911308Y-147291962D02*
G01*
X92183922Y-147515134D01*
X92202774Y-147547356D01*
X92327510Y-147941543D01*
X92369190Y-148332412D01*
X92308038Y-148695608D01*
X92073857Y-148858934D01*
X91977683Y-148881360D01*
X91602790Y-148896707D01*
X91400960Y-148841730D01*
X91248956Y-148593110D01*
X91274867Y-148401943D01*
X91443475Y-148401943D01*
X91490257Y-148530967D01*
X91696320Y-148649531D01*
X91917034Y-148529368D01*
X92019268Y-148308210D01*
X91952220Y-148079286D01*
X91827806Y-148040203D01*
X91535639Y-148150571D01*
X91443475Y-148401943D01*
X91274867Y-148401943D01*
X91293515Y-148264365D01*
X91493118Y-147991452D01*
X91685962Y-147908452D01*
X91993008Y-147799332D01*
X92012294Y-147656669D01*
X91755617Y-147563709D01*
X91636284Y-147557924D01*
X91362770Y-147506893D01*
X91324253Y-147397165D01*
X91576112Y-147244324D01*
X91911308Y-147291962D01*
G37*
X91911308Y-147291962D02*
X92183922Y-147515134D01*
X92202774Y-147547356D01*
X92327510Y-147941543D01*
X92369190Y-148332412D01*
X92308038Y-148695608D01*
X92073857Y-148858934D01*
X91977683Y-148881360D01*
X91602790Y-148896707D01*
X91400960Y-148841730D01*
X91248956Y-148593110D01*
X91274867Y-148401943D01*
X91443475Y-148401943D01*
X91490257Y-148530967D01*
X91696320Y-148649531D01*
X91917034Y-148529368D01*
X92019268Y-148308210D01*
X91952220Y-148079286D01*
X91827806Y-148040203D01*
X91535639Y-148150571D01*
X91443475Y-148401943D01*
X91274867Y-148401943D01*
X91293515Y-148264365D01*
X91493118Y-147991452D01*
X91685962Y-147908452D01*
X91993008Y-147799332D01*
X92012294Y-147656669D01*
X91755617Y-147563709D01*
X91636284Y-147557924D01*
X91362770Y-147506893D01*
X91324253Y-147397165D01*
X91576112Y-147244324D01*
X91911308Y-147291962D01*
G36*
X94868752Y-147429377D02*
G01*
X95060378Y-147788128D01*
X95073092Y-147855672D01*
X95056398Y-148100408D01*
X94848974Y-148192062D01*
X94636049Y-148200962D01*
X94301217Y-148237838D01*
X94222488Y-148374488D01*
X94245693Y-148456499D01*
X94470798Y-148644566D01*
X94722926Y-148639551D01*
X95011003Y-148626571D01*
X95102101Y-148686784D01*
X94968307Y-148832635D01*
X94662884Y-148895480D01*
X94329768Y-148853895D01*
X94240757Y-148814991D01*
X94045401Y-148545594D01*
X93980415Y-148122236D01*
X94041646Y-147718684D01*
X94217924Y-147718684D01*
X94267146Y-147845216D01*
X94449575Y-147879443D01*
X94715913Y-147813854D01*
X94780582Y-147718684D01*
X94651061Y-147574495D01*
X94548930Y-147557924D01*
X94275229Y-147655899D01*
X94217924Y-147718684D01*
X94041646Y-147718684D01*
X94046717Y-147685265D01*
X94231399Y-147385981D01*
X94560780Y-147277669D01*
X94868752Y-147429377D01*
G37*
X94868752Y-147429377D02*
X95060378Y-147788128D01*
X95073092Y-147855672D01*
X95056398Y-148100408D01*
X94848974Y-148192062D01*
X94636049Y-148200962D01*
X94301217Y-148237838D01*
X94222488Y-148374488D01*
X94245693Y-148456499D01*
X94470798Y-148644566D01*
X94722926Y-148639551D01*
X95011003Y-148626571D01*
X95102101Y-148686784D01*
X94968307Y-148832635D01*
X94662884Y-148895480D01*
X94329768Y-148853895D01*
X94240757Y-148814991D01*
X94045401Y-148545594D01*
X93980415Y-148122236D01*
X94041646Y-147718684D01*
X94217924Y-147718684D01*
X94267146Y-147845216D01*
X94449575Y-147879443D01*
X94715913Y-147813854D01*
X94780582Y-147718684D01*
X94651061Y-147574495D01*
X94548930Y-147557924D01*
X94275229Y-147655899D01*
X94217924Y-147718684D01*
X94041646Y-147718684D01*
X94046717Y-147685265D01*
X94231399Y-147385981D01*
X94560780Y-147277669D01*
X94868752Y-147429377D01*
G36*
X82018944Y-147396494D02*
G01*
X82073178Y-147754765D01*
X82080582Y-148030715D01*
X82051984Y-148492337D01*
X81978780Y-148787027D01*
X81919822Y-148844000D01*
X81823419Y-148700432D01*
X81766037Y-148337685D01*
X81759063Y-148130070D01*
X81792358Y-147675727D01*
X81876203Y-147370617D01*
X81919822Y-147316785D01*
X82018944Y-147396494D01*
G37*
X82018944Y-147396494D02*
X82073178Y-147754765D01*
X82080582Y-148030715D01*
X82051984Y-148492337D01*
X81978780Y-148787027D01*
X81919822Y-148844000D01*
X81823419Y-148700432D01*
X81766037Y-148337685D01*
X81759063Y-148130070D01*
X81792358Y-147675727D01*
X81876203Y-147370617D01*
X81919822Y-147316785D01*
X82018944Y-147396494D01*
G36*
X84673133Y-147334812D02*
G01*
X84880277Y-147555965D01*
X84953116Y-148000789D01*
X84953143Y-148281342D01*
X84929755Y-148602348D01*
X84889419Y-148668426D01*
X84868966Y-148602861D01*
X84777201Y-148170403D01*
X84723792Y-147919633D01*
X84583462Y-147594824D01*
X84404384Y-147545236D01*
X84246861Y-147740210D01*
X84171198Y-148149085D01*
X84170455Y-148200962D01*
X84134801Y-148603634D01*
X84045732Y-148827603D01*
X84009696Y-148844000D01*
X83917001Y-148699629D01*
X83858911Y-148331398D01*
X83848936Y-148060298D01*
X83861417Y-147591619D01*
X83930342Y-147360502D01*
X84102935Y-147283124D01*
X84291025Y-147275568D01*
X84673133Y-147334812D01*
G37*
X84673133Y-147334812D02*
X84880277Y-147555965D01*
X84953116Y-148000789D01*
X84953143Y-148281342D01*
X84929755Y-148602348D01*
X84889419Y-148668426D01*
X84868966Y-148602861D01*
X84777201Y-148170403D01*
X84723792Y-147919633D01*
X84583462Y-147594824D01*
X84404384Y-147545236D01*
X84246861Y-147740210D01*
X84171198Y-148149085D01*
X84170455Y-148200962D01*
X84134801Y-148603634D01*
X84045732Y-148827603D01*
X84009696Y-148844000D01*
X83917001Y-148699629D01*
X83858911Y-148331398D01*
X83848936Y-148060298D01*
X83861417Y-147591619D01*
X83930342Y-147360502D01*
X84102935Y-147283124D01*
X84291025Y-147275568D01*
X84673133Y-147334812D01*
G36*
X86309300Y-147425730D02*
G01*
X86421088Y-147794018D01*
X86358616Y-148100079D01*
X86107250Y-148197991D01*
X86005793Y-148200962D01*
X85702635Y-148263862D01*
X85660354Y-148401912D01*
X85856645Y-148558100D01*
X86075650Y-148590097D01*
X86349395Y-148632230D01*
X86421088Y-148710666D01*
X86281352Y-148804545D01*
X85945011Y-148843998D01*
X85941873Y-148844000D01*
X85567233Y-148778363D01*
X85387306Y-148532642D01*
X85364978Y-148454817D01*
X85318799Y-147853256D01*
X85384720Y-147718684D01*
X85617291Y-147718684D01*
X85752340Y-147848036D01*
X85948297Y-147879443D01*
X86170582Y-147817558D01*
X86179949Y-147718684D01*
X85947350Y-147570765D01*
X85848942Y-147557924D01*
X85641169Y-147647808D01*
X85617291Y-147718684D01*
X85384720Y-147718684D01*
X85522725Y-147436962D01*
X85635630Y-147348621D01*
X86016064Y-147253239D01*
X86309300Y-147425730D01*
G37*
X86309300Y-147425730D02*
X86421088Y-147794018D01*
X86358616Y-148100079D01*
X86107250Y-148197991D01*
X86005793Y-148200962D01*
X85702635Y-148263862D01*
X85660354Y-148401912D01*
X85856645Y-148558100D01*
X86075650Y-148590097D01*
X86349395Y-148632230D01*
X86421088Y-148710666D01*
X86281352Y-148804545D01*
X85945011Y-148843998D01*
X85941873Y-148844000D01*
X85567233Y-148778363D01*
X85387306Y-148532642D01*
X85364978Y-148454817D01*
X85318799Y-147853256D01*
X85384720Y-147718684D01*
X85617291Y-147718684D01*
X85752340Y-147848036D01*
X85948297Y-147879443D01*
X86170582Y-147817558D01*
X86179949Y-147718684D01*
X85947350Y-147570765D01*
X85848942Y-147557924D01*
X85641169Y-147647808D01*
X85617291Y-147718684D01*
X85384720Y-147718684D01*
X85522725Y-147436962D01*
X85635630Y-147348621D01*
X86016064Y-147253239D01*
X86309300Y-147425730D01*
G36*
X88893458Y-147291435D02*
G01*
X88993240Y-147397165D01*
X88863032Y-147539787D01*
X88752101Y-147557924D01*
X88584429Y-147664107D01*
X88515338Y-148016094D01*
X88510962Y-148200962D01*
X88475307Y-148603634D01*
X88386238Y-148827603D01*
X88350202Y-148844000D01*
X88258498Y-148699418D01*
X88200291Y-148329743D01*
X88189443Y-148040203D01*
X88202473Y-147563157D01*
X88268972Y-147325170D01*
X88430050Y-147244020D01*
X88591341Y-147236405D01*
X88893458Y-147291435D01*
G37*
X88893458Y-147291435D02*
X88993240Y-147397165D01*
X88863032Y-147539787D01*
X88752101Y-147557924D01*
X88584429Y-147664107D01*
X88515338Y-148016094D01*
X88510962Y-148200962D01*
X88475307Y-148603634D01*
X88386238Y-148827603D01*
X88350202Y-148844000D01*
X88258498Y-148699418D01*
X88200291Y-148329743D01*
X88189443Y-148040203D01*
X88202473Y-147563157D01*
X88268972Y-147325170D01*
X88430050Y-147244020D01*
X88591341Y-147236405D01*
X88893458Y-147291435D01*
G36*
X90865274Y-147286498D02*
G01*
X90889985Y-147490695D01*
X90825588Y-147864600D01*
X90705764Y-148291660D01*
X90564192Y-148655323D01*
X90434552Y-148839037D01*
X90415204Y-148844000D01*
X90258834Y-148711171D01*
X90115861Y-148435012D01*
X89916691Y-147849219D01*
X89829608Y-147450279D01*
X89861953Y-147281377D01*
X89921983Y-147294651D01*
X90076551Y-147515708D01*
X90199649Y-147882690D01*
X90322137Y-148220865D01*
X90459987Y-148245990D01*
X90596243Y-147964904D01*
X90661567Y-147696352D01*
X90756877Y-147379012D01*
X90854751Y-147278969D01*
X90865274Y-147286498D01*
G37*
X90865274Y-147286498D02*
X90889985Y-147490695D01*
X90825588Y-147864600D01*
X90705764Y-148291660D01*
X90564192Y-148655323D01*
X90434552Y-148839037D01*
X90415204Y-148844000D01*
X90258834Y-148711171D01*
X90115861Y-148435012D01*
X89916691Y-147849219D01*
X89829608Y-147450279D01*
X89861953Y-147281377D01*
X89921983Y-147294651D01*
X90076551Y-147515708D01*
X90199649Y-147882690D01*
X90322137Y-148220865D01*
X90459987Y-148245990D01*
X90596243Y-147964904D01*
X90661567Y-147696352D01*
X90756877Y-147379012D01*
X90854751Y-147278969D01*
X90865274Y-147286498D01*
G36*
X92934440Y-146874602D02*
G01*
X92992498Y-147300869D01*
X93012227Y-147808551D01*
X92989326Y-148350842D01*
X92928752Y-148721704D01*
X92851468Y-148844000D01*
X92769179Y-148695196D01*
X92712258Y-148295871D01*
X92690712Y-147716654D01*
X92690708Y-147709196D01*
X92711338Y-147090413D01*
X92770339Y-146739045D01*
X92851468Y-146673747D01*
X92934440Y-146874602D01*
G37*
X92934440Y-146874602D02*
X92992498Y-147300869D01*
X93012227Y-147808551D01*
X92989326Y-148350842D01*
X92928752Y-148721704D01*
X92851468Y-148844000D01*
X92769179Y-148695196D01*
X92712258Y-148295871D01*
X92690712Y-147716654D01*
X92690708Y-147709196D01*
X92711338Y-147090413D01*
X92770339Y-146739045D01*
X92851468Y-146673747D01*
X92934440Y-146874602D01*
G36*
X93577478Y-146874602D02*
G01*
X93635536Y-147300869D01*
X93655265Y-147808551D01*
X93632364Y-148350842D01*
X93571790Y-148721704D01*
X93494506Y-148844000D01*
X93412217Y-148695196D01*
X93355296Y-148295871D01*
X93333750Y-147716654D01*
X93333746Y-147709196D01*
X93354376Y-147090413D01*
X93413377Y-146739045D01*
X93494506Y-146673747D01*
X93577478Y-146874602D01*
G37*
X93577478Y-146874602D02*
X93635536Y-147300869D01*
X93655265Y-147808551D01*
X93632364Y-148350842D01*
X93571790Y-148721704D01*
X93494506Y-148844000D01*
X93412217Y-148695196D01*
X93355296Y-148295871D01*
X93333750Y-147716654D01*
X93333746Y-147709196D01*
X93354376Y-147090413D01*
X93413377Y-146739045D01*
X93494506Y-146673747D01*
X93577478Y-146874602D01*
G36*
X97669651Y-147512546D02*
G01*
X97674253Y-147548437D01*
X97557397Y-147766159D01*
X97513493Y-147799064D01*
X97375867Y-147762620D01*
X97352734Y-147647792D01*
X97436666Y-147427838D01*
X97513493Y-147397165D01*
X97669651Y-147512546D01*
G37*
X97669651Y-147512546D02*
X97674253Y-147548437D01*
X97557397Y-147766159D01*
X97513493Y-147799064D01*
X97375867Y-147762620D01*
X97352734Y-147647792D01*
X97436666Y-147427838D01*
X97513493Y-147397165D01*
X97669651Y-147512546D01*
G36*
X97449190Y-146496912D02*
G01*
X97456034Y-146818303D01*
X97379350Y-146952574D01*
X97204126Y-147019229D01*
X97095519Y-146850583D01*
X97088674Y-146529192D01*
X97165358Y-146394920D01*
X97340582Y-146328265D01*
X97449190Y-146496912D01*
G37*
X97449190Y-146496912D02*
X97456034Y-146818303D01*
X97379350Y-146952574D01*
X97204126Y-147019229D01*
X97095519Y-146850583D01*
X97088674Y-146529192D01*
X97165358Y-146394920D01*
X97340582Y-146328265D01*
X97449190Y-146496912D01*
G36*
X82078739Y-146717746D02*
G01*
X82080582Y-146754127D01*
X81956998Y-146908709D01*
X81910335Y-146914886D01*
X81814324Y-146816399D01*
X81839443Y-146754127D01*
X81983902Y-146600765D01*
X82009690Y-146593367D01*
X82078739Y-146717746D01*
G37*
X82078739Y-146717746D02*
X82080582Y-146754127D01*
X81956998Y-146908709D01*
X81910335Y-146914886D01*
X81814324Y-146816399D01*
X81839443Y-146754127D01*
X81983902Y-146600765D01*
X82009690Y-146593367D01*
X82078739Y-146717746D01*
G36*
X98055768Y-145997122D02*
G01*
X98197091Y-146185355D01*
X98236911Y-146432608D01*
X98160710Y-146753633D01*
X97990462Y-146876351D01*
X97813696Y-146753319D01*
X97779485Y-146680542D01*
X97743165Y-146349502D01*
X97845837Y-146078456D01*
X98037133Y-145991998D01*
X98055768Y-145997122D01*
G37*
X98055768Y-145997122D02*
X98197091Y-146185355D01*
X98236911Y-146432608D01*
X98160710Y-146753633D01*
X97990462Y-146876351D01*
X97813696Y-146753319D01*
X97779485Y-146680542D01*
X97743165Y-146349502D01*
X97845837Y-146078456D01*
X98037133Y-145991998D01*
X98055768Y-145997122D01*
D12*
%TO.C,J12*%
X89094000Y-127000000D02*
X91754000Y-127000000D01*
X89094000Y-127000000D02*
X89094000Y-137220000D01*
X89094000Y-137220000D02*
X91754000Y-137220000D01*
X91754000Y-127000000D02*
X91754000Y-137220000D01*
X91754000Y-124400000D02*
X91754000Y-125730000D01*
X90424000Y-124400000D02*
X91754000Y-124400000D01*
%TO.C,J3*%
X80615747Y-121948805D02*
G75*
G02*
X80761000Y-121236000I1680253J28805D01*
G01*
X81612958Y-120384574D02*
G75*
G02*
X82980000Y-120385000I683042J-1535426D01*
G01*
X83831426Y-121236958D02*
G75*
G02*
X83831000Y-122604000I-1535426J-683042D01*
G01*
X82979042Y-123455426D02*
G75*
G02*
X81612000Y-123455000I-683042J1535426D01*
G01*
X80761244Y-122603318D02*
G75*
G02*
X80616000Y-121920000I1534756J683318D01*
G01*
X83976000Y-126920000D02*
G75*
G03*
X83976000Y-126920000I-1680000J0D01*
G01*
X83976000Y-131920000D02*
G75*
G03*
X83976000Y-131920000I-1680000J0D01*
G01*
X83976000Y-136920000D02*
G75*
G03*
X83976000Y-136920000I-1680000J0D01*
G01*
X83976000Y-141920000D02*
G75*
G03*
X83976000Y-141920000I-1680000J0D01*
G01*
X78196000Y-119360000D02*
X78196000Y-144480000D01*
X79696000Y-119360000D02*
X79696000Y-144480000D01*
X84597000Y-119360000D02*
X84597000Y-144480000D01*
X87557000Y-119360000D02*
X87557000Y-144480000D01*
X77636000Y-119360000D02*
X77636000Y-144480000D01*
X87557000Y-119360000D02*
X77636000Y-119360000D01*
X87557000Y-144480000D02*
X77636000Y-144480000D01*
X83365000Y-128195000D02*
X83319000Y-128148000D01*
X81057000Y-125886000D02*
X81022000Y-125851000D01*
X83571000Y-127990000D02*
X83535000Y-127955000D01*
X81273000Y-125693000D02*
X81227000Y-125646000D01*
X83365000Y-133195000D02*
X83319000Y-133148000D01*
X81057000Y-130886000D02*
X81022000Y-130851000D01*
X83571000Y-132990000D02*
X83535000Y-132955000D01*
X81273000Y-130693000D02*
X81227000Y-130646000D01*
X83365000Y-138195000D02*
X83319000Y-138148000D01*
X81057000Y-135886000D02*
X81022000Y-135851000D01*
X83571000Y-137990000D02*
X83535000Y-137955000D01*
X81273000Y-135693000D02*
X81227000Y-135646000D01*
X83365000Y-143195000D02*
X83319000Y-143148000D01*
X81057000Y-140886000D02*
X81022000Y-140851000D01*
X83571000Y-142990000D02*
X83535000Y-142955000D01*
X81273000Y-140693000D02*
X81227000Y-140646000D01*
X78136000Y-119120000D02*
X77396000Y-119120000D01*
X77396000Y-119120000D02*
X77396000Y-119620000D01*
%TO.C,J11*%
X103886000Y-86420000D02*
X103886000Y-83760000D01*
X103886000Y-86420000D02*
X121726000Y-86420000D01*
X121726000Y-86420000D02*
X121726000Y-83760000D01*
X103886000Y-83760000D02*
X121726000Y-83760000D01*
X101286000Y-83760000D02*
X102616000Y-83760000D01*
X101286000Y-85090000D02*
X101286000Y-83760000D01*
%TO.C,J9*%
X133918000Y-130810000D02*
X131258000Y-130810000D01*
X133918000Y-130810000D02*
X133918000Y-115510000D01*
X133918000Y-115510000D02*
X131258000Y-115510000D01*
X131258000Y-130810000D02*
X131258000Y-115510000D01*
X131258000Y-133410000D02*
X131258000Y-132080000D01*
X132588000Y-133410000D02*
X131258000Y-133410000D01*
%TO.C,J2*%
X89094000Y-99822000D02*
X91754000Y-99822000D01*
X89094000Y-99822000D02*
X89094000Y-110042000D01*
X89094000Y-110042000D02*
X91754000Y-110042000D01*
X91754000Y-99822000D02*
X91754000Y-110042000D01*
X91754000Y-97222000D02*
X91754000Y-98552000D01*
X90424000Y-97222000D02*
X91754000Y-97222000D01*
%TO.C,J1*%
X80615747Y-94008805D02*
G75*
G02*
X80761000Y-93296000I1680253J28805D01*
G01*
X81612958Y-92444574D02*
G75*
G02*
X82980000Y-92445000I683042J-1535426D01*
G01*
X83831426Y-93296958D02*
G75*
G02*
X83831000Y-94664000I-1535426J-683042D01*
G01*
X82979042Y-95515426D02*
G75*
G02*
X81612000Y-95515000I-683042J1535426D01*
G01*
X80761244Y-94663318D02*
G75*
G02*
X80616000Y-93980000I1534756J683318D01*
G01*
X83976000Y-98980000D02*
G75*
G03*
X83976000Y-98980000I-1680000J0D01*
G01*
X83976000Y-103980000D02*
G75*
G03*
X83976000Y-103980000I-1680000J0D01*
G01*
X83976000Y-108980000D02*
G75*
G03*
X83976000Y-108980000I-1680000J0D01*
G01*
X83976000Y-113980000D02*
G75*
G03*
X83976000Y-113980000I-1680000J0D01*
G01*
X78196000Y-91420000D02*
X78196000Y-116540000D01*
X79696000Y-91420000D02*
X79696000Y-116540000D01*
X84597000Y-91420000D02*
X84597000Y-116540000D01*
X87557000Y-91420000D02*
X87557000Y-116540000D01*
X77636000Y-91420000D02*
X77636000Y-116540000D01*
X87557000Y-91420000D02*
X77636000Y-91420000D01*
X87557000Y-116540000D02*
X77636000Y-116540000D01*
X83365000Y-100255000D02*
X83319000Y-100208000D01*
X81057000Y-97946000D02*
X81022000Y-97911000D01*
X83571000Y-100050000D02*
X83535000Y-100015000D01*
X81273000Y-97753000D02*
X81227000Y-97706000D01*
X83365000Y-105255000D02*
X83319000Y-105208000D01*
X81057000Y-102946000D02*
X81022000Y-102911000D01*
X83571000Y-105050000D02*
X83535000Y-105015000D01*
X81273000Y-102753000D02*
X81227000Y-102706000D01*
X83365000Y-110255000D02*
X83319000Y-110208000D01*
X81057000Y-107946000D02*
X81022000Y-107911000D01*
X83571000Y-110050000D02*
X83535000Y-110015000D01*
X81273000Y-107753000D02*
X81227000Y-107706000D01*
X83365000Y-115255000D02*
X83319000Y-115208000D01*
X81057000Y-112946000D02*
X81022000Y-112911000D01*
X83571000Y-115050000D02*
X83535000Y-115015000D01*
X81273000Y-112753000D02*
X81227000Y-112706000D01*
X78136000Y-91180000D02*
X77396000Y-91180000D01*
X77396000Y-91180000D02*
X77396000Y-91680000D01*
%TO.C,J10*%
X90350000Y-84297000D02*
X89020000Y-84297000D01*
X89020000Y-84297000D02*
X89020000Y-82967000D01*
X89020000Y-81697000D02*
X89020000Y-74017000D01*
X91680000Y-74017000D02*
X89020000Y-74017000D01*
X91680000Y-81697000D02*
X91680000Y-74017000D01*
X91680000Y-81697000D02*
X89020000Y-81697000D01*
%TO.C,R3*%
X107982000Y-71274000D02*
X107982000Y-74014000D01*
X107982000Y-74014000D02*
X114522000Y-74014000D01*
X114522000Y-74014000D02*
X114522000Y-71274000D01*
X114522000Y-71274000D02*
X107982000Y-71274000D01*
X107212000Y-72644000D02*
X107982000Y-72644000D01*
X115292000Y-72644000D02*
X114522000Y-72644000D01*
%TO.C,R2*%
X107982000Y-74576000D02*
X107982000Y-77316000D01*
X107982000Y-77316000D02*
X114522000Y-77316000D01*
X114522000Y-77316000D02*
X114522000Y-74576000D01*
X114522000Y-74576000D02*
X107982000Y-74576000D01*
X107212000Y-75946000D02*
X107982000Y-75946000D01*
X115292000Y-75946000D02*
X114522000Y-75946000D01*
%TO.C,J8*%
X136069000Y-149680000D02*
X136569000Y-149680000D01*
X136069000Y-148940000D02*
X136069000Y-149680000D01*
X142642000Y-145803000D02*
X142595000Y-145849000D01*
X144939000Y-143505000D02*
X144904000Y-143541000D01*
X142835000Y-146019000D02*
X142800000Y-146054000D01*
X145144000Y-143711000D02*
X145097000Y-143757000D01*
X146429000Y-139519000D02*
X146429000Y-149440000D01*
X136309000Y-139519000D02*
X136309000Y-149440000D01*
X136309000Y-149440000D02*
X146429000Y-149440000D01*
X136309000Y-139519000D02*
X146429000Y-139519000D01*
X136309000Y-142479000D02*
X146429000Y-142479000D01*
X136309000Y-147380000D02*
X146429000Y-147380000D01*
X136309000Y-148880000D02*
X146429000Y-148880000D01*
X145549000Y-144780000D02*
G75*
G03*
X145549000Y-144780000I-1680000J0D01*
G01*
X138897805Y-146460253D02*
G75*
G02*
X138185000Y-146315000I-28805J1680253D01*
G01*
X137333574Y-145463042D02*
G75*
G02*
X137334000Y-144096000I1535426J683042D01*
G01*
X138185958Y-143244574D02*
G75*
G02*
X139553000Y-143245000I683042J-1535426D01*
G01*
X140404426Y-144096958D02*
G75*
G02*
X140404000Y-145464000I-1535426J-683042D01*
G01*
X139552318Y-146314756D02*
G75*
G02*
X138869000Y-146460000I-683318J1534756D01*
G01*
%TO.C,J7*%
X122836000Y-132020000D02*
X120176000Y-132020000D01*
X122836000Y-132020000D02*
X122836000Y-93860000D01*
X122836000Y-93860000D02*
X120176000Y-93860000D01*
X120176000Y-132020000D02*
X120176000Y-93860000D01*
X120176000Y-134620000D02*
X120176000Y-133290000D01*
X121506000Y-134620000D02*
X120176000Y-134620000D01*
%TO.C,J6*%
X101106000Y-93860000D02*
X102436000Y-93860000D01*
X102436000Y-93860000D02*
X102436000Y-95190000D01*
X102436000Y-96460000D02*
X102436000Y-124460000D01*
X99776000Y-124460000D02*
X102436000Y-124460000D01*
X99776000Y-96460000D02*
X99776000Y-124460000D01*
X99776000Y-96460000D02*
X102436000Y-96460000D01*
%TO.C,J5*%
X128210000Y-144780000D02*
X128210000Y-143450000D01*
X128210000Y-143450000D02*
X129540000Y-143450000D01*
X130810000Y-143450000D02*
X133410000Y-143450000D01*
X133410000Y-146110000D02*
X133410000Y-143450000D01*
X130810000Y-146110000D02*
X133410000Y-146110000D01*
X130810000Y-146110000D02*
X130810000Y-143450000D01*
%TO.C,J4*%
X77421000Y-68409000D02*
X77421000Y-68909000D01*
X78161000Y-68409000D02*
X77421000Y-68409000D01*
X81298000Y-84982000D02*
X81252000Y-84935000D01*
X83596000Y-87279000D02*
X83560000Y-87244000D01*
X81082000Y-85175000D02*
X81047000Y-85140000D01*
X83390000Y-87484000D02*
X83344000Y-87437000D01*
X81298000Y-79982000D02*
X81252000Y-79935000D01*
X83596000Y-82279000D02*
X83560000Y-82244000D01*
X81082000Y-80175000D02*
X81047000Y-80140000D01*
X83390000Y-82484000D02*
X83344000Y-82437000D01*
X81298000Y-74982000D02*
X81252000Y-74935000D01*
X83596000Y-77279000D02*
X83560000Y-77244000D01*
X81082000Y-75175000D02*
X81047000Y-75140000D01*
X83390000Y-77484000D02*
X83344000Y-77437000D01*
X87582000Y-88770000D02*
X77661000Y-88770000D01*
X87582000Y-68649000D02*
X77661000Y-68649000D01*
X77661000Y-68649000D02*
X77661000Y-88770000D01*
X87582000Y-68649000D02*
X87582000Y-88770000D01*
X84622000Y-68649000D02*
X84622000Y-88770000D01*
X79721000Y-68649000D02*
X79721000Y-88770000D01*
X78221000Y-68649000D02*
X78221000Y-88770000D01*
X84001000Y-86209000D02*
G75*
G03*
X84001000Y-86209000I-1680000J0D01*
G01*
X84001000Y-81209000D02*
G75*
G03*
X84001000Y-81209000I-1680000J0D01*
G01*
X84001000Y-76209000D02*
G75*
G03*
X84001000Y-76209000I-1680000J0D01*
G01*
X80640747Y-71237805D02*
G75*
G02*
X80786000Y-70525000I1680253J28805D01*
G01*
X81637958Y-69673574D02*
G75*
G02*
X83005000Y-69674000I683042J-1535426D01*
G01*
X83856426Y-70525958D02*
G75*
G02*
X83856000Y-71893000I-1535426J-683042D01*
G01*
X83004042Y-72744426D02*
G75*
G02*
X81637000Y-72744000I-683042J1535426D01*
G01*
X80786244Y-71892318D02*
G75*
G02*
X80641000Y-71209000I1534756J683318D01*
G01*
%TO.C,display1*%
X135576000Y-71882000D02*
X135576000Y-70552000D01*
X135576000Y-70552000D02*
X136906000Y-70552000D01*
X138176000Y-70552000D02*
X145856000Y-70552000D01*
X145856000Y-73212000D02*
X145856000Y-70552000D01*
X138176000Y-73212000D02*
X145856000Y-73212000D01*
X138176000Y-73212000D02*
X138176000Y-70552000D01*
%TO.C,J12*%
D10*
X89614476Y-122412380D02*
X89614476Y-123126666D01*
X89566857Y-123269523D01*
X89471619Y-123364761D01*
X89328761Y-123412380D01*
X89233523Y-123412380D01*
X90614476Y-123412380D02*
X90043047Y-123412380D01*
X90328761Y-123412380D02*
X90328761Y-122412380D01*
X90233523Y-122555238D01*
X90138285Y-122650476D01*
X90043047Y-122698095D01*
X90995428Y-122507619D02*
X91043047Y-122460000D01*
X91138285Y-122412380D01*
X91376380Y-122412380D01*
X91471619Y-122460000D01*
X91519238Y-122507619D01*
X91566857Y-122602857D01*
X91566857Y-122698095D01*
X91519238Y-122840952D01*
X90947809Y-123412380D01*
X91566857Y-123412380D01*
%TO.C,J3*%
X88352380Y-144351333D02*
X89066666Y-144351333D01*
X89209523Y-144398952D01*
X89304761Y-144494190D01*
X89352380Y-144637047D01*
X89352380Y-144732285D01*
X88352380Y-143970380D02*
X88352380Y-143351333D01*
X88733333Y-143684666D01*
X88733333Y-143541809D01*
X88780952Y-143446571D01*
X88828571Y-143398952D01*
X88923809Y-143351333D01*
X89161904Y-143351333D01*
X89257142Y-143398952D01*
X89304761Y-143446571D01*
X89352380Y-143541809D01*
X89352380Y-143827523D01*
X89304761Y-143922761D01*
X89257142Y-143970380D01*
%TO.C,J11*%
X99298380Y-85899523D02*
X100012666Y-85899523D01*
X100155523Y-85947142D01*
X100250761Y-86042380D01*
X100298380Y-86185238D01*
X100298380Y-86280476D01*
X100298380Y-84899523D02*
X100298380Y-85470952D01*
X100298380Y-85185238D02*
X99298380Y-85185238D01*
X99441238Y-85280476D01*
X99536476Y-85375714D01*
X99584095Y-85470952D01*
X100298380Y-83947142D02*
X100298380Y-84518571D01*
X100298380Y-84232857D02*
X99298380Y-84232857D01*
X99441238Y-84328095D01*
X99536476Y-84423333D01*
X99584095Y-84518571D01*
%TO.C,J9*%
X132254666Y-134302380D02*
X132254666Y-135016666D01*
X132207047Y-135159523D01*
X132111809Y-135254761D01*
X131968952Y-135302380D01*
X131873714Y-135302380D01*
X132778476Y-135302380D02*
X132968952Y-135302380D01*
X133064190Y-135254761D01*
X133111809Y-135207142D01*
X133207047Y-135064285D01*
X133254666Y-134873809D01*
X133254666Y-134492857D01*
X133207047Y-134397619D01*
X133159428Y-134350000D01*
X133064190Y-134302380D01*
X132873714Y-134302380D01*
X132778476Y-134350000D01*
X132730857Y-134397619D01*
X132683238Y-134492857D01*
X132683238Y-134730952D01*
X132730857Y-134826190D01*
X132778476Y-134873809D01*
X132873714Y-134921428D01*
X133064190Y-134921428D01*
X133159428Y-134873809D01*
X133207047Y-134826190D01*
X133254666Y-134730952D01*
%TO.C,J2*%
X90090666Y-95234380D02*
X90090666Y-95948666D01*
X90043047Y-96091523D01*
X89947809Y-96186761D01*
X89804952Y-96234380D01*
X89709714Y-96234380D01*
X90519238Y-95329619D02*
X90566857Y-95282000D01*
X90662095Y-95234380D01*
X90900190Y-95234380D01*
X90995428Y-95282000D01*
X91043047Y-95329619D01*
X91090666Y-95424857D01*
X91090666Y-95520095D01*
X91043047Y-95662952D01*
X90471619Y-96234380D01*
X91090666Y-96234380D01*
%TO.C,J1*%
X88352380Y-116665333D02*
X89066666Y-116665333D01*
X89209523Y-116712952D01*
X89304761Y-116808190D01*
X89352380Y-116951047D01*
X89352380Y-117046285D01*
X89352380Y-115665333D02*
X89352380Y-116236761D01*
X89352380Y-115951047D02*
X88352380Y-115951047D01*
X88495238Y-116046285D01*
X88590476Y-116141523D01*
X88638095Y-116236761D01*
%TO.C,J10*%
X89540476Y-85189380D02*
X89540476Y-85903666D01*
X89492857Y-86046523D01*
X89397619Y-86141761D01*
X89254761Y-86189380D01*
X89159523Y-86189380D01*
X90540476Y-86189380D02*
X89969047Y-86189380D01*
X90254761Y-86189380D02*
X90254761Y-85189380D01*
X90159523Y-85332238D01*
X90064285Y-85427476D01*
X89969047Y-85475095D01*
X91159523Y-85189380D02*
X91254761Y-85189380D01*
X91350000Y-85237000D01*
X91397619Y-85284619D01*
X91445238Y-85379857D01*
X91492857Y-85570333D01*
X91492857Y-85808428D01*
X91445238Y-85998904D01*
X91397619Y-86094142D01*
X91350000Y-86141761D01*
X91254761Y-86189380D01*
X91159523Y-86189380D01*
X91064285Y-86141761D01*
X91016666Y-86094142D01*
X90969047Y-85998904D01*
X90921428Y-85808428D01*
X90921428Y-85570333D01*
X90969047Y-85379857D01*
X91016666Y-85284619D01*
X91064285Y-85237000D01*
X91159523Y-85189380D01*
%TO.C,R3*%
X119251380Y-72627666D02*
X118775190Y-72961000D01*
X119251380Y-73199095D02*
X118251380Y-73199095D01*
X118251380Y-72818142D01*
X118299000Y-72722904D01*
X118346619Y-72675285D01*
X118441857Y-72627666D01*
X118584714Y-72627666D01*
X118679952Y-72675285D01*
X118727571Y-72722904D01*
X118775190Y-72818142D01*
X118775190Y-73199095D01*
X118251380Y-72294333D02*
X118251380Y-71675285D01*
X118632333Y-72008619D01*
X118632333Y-71865761D01*
X118679952Y-71770523D01*
X118727571Y-71722904D01*
X118822809Y-71675285D01*
X119060904Y-71675285D01*
X119156142Y-71722904D01*
X119203761Y-71770523D01*
X119251380Y-71865761D01*
X119251380Y-72151476D01*
X119203761Y-72246714D01*
X119156142Y-72294333D01*
%TO.C,R2*%
X119126380Y-76048666D02*
X118650190Y-76382000D01*
X119126380Y-76620095D02*
X118126380Y-76620095D01*
X118126380Y-76239142D01*
X118174000Y-76143904D01*
X118221619Y-76096285D01*
X118316857Y-76048666D01*
X118459714Y-76048666D01*
X118554952Y-76096285D01*
X118602571Y-76143904D01*
X118650190Y-76239142D01*
X118650190Y-76620095D01*
X118221619Y-75667714D02*
X118174000Y-75620095D01*
X118126380Y-75524857D01*
X118126380Y-75286761D01*
X118174000Y-75191523D01*
X118221619Y-75143904D01*
X118316857Y-75096285D01*
X118412095Y-75096285D01*
X118554952Y-75143904D01*
X119126380Y-75715333D01*
X119126380Y-75096285D01*
%TO.C,J8*%
X148121619Y-139516666D02*
X147407333Y-139516666D01*
X147264476Y-139469047D01*
X147169238Y-139373809D01*
X147121619Y-139230952D01*
X147121619Y-139135714D01*
X147693047Y-140135714D02*
X147740666Y-140040476D01*
X147788285Y-139992857D01*
X147883523Y-139945238D01*
X147931142Y-139945238D01*
X148026380Y-139992857D01*
X148074000Y-140040476D01*
X148121619Y-140135714D01*
X148121619Y-140326190D01*
X148074000Y-140421428D01*
X148026380Y-140469047D01*
X147931142Y-140516666D01*
X147883523Y-140516666D01*
X147788285Y-140469047D01*
X147740666Y-140421428D01*
X147693047Y-140326190D01*
X147693047Y-140135714D01*
X147645428Y-140040476D01*
X147597809Y-139992857D01*
X147502571Y-139945238D01*
X147312095Y-139945238D01*
X147216857Y-139992857D01*
X147169238Y-140040476D01*
X147121619Y-140135714D01*
X147121619Y-140326190D01*
X147169238Y-140421428D01*
X147216857Y-140469047D01*
X147312095Y-140516666D01*
X147502571Y-140516666D01*
X147597809Y-140469047D01*
X147645428Y-140421428D01*
X147693047Y-140326190D01*
%TO.C,J7*%
X121172666Y-135512380D02*
X121172666Y-136226666D01*
X121125047Y-136369523D01*
X121029809Y-136464761D01*
X120886952Y-136512380D01*
X120791714Y-136512380D01*
X121553619Y-135512380D02*
X122220285Y-135512380D01*
X121791714Y-136512380D01*
%TO.C,J6*%
X100758666Y-125436380D02*
X100758666Y-126150666D01*
X100711047Y-126293523D01*
X100615809Y-126388761D01*
X100472952Y-126436380D01*
X100377714Y-126436380D01*
X101663428Y-125436380D02*
X101472952Y-125436380D01*
X101377714Y-125484000D01*
X101330095Y-125531619D01*
X101234857Y-125674476D01*
X101187238Y-125864952D01*
X101187238Y-126245904D01*
X101234857Y-126341142D01*
X101282476Y-126388761D01*
X101377714Y-126436380D01*
X101568190Y-126436380D01*
X101663428Y-126388761D01*
X101711047Y-126341142D01*
X101758666Y-126245904D01*
X101758666Y-126007809D01*
X101711047Y-125912571D01*
X101663428Y-125864952D01*
X101568190Y-125817333D01*
X101377714Y-125817333D01*
X101282476Y-125864952D01*
X101234857Y-125912571D01*
X101187238Y-126007809D01*
%TO.C,J5*%
X126437380Y-145239333D02*
X127151666Y-145239333D01*
X127294523Y-145286952D01*
X127389761Y-145382190D01*
X127437380Y-145525047D01*
X127437380Y-145620285D01*
X126437380Y-144286952D02*
X126437380Y-144763142D01*
X126913571Y-144810761D01*
X126865952Y-144763142D01*
X126818333Y-144667904D01*
X126818333Y-144429809D01*
X126865952Y-144334571D01*
X126913571Y-144286952D01*
X127008809Y-144239333D01*
X127246904Y-144239333D01*
X127342142Y-144286952D01*
X127389761Y-144334571D01*
X127437380Y-144429809D01*
X127437380Y-144667904D01*
X127389761Y-144763142D01*
X127342142Y-144810761D01*
%TO.C,J4*%
X82216666Y-66762380D02*
X82216666Y-67476666D01*
X82169047Y-67619523D01*
X82073809Y-67714761D01*
X81930952Y-67762380D01*
X81835714Y-67762380D01*
X83121428Y-67095714D02*
X83121428Y-67762380D01*
X82883333Y-66714761D02*
X82645238Y-67429047D01*
X83264285Y-67429047D01*
%TD*%
M02*
