%TF.GenerationSoftware,KiCad,Pcbnew,5.1.6-c6e7f7d~87~ubuntu18.04.1*%
%TF.CreationDate,2020-11-13T10:53:28-05:00*%
%TF.ProjectId,remote,72656d6f-7465-42e6-9b69-6361645f7063,rev?*%
%TF.SameCoordinates,Original*%
%TF.FileFunction,Soldermask,Bot*%
%TF.FilePolarity,Negative*%
%FSLAX46Y46*%
G04 Gerber Fmt 4.6, Leading zero omitted, Abs format (unit mm)*
G04 Created by KiCad (PCBNEW 5.1.6-c6e7f7d~87~ubuntu18.04.1) date 2020-11-13 10:53:28*
%MOMM*%
%LPD*%
G01*
G04 APERTURE LIST*
%ADD10O,1.800000X1.800000*%
%ADD11R,1.800000X1.800000*%
%ADD12C,2.700000*%
%ADD13R,2.700000X2.700000*%
%ADD14C,2.800000*%
%ADD15C,1.700000*%
%ADD16O,1.700000X1.700000*%
G04 APERTURE END LIST*
D10*
%TO.C,J12*%
X90424000Y-135890000D03*
X90424000Y-133350000D03*
X90424000Y-130810000D03*
X90424000Y-128270000D03*
D11*
X90424000Y-125730000D03*
%TD*%
D12*
%TO.C,J3*%
X82296000Y-141920000D03*
X82296000Y-136920000D03*
X82296000Y-131920000D03*
X82296000Y-126920000D03*
D13*
X82296000Y-121920000D03*
%TD*%
D10*
%TO.C,J11*%
X120396000Y-85090000D03*
X117856000Y-85090000D03*
X115316000Y-85090000D03*
X112776000Y-85090000D03*
X110236000Y-85090000D03*
X107696000Y-85090000D03*
X105156000Y-85090000D03*
D11*
X102616000Y-85090000D03*
%TD*%
D10*
%TO.C,J9*%
X132588000Y-116840000D03*
X132588000Y-119380000D03*
X132588000Y-121920000D03*
X132588000Y-124460000D03*
X132588000Y-127000000D03*
X132588000Y-129540000D03*
D11*
X132588000Y-132080000D03*
%TD*%
D10*
%TO.C,J2*%
X90424000Y-108712000D03*
X90424000Y-106172000D03*
X90424000Y-103632000D03*
X90424000Y-101092000D03*
D11*
X90424000Y-98552000D03*
%TD*%
D12*
%TO.C,J1*%
X82296000Y-113980000D03*
X82296000Y-108980000D03*
X82296000Y-103980000D03*
X82296000Y-98980000D03*
D13*
X82296000Y-93980000D03*
%TD*%
D14*
%TO.C,H4*%
X156210000Y-150114000D03*
%TD*%
%TO.C,H3*%
X77216000Y-150622000D03*
%TD*%
%TO.C,H2*%
X155448000Y-63246000D03*
%TD*%
%TO.C,H1*%
X77978000Y-63246000D03*
%TD*%
D10*
%TO.C,J10*%
X90350000Y-75347000D03*
X90350000Y-77887000D03*
X90350000Y-80427000D03*
D11*
X90350000Y-82967000D03*
%TD*%
D15*
%TO.C,R3*%
X106172000Y-72644000D03*
D16*
X116332000Y-72644000D03*
%TD*%
D15*
%TO.C,R2*%
X106172000Y-75946000D03*
D16*
X116332000Y-75946000D03*
%TD*%
D12*
%TO.C,J8*%
X143869000Y-144780000D03*
D13*
X138869000Y-144780000D03*
%TD*%
D11*
%TO.C,J7*%
X121506000Y-133290000D03*
D10*
X121506000Y-130750000D03*
X121506000Y-128210000D03*
X121506000Y-125670000D03*
X121506000Y-123130000D03*
X121506000Y-120590000D03*
X121506000Y-118050000D03*
X121506000Y-115510000D03*
X121506000Y-112970000D03*
X121506000Y-110430000D03*
X121506000Y-107890000D03*
X121506000Y-105350000D03*
X121506000Y-102810000D03*
X121506000Y-100270000D03*
X121506000Y-97730000D03*
X121506000Y-95190000D03*
%TD*%
%TO.C,J6*%
X101106000Y-123130000D03*
X101106000Y-120590000D03*
X101106000Y-118050000D03*
X101106000Y-115510000D03*
X101106000Y-112970000D03*
X101106000Y-110430000D03*
X101106000Y-107890000D03*
X101106000Y-105350000D03*
X101106000Y-102810000D03*
X101106000Y-100270000D03*
X101106000Y-97730000D03*
D11*
X101106000Y-95190000D03*
%TD*%
D10*
%TO.C,J5*%
X132080000Y-144780000D03*
D11*
X129540000Y-144780000D03*
%TD*%
D12*
%TO.C,J4*%
X82321000Y-86209000D03*
X82321000Y-81209000D03*
X82321000Y-76209000D03*
D13*
X82321000Y-71209000D03*
%TD*%
D10*
%TO.C,display1*%
X144526000Y-71882000D03*
X141986000Y-71882000D03*
X139446000Y-71882000D03*
D11*
X136906000Y-71882000D03*
%TD*%
M02*
