<?xml version="1.0" encoding="UTF-8" standalone="no"?>
<svg
   xmlns:dc="http://purl.org/dc/elements/1.1/"
   xmlns:cc="http://creativecommons.org/ns#"
   xmlns:rdf="http://www.w3.org/1999/02/22-rdf-syntax-ns#"
   xmlns:svg="http://www.w3.org/2000/svg"
   xmlns="http://www.w3.org/2000/svg"
   xmlns:sodipodi="http://sodipodi.sourceforge.net/DTD/sodipodi-0.dtd"
   xmlns:inkscape="http://www.inkscape.org/namespaces/inkscape"
   width="11in"
   height="8.5in"
   viewBox="-25 -145 279.4 215.9"
   version="1.1"
   id="svg850"
   sodipodi:docname="ver1.svg"
   inkscape:version="0.92.3 (2405546, 2018-03-11)">
  <metadata
     id="metadata856">
    <rdf:RDF>
      <cc:Work
         rdf:about="">
        <dc:format>image/svg+xml</dc:format>
        <dc:type
           rdf:resource="http://purl.org/dc/dcmitype/StillImage" />
        <dc:title>OpenSCAD Model</dc:title>
      </cc:Work>
    </rdf:RDF>
  </metadata>
  <defs
     id="defs854" />
  <sodipodi:namedview
     pagecolor="#ffffff"
     bordercolor="#666666"
     borderopacity="1"
     objecttolerance="10"
     gridtolerance="10"
     guidetolerance="10"
     inkscape:pageopacity="0"
     inkscape:pageshadow="2"
     inkscape:window-width="1920"
     inkscape:window-height="1031"
     id="namedview852"
     showgrid="false"
     units="in"
     inkscape:zoom="0.73791252"
     inkscape:cx="411.05783"
     inkscape:cy="395.97926"
     inkscape:window-x="0"
     inkscape:window-y="25"
     inkscape:window-maximized="1"
     inkscape:current-layer="svg850" />
  <title
     id="title846">OpenSCAD Model</title>
  <path
     d="m 197.15134,60.9 h 30 V 0.89999997 h 2 V 25.9 h 17 V 0.89999997 h 6 V -74.1 h -6 v -25 h -17 v 25 h -2 v -60 h -30 v -10 h -40 v 10 h -30 v 60 h -2 v -25 h -19 v 25 h -8.000001 l -4,-12.5 h -84 l -4,12.5 h -9 v -25 h -8 l -12,25 V 0.89999997 l 12,25.00000003 h 8 V 0.89999997 h 9 l 4,12.50000003 h 84 l 4,-12.50000003 h 8.000001 V 25.9 h 19 V 0.89999997 h 2 V 60.9 h 30 v 10 h 40 z m -40,-130 v -5 h 40 v 5 z m 0,69.99999997 V -4.1 h 40 v 4.99999997 z"
     id="path848"
     inkscape:connector-curvature="0"
     style="fill:#d3d3d3;stroke:#000000;stroke-width:0.5" />
</svg>
