<?xml version="1.0" standalone="no"?>
<!DOCTYPE svg PUBLIC "-//W3C//DTD SVG 1.1//EN" "http://www.w3.org/Graphics/SVG/1.1/DTD/svg11.dtd">
<svg width="275mm" height="215mm" viewBox="-25 -145 275 215" xmlns="http://www.w3.org/2000/svg" version="1.1">
<title>OpenSCAD Model</title>
<path d="
M 195,55 L 225,55 L 225,-0 L 227,-0 L 227,25 L 244,25
 L 244,-0 L 250,-0 L 250,-75 L 244,-75 L 244,-100 L 227,-100
 L 227,-75 L 225,-75 L 225,-130 L 195,-130 L 195,-145 L 155,-145
 L 155,-130 L 125,-130 L 125,-75 L 123,-75 L 123,-100 L 104,-100
 L 104,-75 L 96,-75 L 92,-87.5 L 8,-87.5 L 4,-75 L -5,-75
 L -5,-100 L -13,-100 L -25,-75 L -25,-0 L -13,25 L -5,25
 L -5,-0 L 4,-0 L 8,12.5 L 92,12.5 L 96,-0 L 104,-0
 L 104,25 L 123,25 L 123,-0 L 125,-0 L 125,55 L 155,55
 L 155,70 L 195,70 z
M 155,-70 L 155,-75 L 195,-75 L 195,-70 z
M 29.5866,-47.8806 L 27.9645,-48.9645 L 26.8806,-50.5866 L 26.5,-52.5 L 26.8806,-54.4134 L 27.9645,-56.0355
 L 29.5866,-57.1194 L 31.5,-57.5 L 33.4134,-57.1194 L 35.0355,-56.0355 L 36.1194,-54.4134 L 36.5,-52.5
 L 36.1194,-50.5866 L 35.0355,-48.9645 L 33.4134,-47.8806 L 31.5,-47.5 z
M 45,-32 L 45,-52 L 80,-52 L 80,-32 z
M 114,-39.662 L 114,-49.662 L 122,-49.662 L 122,-39.662 z
M 117.708,-19.9249 L 116.642,-21.5839 L 116.642,-23.5561 L 117.708,-25.2151 L 119.502,-26.0344 L 121.454,-25.7537
 L 122.944,-24.4622 L 123.5,-22.57 L 122.944,-20.6777 L 121.454,-19.3863 L 119.502,-19.1056 z
M 117.708,-9.48686 L 116.642,-11.1459 L 116.642,-13.1181 L 117.708,-14.7771 L 119.502,-15.5964 L 121.454,-15.3157
 L 122.944,-14.0242 L 123.5,-12.132 L 122.944,-10.2397 L 121.454,-8.94829 L 119.502,-8.66762 z
M 155,-0 L 155,-5 L 195,-5 L 195,-0 z
" stroke="black" fill="lightgray" stroke-width="0.5"/>
</svg>
