%TF.GenerationSoftware,KiCad,Pcbnew,5.1.6-c6e7f7d~87~ubuntu18.04.1*%
%TF.CreationDate,2020-11-18T13:25:47-05:00*%
%TF.ProjectId,remote,72656d6f-7465-42e6-9b69-6361645f7063,rev?*%
%TF.SameCoordinates,Original*%
%TF.FileFunction,Legend,Top*%
%TF.FilePolarity,Positive*%
%FSLAX46Y46*%
G04 Gerber Fmt 4.6, Leading zero omitted, Abs format (unit mm)*
G04 Created by KiCad (PCBNEW 5.1.6-c6e7f7d~87~ubuntu18.04.1) date 2020-11-18 13:25:47*
%MOMM*%
%LPD*%
G01*
G04 APERTURE LIST*
%ADD10C,0.120000*%
%ADD11C,0.150000*%
%ADD12C,0.010000*%
G04 APERTURE END LIST*
D10*
X135128000Y-64770000D02*
X135636000Y-64770000D01*
X135128000Y-67818000D02*
X135128000Y-64770000D01*
X141478000Y-67818000D02*
X135128000Y-67818000D01*
X141478000Y-64770000D02*
X141478000Y-67818000D01*
X135636000Y-64770000D02*
X141478000Y-64770000D01*
D11*
X71319142Y-67524380D02*
X70842952Y-67524380D01*
X70795333Y-68000571D01*
X70842952Y-67952952D01*
X70938190Y-67905333D01*
X71176285Y-67905333D01*
X71271523Y-67952952D01*
X71319142Y-68000571D01*
X71366761Y-68095809D01*
X71366761Y-68333904D01*
X71319142Y-68429142D01*
X71271523Y-68476761D01*
X71176285Y-68524380D01*
X70938190Y-68524380D01*
X70842952Y-68476761D01*
X70795333Y-68429142D01*
X71795333Y-68524380D02*
X71795333Y-67857714D01*
X71795333Y-67952952D02*
X71842952Y-67905333D01*
X71938190Y-67857714D01*
X72081047Y-67857714D01*
X72176285Y-67905333D01*
X72223904Y-68000571D01*
X72223904Y-68524380D01*
X72223904Y-68000571D02*
X72271523Y-67905333D01*
X72366761Y-67857714D01*
X72509619Y-67857714D01*
X72604857Y-67905333D01*
X72652476Y-68000571D01*
X72652476Y-68524380D01*
X73128666Y-68524380D02*
X73128666Y-67857714D01*
X73128666Y-67952952D02*
X73176285Y-67905333D01*
X73271523Y-67857714D01*
X73414380Y-67857714D01*
X73509619Y-67905333D01*
X73557238Y-68000571D01*
X73557238Y-68524380D01*
X73557238Y-68000571D02*
X73604857Y-67905333D01*
X73700095Y-67857714D01*
X73842952Y-67857714D01*
X73938190Y-67905333D01*
X73985809Y-68000571D01*
X73985809Y-68524380D01*
X75176285Y-68476761D02*
X75271523Y-68524380D01*
X75462000Y-68524380D01*
X75557238Y-68476761D01*
X75604857Y-68381523D01*
X75604857Y-68333904D01*
X75557238Y-68238666D01*
X75462000Y-68191047D01*
X75319142Y-68191047D01*
X75223904Y-68143428D01*
X75176285Y-68048190D01*
X75176285Y-68000571D01*
X75223904Y-67905333D01*
X75319142Y-67857714D01*
X75462000Y-67857714D01*
X75557238Y-67905333D01*
X76462000Y-68476761D02*
X76366761Y-68524380D01*
X76176285Y-68524380D01*
X76081047Y-68476761D01*
X76033428Y-68429142D01*
X75985809Y-68333904D01*
X75985809Y-68048190D01*
X76033428Y-67952952D01*
X76081047Y-67905333D01*
X76176285Y-67857714D01*
X76366761Y-67857714D01*
X76462000Y-67905333D01*
X76890571Y-68524380D02*
X76890571Y-67857714D01*
X76890571Y-68048190D02*
X76938190Y-67952952D01*
X76985809Y-67905333D01*
X77081047Y-67857714D01*
X77176285Y-67857714D01*
X77890571Y-68476761D02*
X77795333Y-68524380D01*
X77604857Y-68524380D01*
X77509619Y-68476761D01*
X77462000Y-68381523D01*
X77462000Y-68000571D01*
X77509619Y-67905333D01*
X77604857Y-67857714D01*
X77795333Y-67857714D01*
X77890571Y-67905333D01*
X77938190Y-68000571D01*
X77938190Y-68095809D01*
X77462000Y-68191047D01*
X78271523Y-67857714D02*
X78462000Y-68524380D01*
X78652476Y-68048190D01*
X78842952Y-68524380D01*
X79033428Y-67857714D01*
X80033428Y-67857714D02*
X80414380Y-67857714D01*
X80176285Y-67524380D02*
X80176285Y-68381523D01*
X80223904Y-68476761D01*
X80319142Y-68524380D01*
X80414380Y-68524380D01*
X81128666Y-68476761D02*
X81033428Y-68524380D01*
X80842952Y-68524380D01*
X80747714Y-68476761D01*
X80700095Y-68381523D01*
X80700095Y-68000571D01*
X80747714Y-67905333D01*
X80842952Y-67857714D01*
X81033428Y-67857714D01*
X81128666Y-67905333D01*
X81176285Y-68000571D01*
X81176285Y-68095809D01*
X80700095Y-68191047D01*
X81604857Y-68524380D02*
X81604857Y-67857714D01*
X81604857Y-68048190D02*
X81652476Y-67952952D01*
X81700095Y-67905333D01*
X81795333Y-67857714D01*
X81890571Y-67857714D01*
X82223904Y-68524380D02*
X82223904Y-67857714D01*
X82223904Y-67952952D02*
X82271523Y-67905333D01*
X82366761Y-67857714D01*
X82509619Y-67857714D01*
X82604857Y-67905333D01*
X82652476Y-68000571D01*
X82652476Y-68524380D01*
X82652476Y-68000571D02*
X82700095Y-67905333D01*
X82795333Y-67857714D01*
X82938190Y-67857714D01*
X83033428Y-67905333D01*
X83081047Y-68000571D01*
X83081047Y-68524380D01*
X121118380Y-126682000D02*
X121118380Y-126491523D01*
X121166000Y-126396285D01*
X121261238Y-126301047D01*
X121451714Y-126253428D01*
X121785047Y-126253428D01*
X121975523Y-126301047D01*
X122070761Y-126396285D01*
X122118380Y-126491523D01*
X122118380Y-126682000D01*
X122070761Y-126777238D01*
X121975523Y-126872476D01*
X121785047Y-126920095D01*
X121451714Y-126920095D01*
X121261238Y-126872476D01*
X121166000Y-126777238D01*
X121118380Y-126682000D01*
X122118380Y-125824857D02*
X121118380Y-125824857D01*
X121832666Y-125491523D01*
X121118380Y-125158190D01*
X122118380Y-125158190D01*
X122118380Y-124110571D02*
X121642190Y-124443904D01*
X122118380Y-124682000D02*
X121118380Y-124682000D01*
X121118380Y-124301047D01*
X121166000Y-124205809D01*
X121213619Y-124158190D01*
X121308857Y-124110571D01*
X121451714Y-124110571D01*
X121546952Y-124158190D01*
X121594571Y-124205809D01*
X121642190Y-124301047D01*
X121642190Y-124682000D01*
X121118380Y-123491523D02*
X121118380Y-123301047D01*
X121166000Y-123205809D01*
X121261238Y-123110571D01*
X121451714Y-123062952D01*
X121785047Y-123062952D01*
X121975523Y-123110571D01*
X122070761Y-123205809D01*
X122118380Y-123301047D01*
X122118380Y-123491523D01*
X122070761Y-123586761D01*
X121975523Y-123682000D01*
X121785047Y-123729619D01*
X121451714Y-123729619D01*
X121261238Y-123682000D01*
X121166000Y-123586761D01*
X121118380Y-123491523D01*
X122118380Y-122634380D02*
X121118380Y-122634380D01*
X122118380Y-122062952D01*
X121118380Y-122062952D01*
X121594571Y-120491523D02*
X121642190Y-120348666D01*
X121689809Y-120301047D01*
X121785047Y-120253428D01*
X121927904Y-120253428D01*
X122023142Y-120301047D01*
X122070761Y-120348666D01*
X122118380Y-120443904D01*
X122118380Y-120824857D01*
X121118380Y-120824857D01*
X121118380Y-120491523D01*
X121166000Y-120396285D01*
X121213619Y-120348666D01*
X121308857Y-120301047D01*
X121404095Y-120301047D01*
X121499333Y-120348666D01*
X121546952Y-120396285D01*
X121594571Y-120491523D01*
X121594571Y-120824857D01*
X121118380Y-119920095D02*
X121118380Y-119301047D01*
X121499333Y-119634380D01*
X121499333Y-119491523D01*
X121546952Y-119396285D01*
X121594571Y-119348666D01*
X121689809Y-119301047D01*
X121927904Y-119301047D01*
X122023142Y-119348666D01*
X122070761Y-119396285D01*
X122118380Y-119491523D01*
X122118380Y-119777238D01*
X122070761Y-119872476D01*
X122023142Y-119920095D01*
X121594571Y-118539142D02*
X121594571Y-118872476D01*
X122118380Y-118872476D02*
X121118380Y-118872476D01*
X121118380Y-118396285D01*
D10*
X149352000Y-108204000D02*
X149352000Y-106934000D01*
X137414000Y-108204000D02*
X149352000Y-108204000D01*
X137414000Y-107188000D02*
X137414000Y-108204000D01*
D11*
X137938571Y-109216857D02*
X137938571Y-110016857D01*
X137652857Y-108759714D02*
X137367142Y-109616857D01*
X138110000Y-109616857D01*
X138567142Y-109902571D02*
X138624285Y-109959714D01*
X138567142Y-110016857D01*
X138510000Y-109959714D01*
X138567142Y-109902571D01*
X138567142Y-110016857D01*
X139024285Y-108816857D02*
X139824285Y-108816857D01*
X139310000Y-110016857D01*
X140281428Y-110016857D02*
X140281428Y-108816857D01*
X140967142Y-110016857D02*
X140452857Y-109331142D01*
X140967142Y-108816857D02*
X140281428Y-109502571D01*
X142395714Y-110016857D02*
X142395714Y-109216857D01*
X142395714Y-109445428D02*
X142452857Y-109331142D01*
X142510000Y-109274000D01*
X142624285Y-109216857D01*
X142738571Y-109216857D01*
X143595714Y-109959714D02*
X143481428Y-110016857D01*
X143252857Y-110016857D01*
X143138571Y-109959714D01*
X143081428Y-109845428D01*
X143081428Y-109388285D01*
X143138571Y-109274000D01*
X143252857Y-109216857D01*
X143481428Y-109216857D01*
X143595714Y-109274000D01*
X143652857Y-109388285D01*
X143652857Y-109502571D01*
X143081428Y-109616857D01*
X144110000Y-109959714D02*
X144224285Y-110016857D01*
X144452857Y-110016857D01*
X144567142Y-109959714D01*
X144624285Y-109845428D01*
X144624285Y-109788285D01*
X144567142Y-109674000D01*
X144452857Y-109616857D01*
X144281428Y-109616857D01*
X144167142Y-109559714D01*
X144110000Y-109445428D01*
X144110000Y-109388285D01*
X144167142Y-109274000D01*
X144281428Y-109216857D01*
X144452857Y-109216857D01*
X144567142Y-109274000D01*
X145138571Y-110016857D02*
X145138571Y-109216857D01*
X145138571Y-108816857D02*
X145081428Y-108874000D01*
X145138571Y-108931142D01*
X145195714Y-108874000D01*
X145138571Y-108816857D01*
X145138571Y-108931142D01*
X145652857Y-109959714D02*
X145767142Y-110016857D01*
X145995714Y-110016857D01*
X146110000Y-109959714D01*
X146167142Y-109845428D01*
X146167142Y-109788285D01*
X146110000Y-109674000D01*
X145995714Y-109616857D01*
X145824285Y-109616857D01*
X145710000Y-109559714D01*
X145652857Y-109445428D01*
X145652857Y-109388285D01*
X145710000Y-109274000D01*
X145824285Y-109216857D01*
X145995714Y-109216857D01*
X146110000Y-109274000D01*
X146510000Y-109216857D02*
X146967142Y-109216857D01*
X146681428Y-108816857D02*
X146681428Y-109845428D01*
X146738571Y-109959714D01*
X146852857Y-110016857D01*
X146967142Y-110016857D01*
X147538571Y-110016857D02*
X147424285Y-109959714D01*
X147367142Y-109902571D01*
X147310000Y-109788285D01*
X147310000Y-109445428D01*
X147367142Y-109331142D01*
X147424285Y-109274000D01*
X147538571Y-109216857D01*
X147710000Y-109216857D01*
X147824285Y-109274000D01*
X147881428Y-109331142D01*
X147938571Y-109445428D01*
X147938571Y-109788285D01*
X147881428Y-109902571D01*
X147824285Y-109959714D01*
X147710000Y-110016857D01*
X147538571Y-110016857D01*
X148452857Y-110016857D02*
X148452857Y-109216857D01*
X148452857Y-109445428D02*
X148510000Y-109331142D01*
X148567142Y-109274000D01*
X148681428Y-109216857D01*
X148795714Y-109216857D01*
X149138571Y-109959714D02*
X149252857Y-110016857D01*
X149481428Y-110016857D01*
X149595714Y-109959714D01*
X149652857Y-109845428D01*
X149652857Y-109788285D01*
X149595714Y-109674000D01*
X149481428Y-109616857D01*
X149310000Y-109616857D01*
X149195714Y-109559714D01*
X149138571Y-109445428D01*
X149138571Y-109388285D01*
X149195714Y-109274000D01*
X149310000Y-109216857D01*
X149481428Y-109216857D01*
X149595714Y-109274000D01*
D10*
X107950000Y-104902000D02*
X106934000Y-104902000D01*
X107950000Y-93472000D02*
X107950000Y-104902000D01*
X106680000Y-93472000D02*
X107950000Y-93472000D01*
D11*
X109636571Y-99094857D02*
X108950857Y-99094857D01*
X109293714Y-99094857D02*
X109293714Y-97894857D01*
X109179428Y-98066285D01*
X109065142Y-98180571D01*
X108950857Y-98237714D01*
X110379428Y-97894857D02*
X110493714Y-97894857D01*
X110608000Y-97952000D01*
X110665142Y-98009142D01*
X110722285Y-98123428D01*
X110779428Y-98352000D01*
X110779428Y-98637714D01*
X110722285Y-98866285D01*
X110665142Y-98980571D01*
X110608000Y-99037714D01*
X110493714Y-99094857D01*
X110379428Y-99094857D01*
X110265142Y-99037714D01*
X110208000Y-98980571D01*
X110150857Y-98866285D01*
X110093714Y-98637714D01*
X110093714Y-98352000D01*
X110150857Y-98123428D01*
X110208000Y-98009142D01*
X110265142Y-97952000D01*
X110379428Y-97894857D01*
X111293714Y-99094857D02*
X111293714Y-97894857D01*
X111979428Y-99094857D02*
X111465142Y-98409142D01*
X111979428Y-97894857D02*
X111293714Y-98580571D01*
X113408000Y-99094857D02*
X113408000Y-98294857D01*
X113408000Y-98523428D02*
X113465142Y-98409142D01*
X113522285Y-98352000D01*
X113636571Y-98294857D01*
X113750857Y-98294857D01*
X114608000Y-99037714D02*
X114493714Y-99094857D01*
X114265142Y-99094857D01*
X114150857Y-99037714D01*
X114093714Y-98923428D01*
X114093714Y-98466285D01*
X114150857Y-98352000D01*
X114265142Y-98294857D01*
X114493714Y-98294857D01*
X114608000Y-98352000D01*
X114665142Y-98466285D01*
X114665142Y-98580571D01*
X114093714Y-98694857D01*
X115122285Y-99037714D02*
X115236571Y-99094857D01*
X115465142Y-99094857D01*
X115579428Y-99037714D01*
X115636571Y-98923428D01*
X115636571Y-98866285D01*
X115579428Y-98752000D01*
X115465142Y-98694857D01*
X115293714Y-98694857D01*
X115179428Y-98637714D01*
X115122285Y-98523428D01*
X115122285Y-98466285D01*
X115179428Y-98352000D01*
X115293714Y-98294857D01*
X115465142Y-98294857D01*
X115579428Y-98352000D01*
X116150857Y-99094857D02*
X116150857Y-98294857D01*
X116150857Y-97894857D02*
X116093714Y-97952000D01*
X116150857Y-98009142D01*
X116208000Y-97952000D01*
X116150857Y-97894857D01*
X116150857Y-98009142D01*
X116665142Y-99037714D02*
X116779428Y-99094857D01*
X117008000Y-99094857D01*
X117122285Y-99037714D01*
X117179428Y-98923428D01*
X117179428Y-98866285D01*
X117122285Y-98752000D01*
X117008000Y-98694857D01*
X116836571Y-98694857D01*
X116722285Y-98637714D01*
X116665142Y-98523428D01*
X116665142Y-98466285D01*
X116722285Y-98352000D01*
X116836571Y-98294857D01*
X117008000Y-98294857D01*
X117122285Y-98352000D01*
X117522285Y-98294857D02*
X117979428Y-98294857D01*
X117693714Y-97894857D02*
X117693714Y-98923428D01*
X117750857Y-99037714D01*
X117865142Y-99094857D01*
X117979428Y-99094857D01*
X118550857Y-99094857D02*
X118436571Y-99037714D01*
X118379428Y-98980571D01*
X118322285Y-98866285D01*
X118322285Y-98523428D01*
X118379428Y-98409142D01*
X118436571Y-98352000D01*
X118550857Y-98294857D01*
X118722285Y-98294857D01*
X118836571Y-98352000D01*
X118893714Y-98409142D01*
X118950857Y-98523428D01*
X118950857Y-98866285D01*
X118893714Y-98980571D01*
X118836571Y-99037714D01*
X118722285Y-99094857D01*
X118550857Y-99094857D01*
X119465142Y-99094857D02*
X119465142Y-98294857D01*
X119465142Y-98523428D02*
X119522285Y-98409142D01*
X119579428Y-98352000D01*
X119693714Y-98294857D01*
X119808000Y-98294857D01*
X120150857Y-99037714D02*
X120265142Y-99094857D01*
X120493714Y-99094857D01*
X120608000Y-99037714D01*
X120665142Y-98923428D01*
X120665142Y-98866285D01*
X120608000Y-98752000D01*
X120493714Y-98694857D01*
X120322285Y-98694857D01*
X120208000Y-98637714D01*
X120150857Y-98523428D01*
X120150857Y-98466285D01*
X120208000Y-98352000D01*
X120322285Y-98294857D01*
X120493714Y-98294857D01*
X120608000Y-98352000D01*
D10*
X92964000Y-71120000D02*
X93472000Y-71120000D01*
X92964000Y-80264000D02*
X92964000Y-71120000D01*
X128524000Y-80264000D02*
X92964000Y-80264000D01*
X128524000Y-71120000D02*
X128524000Y-80264000D01*
X93472000Y-71120000D02*
X128524000Y-71120000D01*
D11*
X94040928Y-74559619D02*
X94250452Y-74559619D01*
X94355214Y-74612000D01*
X94459976Y-74716761D01*
X94512357Y-74926285D01*
X94512357Y-75292952D01*
X94459976Y-75502476D01*
X94355214Y-75607238D01*
X94250452Y-75659619D01*
X94040928Y-75659619D01*
X93936166Y-75607238D01*
X93831404Y-75502476D01*
X93779023Y-75292952D01*
X93779023Y-74926285D01*
X93831404Y-74716761D01*
X93936166Y-74612000D01*
X94040928Y-74559619D01*
X94983785Y-75659619D02*
X94983785Y-74559619D01*
X95612357Y-75659619D01*
X95612357Y-74559619D01*
X96764738Y-75554857D02*
X96712357Y-75607238D01*
X96555214Y-75659619D01*
X96450452Y-75659619D01*
X96293309Y-75607238D01*
X96188547Y-75502476D01*
X96136166Y-75397714D01*
X96083785Y-75188190D01*
X96083785Y-75031047D01*
X96136166Y-74821523D01*
X96188547Y-74716761D01*
X96293309Y-74612000D01*
X96450452Y-74559619D01*
X96555214Y-74559619D01*
X96712357Y-74612000D01*
X96764738Y-74664380D01*
X97236166Y-75083428D02*
X97602833Y-75083428D01*
X97759976Y-75659619D02*
X97236166Y-75659619D01*
X97236166Y-74559619D01*
X97759976Y-74559619D01*
X99069500Y-75659619D02*
X99069500Y-74559619D01*
X99488547Y-74559619D01*
X99593309Y-74612000D01*
X99645690Y-74664380D01*
X99698071Y-74769142D01*
X99698071Y-74926285D01*
X99645690Y-75031047D01*
X99593309Y-75083428D01*
X99488547Y-75135809D01*
X99069500Y-75135809D01*
X100169500Y-75083428D02*
X100536166Y-75083428D01*
X100693309Y-75659619D02*
X100169500Y-75659619D01*
X100169500Y-74559619D01*
X100693309Y-74559619D01*
X101793309Y-75659619D02*
X101426642Y-75135809D01*
X101164738Y-75659619D02*
X101164738Y-74559619D01*
X101583785Y-74559619D01*
X101688547Y-74612000D01*
X101740928Y-74664380D01*
X101793309Y-74769142D01*
X101793309Y-74926285D01*
X101740928Y-75031047D01*
X101688547Y-75083428D01*
X101583785Y-75135809D01*
X101164738Y-75135809D01*
X103102833Y-75659619D02*
X103102833Y-74559619D01*
X103364738Y-74559619D01*
X103521880Y-74612000D01*
X103626642Y-74716761D01*
X103679023Y-74821523D01*
X103731404Y-75031047D01*
X103731404Y-75188190D01*
X103679023Y-75397714D01*
X103626642Y-75502476D01*
X103521880Y-75607238D01*
X103364738Y-75659619D01*
X103102833Y-75659619D01*
X104150452Y-75345333D02*
X104674261Y-75345333D01*
X104045690Y-75659619D02*
X104412357Y-74559619D01*
X104779023Y-75659619D01*
X105355214Y-75135809D02*
X105355214Y-75659619D01*
X104988547Y-74559619D02*
X105355214Y-75135809D01*
X105721880Y-74559619D01*
X106140928Y-75607238D02*
X106140928Y-75659619D01*
X106088547Y-75764380D01*
X106036166Y-75816761D01*
X107450452Y-75659619D02*
X107450452Y-74926285D01*
X107450452Y-75135809D02*
X107502833Y-75031047D01*
X107555214Y-74978666D01*
X107659976Y-74926285D01*
X107764738Y-74926285D01*
X108550452Y-75607238D02*
X108445690Y-75659619D01*
X108236166Y-75659619D01*
X108131404Y-75607238D01*
X108079023Y-75502476D01*
X108079023Y-75083428D01*
X108131404Y-74978666D01*
X108236166Y-74926285D01*
X108445690Y-74926285D01*
X108550452Y-74978666D01*
X108602833Y-75083428D01*
X108602833Y-75188190D01*
X108079023Y-75292952D01*
X109231404Y-75659619D02*
X109126642Y-75607238D01*
X109074261Y-75502476D01*
X109074261Y-74559619D01*
X109807595Y-75659619D02*
X109702833Y-75607238D01*
X109650452Y-75554857D01*
X109598071Y-75450095D01*
X109598071Y-75135809D01*
X109650452Y-75031047D01*
X109702833Y-74978666D01*
X109807595Y-74926285D01*
X109964738Y-74926285D01*
X110069500Y-74978666D01*
X110121880Y-75031047D01*
X110174261Y-75135809D01*
X110174261Y-75450095D01*
X110121880Y-75554857D01*
X110069500Y-75607238D01*
X109964738Y-75659619D01*
X109807595Y-75659619D01*
X111117119Y-75607238D02*
X111012357Y-75659619D01*
X110802833Y-75659619D01*
X110698071Y-75607238D01*
X110645690Y-75554857D01*
X110593309Y-75450095D01*
X110593309Y-75135809D01*
X110645690Y-75031047D01*
X110698071Y-74978666D01*
X110802833Y-74926285D01*
X111012357Y-74926285D01*
X111117119Y-74978666D01*
X112059976Y-75659619D02*
X112059976Y-75083428D01*
X112007595Y-74978666D01*
X111902833Y-74926285D01*
X111693309Y-74926285D01*
X111588547Y-74978666D01*
X112059976Y-75607238D02*
X111955214Y-75659619D01*
X111693309Y-75659619D01*
X111588547Y-75607238D01*
X111536166Y-75502476D01*
X111536166Y-75397714D01*
X111588547Y-75292952D01*
X111693309Y-75240571D01*
X111955214Y-75240571D01*
X112059976Y-75188190D01*
X112426642Y-74926285D02*
X112845690Y-74926285D01*
X112583785Y-74559619D02*
X112583785Y-75502476D01*
X112636166Y-75607238D01*
X112740928Y-75659619D01*
X112845690Y-75659619D01*
X113631404Y-75607238D02*
X113526642Y-75659619D01*
X113317119Y-75659619D01*
X113212357Y-75607238D01*
X113159976Y-75502476D01*
X113159976Y-75083428D01*
X113212357Y-74978666D01*
X113317119Y-74926285D01*
X113526642Y-74926285D01*
X113631404Y-74978666D01*
X113683785Y-75083428D01*
X113683785Y-75188190D01*
X113159976Y-75292952D01*
X114993309Y-74926285D02*
X114993309Y-76026285D01*
X114993309Y-74978666D02*
X115098071Y-74926285D01*
X115307595Y-74926285D01*
X115412357Y-74978666D01*
X115464738Y-75031047D01*
X115517119Y-75135809D01*
X115517119Y-75450095D01*
X115464738Y-75554857D01*
X115412357Y-75607238D01*
X115307595Y-75659619D01*
X115098071Y-75659619D01*
X114993309Y-75607238D01*
X116145690Y-75659619D02*
X116040928Y-75607238D01*
X115988547Y-75554857D01*
X115936166Y-75450095D01*
X115936166Y-75135809D01*
X115988547Y-75031047D01*
X116040928Y-74978666D01*
X116145690Y-74926285D01*
X116302833Y-74926285D01*
X116407595Y-74978666D01*
X116459976Y-75031047D01*
X116512357Y-75135809D01*
X116512357Y-75450095D01*
X116459976Y-75554857D01*
X116407595Y-75607238D01*
X116302833Y-75659619D01*
X116145690Y-75659619D01*
X116879023Y-74926285D02*
X117088547Y-75659619D01*
X117298071Y-75135809D01*
X117507595Y-75659619D01*
X117717119Y-74926285D01*
X118555214Y-75607238D02*
X118450452Y-75659619D01*
X118240928Y-75659619D01*
X118136166Y-75607238D01*
X118083785Y-75502476D01*
X118083785Y-75083428D01*
X118136166Y-74978666D01*
X118240928Y-74926285D01*
X118450452Y-74926285D01*
X118555214Y-74978666D01*
X118607595Y-75083428D01*
X118607595Y-75188190D01*
X118083785Y-75292952D01*
X119079023Y-75659619D02*
X119079023Y-74926285D01*
X119079023Y-75135809D02*
X119131404Y-75031047D01*
X119183785Y-74978666D01*
X119288547Y-74926285D01*
X119393309Y-74926285D01*
X120179023Y-75607238D02*
X120074261Y-75659619D01*
X119864738Y-75659619D01*
X119759976Y-75607238D01*
X119707595Y-75502476D01*
X119707595Y-75083428D01*
X119759976Y-74978666D01*
X119864738Y-74926285D01*
X120074261Y-74926285D01*
X120179023Y-74978666D01*
X120231404Y-75083428D01*
X120231404Y-75188190D01*
X119707595Y-75292952D01*
X121174261Y-75659619D02*
X121174261Y-74559619D01*
X121174261Y-75607238D02*
X121069500Y-75659619D01*
X120859976Y-75659619D01*
X120755214Y-75607238D01*
X120702833Y-75554857D01*
X120650452Y-75450095D01*
X120650452Y-75135809D01*
X120702833Y-75031047D01*
X120755214Y-74978666D01*
X120859976Y-74926285D01*
X121069500Y-74926285D01*
X121174261Y-74978666D01*
X122483785Y-75607238D02*
X122588547Y-75659619D01*
X122798071Y-75659619D01*
X122902833Y-75607238D01*
X122955214Y-75502476D01*
X122955214Y-75450095D01*
X122902833Y-75345333D01*
X122798071Y-75292952D01*
X122640928Y-75292952D01*
X122536166Y-75240571D01*
X122483785Y-75135809D01*
X122483785Y-75083428D01*
X122536166Y-74978666D01*
X122640928Y-74926285D01*
X122798071Y-74926285D01*
X122902833Y-74978666D01*
X123845690Y-75607238D02*
X123740928Y-75659619D01*
X123531404Y-75659619D01*
X123426642Y-75607238D01*
X123374261Y-75502476D01*
X123374261Y-75083428D01*
X123426642Y-74978666D01*
X123531404Y-74926285D01*
X123740928Y-74926285D01*
X123845690Y-74978666D01*
X123898071Y-75083428D01*
X123898071Y-75188190D01*
X123374261Y-75292952D01*
X124369500Y-74926285D02*
X124369500Y-75659619D01*
X124369500Y-75031047D02*
X124421880Y-74978666D01*
X124526642Y-74926285D01*
X124683785Y-74926285D01*
X124788547Y-74978666D01*
X124840928Y-75083428D01*
X124840928Y-75659619D01*
X125312357Y-75607238D02*
X125417119Y-75659619D01*
X125626642Y-75659619D01*
X125731404Y-75607238D01*
X125783785Y-75502476D01*
X125783785Y-75450095D01*
X125731404Y-75345333D01*
X125626642Y-75292952D01*
X125469500Y-75292952D01*
X125364738Y-75240571D01*
X125312357Y-75135809D01*
X125312357Y-75083428D01*
X125364738Y-74978666D01*
X125469500Y-74926285D01*
X125626642Y-74926285D01*
X125731404Y-74978666D01*
X126412357Y-75659619D02*
X126307595Y-75607238D01*
X126255214Y-75554857D01*
X126202833Y-75450095D01*
X126202833Y-75135809D01*
X126255214Y-75031047D01*
X126307595Y-74978666D01*
X126412357Y-74926285D01*
X126569500Y-74926285D01*
X126674261Y-74978666D01*
X126726642Y-75031047D01*
X126779023Y-75135809D01*
X126779023Y-75450095D01*
X126726642Y-75554857D01*
X126674261Y-75607238D01*
X126569500Y-75659619D01*
X126412357Y-75659619D01*
X127250452Y-75659619D02*
X127250452Y-74926285D01*
X127250452Y-75135809D02*
X127302833Y-75031047D01*
X127355214Y-74978666D01*
X127459976Y-74926285D01*
X127564738Y-74926285D01*
X93674261Y-76726285D02*
X94093309Y-76726285D01*
X93831404Y-76359619D02*
X93831404Y-77302476D01*
X93883785Y-77407238D01*
X93988547Y-77459619D01*
X94093309Y-77459619D01*
X94617119Y-77459619D02*
X94512357Y-77407238D01*
X94459976Y-77354857D01*
X94407595Y-77250095D01*
X94407595Y-76935809D01*
X94459976Y-76831047D01*
X94512357Y-76778666D01*
X94617119Y-76726285D01*
X94774261Y-76726285D01*
X94879023Y-76778666D01*
X94931404Y-76831047D01*
X94983785Y-76935809D01*
X94983785Y-77250095D01*
X94931404Y-77354857D01*
X94879023Y-77407238D01*
X94774261Y-77459619D01*
X94617119Y-77459619D01*
X96659976Y-76883428D02*
X96293309Y-76883428D01*
X96293309Y-77459619D02*
X96293309Y-76359619D01*
X96817119Y-76359619D01*
X97864738Y-77459619D02*
X97498071Y-76935809D01*
X97236166Y-77459619D02*
X97236166Y-76359619D01*
X97655214Y-76359619D01*
X97759976Y-76412000D01*
X97812357Y-76464380D01*
X97864738Y-76569142D01*
X97864738Y-76726285D01*
X97812357Y-76831047D01*
X97759976Y-76883428D01*
X97655214Y-76935809D01*
X97236166Y-76935809D01*
X98336166Y-76883428D02*
X98702833Y-76883428D01*
X98859976Y-77459619D02*
X98336166Y-77459619D01*
X98336166Y-76359619D01*
X98859976Y-76359619D01*
X99279023Y-77407238D02*
X99436166Y-77459619D01*
X99698071Y-77459619D01*
X99802833Y-77407238D01*
X99855214Y-77354857D01*
X99907595Y-77250095D01*
X99907595Y-77145333D01*
X99855214Y-77040571D01*
X99802833Y-76988190D01*
X99698071Y-76935809D01*
X99488547Y-76883428D01*
X99383785Y-76831047D01*
X99331404Y-76778666D01*
X99279023Y-76673904D01*
X99279023Y-76569142D01*
X99331404Y-76464380D01*
X99383785Y-76412000D01*
X99488547Y-76359619D01*
X99750452Y-76359619D01*
X99907595Y-76412000D01*
X100379023Y-77459619D02*
X100379023Y-76359619D01*
X100379023Y-76883428D02*
X101007595Y-76883428D01*
X101007595Y-77459619D02*
X101007595Y-76359619D01*
X102317119Y-77145333D02*
X102840928Y-77145333D01*
X102212357Y-77459619D02*
X102579023Y-76359619D01*
X102945690Y-77459619D01*
X103312357Y-77459619D02*
X103312357Y-76359619D01*
X104464738Y-77459619D02*
X104098071Y-76935809D01*
X103836166Y-77459619D02*
X103836166Y-76359619D01*
X104255214Y-76359619D01*
X104359976Y-76412000D01*
X104412357Y-76464380D01*
X104464738Y-76569142D01*
X104464738Y-76726285D01*
X104412357Y-76831047D01*
X104359976Y-76883428D01*
X104255214Y-76935809D01*
X103836166Y-76935809D01*
X106245690Y-77459619D02*
X106245690Y-76883428D01*
X106193309Y-76778666D01*
X106088547Y-76726285D01*
X105879023Y-76726285D01*
X105774261Y-76778666D01*
X106245690Y-77407238D02*
X106140928Y-77459619D01*
X105879023Y-77459619D01*
X105774261Y-77407238D01*
X105721880Y-77302476D01*
X105721880Y-77197714D01*
X105774261Y-77092952D01*
X105879023Y-77040571D01*
X106140928Y-77040571D01*
X106245690Y-76988190D01*
X106769500Y-77459619D02*
X106769500Y-76726285D01*
X106769500Y-76935809D02*
X106821880Y-76831047D01*
X106874261Y-76778666D01*
X106979023Y-76726285D01*
X107083785Y-76726285D01*
X107869500Y-77407238D02*
X107764738Y-77459619D01*
X107555214Y-77459619D01*
X107450452Y-77407238D01*
X107398071Y-77302476D01*
X107398071Y-76883428D01*
X107450452Y-76778666D01*
X107555214Y-76726285D01*
X107764738Y-76726285D01*
X107869500Y-76778666D01*
X107921880Y-76883428D01*
X107921880Y-76988190D01*
X107398071Y-77092952D01*
X108864738Y-77459619D02*
X108864738Y-76883428D01*
X108812357Y-76778666D01*
X108707595Y-76726285D01*
X108498071Y-76726285D01*
X108393309Y-76778666D01*
X108864738Y-77407238D02*
X108759976Y-77459619D01*
X108498071Y-77459619D01*
X108393309Y-77407238D01*
X108340928Y-77302476D01*
X108340928Y-77197714D01*
X108393309Y-77092952D01*
X108498071Y-77040571D01*
X108759976Y-77040571D01*
X108864738Y-76988190D01*
X110540928Y-77878666D02*
X110488547Y-77826285D01*
X110383785Y-77669142D01*
X110331404Y-77564380D01*
X110279023Y-77407238D01*
X110226642Y-77145333D01*
X110226642Y-76935809D01*
X110279023Y-76673904D01*
X110331404Y-76516761D01*
X110383785Y-76412000D01*
X110488547Y-76254857D01*
X110540928Y-76202476D01*
X111431404Y-76726285D02*
X111431404Y-77459619D01*
X111169500Y-76307238D02*
X110907595Y-77092952D01*
X111588547Y-77092952D01*
X112217119Y-76359619D02*
X112321880Y-76359619D01*
X112426642Y-76412000D01*
X112479023Y-76464380D01*
X112531404Y-76569142D01*
X112583785Y-76778666D01*
X112583785Y-77040571D01*
X112531404Y-77250095D01*
X112479023Y-77354857D01*
X112426642Y-77407238D01*
X112321880Y-77459619D01*
X112217119Y-77459619D01*
X112112357Y-77407238D01*
X112059976Y-77354857D01*
X112007595Y-77250095D01*
X111955214Y-77040571D01*
X111955214Y-76778666D01*
X112007595Y-76569142D01*
X112059976Y-76464380D01*
X112112357Y-76412000D01*
X112217119Y-76359619D01*
X113264738Y-76359619D02*
X113369500Y-76359619D01*
X113474261Y-76412000D01*
X113526642Y-76464380D01*
X113579023Y-76569142D01*
X113631404Y-76778666D01*
X113631404Y-77040571D01*
X113579023Y-77250095D01*
X113526642Y-77354857D01*
X113474261Y-77407238D01*
X113369500Y-77459619D01*
X113264738Y-77459619D01*
X113159976Y-77407238D01*
X113107595Y-77354857D01*
X113055214Y-77250095D01*
X113002833Y-77040571D01*
X113002833Y-76778666D01*
X113055214Y-76569142D01*
X113107595Y-76464380D01*
X113159976Y-76412000D01*
X113264738Y-76359619D01*
X114940928Y-76726285D02*
X114940928Y-77826285D01*
X114940928Y-76778666D02*
X115045690Y-76726285D01*
X115255214Y-76726285D01*
X115359976Y-76778666D01*
X115412357Y-76831047D01*
X115464738Y-76935809D01*
X115464738Y-77250095D01*
X115412357Y-77354857D01*
X115359976Y-77407238D01*
X115255214Y-77459619D01*
X115045690Y-77459619D01*
X114940928Y-77407238D01*
X115936166Y-77459619D02*
X115936166Y-76726285D01*
X115936166Y-76831047D02*
X115988547Y-76778666D01*
X116093309Y-76726285D01*
X116250452Y-76726285D01*
X116355214Y-76778666D01*
X116407595Y-76883428D01*
X116407595Y-77459619D01*
X116407595Y-76883428D02*
X116459976Y-76778666D01*
X116564738Y-76726285D01*
X116721880Y-76726285D01*
X116826642Y-76778666D01*
X116879023Y-76883428D01*
X116879023Y-77459619D01*
X118869500Y-77354857D02*
X118817119Y-77407238D01*
X118659976Y-77459619D01*
X118555214Y-77459619D01*
X118398071Y-77407238D01*
X118293309Y-77302476D01*
X118240928Y-77197714D01*
X118188547Y-76988190D01*
X118188547Y-76831047D01*
X118240928Y-76621523D01*
X118293309Y-76516761D01*
X118398071Y-76412000D01*
X118555214Y-76359619D01*
X118659976Y-76359619D01*
X118817119Y-76412000D01*
X118869500Y-76464380D01*
X119550452Y-76359619D02*
X119759976Y-76359619D01*
X119864738Y-76412000D01*
X119969500Y-76516761D01*
X120021880Y-76726285D01*
X120021880Y-77092952D01*
X119969500Y-77302476D01*
X119864738Y-77407238D01*
X119759976Y-77459619D01*
X119550452Y-77459619D01*
X119445690Y-77407238D01*
X119340928Y-77302476D01*
X119288547Y-77092952D01*
X119288547Y-76726285D01*
X119340928Y-76516761D01*
X119445690Y-76412000D01*
X119550452Y-76359619D01*
X120440928Y-76464380D02*
X120493309Y-76412000D01*
X120598071Y-76359619D01*
X120859976Y-76359619D01*
X120964738Y-76412000D01*
X121017119Y-76464380D01*
X121069500Y-76569142D01*
X121069500Y-76673904D01*
X121017119Y-76831047D01*
X120388547Y-77459619D01*
X121069500Y-77459619D01*
X121436166Y-77878666D02*
X121488547Y-77826285D01*
X121593309Y-77669142D01*
X121645690Y-77564380D01*
X121698071Y-77407238D01*
X121750452Y-77145333D01*
X121750452Y-76935809D01*
X121698071Y-76673904D01*
X121645690Y-76516761D01*
X121593309Y-76412000D01*
X121488547Y-76254857D01*
X121436166Y-76202476D01*
X123583785Y-77459619D02*
X123583785Y-76883428D01*
X123531404Y-76778666D01*
X123426642Y-76726285D01*
X123217119Y-76726285D01*
X123112357Y-76778666D01*
X123583785Y-77407238D02*
X123479023Y-77459619D01*
X123217119Y-77459619D01*
X123112357Y-77407238D01*
X123059976Y-77302476D01*
X123059976Y-77197714D01*
X123112357Y-77092952D01*
X123217119Y-77040571D01*
X123479023Y-77040571D01*
X123583785Y-76988190D01*
X124107595Y-76726285D02*
X124107595Y-77459619D01*
X124107595Y-76831047D02*
X124159976Y-76778666D01*
X124264738Y-76726285D01*
X124421880Y-76726285D01*
X124526642Y-76778666D01*
X124579023Y-76883428D01*
X124579023Y-77459619D01*
X125574261Y-77459619D02*
X125574261Y-76359619D01*
X125574261Y-77407238D02*
X125469500Y-77459619D01*
X125259976Y-77459619D01*
X125155214Y-77407238D01*
X125102833Y-77354857D01*
X125050452Y-77250095D01*
X125050452Y-76935809D01*
X125102833Y-76831047D01*
X125155214Y-76778666D01*
X125259976Y-76726285D01*
X125469500Y-76726285D01*
X125574261Y-76778666D01*
X93831404Y-78526285D02*
X93831404Y-79626285D01*
X93831404Y-78578666D02*
X93936166Y-78526285D01*
X94145690Y-78526285D01*
X94250452Y-78578666D01*
X94302833Y-78631047D01*
X94355214Y-78735809D01*
X94355214Y-79050095D01*
X94302833Y-79154857D01*
X94250452Y-79207238D01*
X94145690Y-79259619D01*
X93936166Y-79259619D01*
X93831404Y-79207238D01*
X94826642Y-79259619D02*
X94826642Y-78526285D01*
X94826642Y-78735809D02*
X94879023Y-78631047D01*
X94931404Y-78578666D01*
X95036166Y-78526285D01*
X95140928Y-78526285D01*
X95926642Y-79207238D02*
X95821880Y-79259619D01*
X95612357Y-79259619D01*
X95507595Y-79207238D01*
X95455214Y-79102476D01*
X95455214Y-78683428D01*
X95507595Y-78578666D01*
X95612357Y-78526285D01*
X95821880Y-78526285D01*
X95926642Y-78578666D01*
X95979023Y-78683428D01*
X95979023Y-78788190D01*
X95455214Y-78892952D01*
X96398071Y-79207238D02*
X96502833Y-79259619D01*
X96712357Y-79259619D01*
X96817119Y-79207238D01*
X96869500Y-79102476D01*
X96869500Y-79050095D01*
X96817119Y-78945333D01*
X96712357Y-78892952D01*
X96555214Y-78892952D01*
X96450452Y-78840571D01*
X96398071Y-78735809D01*
X96398071Y-78683428D01*
X96450452Y-78578666D01*
X96555214Y-78526285D01*
X96712357Y-78526285D01*
X96817119Y-78578666D01*
X97288547Y-79207238D02*
X97393309Y-79259619D01*
X97602833Y-79259619D01*
X97707595Y-79207238D01*
X97759976Y-79102476D01*
X97759976Y-79050095D01*
X97707595Y-78945333D01*
X97602833Y-78892952D01*
X97445690Y-78892952D01*
X97340928Y-78840571D01*
X97288547Y-78735809D01*
X97288547Y-78683428D01*
X97340928Y-78578666D01*
X97445690Y-78526285D01*
X97602833Y-78526285D01*
X97707595Y-78578666D01*
X99121880Y-78159619D02*
X99017119Y-78369142D01*
X100221880Y-79154857D02*
X100169500Y-79207238D01*
X100012357Y-79259619D01*
X99907595Y-79259619D01*
X99750452Y-79207238D01*
X99645690Y-79102476D01*
X99593309Y-78997714D01*
X99540928Y-78788190D01*
X99540928Y-78631047D01*
X99593309Y-78421523D01*
X99645690Y-78316761D01*
X99750452Y-78212000D01*
X99907595Y-78159619D01*
X100012357Y-78159619D01*
X100169500Y-78212000D01*
X100221880Y-78264380D01*
X100640928Y-78945333D02*
X101164738Y-78945333D01*
X100536166Y-79259619D02*
X100902833Y-78159619D01*
X101269500Y-79259619D01*
X102159976Y-79259619D02*
X101636166Y-79259619D01*
X101636166Y-78159619D01*
X102526642Y-79259619D02*
X102526642Y-78159619D01*
X103417119Y-78683428D02*
X103574261Y-78735809D01*
X103626642Y-78788190D01*
X103679023Y-78892952D01*
X103679023Y-79050095D01*
X103626642Y-79154857D01*
X103574261Y-79207238D01*
X103469500Y-79259619D01*
X103050452Y-79259619D01*
X103050452Y-78159619D01*
X103417119Y-78159619D01*
X103521880Y-78212000D01*
X103574261Y-78264380D01*
X103626642Y-78369142D01*
X103626642Y-78473904D01*
X103574261Y-78578666D01*
X103521880Y-78631047D01*
X103417119Y-78683428D01*
X103050452Y-78683428D01*
X104779023Y-79259619D02*
X104412357Y-78735809D01*
X104150452Y-79259619D02*
X104150452Y-78159619D01*
X104569500Y-78159619D01*
X104674261Y-78212000D01*
X104726642Y-78264380D01*
X104779023Y-78369142D01*
X104779023Y-78526285D01*
X104726642Y-78631047D01*
X104674261Y-78683428D01*
X104569500Y-78735809D01*
X104150452Y-78735809D01*
X105198071Y-78945333D02*
X105721880Y-78945333D01*
X105093309Y-79259619D02*
X105459976Y-78159619D01*
X105826642Y-79259619D01*
X106036166Y-78159619D02*
X106664738Y-78159619D01*
X106350452Y-79259619D02*
X106350452Y-78159619D01*
X107031404Y-78683428D02*
X107398071Y-78683428D01*
X107555214Y-79259619D02*
X107031404Y-79259619D01*
X107031404Y-78159619D01*
X107555214Y-78159619D01*
X108079023Y-78159619D02*
X107974261Y-78369142D01*
X109388547Y-79259619D02*
X109388547Y-78159619D01*
X109388547Y-78578666D02*
X109493309Y-78526285D01*
X109702833Y-78526285D01*
X109807595Y-78578666D01*
X109859976Y-78631047D01*
X109912357Y-78735809D01*
X109912357Y-79050095D01*
X109859976Y-79154857D01*
X109807595Y-79207238D01*
X109702833Y-79259619D01*
X109493309Y-79259619D01*
X109388547Y-79207238D01*
X110855214Y-78526285D02*
X110855214Y-79259619D01*
X110383785Y-78526285D02*
X110383785Y-79102476D01*
X110436166Y-79207238D01*
X110540928Y-79259619D01*
X110698071Y-79259619D01*
X110802833Y-79207238D01*
X110855214Y-79154857D01*
X111221880Y-78526285D02*
X111640928Y-78526285D01*
X111379023Y-78159619D02*
X111379023Y-79102476D01*
X111431404Y-79207238D01*
X111536166Y-79259619D01*
X111640928Y-79259619D01*
X111850452Y-78526285D02*
X112269500Y-78526285D01*
X112007595Y-78159619D02*
X112007595Y-79102476D01*
X112059976Y-79207238D01*
X112164738Y-79259619D01*
X112269500Y-79259619D01*
X112793309Y-79259619D02*
X112688547Y-79207238D01*
X112636166Y-79154857D01*
X112583785Y-79050095D01*
X112583785Y-78735809D01*
X112636166Y-78631047D01*
X112688547Y-78578666D01*
X112793309Y-78526285D01*
X112950452Y-78526285D01*
X113055214Y-78578666D01*
X113107595Y-78631047D01*
X113159976Y-78735809D01*
X113159976Y-79050095D01*
X113107595Y-79154857D01*
X113055214Y-79207238D01*
X112950452Y-79259619D01*
X112793309Y-79259619D01*
X113631404Y-78526285D02*
X113631404Y-79259619D01*
X113631404Y-78631047D02*
X113683785Y-78578666D01*
X113788547Y-78526285D01*
X113945690Y-78526285D01*
X114050452Y-78578666D01*
X114102833Y-78683428D01*
X114102833Y-79259619D01*
X115464738Y-79259619D02*
X115464738Y-78159619D01*
X115464738Y-78578666D02*
X115569500Y-78526285D01*
X115779023Y-78526285D01*
X115883785Y-78578666D01*
X115936166Y-78631047D01*
X115988547Y-78735809D01*
X115988547Y-79050095D01*
X115936166Y-79154857D01*
X115883785Y-79207238D01*
X115779023Y-79259619D01*
X115569500Y-79259619D01*
X115464738Y-79207238D01*
X116879023Y-79207238D02*
X116774261Y-79259619D01*
X116564738Y-79259619D01*
X116459976Y-79207238D01*
X116407595Y-79102476D01*
X116407595Y-78683428D01*
X116459976Y-78578666D01*
X116564738Y-78526285D01*
X116774261Y-78526285D01*
X116879023Y-78578666D01*
X116931404Y-78683428D01*
X116931404Y-78788190D01*
X116407595Y-78892952D01*
X117559976Y-79259619D02*
X117455214Y-79207238D01*
X117402833Y-79102476D01*
X117402833Y-78159619D01*
X118136166Y-79259619D02*
X118031404Y-79207238D01*
X117979023Y-79154857D01*
X117926642Y-79050095D01*
X117926642Y-78735809D01*
X117979023Y-78631047D01*
X118031404Y-78578666D01*
X118136166Y-78526285D01*
X118293309Y-78526285D01*
X118398071Y-78578666D01*
X118450452Y-78631047D01*
X118502833Y-78735809D01*
X118502833Y-79050095D01*
X118450452Y-79154857D01*
X118398071Y-79207238D01*
X118293309Y-79259619D01*
X118136166Y-79259619D01*
X118869500Y-78526285D02*
X119079023Y-79259619D01*
X119288547Y-78735809D01*
X119498071Y-79259619D01*
X119707595Y-78526285D01*
X120126642Y-79154857D02*
X120179023Y-79207238D01*
X120126642Y-79259619D01*
X120074261Y-79207238D01*
X120126642Y-79154857D01*
X120126642Y-79259619D01*
X98269976Y-73290857D02*
X98217595Y-73343238D01*
X98060452Y-73395619D01*
X97955690Y-73395619D01*
X97798547Y-73343238D01*
X97693785Y-73238476D01*
X97641404Y-73133714D01*
X97589023Y-72924190D01*
X97589023Y-72767047D01*
X97641404Y-72557523D01*
X97693785Y-72452761D01*
X97798547Y-72348000D01*
X97955690Y-72295619D01*
X98060452Y-72295619D01*
X98217595Y-72348000D01*
X98269976Y-72400380D01*
X98950928Y-72295619D02*
X99160452Y-72295619D01*
X99265214Y-72348000D01*
X99369976Y-72452761D01*
X99422357Y-72662285D01*
X99422357Y-73028952D01*
X99369976Y-73238476D01*
X99265214Y-73343238D01*
X99160452Y-73395619D01*
X98950928Y-73395619D01*
X98846166Y-73343238D01*
X98741404Y-73238476D01*
X98689023Y-73028952D01*
X98689023Y-72662285D01*
X98741404Y-72452761D01*
X98846166Y-72348000D01*
X98950928Y-72295619D01*
X99841404Y-72400380D02*
X99893785Y-72348000D01*
X99998547Y-72295619D01*
X100260452Y-72295619D01*
X100365214Y-72348000D01*
X100417595Y-72400380D01*
X100469976Y-72505142D01*
X100469976Y-72609904D01*
X100417595Y-72767047D01*
X99789023Y-73395619D01*
X100469976Y-73395619D01*
X102408071Y-73290857D02*
X102355690Y-73343238D01*
X102198547Y-73395619D01*
X102093785Y-73395619D01*
X101936642Y-73343238D01*
X101831880Y-73238476D01*
X101779500Y-73133714D01*
X101727119Y-72924190D01*
X101727119Y-72767047D01*
X101779500Y-72557523D01*
X101831880Y-72452761D01*
X101936642Y-72348000D01*
X102093785Y-72295619D01*
X102198547Y-72295619D01*
X102355690Y-72348000D01*
X102408071Y-72400380D01*
X102827119Y-73081333D02*
X103350928Y-73081333D01*
X102722357Y-73395619D02*
X103089023Y-72295619D01*
X103455690Y-73395619D01*
X104346166Y-73395619D02*
X103822357Y-73395619D01*
X103822357Y-72295619D01*
X104712833Y-73395619D02*
X104712833Y-72295619D01*
X105603309Y-72819428D02*
X105760452Y-72871809D01*
X105812833Y-72924190D01*
X105865214Y-73028952D01*
X105865214Y-73186095D01*
X105812833Y-73290857D01*
X105760452Y-73343238D01*
X105655690Y-73395619D01*
X105236642Y-73395619D01*
X105236642Y-72295619D01*
X105603309Y-72295619D01*
X105708071Y-72348000D01*
X105760452Y-72400380D01*
X105812833Y-72505142D01*
X105812833Y-72609904D01*
X105760452Y-72714666D01*
X105708071Y-72767047D01*
X105603309Y-72819428D01*
X105236642Y-72819428D01*
X106965214Y-73395619D02*
X106598547Y-72871809D01*
X106336642Y-73395619D02*
X106336642Y-72295619D01*
X106755690Y-72295619D01*
X106860452Y-72348000D01*
X106912833Y-72400380D01*
X106965214Y-72505142D01*
X106965214Y-72662285D01*
X106912833Y-72767047D01*
X106860452Y-72819428D01*
X106755690Y-72871809D01*
X106336642Y-72871809D01*
X107384261Y-73081333D02*
X107908071Y-73081333D01*
X107279500Y-73395619D02*
X107646166Y-72295619D01*
X108012833Y-73395619D01*
X108222357Y-72295619D02*
X108850928Y-72295619D01*
X108536642Y-73395619D02*
X108536642Y-72295619D01*
X109217595Y-73395619D02*
X109217595Y-72295619D01*
X109950928Y-72295619D02*
X110160452Y-72295619D01*
X110265214Y-72348000D01*
X110369976Y-72452761D01*
X110422357Y-72662285D01*
X110422357Y-73028952D01*
X110369976Y-73238476D01*
X110265214Y-73343238D01*
X110160452Y-73395619D01*
X109950928Y-73395619D01*
X109846166Y-73343238D01*
X109741404Y-73238476D01*
X109689023Y-73028952D01*
X109689023Y-72662285D01*
X109741404Y-72452761D01*
X109846166Y-72348000D01*
X109950928Y-72295619D01*
X110893785Y-73395619D02*
X110893785Y-72295619D01*
X111522357Y-73395619D01*
X111522357Y-72295619D01*
X112884261Y-73395619D02*
X112884261Y-72295619D01*
X113303309Y-72295619D01*
X113408071Y-72348000D01*
X113460452Y-72400380D01*
X113512833Y-72505142D01*
X113512833Y-72662285D01*
X113460452Y-72767047D01*
X113408071Y-72819428D01*
X113303309Y-72871809D01*
X112884261Y-72871809D01*
X114612833Y-73395619D02*
X114246166Y-72871809D01*
X113984261Y-73395619D02*
X113984261Y-72295619D01*
X114403309Y-72295619D01*
X114508071Y-72348000D01*
X114560452Y-72400380D01*
X114612833Y-72505142D01*
X114612833Y-72662285D01*
X114560452Y-72767047D01*
X114508071Y-72819428D01*
X114403309Y-72871809D01*
X113984261Y-72871809D01*
X115293785Y-72295619D02*
X115503309Y-72295619D01*
X115608071Y-72348000D01*
X115712833Y-72452761D01*
X115765214Y-72662285D01*
X115765214Y-73028952D01*
X115712833Y-73238476D01*
X115608071Y-73343238D01*
X115503309Y-73395619D01*
X115293785Y-73395619D01*
X115189023Y-73343238D01*
X115084261Y-73238476D01*
X115031880Y-73028952D01*
X115031880Y-72662285D01*
X115084261Y-72452761D01*
X115189023Y-72348000D01*
X115293785Y-72295619D01*
X116865214Y-73290857D02*
X116812833Y-73343238D01*
X116655690Y-73395619D01*
X116550928Y-73395619D01*
X116393785Y-73343238D01*
X116289023Y-73238476D01*
X116236642Y-73133714D01*
X116184261Y-72924190D01*
X116184261Y-72767047D01*
X116236642Y-72557523D01*
X116289023Y-72452761D01*
X116393785Y-72348000D01*
X116550928Y-72295619D01*
X116655690Y-72295619D01*
X116812833Y-72348000D01*
X116865214Y-72400380D01*
X117336642Y-72819428D02*
X117703309Y-72819428D01*
X117860452Y-73395619D02*
X117336642Y-73395619D01*
X117336642Y-72295619D01*
X117860452Y-72295619D01*
X118331880Y-73395619D02*
X118331880Y-72295619D01*
X118593785Y-72295619D01*
X118750928Y-72348000D01*
X118855690Y-72452761D01*
X118908071Y-72557523D01*
X118960452Y-72767047D01*
X118960452Y-72924190D01*
X118908071Y-73133714D01*
X118855690Y-73238476D01*
X118750928Y-73343238D01*
X118593785Y-73395619D01*
X118331880Y-73395619D01*
X119431880Y-72295619D02*
X119431880Y-73186095D01*
X119484261Y-73290857D01*
X119536642Y-73343238D01*
X119641404Y-73395619D01*
X119850928Y-73395619D01*
X119955690Y-73343238D01*
X120008071Y-73290857D01*
X120060452Y-73186095D01*
X120060452Y-72295619D01*
X121212833Y-73395619D02*
X120846166Y-72871809D01*
X120584261Y-73395619D02*
X120584261Y-72295619D01*
X121003309Y-72295619D01*
X121108071Y-72348000D01*
X121160452Y-72400380D01*
X121212833Y-72505142D01*
X121212833Y-72662285D01*
X121160452Y-72767047D01*
X121108071Y-72819428D01*
X121003309Y-72871809D01*
X120584261Y-72871809D01*
X121684261Y-72819428D02*
X122050928Y-72819428D01*
X122208071Y-73395619D02*
X121684261Y-73395619D01*
X121684261Y-72295619D01*
X122208071Y-72295619D01*
X122679500Y-73290857D02*
X122731880Y-73343238D01*
X122679500Y-73395619D01*
X122627119Y-73343238D01*
X122679500Y-73290857D01*
X122679500Y-73395619D01*
X122679500Y-72714666D02*
X122731880Y-72767047D01*
X122679500Y-72819428D01*
X122627119Y-72767047D01*
X122679500Y-72714666D01*
X122679500Y-72819428D01*
D10*
X123190000Y-118618000D02*
X123190000Y-137160000D01*
X73152000Y-118618000D02*
X73152000Y-130048000D01*
X110998000Y-118364000D02*
X110998000Y-136906000D01*
X98298000Y-118618000D02*
X98298000Y-137160000D01*
X85852000Y-118618000D02*
X85852000Y-137160000D01*
D11*
X85694761Y-107894380D02*
X85694761Y-106894380D01*
X86123333Y-107894380D02*
X86123333Y-107370571D01*
X86075714Y-107275333D01*
X85980476Y-107227714D01*
X85837619Y-107227714D01*
X85742380Y-107275333D01*
X85694761Y-107322952D01*
X86980476Y-107846761D02*
X86885238Y-107894380D01*
X86694761Y-107894380D01*
X86599523Y-107846761D01*
X86551904Y-107751523D01*
X86551904Y-107370571D01*
X86599523Y-107275333D01*
X86694761Y-107227714D01*
X86885238Y-107227714D01*
X86980476Y-107275333D01*
X87028095Y-107370571D01*
X87028095Y-107465809D01*
X86551904Y-107561047D01*
X87599523Y-107894380D02*
X87504285Y-107846761D01*
X87456666Y-107751523D01*
X87456666Y-106894380D01*
X87837619Y-107227714D02*
X88218571Y-107227714D01*
X87980476Y-106894380D02*
X87980476Y-107751523D01*
X88028095Y-107846761D01*
X88123333Y-107894380D01*
X88218571Y-107894380D01*
X88932857Y-107846761D02*
X88837619Y-107894380D01*
X88647142Y-107894380D01*
X88551904Y-107846761D01*
X88504285Y-107751523D01*
X88504285Y-107370571D01*
X88551904Y-107275333D01*
X88647142Y-107227714D01*
X88837619Y-107227714D01*
X88932857Y-107275333D01*
X88980476Y-107370571D01*
X88980476Y-107465809D01*
X88504285Y-107561047D01*
X89837619Y-107846761D02*
X89742380Y-107894380D01*
X89551904Y-107894380D01*
X89456666Y-107846761D01*
X89409047Y-107799142D01*
X89361428Y-107703904D01*
X89361428Y-107418190D01*
X89409047Y-107322952D01*
X89456666Y-107275333D01*
X89551904Y-107227714D01*
X89742380Y-107227714D01*
X89837619Y-107275333D01*
X90266190Y-107799142D02*
X90313809Y-107846761D01*
X90266190Y-107894380D01*
X90218571Y-107846761D01*
X90266190Y-107799142D01*
X90266190Y-107894380D01*
X90885238Y-107894380D02*
X90790000Y-107846761D01*
X90742380Y-107799142D01*
X90694761Y-107703904D01*
X90694761Y-107418190D01*
X90742380Y-107322952D01*
X90790000Y-107275333D01*
X90885238Y-107227714D01*
X91028095Y-107227714D01*
X91123333Y-107275333D01*
X91170952Y-107322952D01*
X91218571Y-107418190D01*
X91218571Y-107703904D01*
X91170952Y-107799142D01*
X91123333Y-107846761D01*
X91028095Y-107894380D01*
X90885238Y-107894380D01*
X91647142Y-107894380D02*
X91647142Y-107227714D01*
X91647142Y-107418190D02*
X91694761Y-107322952D01*
X91742380Y-107275333D01*
X91837619Y-107227714D01*
X91932857Y-107227714D01*
X92694761Y-107227714D02*
X92694761Y-108037238D01*
X92647142Y-108132476D01*
X92599523Y-108180095D01*
X92504285Y-108227714D01*
X92361428Y-108227714D01*
X92266190Y-108180095D01*
X92694761Y-107846761D02*
X92599523Y-107894380D01*
X92409047Y-107894380D01*
X92313809Y-107846761D01*
X92266190Y-107799142D01*
X92218571Y-107703904D01*
X92218571Y-107418190D01*
X92266190Y-107322952D01*
X92313809Y-107275333D01*
X92409047Y-107227714D01*
X92599523Y-107227714D01*
X92694761Y-107275333D01*
X93885238Y-106846761D02*
X93028095Y-108132476D01*
X94218571Y-107227714D02*
X94218571Y-108227714D01*
X94218571Y-107275333D02*
X94313809Y-107227714D01*
X94504285Y-107227714D01*
X94599523Y-107275333D01*
X94647142Y-107322952D01*
X94694761Y-107418190D01*
X94694761Y-107703904D01*
X94647142Y-107799142D01*
X94599523Y-107846761D01*
X94504285Y-107894380D01*
X94313809Y-107894380D01*
X94218571Y-107846761D01*
X95123333Y-107894380D02*
X95123333Y-107227714D01*
X95123333Y-107418190D02*
X95170952Y-107322952D01*
X95218571Y-107275333D01*
X95313809Y-107227714D01*
X95409047Y-107227714D01*
X95885238Y-107894380D02*
X95790000Y-107846761D01*
X95742380Y-107799142D01*
X95694761Y-107703904D01*
X95694761Y-107418190D01*
X95742380Y-107322952D01*
X95790000Y-107275333D01*
X95885238Y-107227714D01*
X96028095Y-107227714D01*
X96123333Y-107275333D01*
X96170952Y-107322952D01*
X96218571Y-107418190D01*
X96218571Y-107703904D01*
X96170952Y-107799142D01*
X96123333Y-107846761D01*
X96028095Y-107894380D01*
X95885238Y-107894380D01*
X96647142Y-107227714D02*
X96647142Y-108084857D01*
X96599523Y-108180095D01*
X96504285Y-108227714D01*
X96456666Y-108227714D01*
X96647142Y-106894380D02*
X96599523Y-106942000D01*
X96647142Y-106989619D01*
X96694761Y-106942000D01*
X96647142Y-106894380D01*
X96647142Y-106989619D01*
X97504285Y-107846761D02*
X97409047Y-107894380D01*
X97218571Y-107894380D01*
X97123333Y-107846761D01*
X97075714Y-107751523D01*
X97075714Y-107370571D01*
X97123333Y-107275333D01*
X97218571Y-107227714D01*
X97409047Y-107227714D01*
X97504285Y-107275333D01*
X97551904Y-107370571D01*
X97551904Y-107465809D01*
X97075714Y-107561047D01*
X98409047Y-107846761D02*
X98313809Y-107894380D01*
X98123333Y-107894380D01*
X98028095Y-107846761D01*
X97980476Y-107799142D01*
X97932857Y-107703904D01*
X97932857Y-107418190D01*
X97980476Y-107322952D01*
X98028095Y-107275333D01*
X98123333Y-107227714D01*
X98313809Y-107227714D01*
X98409047Y-107275333D01*
X98694761Y-107227714D02*
X99075714Y-107227714D01*
X98837619Y-106894380D02*
X98837619Y-107751523D01*
X98885238Y-107846761D01*
X98980476Y-107894380D01*
X99075714Y-107894380D01*
X100123333Y-106846761D02*
X99266190Y-108132476D01*
X100361428Y-107227714D02*
X100551904Y-107894380D01*
X100742380Y-107418190D01*
X100932857Y-107894380D01*
X101123333Y-107227714D01*
X101504285Y-107894380D02*
X101504285Y-107227714D01*
X101504285Y-106894380D02*
X101456666Y-106942000D01*
X101504285Y-106989619D01*
X101551904Y-106942000D01*
X101504285Y-106894380D01*
X101504285Y-106989619D01*
X101837619Y-107227714D02*
X102218571Y-107227714D01*
X101980476Y-107894380D02*
X101980476Y-107037238D01*
X102028095Y-106942000D01*
X102123333Y-106894380D01*
X102218571Y-106894380D01*
X102551904Y-107894380D02*
X102551904Y-107227714D01*
X102551904Y-106894380D02*
X102504285Y-106942000D01*
X102551904Y-106989619D01*
X102599523Y-106942000D01*
X102551904Y-106894380D01*
X102551904Y-106989619D01*
X103028095Y-107513428D02*
X103790000Y-107513428D01*
X104409047Y-107894380D02*
X104313809Y-107846761D01*
X104266190Y-107751523D01*
X104266190Y-106894380D01*
X104932857Y-107894380D02*
X104837619Y-107846761D01*
X104790000Y-107799142D01*
X104742380Y-107703904D01*
X104742380Y-107418190D01*
X104790000Y-107322952D01*
X104837619Y-107275333D01*
X104932857Y-107227714D01*
X105075714Y-107227714D01*
X105170952Y-107275333D01*
X105218571Y-107322952D01*
X105266190Y-107418190D01*
X105266190Y-107703904D01*
X105218571Y-107799142D01*
X105170952Y-107846761D01*
X105075714Y-107894380D01*
X104932857Y-107894380D01*
X105694761Y-107894380D02*
X105694761Y-107227714D01*
X105694761Y-107418190D02*
X105742380Y-107322952D01*
X105790000Y-107275333D01*
X105885238Y-107227714D01*
X105980476Y-107227714D01*
X106742380Y-107894380D02*
X106742380Y-107370571D01*
X106694761Y-107275333D01*
X106599523Y-107227714D01*
X106409047Y-107227714D01*
X106313809Y-107275333D01*
X106742380Y-107846761D02*
X106647142Y-107894380D01*
X106409047Y-107894380D01*
X106313809Y-107846761D01*
X106266190Y-107751523D01*
X106266190Y-107656285D01*
X106313809Y-107561047D01*
X106409047Y-107513428D01*
X106647142Y-107513428D01*
X106742380Y-107465809D01*
X107218571Y-107513428D02*
X107980476Y-107513428D01*
X108361428Y-106894380D02*
X108980476Y-106894380D01*
X108647142Y-107275333D01*
X108790000Y-107275333D01*
X108885238Y-107322952D01*
X108932857Y-107370571D01*
X108980476Y-107465809D01*
X108980476Y-107703904D01*
X108932857Y-107799142D01*
X108885238Y-107846761D01*
X108790000Y-107894380D01*
X108504285Y-107894380D01*
X108409047Y-107846761D01*
X108361428Y-107799142D01*
X109361428Y-106989619D02*
X109409047Y-106942000D01*
X109504285Y-106894380D01*
X109742380Y-106894380D01*
X109837619Y-106942000D01*
X109885238Y-106989619D01*
X109932857Y-107084857D01*
X109932857Y-107180095D01*
X109885238Y-107322952D01*
X109313809Y-107894380D01*
X109932857Y-107894380D01*
X78615428Y-90566761D02*
X78615428Y-88566761D01*
X78615428Y-89519142D02*
X79758285Y-89519142D01*
X79758285Y-90566761D02*
X79758285Y-88566761D01*
X81472571Y-90471523D02*
X81282095Y-90566761D01*
X80901142Y-90566761D01*
X80710666Y-90471523D01*
X80615428Y-90281047D01*
X80615428Y-89519142D01*
X80710666Y-89328666D01*
X80901142Y-89233428D01*
X81282095Y-89233428D01*
X81472571Y-89328666D01*
X81567809Y-89519142D01*
X81567809Y-89709619D01*
X80615428Y-89900095D01*
X82710666Y-90566761D02*
X82520190Y-90471523D01*
X82424952Y-90281047D01*
X82424952Y-88566761D01*
X83186857Y-89233428D02*
X83948761Y-89233428D01*
X83472571Y-88566761D02*
X83472571Y-90281047D01*
X83567809Y-90471523D01*
X83758285Y-90566761D01*
X83948761Y-90566761D01*
X85377333Y-90471523D02*
X85186857Y-90566761D01*
X84805904Y-90566761D01*
X84615428Y-90471523D01*
X84520190Y-90281047D01*
X84520190Y-89519142D01*
X84615428Y-89328666D01*
X84805904Y-89233428D01*
X85186857Y-89233428D01*
X85377333Y-89328666D01*
X85472571Y-89519142D01*
X85472571Y-89709619D01*
X84520190Y-89900095D01*
X87186857Y-90471523D02*
X86996380Y-90566761D01*
X86615428Y-90566761D01*
X86424952Y-90471523D01*
X86329714Y-90376285D01*
X86234476Y-90185809D01*
X86234476Y-89614380D01*
X86329714Y-89423904D01*
X86424952Y-89328666D01*
X86615428Y-89233428D01*
X86996380Y-89233428D01*
X87186857Y-89328666D01*
X89377333Y-88566761D02*
X89853523Y-90566761D01*
X90234476Y-89138190D01*
X90615428Y-90566761D01*
X91091619Y-88566761D01*
X91853523Y-90566761D02*
X91853523Y-89233428D01*
X91853523Y-88566761D02*
X91758285Y-88662000D01*
X91853523Y-88757238D01*
X91948761Y-88662000D01*
X91853523Y-88566761D01*
X91853523Y-88757238D01*
X92520190Y-89233428D02*
X93282095Y-89233428D01*
X92805904Y-90566761D02*
X92805904Y-88852476D01*
X92901142Y-88662000D01*
X93091619Y-88566761D01*
X93282095Y-88566761D01*
X93948761Y-90566761D02*
X93948761Y-89233428D01*
X93948761Y-88566761D02*
X93853523Y-88662000D01*
X93948761Y-88757238D01*
X94044000Y-88662000D01*
X93948761Y-88566761D01*
X93948761Y-88757238D01*
X97377333Y-90566761D02*
X96424952Y-90566761D01*
X96424952Y-88566761D01*
X98329714Y-90566761D02*
X98139238Y-90471523D01*
X98044000Y-90376285D01*
X97948761Y-90185809D01*
X97948761Y-89614380D01*
X98044000Y-89423904D01*
X98139238Y-89328666D01*
X98329714Y-89233428D01*
X98615428Y-89233428D01*
X98805904Y-89328666D01*
X98901142Y-89423904D01*
X98996380Y-89614380D01*
X98996380Y-90185809D01*
X98901142Y-90376285D01*
X98805904Y-90471523D01*
X98615428Y-90566761D01*
X98329714Y-90566761D01*
X100996380Y-90566761D02*
X100329714Y-89614380D01*
X99853523Y-90566761D02*
X99853523Y-88566761D01*
X100615428Y-88566761D01*
X100805904Y-88662000D01*
X100901142Y-88757238D01*
X100996380Y-88947714D01*
X100996380Y-89233428D01*
X100901142Y-89423904D01*
X100805904Y-89519142D01*
X100615428Y-89614380D01*
X99853523Y-89614380D01*
X102710666Y-90566761D02*
X102710666Y-89519142D01*
X102615428Y-89328666D01*
X102424952Y-89233428D01*
X102044000Y-89233428D01*
X101853523Y-89328666D01*
X102710666Y-90471523D02*
X102520190Y-90566761D01*
X102044000Y-90566761D01*
X101853523Y-90471523D01*
X101758285Y-90281047D01*
X101758285Y-90090571D01*
X101853523Y-89900095D01*
X102044000Y-89804857D01*
X102520190Y-89804857D01*
X102710666Y-89709619D01*
X104996380Y-88566761D02*
X106234476Y-88566761D01*
X105567809Y-89328666D01*
X105853523Y-89328666D01*
X106043999Y-89423904D01*
X106139238Y-89519142D01*
X106234476Y-89709619D01*
X106234476Y-90185809D01*
X106139238Y-90376285D01*
X106043999Y-90471523D01*
X105853523Y-90566761D01*
X105282095Y-90566761D01*
X105091619Y-90471523D01*
X104996380Y-90376285D01*
X106996380Y-88757238D02*
X107091619Y-88662000D01*
X107282095Y-88566761D01*
X107758285Y-88566761D01*
X107948761Y-88662000D01*
X108043999Y-88757238D01*
X108139238Y-88947714D01*
X108139238Y-89138190D01*
X108043999Y-89423904D01*
X106901142Y-90566761D01*
X108139238Y-90566761D01*
X110329714Y-89233428D02*
X110805904Y-90566761D01*
X111282095Y-89233428D01*
X112805904Y-90471523D02*
X112615428Y-90566761D01*
X112234476Y-90566761D01*
X112043999Y-90471523D01*
X111948761Y-90281047D01*
X111948761Y-89519142D01*
X112043999Y-89328666D01*
X112234476Y-89233428D01*
X112615428Y-89233428D01*
X112805904Y-89328666D01*
X112901142Y-89519142D01*
X112901142Y-89709619D01*
X111948761Y-89900095D01*
X113758285Y-90566761D02*
X113758285Y-89233428D01*
X113758285Y-89614380D02*
X113853523Y-89423904D01*
X113948761Y-89328666D01*
X114139238Y-89233428D01*
X114329714Y-89233428D01*
X116424952Y-88757238D02*
X116520190Y-88662000D01*
X116710666Y-88566761D01*
X117186857Y-88566761D01*
X117377333Y-88662000D01*
X117472571Y-88757238D01*
X117567809Y-88947714D01*
X117567809Y-89138190D01*
X117472571Y-89423904D01*
X116329714Y-90566761D01*
X117567809Y-90566761D01*
D10*
X126238000Y-114300000D02*
X126238000Y-82804000D01*
X71120000Y-114300000D02*
X126238000Y-114300000D01*
X71120000Y-82804000D02*
X71120000Y-114300000D01*
X126238000Y-82804000D02*
X71120000Y-82804000D01*
D11*
X73244857Y-98040857D02*
X72330571Y-98383714D01*
X73244857Y-98726571D01*
X73816285Y-98383714D02*
X74730571Y-98383714D01*
X75301999Y-97640857D02*
X75301999Y-98612285D01*
X75359142Y-98726571D01*
X75416285Y-98783714D01*
X75530571Y-98840857D01*
X75759142Y-98840857D01*
X75873428Y-98783714D01*
X75930571Y-98726571D01*
X75987714Y-98612285D01*
X75987714Y-97640857D01*
X76501999Y-98783714D02*
X76673428Y-98840857D01*
X76959142Y-98840857D01*
X77073428Y-98783714D01*
X77130571Y-98726571D01*
X77187714Y-98612285D01*
X77187714Y-98498000D01*
X77130571Y-98383714D01*
X77073428Y-98326571D01*
X76959142Y-98269428D01*
X76730571Y-98212285D01*
X76616285Y-98155142D01*
X76559142Y-98098000D01*
X76501999Y-97983714D01*
X76501999Y-97869428D01*
X76559142Y-97755142D01*
X76616285Y-97698000D01*
X76730571Y-97640857D01*
X77016285Y-97640857D01*
X77187714Y-97698000D01*
X78101999Y-98212285D02*
X78273428Y-98269428D01*
X78330571Y-98326571D01*
X78387714Y-98440857D01*
X78387714Y-98612285D01*
X78330571Y-98726571D01*
X78273428Y-98783714D01*
X78159142Y-98840857D01*
X77701999Y-98840857D01*
X77701999Y-97640857D01*
X78101999Y-97640857D01*
X78216285Y-97698000D01*
X78273428Y-97755142D01*
X78330571Y-97869428D01*
X78330571Y-97983714D01*
X78273428Y-98098000D01*
X78216285Y-98155142D01*
X78101999Y-98212285D01*
X77701999Y-98212285D01*
X79644857Y-98040857D02*
X80101999Y-98040857D01*
X79816285Y-97640857D02*
X79816285Y-98669428D01*
X79873428Y-98783714D01*
X79987714Y-98840857D01*
X80101999Y-98840857D01*
X80501999Y-98840857D02*
X80501999Y-97640857D01*
X81016285Y-98840857D02*
X81016285Y-98212285D01*
X80959142Y-98098000D01*
X80844857Y-98040857D01*
X80673428Y-98040857D01*
X80559142Y-98098000D01*
X80501999Y-98155142D01*
X81587714Y-98840857D02*
X81587714Y-98040857D01*
X81587714Y-97640857D02*
X81530571Y-97698000D01*
X81587714Y-97755142D01*
X81644857Y-97698000D01*
X81587714Y-97640857D01*
X81587714Y-97755142D01*
X82101999Y-98783714D02*
X82216285Y-98840857D01*
X82444857Y-98840857D01*
X82559142Y-98783714D01*
X82616285Y-98669428D01*
X82616285Y-98612285D01*
X82559142Y-98498000D01*
X82444857Y-98440857D01*
X82273428Y-98440857D01*
X82159142Y-98383714D01*
X82101999Y-98269428D01*
X82101999Y-98212285D01*
X82159142Y-98098000D01*
X82273428Y-98040857D01*
X82444857Y-98040857D01*
X82559142Y-98098000D01*
X84501999Y-98783714D02*
X84387714Y-98840857D01*
X84159142Y-98840857D01*
X84044857Y-98783714D01*
X83987714Y-98669428D01*
X83987714Y-98212285D01*
X84044857Y-98098000D01*
X84159142Y-98040857D01*
X84387714Y-98040857D01*
X84501999Y-98098000D01*
X84559142Y-98212285D01*
X84559142Y-98326571D01*
X83987714Y-98440857D01*
X85073428Y-98040857D02*
X85073428Y-98840857D01*
X85073428Y-98155142D02*
X85130571Y-98098000D01*
X85244857Y-98040857D01*
X85416285Y-98040857D01*
X85530571Y-98098000D01*
X85587714Y-98212285D01*
X85587714Y-98840857D01*
X86673428Y-98840857D02*
X86673428Y-97640857D01*
X86673428Y-98783714D02*
X86559142Y-98840857D01*
X86330571Y-98840857D01*
X86216285Y-98783714D01*
X86159142Y-98726571D01*
X86101999Y-98612285D01*
X86101999Y-98269428D01*
X86159142Y-98155142D01*
X86216285Y-98098000D01*
X86330571Y-98040857D01*
X86559142Y-98040857D01*
X86673428Y-98098000D01*
X152804761Y-122220190D02*
X152852380Y-122124952D01*
X152852380Y-121934476D01*
X152804761Y-121839238D01*
X152709523Y-121791619D01*
X152661904Y-121791619D01*
X152566666Y-121839238D01*
X152519047Y-121934476D01*
X152519047Y-122077333D01*
X152471428Y-122172571D01*
X152376190Y-122220190D01*
X152328571Y-122220190D01*
X152233333Y-122172571D01*
X152185714Y-122077333D01*
X152185714Y-121934476D01*
X152233333Y-121839238D01*
X152185714Y-121363047D02*
X153185714Y-121363047D01*
X152233333Y-121363047D02*
X152185714Y-121267809D01*
X152185714Y-121077333D01*
X152233333Y-120982095D01*
X152280952Y-120934476D01*
X152376190Y-120886857D01*
X152661904Y-120886857D01*
X152757142Y-120934476D01*
X152804761Y-120982095D01*
X152852380Y-121077333D01*
X152852380Y-121267809D01*
X152804761Y-121363047D01*
X152852380Y-120029714D02*
X152328571Y-120029714D01*
X152233333Y-120077333D01*
X152185714Y-120172571D01*
X152185714Y-120363047D01*
X152233333Y-120458285D01*
X152804761Y-120029714D02*
X152852380Y-120124952D01*
X152852380Y-120363047D01*
X152804761Y-120458285D01*
X152709523Y-120505904D01*
X152614285Y-120505904D01*
X152519047Y-120458285D01*
X152471428Y-120363047D01*
X152471428Y-120124952D01*
X152423809Y-120029714D01*
X152852380Y-119553523D02*
X152185714Y-119553523D01*
X152376190Y-119553523D02*
X152280952Y-119505904D01*
X152233333Y-119458285D01*
X152185714Y-119363047D01*
X152185714Y-119267809D01*
X152852380Y-118934476D02*
X151852380Y-118934476D01*
X152471428Y-118839238D02*
X152852380Y-118553523D01*
X152185714Y-118553523D02*
X152566666Y-118934476D01*
X152185714Y-118267809D02*
X152185714Y-117886857D01*
X152852380Y-118124952D02*
X151995238Y-118124952D01*
X151900000Y-118077333D01*
X151852380Y-117982095D01*
X151852380Y-117886857D01*
X152185714Y-117124952D02*
X152852380Y-117124952D01*
X152185714Y-117553523D02*
X152709523Y-117553523D01*
X152804761Y-117505904D01*
X152852380Y-117410666D01*
X152852380Y-117267809D01*
X152804761Y-117172571D01*
X152757142Y-117124952D01*
X152185714Y-116648761D02*
X152852380Y-116648761D01*
X152280952Y-116648761D02*
X152233333Y-116601142D01*
X152185714Y-116505904D01*
X152185714Y-116363047D01*
X152233333Y-116267809D01*
X152328571Y-116220190D01*
X152852380Y-116220190D01*
X152757142Y-115744000D02*
X152804761Y-115696380D01*
X152852380Y-115744000D01*
X152804761Y-115791619D01*
X152757142Y-115744000D01*
X152852380Y-115744000D01*
X152804761Y-114839238D02*
X152852380Y-114934476D01*
X152852380Y-115124952D01*
X152804761Y-115220190D01*
X152757142Y-115267809D01*
X152661904Y-115315428D01*
X152376190Y-115315428D01*
X152280952Y-115267809D01*
X152233333Y-115220190D01*
X152185714Y-115124952D01*
X152185714Y-114934476D01*
X152233333Y-114839238D01*
X152852380Y-114267809D02*
X152804761Y-114363047D01*
X152757142Y-114410666D01*
X152661904Y-114458285D01*
X152376190Y-114458285D01*
X152280952Y-114410666D01*
X152233333Y-114363047D01*
X152185714Y-114267809D01*
X152185714Y-114124952D01*
X152233333Y-114029714D01*
X152280952Y-113982095D01*
X152376190Y-113934476D01*
X152661904Y-113934476D01*
X152757142Y-113982095D01*
X152804761Y-114029714D01*
X152852380Y-114124952D01*
X152852380Y-114267809D01*
X152852380Y-113505904D02*
X152185714Y-113505904D01*
X152280952Y-113505904D02*
X152233333Y-113458285D01*
X152185714Y-113363047D01*
X152185714Y-113220190D01*
X152233333Y-113124952D01*
X152328571Y-113077333D01*
X152852380Y-113077333D01*
X152328571Y-113077333D02*
X152233333Y-113029714D01*
X152185714Y-112934476D01*
X152185714Y-112791619D01*
X152233333Y-112696380D01*
X152328571Y-112648761D01*
X152852380Y-112648761D01*
X151804761Y-111458285D02*
X153090476Y-112315428D01*
X152185714Y-111124952D02*
X153185714Y-111124952D01*
X152233333Y-111124952D02*
X152185714Y-111029714D01*
X152185714Y-110839238D01*
X152233333Y-110744000D01*
X152280952Y-110696380D01*
X152376190Y-110648761D01*
X152661904Y-110648761D01*
X152757142Y-110696380D01*
X152804761Y-110744000D01*
X152852380Y-110839238D01*
X152852380Y-111029714D01*
X152804761Y-111124952D01*
X152852380Y-110220190D02*
X152185714Y-110220190D01*
X152376190Y-110220190D02*
X152280952Y-110172571D01*
X152233333Y-110124952D01*
X152185714Y-110029714D01*
X152185714Y-109934476D01*
X152852380Y-109458285D02*
X152804761Y-109553523D01*
X152757142Y-109601142D01*
X152661904Y-109648761D01*
X152376190Y-109648761D01*
X152280952Y-109601142D01*
X152233333Y-109553523D01*
X152185714Y-109458285D01*
X152185714Y-109315428D01*
X152233333Y-109220190D01*
X152280952Y-109172571D01*
X152376190Y-109124952D01*
X152661904Y-109124952D01*
X152757142Y-109172571D01*
X152804761Y-109220190D01*
X152852380Y-109315428D01*
X152852380Y-109458285D01*
X152852380Y-108267809D02*
X151852380Y-108267809D01*
X152804761Y-108267809D02*
X152852380Y-108363047D01*
X152852380Y-108553523D01*
X152804761Y-108648761D01*
X152757142Y-108696380D01*
X152661904Y-108744000D01*
X152376190Y-108744000D01*
X152280952Y-108696380D01*
X152233333Y-108648761D01*
X152185714Y-108553523D01*
X152185714Y-108363047D01*
X152233333Y-108267809D01*
X152185714Y-107363047D02*
X152852380Y-107363047D01*
X152185714Y-107791619D02*
X152709523Y-107791619D01*
X152804761Y-107744000D01*
X152852380Y-107648761D01*
X152852380Y-107505904D01*
X152804761Y-107410666D01*
X152757142Y-107363047D01*
X152804761Y-106458285D02*
X152852380Y-106553523D01*
X152852380Y-106744000D01*
X152804761Y-106839238D01*
X152757142Y-106886857D01*
X152661904Y-106934476D01*
X152376190Y-106934476D01*
X152280952Y-106886857D01*
X152233333Y-106839238D01*
X152185714Y-106744000D01*
X152185714Y-106553523D01*
X152233333Y-106458285D01*
X152185714Y-106172571D02*
X152185714Y-105791619D01*
X151852380Y-106029714D02*
X152709523Y-106029714D01*
X152804761Y-105982095D01*
X152852380Y-105886857D01*
X152852380Y-105791619D01*
X152804761Y-105505904D02*
X152852380Y-105410666D01*
X152852380Y-105220190D01*
X152804761Y-105124952D01*
X152709523Y-105077333D01*
X152661904Y-105077333D01*
X152566666Y-105124952D01*
X152519047Y-105220190D01*
X152519047Y-105363047D01*
X152471428Y-105458285D01*
X152376190Y-105505904D01*
X152328571Y-105505904D01*
X152233333Y-105458285D01*
X152185714Y-105363047D01*
X152185714Y-105220190D01*
X152233333Y-105124952D01*
X151804761Y-103934476D02*
X153090476Y-104791619D01*
X152852380Y-103077333D02*
X152852380Y-103648761D01*
X152852380Y-103363047D02*
X151852380Y-103363047D01*
X151995238Y-103458285D01*
X152090476Y-103553523D01*
X152138095Y-103648761D01*
X151852380Y-102172571D02*
X151852380Y-102648761D01*
X152328571Y-102696380D01*
X152280952Y-102648761D01*
X152233333Y-102553523D01*
X152233333Y-102315428D01*
X152280952Y-102220190D01*
X152328571Y-102172571D01*
X152423809Y-102124952D01*
X152661904Y-102124952D01*
X152757142Y-102172571D01*
X152804761Y-102220190D01*
X152852380Y-102315428D01*
X152852380Y-102553523D01*
X152804761Y-102648761D01*
X152757142Y-102696380D01*
X152852380Y-101172571D02*
X152852380Y-101744000D01*
X152852380Y-101458285D02*
X151852380Y-101458285D01*
X151995238Y-101553523D01*
X152090476Y-101648761D01*
X152138095Y-101744000D01*
X152852380Y-100220190D02*
X152852380Y-100791619D01*
X152852380Y-100505904D02*
X151852380Y-100505904D01*
X151995238Y-100601142D01*
X152090476Y-100696380D01*
X152138095Y-100791619D01*
X151947619Y-99839238D02*
X151900000Y-99791619D01*
X151852380Y-99696380D01*
X151852380Y-99458285D01*
X151900000Y-99363047D01*
X151947619Y-99315428D01*
X152042857Y-99267809D01*
X152138095Y-99267809D01*
X152280952Y-99315428D01*
X152852380Y-99886857D01*
X152852380Y-99267809D01*
X133676666Y-75890380D02*
X133676666Y-75366571D01*
X133629047Y-75271333D01*
X133533809Y-75223714D01*
X133343333Y-75223714D01*
X133248095Y-75271333D01*
X133676666Y-75842761D02*
X133581428Y-75890380D01*
X133343333Y-75890380D01*
X133248095Y-75842761D01*
X133200476Y-75747523D01*
X133200476Y-75652285D01*
X133248095Y-75557047D01*
X133343333Y-75509428D01*
X133581428Y-75509428D01*
X133676666Y-75461809D01*
X134581428Y-75890380D02*
X134581428Y-74890380D01*
X134581428Y-75842761D02*
X134486190Y-75890380D01*
X134295714Y-75890380D01*
X134200476Y-75842761D01*
X134152857Y-75795142D01*
X134105238Y-75699904D01*
X134105238Y-75414190D01*
X134152857Y-75318952D01*
X134200476Y-75271333D01*
X134295714Y-75223714D01*
X134486190Y-75223714D01*
X134581428Y-75271333D01*
X135486190Y-75890380D02*
X135486190Y-75366571D01*
X135438571Y-75271333D01*
X135343333Y-75223714D01*
X135152857Y-75223714D01*
X135057619Y-75271333D01*
X135486190Y-75842761D02*
X135390952Y-75890380D01*
X135152857Y-75890380D01*
X135057619Y-75842761D01*
X135010000Y-75747523D01*
X135010000Y-75652285D01*
X135057619Y-75557047D01*
X135152857Y-75509428D01*
X135390952Y-75509428D01*
X135486190Y-75461809D01*
X135819523Y-75223714D02*
X136200476Y-75223714D01*
X135962380Y-75890380D02*
X135962380Y-75033238D01*
X136010000Y-74938000D01*
X136105238Y-74890380D01*
X136200476Y-74890380D01*
X136533809Y-75890380D02*
X136533809Y-75223714D01*
X136533809Y-75414190D02*
X136581428Y-75318952D01*
X136629047Y-75271333D01*
X136724285Y-75223714D01*
X136819523Y-75223714D01*
X137581428Y-75223714D02*
X137581428Y-75890380D01*
X137152857Y-75223714D02*
X137152857Y-75747523D01*
X137200476Y-75842761D01*
X137295714Y-75890380D01*
X137438571Y-75890380D01*
X137533809Y-75842761D01*
X137581428Y-75795142D01*
X138057619Y-75890380D02*
X138057619Y-75223714D01*
X138057619Y-74890380D02*
X138010000Y-74938000D01*
X138057619Y-74985619D01*
X138105238Y-74938000D01*
X138057619Y-74890380D01*
X138057619Y-74985619D01*
X138390952Y-75223714D02*
X138771904Y-75223714D01*
X138533809Y-74890380D02*
X138533809Y-75747523D01*
X138581428Y-75842761D01*
X138676666Y-75890380D01*
X138771904Y-75890380D01*
X139105238Y-75795142D02*
X139152857Y-75842761D01*
X139105238Y-75890380D01*
X139057619Y-75842761D01*
X139105238Y-75795142D01*
X139105238Y-75890380D01*
X140010000Y-75842761D02*
X139914761Y-75890380D01*
X139724285Y-75890380D01*
X139629047Y-75842761D01*
X139581428Y-75795142D01*
X139533809Y-75699904D01*
X139533809Y-75414190D01*
X139581428Y-75318952D01*
X139629047Y-75271333D01*
X139724285Y-75223714D01*
X139914761Y-75223714D01*
X140010000Y-75271333D01*
X140581428Y-75890380D02*
X140486190Y-75842761D01*
X140438571Y-75795142D01*
X140390952Y-75699904D01*
X140390952Y-75414190D01*
X140438571Y-75318952D01*
X140486190Y-75271333D01*
X140581428Y-75223714D01*
X140724285Y-75223714D01*
X140819523Y-75271333D01*
X140867142Y-75318952D01*
X140914761Y-75414190D01*
X140914761Y-75699904D01*
X140867142Y-75795142D01*
X140819523Y-75842761D01*
X140724285Y-75890380D01*
X140581428Y-75890380D01*
X141343333Y-75890380D02*
X141343333Y-75223714D01*
X141343333Y-75318952D02*
X141390952Y-75271333D01*
X141486190Y-75223714D01*
X141629047Y-75223714D01*
X141724285Y-75271333D01*
X141771904Y-75366571D01*
X141771904Y-75890380D01*
X141771904Y-75366571D02*
X141819523Y-75271333D01*
X141914761Y-75223714D01*
X142057619Y-75223714D01*
X142152857Y-75271333D01*
X142200476Y-75366571D01*
X142200476Y-75890380D01*
X143390952Y-74842761D02*
X142533809Y-76128476D01*
X143724285Y-75223714D02*
X143724285Y-76223714D01*
X143724285Y-75271333D02*
X143819523Y-75223714D01*
X144010000Y-75223714D01*
X144105238Y-75271333D01*
X144152857Y-75318952D01*
X144200476Y-75414190D01*
X144200476Y-75699904D01*
X144152857Y-75795142D01*
X144105238Y-75842761D01*
X144010000Y-75890380D01*
X143819523Y-75890380D01*
X143724285Y-75842761D01*
X144629047Y-75890380D02*
X144629047Y-75223714D01*
X144629047Y-75414190D02*
X144676666Y-75318952D01*
X144724285Y-75271333D01*
X144819523Y-75223714D01*
X144914761Y-75223714D01*
X145390952Y-75890380D02*
X145295714Y-75842761D01*
X145248095Y-75795142D01*
X145200476Y-75699904D01*
X145200476Y-75414190D01*
X145248095Y-75318952D01*
X145295714Y-75271333D01*
X145390952Y-75223714D01*
X145533809Y-75223714D01*
X145629047Y-75271333D01*
X145676666Y-75318952D01*
X145724285Y-75414190D01*
X145724285Y-75699904D01*
X145676666Y-75795142D01*
X145629047Y-75842761D01*
X145533809Y-75890380D01*
X145390952Y-75890380D01*
X146581428Y-75890380D02*
X146581428Y-74890380D01*
X146581428Y-75842761D02*
X146486190Y-75890380D01*
X146295714Y-75890380D01*
X146200476Y-75842761D01*
X146152857Y-75795142D01*
X146105238Y-75699904D01*
X146105238Y-75414190D01*
X146152857Y-75318952D01*
X146200476Y-75271333D01*
X146295714Y-75223714D01*
X146486190Y-75223714D01*
X146581428Y-75271333D01*
X147486190Y-75223714D02*
X147486190Y-75890380D01*
X147057619Y-75223714D02*
X147057619Y-75747523D01*
X147105238Y-75842761D01*
X147200476Y-75890380D01*
X147343333Y-75890380D01*
X147438571Y-75842761D01*
X147486190Y-75795142D01*
X148390952Y-75842761D02*
X148295714Y-75890380D01*
X148105238Y-75890380D01*
X148010000Y-75842761D01*
X147962380Y-75795142D01*
X147914761Y-75699904D01*
X147914761Y-75414190D01*
X147962380Y-75318952D01*
X148010000Y-75271333D01*
X148105238Y-75223714D01*
X148295714Y-75223714D01*
X148390952Y-75271333D01*
X148676666Y-75223714D02*
X149057619Y-75223714D01*
X148819523Y-74890380D02*
X148819523Y-75747523D01*
X148867142Y-75842761D01*
X148962380Y-75890380D01*
X149057619Y-75890380D01*
X150105238Y-74842761D02*
X149248095Y-76128476D01*
X150867142Y-75223714D02*
X150867142Y-75890380D01*
X150629047Y-74842761D02*
X150390952Y-75557047D01*
X151010000Y-75557047D01*
X151533809Y-75318952D02*
X151438571Y-75271333D01*
X151390952Y-75223714D01*
X151343333Y-75128476D01*
X151343333Y-75080857D01*
X151390952Y-74985619D01*
X151438571Y-74938000D01*
X151533809Y-74890380D01*
X151724285Y-74890380D01*
X151819523Y-74938000D01*
X151867142Y-74985619D01*
X151914761Y-75080857D01*
X151914761Y-75128476D01*
X151867142Y-75223714D01*
X151819523Y-75271333D01*
X151724285Y-75318952D01*
X151533809Y-75318952D01*
X151438571Y-75366571D01*
X151390952Y-75414190D01*
X151343333Y-75509428D01*
X151343333Y-75699904D01*
X151390952Y-75795142D01*
X151438571Y-75842761D01*
X151533809Y-75890380D01*
X151724285Y-75890380D01*
X151819523Y-75842761D01*
X151867142Y-75795142D01*
X151914761Y-75699904D01*
X151914761Y-75509428D01*
X151867142Y-75414190D01*
X151819523Y-75366571D01*
X151724285Y-75318952D01*
X152867142Y-75890380D02*
X152295714Y-75890380D01*
X152581428Y-75890380D02*
X152581428Y-74890380D01*
X152486190Y-75033238D01*
X152390952Y-75128476D01*
X152295714Y-75176095D01*
X153724285Y-74890380D02*
X153533809Y-74890380D01*
X153438571Y-74938000D01*
X153390952Y-74985619D01*
X153295714Y-75128476D01*
X153248095Y-75318952D01*
X153248095Y-75699904D01*
X153295714Y-75795142D01*
X153343333Y-75842761D01*
X153438571Y-75890380D01*
X153629047Y-75890380D01*
X153724285Y-75842761D01*
X153771904Y-75795142D01*
X153819523Y-75699904D01*
X153819523Y-75461809D01*
X153771904Y-75366571D01*
X153724285Y-75318952D01*
X153629047Y-75271333D01*
X153438571Y-75271333D01*
X153343333Y-75318952D01*
X153295714Y-75366571D01*
X153248095Y-75461809D01*
X87731714Y-72552000D02*
X87617428Y-72494857D01*
X87446000Y-72494857D01*
X87274571Y-72552000D01*
X87160285Y-72666285D01*
X87103142Y-72780571D01*
X87046000Y-73009142D01*
X87046000Y-73180571D01*
X87103142Y-73409142D01*
X87160285Y-73523428D01*
X87274571Y-73637714D01*
X87446000Y-73694857D01*
X87560285Y-73694857D01*
X87731714Y-73637714D01*
X87788857Y-73580571D01*
X87788857Y-73180571D01*
X87560285Y-73180571D01*
X88303142Y-73694857D02*
X88303142Y-72494857D01*
X88988857Y-73694857D01*
X88988857Y-72494857D01*
X89560285Y-73694857D02*
X89560285Y-72494857D01*
X89846000Y-72494857D01*
X90017428Y-72552000D01*
X90131714Y-72666285D01*
X90188857Y-72780571D01*
X90246000Y-73009142D01*
X90246000Y-73180571D01*
X90188857Y-73409142D01*
X90131714Y-73523428D01*
X90017428Y-73637714D01*
X89846000Y-73694857D01*
X89560285Y-73694857D01*
X86928571Y-75288857D02*
X87328571Y-76488857D01*
X87728571Y-75288857D01*
X88528571Y-75860285D02*
X88700000Y-75917428D01*
X88757142Y-75974571D01*
X88814285Y-76088857D01*
X88814285Y-76260285D01*
X88757142Y-76374571D01*
X88700000Y-76431714D01*
X88585714Y-76488857D01*
X88128571Y-76488857D01*
X88128571Y-75288857D01*
X88528571Y-75288857D01*
X88642857Y-75346000D01*
X88700000Y-75403142D01*
X88757142Y-75517428D01*
X88757142Y-75631714D01*
X88700000Y-75746000D01*
X88642857Y-75803142D01*
X88528571Y-75860285D01*
X88128571Y-75860285D01*
X89271428Y-76146000D02*
X89842857Y-76146000D01*
X89157142Y-76488857D02*
X89557142Y-75288857D01*
X89957142Y-76488857D01*
X90185714Y-75288857D02*
X90871428Y-75288857D01*
X90528571Y-76488857D02*
X90528571Y-75288857D01*
X136199714Y-117244761D02*
X136342571Y-117292380D01*
X136580666Y-117292380D01*
X136675904Y-117244761D01*
X136723523Y-117197142D01*
X136771142Y-117101904D01*
X136771142Y-117006666D01*
X136723523Y-116911428D01*
X136675904Y-116863809D01*
X136580666Y-116816190D01*
X136390190Y-116768571D01*
X136294952Y-116720952D01*
X136247333Y-116673333D01*
X136199714Y-116578095D01*
X136199714Y-116482857D01*
X136247333Y-116387619D01*
X136294952Y-116340000D01*
X136390190Y-116292380D01*
X136628285Y-116292380D01*
X136771142Y-116340000D01*
X137199714Y-117292380D02*
X137199714Y-116292380D01*
X137437809Y-116292380D01*
X137580666Y-116340000D01*
X137675904Y-116435238D01*
X137723523Y-116530476D01*
X137771142Y-116720952D01*
X137771142Y-116863809D01*
X137723523Y-117054285D01*
X137675904Y-117149523D01*
X137580666Y-117244761D01*
X137437809Y-117292380D01*
X137199714Y-117292380D01*
X138152095Y-117006666D02*
X138628285Y-117006666D01*
X138056857Y-117292380D02*
X138390190Y-116292380D01*
X138723523Y-117292380D01*
X137160095Y-123912380D02*
X137779142Y-123912380D01*
X137445809Y-124293333D01*
X137588666Y-124293333D01*
X137683904Y-124340952D01*
X137731523Y-124388571D01*
X137779142Y-124483809D01*
X137779142Y-124721904D01*
X137731523Y-124817142D01*
X137683904Y-124864761D01*
X137588666Y-124912380D01*
X137302952Y-124912380D01*
X137207714Y-124864761D01*
X137160095Y-124817142D01*
X138064857Y-123912380D02*
X138398190Y-124912380D01*
X138731523Y-123912380D01*
X117967047Y-117554285D02*
X117871809Y-117649523D01*
X117586095Y-117744761D01*
X117395619Y-117744761D01*
X117109904Y-117649523D01*
X116919428Y-117459047D01*
X116824190Y-117268571D01*
X116728952Y-116887619D01*
X116728952Y-116601904D01*
X116824190Y-116220952D01*
X116919428Y-116030476D01*
X117109904Y-115840000D01*
X117395619Y-115744761D01*
X117586095Y-115744761D01*
X117871809Y-115840000D01*
X117967047Y-115935238D01*
X104790857Y-116697142D02*
X105076571Y-116792380D01*
X105171809Y-116887619D01*
X105267047Y-117078095D01*
X105267047Y-117363809D01*
X105171809Y-117554285D01*
X105076571Y-117649523D01*
X104886095Y-117744761D01*
X104124190Y-117744761D01*
X104124190Y-115744761D01*
X104790857Y-115744761D01*
X104981333Y-115840000D01*
X105076571Y-115935238D01*
X105171809Y-116125714D01*
X105171809Y-116316190D01*
X105076571Y-116506666D01*
X104981333Y-116601904D01*
X104790857Y-116697142D01*
X104124190Y-116697142D01*
X91725809Y-117173333D02*
X92678190Y-117173333D01*
X91535333Y-117744761D02*
X92202000Y-115744761D01*
X92868666Y-117744761D01*
X75220285Y-117375714D02*
X75148857Y-117447142D01*
X74934571Y-117518571D01*
X74791714Y-117518571D01*
X74577428Y-117447142D01*
X74434571Y-117304285D01*
X74363142Y-117161428D01*
X74291714Y-116875714D01*
X74291714Y-116661428D01*
X74363142Y-116375714D01*
X74434571Y-116232857D01*
X74577428Y-116090000D01*
X74791714Y-116018571D01*
X74934571Y-116018571D01*
X75148857Y-116090000D01*
X75220285Y-116161428D01*
X75791714Y-117090000D02*
X76506000Y-117090000D01*
X75648857Y-117518571D02*
X76148857Y-116018571D01*
X76648857Y-117518571D01*
X77863142Y-117518571D02*
X77148857Y-117518571D01*
X77148857Y-116018571D01*
X78363142Y-117518571D02*
X78363142Y-116018571D01*
X79577428Y-116732857D02*
X79791714Y-116804285D01*
X79863142Y-116875714D01*
X79934571Y-117018571D01*
X79934571Y-117232857D01*
X79863142Y-117375714D01*
X79791714Y-117447142D01*
X79648857Y-117518571D01*
X79077428Y-117518571D01*
X79077428Y-116018571D01*
X79577428Y-116018571D01*
X79720285Y-116090000D01*
X79791714Y-116161428D01*
X79863142Y-116304285D01*
X79863142Y-116447142D01*
X79791714Y-116590000D01*
X79720285Y-116661428D01*
X79577428Y-116732857D01*
X79077428Y-116732857D01*
X81434571Y-117518571D02*
X80934571Y-116804285D01*
X80577428Y-117518571D02*
X80577428Y-116018571D01*
X81148857Y-116018571D01*
X81291714Y-116090000D01*
X81363142Y-116161428D01*
X81434571Y-116304285D01*
X81434571Y-116518571D01*
X81363142Y-116661428D01*
X81291714Y-116732857D01*
X81148857Y-116804285D01*
X80577428Y-116804285D01*
X82006000Y-117090000D02*
X82720285Y-117090000D01*
X81863142Y-117518571D02*
X82363142Y-116018571D01*
X82863142Y-117518571D01*
X83148857Y-116018571D02*
X84006000Y-116018571D01*
X83577428Y-117518571D02*
X83577428Y-116018571D01*
X84506000Y-116732857D02*
X85006000Y-116732857D01*
X85220285Y-117518571D02*
X84506000Y-117518571D01*
X84506000Y-116018571D01*
X85220285Y-116018571D01*
X132509333Y-136088380D02*
X132509333Y-135088380D01*
X132937904Y-136088380D02*
X132937904Y-135564571D01*
X132890285Y-135469333D01*
X132795047Y-135421714D01*
X132652190Y-135421714D01*
X132556952Y-135469333D01*
X132509333Y-135516952D01*
X133271238Y-135421714D02*
X133652190Y-135421714D01*
X133414095Y-135088380D02*
X133414095Y-135945523D01*
X133461714Y-136040761D01*
X133556952Y-136088380D01*
X133652190Y-136088380D01*
X133842666Y-135421714D02*
X134223619Y-135421714D01*
X133985523Y-135088380D02*
X133985523Y-135945523D01*
X134033142Y-136040761D01*
X134128380Y-136088380D01*
X134223619Y-136088380D01*
X134556952Y-135421714D02*
X134556952Y-136421714D01*
X134556952Y-135469333D02*
X134652190Y-135421714D01*
X134842666Y-135421714D01*
X134937904Y-135469333D01*
X134985523Y-135516952D01*
X135033142Y-135612190D01*
X135033142Y-135897904D01*
X134985523Y-135993142D01*
X134937904Y-136040761D01*
X134842666Y-136088380D01*
X134652190Y-136088380D01*
X134556952Y-136040761D01*
X135461714Y-135993142D02*
X135509333Y-136040761D01*
X135461714Y-136088380D01*
X135414095Y-136040761D01*
X135461714Y-135993142D01*
X135461714Y-136088380D01*
X135461714Y-135469333D02*
X135509333Y-135516952D01*
X135461714Y-135564571D01*
X135414095Y-135516952D01*
X135461714Y-135469333D01*
X135461714Y-135564571D01*
X136652190Y-135040761D02*
X135795047Y-136326476D01*
X137699809Y-135040761D02*
X136842666Y-136326476D01*
X138033142Y-135421714D02*
X138033142Y-136421714D01*
X138033142Y-135469333D02*
X138128380Y-135421714D01*
X138318857Y-135421714D01*
X138414095Y-135469333D01*
X138461714Y-135516952D01*
X138509333Y-135612190D01*
X138509333Y-135897904D01*
X138461714Y-135993142D01*
X138414095Y-136040761D01*
X138318857Y-136088380D01*
X138128380Y-136088380D01*
X138033142Y-136040761D01*
X138842666Y-135421714D02*
X139080761Y-136088380D01*
X139318857Y-135421714D01*
X139842666Y-136088380D02*
X139747428Y-136040761D01*
X139699809Y-135993142D01*
X139652190Y-135897904D01*
X139652190Y-135612190D01*
X139699809Y-135516952D01*
X139747428Y-135469333D01*
X139842666Y-135421714D01*
X139985523Y-135421714D01*
X140080761Y-135469333D01*
X140128380Y-135516952D01*
X140176000Y-135612190D01*
X140176000Y-135897904D01*
X140128380Y-135993142D01*
X140080761Y-136040761D01*
X139985523Y-136088380D01*
X139842666Y-136088380D01*
X140556952Y-136040761D02*
X140652190Y-136088380D01*
X140842666Y-136088380D01*
X140937904Y-136040761D01*
X140985523Y-135945523D01*
X140985523Y-135897904D01*
X140937904Y-135802666D01*
X140842666Y-135755047D01*
X140699809Y-135755047D01*
X140604571Y-135707428D01*
X140556952Y-135612190D01*
X140556952Y-135564571D01*
X140604571Y-135469333D01*
X140699809Y-135421714D01*
X140842666Y-135421714D01*
X140937904Y-135469333D01*
X141414095Y-135993142D02*
X141461714Y-136040761D01*
X141414095Y-136088380D01*
X141366476Y-136040761D01*
X141414095Y-135993142D01*
X141414095Y-136088380D01*
X142033142Y-136088380D02*
X141937904Y-136040761D01*
X141890285Y-135993142D01*
X141842666Y-135897904D01*
X141842666Y-135612190D01*
X141890285Y-135516952D01*
X141937904Y-135469333D01*
X142033142Y-135421714D01*
X142176000Y-135421714D01*
X142271238Y-135469333D01*
X142318857Y-135516952D01*
X142366476Y-135612190D01*
X142366476Y-135897904D01*
X142318857Y-135993142D01*
X142271238Y-136040761D01*
X142176000Y-136088380D01*
X142033142Y-136088380D01*
X142795047Y-136088380D02*
X142795047Y-135421714D01*
X142795047Y-135612190D02*
X142842666Y-135516952D01*
X142890285Y-135469333D01*
X142985523Y-135421714D01*
X143080761Y-135421714D01*
X143842666Y-135421714D02*
X143842666Y-136231238D01*
X143795047Y-136326476D01*
X143747428Y-136374095D01*
X143652190Y-136421714D01*
X143509333Y-136421714D01*
X143414095Y-136374095D01*
X143842666Y-136040761D02*
X143747428Y-136088380D01*
X143556952Y-136088380D01*
X143461714Y-136040761D01*
X143414095Y-135993142D01*
X143366476Y-135897904D01*
X143366476Y-135612190D01*
X143414095Y-135516952D01*
X143461714Y-135469333D01*
X143556952Y-135421714D01*
X143747428Y-135421714D01*
X143842666Y-135469333D01*
X136104571Y-66972571D02*
X136104571Y-65972571D01*
X136104571Y-66258285D02*
X136176000Y-66115428D01*
X136247428Y-66044000D01*
X136390285Y-65972571D01*
X136533142Y-65972571D01*
X137604571Y-66901142D02*
X137461714Y-66972571D01*
X137176000Y-66972571D01*
X137033142Y-66901142D01*
X136961714Y-66758285D01*
X136961714Y-66186857D01*
X137033142Y-66044000D01*
X137176000Y-65972571D01*
X137461714Y-65972571D01*
X137604571Y-66044000D01*
X137676000Y-66186857D01*
X137676000Y-66329714D01*
X136961714Y-66472571D01*
X138176000Y-65972571D02*
X138533142Y-66972571D01*
X138890285Y-65972571D01*
X140318857Y-66829714D02*
X140247428Y-66901142D01*
X140033142Y-66972571D01*
X139890285Y-66972571D01*
X139676000Y-66901142D01*
X139533142Y-66758285D01*
X139461714Y-66615428D01*
X139390285Y-66329714D01*
X139390285Y-66115428D01*
X139461714Y-65829714D01*
X139533142Y-65686857D01*
X139676000Y-65544000D01*
X139890285Y-65472571D01*
X140033142Y-65472571D01*
X140247428Y-65544000D01*
X140318857Y-65615428D01*
X136652095Y-121420000D02*
X136556857Y-121372380D01*
X136414000Y-121372380D01*
X136271142Y-121420000D01*
X136175904Y-121515238D01*
X136128285Y-121610476D01*
X136080666Y-121800952D01*
X136080666Y-121943809D01*
X136128285Y-122134285D01*
X136175904Y-122229523D01*
X136271142Y-122324761D01*
X136414000Y-122372380D01*
X136509238Y-122372380D01*
X136652095Y-122324761D01*
X136699714Y-122277142D01*
X136699714Y-121943809D01*
X136509238Y-121943809D01*
X137128285Y-122372380D02*
X137128285Y-121372380D01*
X137699714Y-122372380D01*
X137699714Y-121372380D01*
X138175904Y-122372380D02*
X138175904Y-121372380D01*
X138414000Y-121372380D01*
X138556857Y-121420000D01*
X138652095Y-121515238D01*
X138699714Y-121610476D01*
X138747333Y-121800952D01*
X138747333Y-121943809D01*
X138699714Y-122134285D01*
X138652095Y-122229523D01*
X138556857Y-122324761D01*
X138414000Y-122372380D01*
X138175904Y-122372380D01*
X136477523Y-119784761D02*
X136620380Y-119832380D01*
X136858476Y-119832380D01*
X136953714Y-119784761D01*
X137001333Y-119737142D01*
X137048952Y-119641904D01*
X137048952Y-119546666D01*
X137001333Y-119451428D01*
X136953714Y-119403809D01*
X136858476Y-119356190D01*
X136668000Y-119308571D01*
X136572761Y-119260952D01*
X136525142Y-119213333D01*
X136477523Y-119118095D01*
X136477523Y-119022857D01*
X136525142Y-118927619D01*
X136572761Y-118880000D01*
X136668000Y-118832380D01*
X136906095Y-118832380D01*
X137048952Y-118880000D01*
X138048952Y-119737142D02*
X138001333Y-119784761D01*
X137858476Y-119832380D01*
X137763238Y-119832380D01*
X137620380Y-119784761D01*
X137525142Y-119689523D01*
X137477523Y-119594285D01*
X137429904Y-119403809D01*
X137429904Y-119260952D01*
X137477523Y-119070476D01*
X137525142Y-118975238D01*
X137620380Y-118880000D01*
X137763238Y-118832380D01*
X137858476Y-118832380D01*
X138001333Y-118880000D01*
X138048952Y-118927619D01*
X138953714Y-119832380D02*
X138477523Y-119832380D01*
X138477523Y-118832380D01*
X146962761Y-81986285D02*
X147010380Y-81843428D01*
X147010380Y-81605333D01*
X146962761Y-81510095D01*
X146915142Y-81462476D01*
X146819904Y-81414857D01*
X146724666Y-81414857D01*
X146629428Y-81462476D01*
X146581809Y-81510095D01*
X146534190Y-81605333D01*
X146486571Y-81795809D01*
X146438952Y-81891047D01*
X146391333Y-81938666D01*
X146296095Y-81986285D01*
X146200857Y-81986285D01*
X146105619Y-81938666D01*
X146058000Y-81891047D01*
X146010380Y-81795809D01*
X146010380Y-81557714D01*
X146058000Y-81414857D01*
X147010380Y-80986285D02*
X146010380Y-80986285D01*
X146010380Y-80748190D01*
X146058000Y-80605333D01*
X146153238Y-80510095D01*
X146248476Y-80462476D01*
X146438952Y-80414857D01*
X146581809Y-80414857D01*
X146772285Y-80462476D01*
X146867523Y-80510095D01*
X146962761Y-80605333D01*
X147010380Y-80748190D01*
X147010380Y-80986285D01*
X146724666Y-80033904D02*
X146724666Y-79557714D01*
X147010380Y-80129142D02*
X146010380Y-79795809D01*
X147010380Y-79462476D01*
X133310380Y-81533904D02*
X133310380Y-80914857D01*
X133691333Y-81248190D01*
X133691333Y-81105333D01*
X133738952Y-81010095D01*
X133786571Y-80962476D01*
X133881809Y-80914857D01*
X134119904Y-80914857D01*
X134215142Y-80962476D01*
X134262761Y-81010095D01*
X134310380Y-81105333D01*
X134310380Y-81391047D01*
X134262761Y-81486285D01*
X134215142Y-81533904D01*
X133310380Y-80629142D02*
X134310380Y-80295809D01*
X133310380Y-79962476D01*
X138438000Y-81533904D02*
X138390380Y-81629142D01*
X138390380Y-81772000D01*
X138438000Y-81914857D01*
X138533238Y-82010095D01*
X138628476Y-82057714D01*
X138818952Y-82105333D01*
X138961809Y-82105333D01*
X139152285Y-82057714D01*
X139247523Y-82010095D01*
X139342761Y-81914857D01*
X139390380Y-81772000D01*
X139390380Y-81676761D01*
X139342761Y-81533904D01*
X139295142Y-81486285D01*
X138961809Y-81486285D01*
X138961809Y-81676761D01*
X139390380Y-81057714D02*
X138390380Y-81057714D01*
X139390380Y-80486285D01*
X138390380Y-80486285D01*
X139390380Y-80010095D02*
X138390380Y-80010095D01*
X138390380Y-79772000D01*
X138438000Y-79629142D01*
X138533238Y-79533904D01*
X138628476Y-79486285D01*
X138818952Y-79438666D01*
X138961809Y-79438666D01*
X139152285Y-79486285D01*
X139247523Y-79533904D01*
X139342761Y-79629142D01*
X139390380Y-79772000D01*
X139390380Y-80010095D01*
X141882761Y-81962476D02*
X141930380Y-81819619D01*
X141930380Y-81581523D01*
X141882761Y-81486285D01*
X141835142Y-81438666D01*
X141739904Y-81391047D01*
X141644666Y-81391047D01*
X141549428Y-81438666D01*
X141501809Y-81486285D01*
X141454190Y-81581523D01*
X141406571Y-81772000D01*
X141358952Y-81867238D01*
X141311333Y-81914857D01*
X141216095Y-81962476D01*
X141120857Y-81962476D01*
X141025619Y-81914857D01*
X140978000Y-81867238D01*
X140930380Y-81772000D01*
X140930380Y-81533904D01*
X140978000Y-81391047D01*
X141835142Y-80391047D02*
X141882761Y-80438666D01*
X141930380Y-80581523D01*
X141930380Y-80676761D01*
X141882761Y-80819619D01*
X141787523Y-80914857D01*
X141692285Y-80962476D01*
X141501809Y-81010095D01*
X141358952Y-81010095D01*
X141168476Y-80962476D01*
X141073238Y-80914857D01*
X140978000Y-80819619D01*
X140930380Y-80676761D01*
X140930380Y-80581523D01*
X140978000Y-80438666D01*
X141025619Y-80391047D01*
X141930380Y-79486285D02*
X141930380Y-79962476D01*
X140930380Y-79962476D01*
X87173047Y-63376857D02*
X87054000Y-63495904D01*
X86696857Y-63614952D01*
X86458761Y-63614952D01*
X86101619Y-63495904D01*
X85863523Y-63257809D01*
X85744476Y-63019714D01*
X85625428Y-62543523D01*
X85625428Y-62186380D01*
X85744476Y-61710190D01*
X85863523Y-61472095D01*
X86101619Y-61234000D01*
X86458761Y-61114952D01*
X86696857Y-61114952D01*
X87054000Y-61234000D01*
X87173047Y-61353047D01*
X88720666Y-61114952D02*
X89196857Y-61114952D01*
X89434952Y-61234000D01*
X89673047Y-61472095D01*
X89792095Y-61948285D01*
X89792095Y-62781619D01*
X89673047Y-63257809D01*
X89434952Y-63495904D01*
X89196857Y-63614952D01*
X88720666Y-63614952D01*
X88482571Y-63495904D01*
X88244476Y-63257809D01*
X88125428Y-62781619D01*
X88125428Y-61948285D01*
X88244476Y-61472095D01*
X88482571Y-61234000D01*
X88720666Y-61114952D01*
X90744476Y-61353047D02*
X90863523Y-61234000D01*
X91101619Y-61114952D01*
X91696857Y-61114952D01*
X91934952Y-61234000D01*
X92054000Y-61353047D01*
X92173047Y-61591142D01*
X92173047Y-61829238D01*
X92054000Y-62186380D01*
X90625428Y-63614952D01*
X92173047Y-63614952D01*
X93363523Y-63495904D02*
X93363523Y-63614952D01*
X93244476Y-63853047D01*
X93125428Y-63972095D01*
X95982571Y-61114952D02*
X97411142Y-61114952D01*
X96696857Y-63614952D02*
X96696857Y-61114952D01*
X99196857Y-63495904D02*
X98958761Y-63614952D01*
X98482571Y-63614952D01*
X98244476Y-63495904D01*
X98125428Y-63257809D01*
X98125428Y-62305428D01*
X98244476Y-62067333D01*
X98482571Y-61948285D01*
X98958761Y-61948285D01*
X99196857Y-62067333D01*
X99315904Y-62305428D01*
X99315904Y-62543523D01*
X98125428Y-62781619D01*
X100387333Y-63614952D02*
X100387333Y-61948285D01*
X100387333Y-62186380D02*
X100506380Y-62067333D01*
X100744476Y-61948285D01*
X101101619Y-61948285D01*
X101339714Y-62067333D01*
X101458761Y-62305428D01*
X101458761Y-63614952D01*
X101458761Y-62305428D02*
X101577809Y-62067333D01*
X101815904Y-61948285D01*
X102173047Y-61948285D01*
X102411142Y-62067333D01*
X102530190Y-62305428D01*
X102530190Y-63614952D01*
X103720666Y-61948285D02*
X103720666Y-64448285D01*
X103720666Y-62067333D02*
X103958761Y-61948285D01*
X104434952Y-61948285D01*
X104673047Y-62067333D01*
X104792095Y-62186380D01*
X104911142Y-62424476D01*
X104911142Y-63138761D01*
X104792095Y-63376857D01*
X104673047Y-63495904D01*
X104434952Y-63614952D01*
X103958761Y-63614952D01*
X103720666Y-63495904D01*
X106101619Y-63495904D02*
X106101619Y-63614952D01*
X105982571Y-63853047D01*
X105863523Y-63972095D01*
X109077809Y-63614952D02*
X109077809Y-61114952D01*
X109077809Y-62305428D02*
X110506380Y-62305428D01*
X110506380Y-63614952D02*
X110506380Y-61114952D01*
X112768285Y-61948285D02*
X112768285Y-63614952D01*
X111696857Y-61948285D02*
X111696857Y-63257809D01*
X111815904Y-63495904D01*
X112053999Y-63614952D01*
X112411142Y-63614952D01*
X112649238Y-63495904D01*
X112768285Y-63376857D01*
X113958761Y-63614952D02*
X113958761Y-61948285D01*
X113958761Y-62186380D02*
X114077809Y-62067333D01*
X114315904Y-61948285D01*
X114673047Y-61948285D01*
X114911142Y-62067333D01*
X115030190Y-62305428D01*
X115030190Y-63614952D01*
X115030190Y-62305428D02*
X115149238Y-62067333D01*
X115387333Y-61948285D01*
X115744476Y-61948285D01*
X115982571Y-62067333D01*
X116101619Y-62305428D01*
X116101619Y-63614952D01*
X117292095Y-63614952D02*
X117292095Y-61948285D01*
X117292095Y-61114952D02*
X117173047Y-61234000D01*
X117292095Y-61353047D01*
X117411142Y-61234000D01*
X117292095Y-61114952D01*
X117292095Y-61353047D01*
X119553999Y-63614952D02*
X119553999Y-61114952D01*
X119553999Y-63495904D02*
X119315904Y-63614952D01*
X118839714Y-63614952D01*
X118601619Y-63495904D01*
X118482571Y-63376857D01*
X118363523Y-63138761D01*
X118363523Y-62424476D01*
X118482571Y-62186380D01*
X118601619Y-62067333D01*
X118839714Y-61948285D01*
X119315904Y-61948285D01*
X119553999Y-62067333D01*
X120744476Y-63614952D02*
X120744476Y-61948285D01*
X120744476Y-61114952D02*
X120625428Y-61234000D01*
X120744476Y-61353047D01*
X120863523Y-61234000D01*
X120744476Y-61114952D01*
X120744476Y-61353047D01*
X121577809Y-61948285D02*
X122530190Y-61948285D01*
X121934952Y-61114952D02*
X121934952Y-63257809D01*
X122053999Y-63495904D01*
X122292095Y-63614952D01*
X122530190Y-63614952D01*
X123125428Y-61948285D02*
X123720666Y-63614952D01*
X124315904Y-61948285D02*
X123720666Y-63614952D01*
X123482571Y-64210190D01*
X123363523Y-64329238D01*
X123125428Y-64448285D01*
X125387333Y-63495904D02*
X125387333Y-63614952D01*
X125268285Y-63853047D01*
X125149238Y-63972095D01*
X128363523Y-63614952D02*
X128363523Y-61114952D01*
X129315904Y-61114952D01*
X129553999Y-61234000D01*
X129673047Y-61353047D01*
X129792095Y-61591142D01*
X129792095Y-61948285D01*
X129673047Y-62186380D01*
X129553999Y-62305428D01*
X129315904Y-62424476D01*
X128363523Y-62424476D01*
X130863523Y-63614952D02*
X130863523Y-61948285D01*
X130863523Y-62424476D02*
X130982571Y-62186380D01*
X131101619Y-62067333D01*
X131339714Y-61948285D01*
X131577809Y-61948285D01*
X133363523Y-63495904D02*
X133125428Y-63614952D01*
X132649238Y-63614952D01*
X132411142Y-63495904D01*
X132292095Y-63257809D01*
X132292095Y-62305428D01*
X132411142Y-62067333D01*
X132649238Y-61948285D01*
X133125428Y-61948285D01*
X133363523Y-62067333D01*
X133482571Y-62305428D01*
X133482571Y-62543523D01*
X132292095Y-62781619D01*
X134434952Y-63495904D02*
X134673047Y-63614952D01*
X135149238Y-63614952D01*
X135387333Y-63495904D01*
X135506380Y-63257809D01*
X135506380Y-63138761D01*
X135387333Y-62900666D01*
X135149238Y-62781619D01*
X134792095Y-62781619D01*
X134553999Y-62662571D01*
X134434952Y-62424476D01*
X134434952Y-62305428D01*
X134553999Y-62067333D01*
X134792095Y-61948285D01*
X135149238Y-61948285D01*
X135387333Y-62067333D01*
X136458761Y-63495904D02*
X136696857Y-63614952D01*
X137173047Y-63614952D01*
X137411142Y-63495904D01*
X137530190Y-63257809D01*
X137530190Y-63138761D01*
X137411142Y-62900666D01*
X137173047Y-62781619D01*
X136815904Y-62781619D01*
X136577809Y-62662571D01*
X136458761Y-62424476D01*
X136458761Y-62305428D01*
X136577809Y-62067333D01*
X136815904Y-61948285D01*
X137173047Y-61948285D01*
X137411142Y-62067333D01*
X139673047Y-61948285D02*
X139673047Y-63614952D01*
X138601619Y-61948285D02*
X138601619Y-63257809D01*
X138720666Y-63495904D01*
X138958761Y-63614952D01*
X139315904Y-63614952D01*
X139553999Y-63495904D01*
X139673047Y-63376857D01*
X140863523Y-63614952D02*
X140863523Y-61948285D01*
X140863523Y-62424476D02*
X140982571Y-62186380D01*
X141101619Y-62067333D01*
X141339714Y-61948285D01*
X141577809Y-61948285D01*
X143363523Y-63495904D02*
X143125428Y-63614952D01*
X142649238Y-63614952D01*
X142411142Y-63495904D01*
X142292095Y-63257809D01*
X142292095Y-62305428D01*
X142411142Y-62067333D01*
X142649238Y-61948285D01*
X143125428Y-61948285D01*
X143363523Y-62067333D01*
X143482571Y-62305428D01*
X143482571Y-62543523D01*
X142292095Y-62781619D01*
X138652857Y-71993142D02*
X138938571Y-72088380D01*
X139033809Y-72183619D01*
X139129047Y-72374095D01*
X139129047Y-72659809D01*
X139033809Y-72850285D01*
X138938571Y-72945523D01*
X138748095Y-73040761D01*
X137986190Y-73040761D01*
X137986190Y-71040761D01*
X138652857Y-71040761D01*
X138843333Y-71136000D01*
X138938571Y-71231238D01*
X139033809Y-71421714D01*
X139033809Y-71612190D01*
X138938571Y-71802666D01*
X138843333Y-71897904D01*
X138652857Y-71993142D01*
X137986190Y-71993142D01*
X139986190Y-73040761D02*
X139986190Y-71040761D01*
X140652857Y-72469333D01*
X141319523Y-71040761D01*
X141319523Y-73040761D01*
X142271904Y-73040761D02*
X142271904Y-71040761D01*
X143033809Y-71040761D01*
X143224285Y-71136000D01*
X143319523Y-71231238D01*
X143414761Y-71421714D01*
X143414761Y-71707428D01*
X143319523Y-71897904D01*
X143224285Y-71993142D01*
X143033809Y-72088380D01*
X142271904Y-72088380D01*
X144081428Y-71040761D02*
X145319523Y-71040761D01*
X144652857Y-71802666D01*
X144938571Y-71802666D01*
X145129047Y-71897904D01*
X145224285Y-71993142D01*
X145319523Y-72183619D01*
X145319523Y-72659809D01*
X145224285Y-72850285D01*
X145129047Y-72945523D01*
X144938571Y-73040761D01*
X144367142Y-73040761D01*
X144176666Y-72945523D01*
X144081428Y-72850285D01*
X146271904Y-73040761D02*
X146652857Y-73040761D01*
X146843333Y-72945523D01*
X146938571Y-72850285D01*
X147129047Y-72564571D01*
X147224285Y-72183619D01*
X147224285Y-71421714D01*
X147129047Y-71231238D01*
X147033809Y-71136000D01*
X146843333Y-71040761D01*
X146462380Y-71040761D01*
X146271904Y-71136000D01*
X146176666Y-71231238D01*
X146081428Y-71421714D01*
X146081428Y-71897904D01*
X146176666Y-72088380D01*
X146271904Y-72183619D01*
X146462380Y-72278857D01*
X146843333Y-72278857D01*
X147033809Y-72183619D01*
X147129047Y-72088380D01*
X147224285Y-71897904D01*
X148462380Y-71040761D02*
X148652857Y-71040761D01*
X148843333Y-71136000D01*
X148938571Y-71231238D01*
X149033809Y-71421714D01*
X149129047Y-71802666D01*
X149129047Y-72278857D01*
X149033809Y-72659809D01*
X148938571Y-72850285D01*
X148843333Y-72945523D01*
X148652857Y-73040761D01*
X148462380Y-73040761D01*
X148271904Y-72945523D01*
X148176666Y-72850285D01*
X148081428Y-72659809D01*
X147986190Y-72278857D01*
X147986190Y-71802666D01*
X148081428Y-71421714D01*
X148176666Y-71231238D01*
X148271904Y-71136000D01*
X148462380Y-71040761D01*
D10*
X130302000Y-87884000D02*
X130302000Y-69596000D01*
X155702000Y-69596000D02*
X130302000Y-69596000D01*
X155702000Y-87884000D02*
X130302000Y-87884000D01*
X155702000Y-87884000D02*
X155702000Y-69596000D01*
X154318000Y-91694000D02*
X154318000Y-126688000D01*
X131318000Y-126694000D02*
X154312000Y-126694000D01*
D11*
X139033809Y-96313523D02*
X139319523Y-96408761D01*
X139795714Y-96408761D01*
X139986190Y-96313523D01*
X140081428Y-96218285D01*
X140176666Y-96027809D01*
X140176666Y-95837333D01*
X140081428Y-95646857D01*
X139986190Y-95551619D01*
X139795714Y-95456380D01*
X139414761Y-95361142D01*
X139224285Y-95265904D01*
X139129047Y-95170666D01*
X139033809Y-94980190D01*
X139033809Y-94789714D01*
X139129047Y-94599238D01*
X139224285Y-94504000D01*
X139414761Y-94408761D01*
X139890952Y-94408761D01*
X140176666Y-94504000D01*
X142176666Y-96218285D02*
X142081428Y-96313523D01*
X141795714Y-96408761D01*
X141605238Y-96408761D01*
X141319523Y-96313523D01*
X141129047Y-96123047D01*
X141033809Y-95932571D01*
X140938571Y-95551619D01*
X140938571Y-95265904D01*
X141033809Y-94884952D01*
X141129047Y-94694476D01*
X141319523Y-94504000D01*
X141605238Y-94408761D01*
X141795714Y-94408761D01*
X142081428Y-94504000D01*
X142176666Y-94599238D01*
X143033809Y-96408761D02*
X143033809Y-94408761D01*
X143510000Y-94408761D01*
X143795714Y-94504000D01*
X143986190Y-94694476D01*
X144081428Y-94884952D01*
X144176666Y-95265904D01*
X144176666Y-95551619D01*
X144081428Y-95932571D01*
X143986190Y-96123047D01*
X143795714Y-96313523D01*
X143510000Y-96408761D01*
X143033809Y-96408761D01*
X144843333Y-94408761D02*
X146081428Y-94408761D01*
X145414761Y-95170666D01*
X145700476Y-95170666D01*
X145890952Y-95265904D01*
X145986190Y-95361142D01*
X146081428Y-95551619D01*
X146081428Y-96027809D01*
X145986190Y-96218285D01*
X145890952Y-96313523D01*
X145700476Y-96408761D01*
X145129047Y-96408761D01*
X144938571Y-96313523D01*
X144843333Y-96218285D01*
X147319523Y-94408761D02*
X147510000Y-94408761D01*
X147700476Y-94504000D01*
X147795714Y-94599238D01*
X147890952Y-94789714D01*
X147986190Y-95170666D01*
X147986190Y-95646857D01*
X147890952Y-96027809D01*
X147795714Y-96218285D01*
X147700476Y-96313523D01*
X147510000Y-96408761D01*
X147319523Y-96408761D01*
X147129047Y-96313523D01*
X147033809Y-96218285D01*
X146938571Y-96027809D01*
X146843333Y-95646857D01*
X146843333Y-95170666D01*
X146938571Y-94789714D01*
X147033809Y-94599238D01*
X147129047Y-94504000D01*
X147319523Y-94408761D01*
X131318000Y-91694000D02*
X154318000Y-91694000D01*
X131318000Y-91694000D02*
X131318000Y-126694000D01*
X70253142Y-75498571D02*
X69053142Y-75898571D01*
X70253142Y-76298571D01*
X69681714Y-77098571D02*
X69624571Y-77270000D01*
X69567428Y-77327142D01*
X69453142Y-77384285D01*
X69281714Y-77384285D01*
X69167428Y-77327142D01*
X69110285Y-77270000D01*
X69053142Y-77155714D01*
X69053142Y-76698571D01*
X70253142Y-76698571D01*
X70253142Y-77098571D01*
X70196000Y-77212857D01*
X70138857Y-77270000D01*
X70024571Y-77327142D01*
X69910285Y-77327142D01*
X69796000Y-77270000D01*
X69738857Y-77212857D01*
X69681714Y-77098571D01*
X69681714Y-76698571D01*
X69396000Y-77841428D02*
X69396000Y-78412857D01*
X69053142Y-77727142D02*
X70253142Y-78127142D01*
X69053142Y-78527142D01*
X70253142Y-78755714D02*
X70253142Y-79441428D01*
X69053142Y-79098571D02*
X70253142Y-79098571D01*
X70196000Y-71475714D02*
X70253142Y-71361428D01*
X70253142Y-71190000D01*
X70196000Y-71018571D01*
X70081714Y-70904285D01*
X69967428Y-70847142D01*
X69738857Y-70790000D01*
X69567428Y-70790000D01*
X69338857Y-70847142D01*
X69224571Y-70904285D01*
X69110285Y-71018571D01*
X69053142Y-71190000D01*
X69053142Y-71304285D01*
X69110285Y-71475714D01*
X69167428Y-71532857D01*
X69567428Y-71532857D01*
X69567428Y-71304285D01*
X69053142Y-72047142D02*
X70253142Y-72047142D01*
X69053142Y-72732857D01*
X70253142Y-72732857D01*
X69053142Y-73304285D02*
X70253142Y-73304285D01*
X70253142Y-73590000D01*
X70196000Y-73761428D01*
X70081714Y-73875714D01*
X69967428Y-73932857D01*
X69738857Y-73990000D01*
X69567428Y-73990000D01*
X69338857Y-73932857D01*
X69224571Y-73875714D01*
X69110285Y-73761428D01*
X69053142Y-73590000D01*
X69053142Y-73304285D01*
X91174285Y-67035238D02*
X91174285Y-64835238D01*
X92117142Y-67035238D02*
X92117142Y-65882857D01*
X92012380Y-65673333D01*
X91802857Y-65568571D01*
X91488571Y-65568571D01*
X91279047Y-65673333D01*
X91174285Y-65778095D01*
X92850476Y-65568571D02*
X93688571Y-65568571D01*
X93164761Y-64835238D02*
X93164761Y-66720952D01*
X93269523Y-66930476D01*
X93479047Y-67035238D01*
X93688571Y-67035238D01*
X94107619Y-65568571D02*
X94945714Y-65568571D01*
X94421904Y-64835238D02*
X94421904Y-66720952D01*
X94526666Y-66930476D01*
X94736190Y-67035238D01*
X94945714Y-67035238D01*
X95679047Y-65568571D02*
X95679047Y-67768571D01*
X95679047Y-65673333D02*
X95888571Y-65568571D01*
X96307619Y-65568571D01*
X96517142Y-65673333D01*
X96621904Y-65778095D01*
X96726666Y-65987619D01*
X96726666Y-66616190D01*
X96621904Y-66825714D01*
X96517142Y-66930476D01*
X96307619Y-67035238D01*
X95888571Y-67035238D01*
X95679047Y-66930476D01*
X97669523Y-66825714D02*
X97774285Y-66930476D01*
X97669523Y-67035238D01*
X97564761Y-66930476D01*
X97669523Y-66825714D01*
X97669523Y-67035238D01*
X97669523Y-65673333D02*
X97774285Y-65778095D01*
X97669523Y-65882857D01*
X97564761Y-65778095D01*
X97669523Y-65673333D01*
X97669523Y-65882857D01*
X100288571Y-64730476D02*
X98402857Y-67559047D01*
X102593333Y-64730476D02*
X100707619Y-67559047D01*
X103326666Y-65568571D02*
X103326666Y-67768571D01*
X103326666Y-65673333D02*
X103536190Y-65568571D01*
X103955238Y-65568571D01*
X104164761Y-65673333D01*
X104269523Y-65778095D01*
X104374285Y-65987619D01*
X104374285Y-66616190D01*
X104269523Y-66825714D01*
X104164761Y-66930476D01*
X103955238Y-67035238D01*
X103536190Y-67035238D01*
X103326666Y-66930476D01*
X105107619Y-65568571D02*
X105631428Y-67035238D01*
X106155238Y-65568571D01*
X107307619Y-67035238D02*
X107098095Y-66930476D01*
X106993333Y-66825714D01*
X106888571Y-66616190D01*
X106888571Y-65987619D01*
X106993333Y-65778095D01*
X107098095Y-65673333D01*
X107307619Y-65568571D01*
X107621904Y-65568571D01*
X107831428Y-65673333D01*
X107936190Y-65778095D01*
X108040952Y-65987619D01*
X108040952Y-66616190D01*
X107936190Y-66825714D01*
X107831428Y-66930476D01*
X107621904Y-67035238D01*
X107307619Y-67035238D01*
X108879047Y-66930476D02*
X109088571Y-67035238D01*
X109507619Y-67035238D01*
X109717142Y-66930476D01*
X109821904Y-66720952D01*
X109821904Y-66616190D01*
X109717142Y-66406666D01*
X109507619Y-66301904D01*
X109193333Y-66301904D01*
X108983809Y-66197142D01*
X108879047Y-65987619D01*
X108879047Y-65882857D01*
X108983809Y-65673333D01*
X109193333Y-65568571D01*
X109507619Y-65568571D01*
X109717142Y-65673333D01*
X110764761Y-66825714D02*
X110869523Y-66930476D01*
X110764761Y-67035238D01*
X110659999Y-66930476D01*
X110764761Y-66825714D01*
X110764761Y-67035238D01*
X112126666Y-67035238D02*
X111917142Y-66930476D01*
X111812380Y-66825714D01*
X111707619Y-66616190D01*
X111707619Y-65987619D01*
X111812380Y-65778095D01*
X111917142Y-65673333D01*
X112126666Y-65568571D01*
X112440952Y-65568571D01*
X112650476Y-65673333D01*
X112755238Y-65778095D01*
X112859999Y-65987619D01*
X112859999Y-66616190D01*
X112755238Y-66825714D01*
X112650476Y-66930476D01*
X112440952Y-67035238D01*
X112126666Y-67035238D01*
X113802857Y-67035238D02*
X113802857Y-65568571D01*
X113802857Y-65987619D02*
X113907619Y-65778095D01*
X114012380Y-65673333D01*
X114221904Y-65568571D01*
X114431428Y-65568571D01*
X116107619Y-65568571D02*
X116107619Y-67349523D01*
X116002857Y-67559047D01*
X115898095Y-67663809D01*
X115688571Y-67768571D01*
X115374285Y-67768571D01*
X115164761Y-67663809D01*
X116107619Y-66930476D02*
X115898095Y-67035238D01*
X115479047Y-67035238D01*
X115269523Y-66930476D01*
X115164761Y-66825714D01*
X115059999Y-66616190D01*
X115059999Y-65987619D01*
X115164761Y-65778095D01*
X115269523Y-65673333D01*
X115479047Y-65568571D01*
X115898095Y-65568571D01*
X116107619Y-65673333D01*
X118726666Y-64730476D02*
X116840952Y-67559047D01*
X120402857Y-66930476D02*
X120193333Y-67035238D01*
X119774285Y-67035238D01*
X119564761Y-66930476D01*
X119459999Y-66825714D01*
X119355238Y-66616190D01*
X119355238Y-65987619D01*
X119459999Y-65778095D01*
X119564761Y-65673333D01*
X119774285Y-65568571D01*
X120193333Y-65568571D01*
X120402857Y-65673333D01*
X121659999Y-67035238D02*
X121450476Y-66930476D01*
X121345714Y-66825714D01*
X121240952Y-66616190D01*
X121240952Y-65987619D01*
X121345714Y-65778095D01*
X121450476Y-65673333D01*
X121659999Y-65568571D01*
X121974285Y-65568571D01*
X122183809Y-65673333D01*
X122288571Y-65778095D01*
X122393333Y-65987619D01*
X122393333Y-66616190D01*
X122288571Y-66825714D01*
X122183809Y-66930476D01*
X121974285Y-67035238D01*
X121659999Y-67035238D01*
X123231428Y-65044761D02*
X123336190Y-64940000D01*
X123545714Y-64835238D01*
X124069523Y-64835238D01*
X124279047Y-64940000D01*
X124383809Y-65044761D01*
X124488571Y-65254285D01*
X124488571Y-65463809D01*
X124383809Y-65778095D01*
X123126666Y-67035238D01*
X124488571Y-67035238D01*
X125431428Y-66197142D02*
X127107619Y-66197142D01*
X127840952Y-65568571D02*
X128679047Y-65568571D01*
X128155238Y-64835238D02*
X128155238Y-66720952D01*
X128259999Y-66930476D01*
X128469523Y-67035238D01*
X128679047Y-67035238D01*
X129412380Y-67035238D02*
X129412380Y-64835238D01*
X130355238Y-67035238D02*
X130355238Y-65882857D01*
X130250476Y-65673333D01*
X130040952Y-65568571D01*
X129726666Y-65568571D01*
X129517142Y-65673333D01*
X129412380Y-65778095D01*
X131402857Y-65568571D02*
X131402857Y-67768571D01*
X131402857Y-65673333D02*
X131612380Y-65568571D01*
X132031428Y-65568571D01*
X132240952Y-65673333D01*
X132345714Y-65778095D01*
X132450476Y-65987619D01*
X132450476Y-66616190D01*
X132345714Y-66825714D01*
X132240952Y-66930476D01*
X132031428Y-67035238D01*
X131612380Y-67035238D01*
X131402857Y-66930476D01*
D12*
%TO.C,G\u002A\u002A\u002A*%
G36*
X146074827Y-131252370D02*
G01*
X146135772Y-131284251D01*
X146325537Y-131437514D01*
X146393266Y-131688325D01*
X146363106Y-132138786D01*
X146354375Y-132208618D01*
X146325043Y-132827552D01*
X146360803Y-133537828D01*
X146400876Y-133856202D01*
X146484857Y-134563055D01*
X146461012Y-134981891D01*
X146328229Y-135127989D01*
X146308287Y-135128150D01*
X146122915Y-135051743D01*
X145743056Y-134858141D01*
X145280578Y-134605682D01*
X144797009Y-134314464D01*
X144438194Y-134060874D01*
X144288996Y-133909704D01*
X144311684Y-133805458D01*
X144673898Y-133805458D01*
X144802312Y-133937787D01*
X145122868Y-134152335D01*
X145538536Y-134390771D01*
X145952286Y-134594764D01*
X146065729Y-134642180D01*
X146072266Y-134497594D01*
X146069147Y-134100696D01*
X146057247Y-133520523D01*
X146046426Y-133119032D01*
X146008204Y-132259817D01*
X145952494Y-131719198D01*
X145878616Y-131494689D01*
X145785893Y-131583808D01*
X145702324Y-131860082D01*
X145542841Y-132271505D01*
X145270145Y-132777307D01*
X145131842Y-132993142D01*
X144868232Y-133405724D01*
X144702699Y-133714341D01*
X144673898Y-133805458D01*
X144311684Y-133805458D01*
X144336784Y-133690137D01*
X144534325Y-133310696D01*
X144750350Y-132981081D01*
X145072655Y-132453929D01*
X145313555Y-131926311D01*
X145387508Y-131673845D01*
X145511683Y-131260444D01*
X145717557Y-131132048D01*
X146074827Y-131252370D01*
G37*
X146074827Y-131252370D02*
X146135772Y-131284251D01*
X146325537Y-131437514D01*
X146393266Y-131688325D01*
X146363106Y-132138786D01*
X146354375Y-132208618D01*
X146325043Y-132827552D01*
X146360803Y-133537828D01*
X146400876Y-133856202D01*
X146484857Y-134563055D01*
X146461012Y-134981891D01*
X146328229Y-135127989D01*
X146308287Y-135128150D01*
X146122915Y-135051743D01*
X145743056Y-134858141D01*
X145280578Y-134605682D01*
X144797009Y-134314464D01*
X144438194Y-134060874D01*
X144288996Y-133909704D01*
X144311684Y-133805458D01*
X144673898Y-133805458D01*
X144802312Y-133937787D01*
X145122868Y-134152335D01*
X145538536Y-134390771D01*
X145952286Y-134594764D01*
X146065729Y-134642180D01*
X146072266Y-134497594D01*
X146069147Y-134100696D01*
X146057247Y-133520523D01*
X146046426Y-133119032D01*
X146008204Y-132259817D01*
X145952494Y-131719198D01*
X145878616Y-131494689D01*
X145785893Y-131583808D01*
X145702324Y-131860082D01*
X145542841Y-132271505D01*
X145270145Y-132777307D01*
X145131842Y-132993142D01*
X144868232Y-133405724D01*
X144702699Y-133714341D01*
X144673898Y-133805458D01*
X144311684Y-133805458D01*
X144336784Y-133690137D01*
X144534325Y-133310696D01*
X144750350Y-132981081D01*
X145072655Y-132453929D01*
X145313555Y-131926311D01*
X145387508Y-131673845D01*
X145511683Y-131260444D01*
X145717557Y-131132048D01*
X146074827Y-131252370D01*
G36*
X131919716Y-132788876D02*
G01*
X132096130Y-133074431D01*
X132206937Y-133517732D01*
X132151689Y-133930088D01*
X131963976Y-134218532D01*
X131677386Y-134290098D01*
X131658513Y-134285657D01*
X131412228Y-134300617D01*
X131305211Y-134563551D01*
X131299669Y-134604599D01*
X131224368Y-134859030D01*
X131129911Y-134881921D01*
X131067061Y-134667733D01*
X131023444Y-134231888D01*
X131009341Y-133741182D01*
X131014450Y-133471427D01*
X131418868Y-133471427D01*
X131452121Y-133647405D01*
X131601465Y-133842751D01*
X131746318Y-133765041D01*
X131813105Y-133455228D01*
X131813139Y-133446456D01*
X131762666Y-133144270D01*
X131665776Y-133044557D01*
X131484268Y-133176795D01*
X131418868Y-133471427D01*
X131014450Y-133471427D01*
X131019886Y-133184501D01*
X131066646Y-132877204D01*
X131172312Y-132747438D01*
X131330860Y-132723038D01*
X131655078Y-132706793D01*
X131772949Y-132687368D01*
X131919716Y-132788876D01*
G37*
X131919716Y-132788876D02*
X132096130Y-133074431D01*
X132206937Y-133517732D01*
X132151689Y-133930088D01*
X131963976Y-134218532D01*
X131677386Y-134290098D01*
X131658513Y-134285657D01*
X131412228Y-134300617D01*
X131305211Y-134563551D01*
X131299669Y-134604599D01*
X131224368Y-134859030D01*
X131129911Y-134881921D01*
X131067061Y-134667733D01*
X131023444Y-134231888D01*
X131009341Y-133741182D01*
X131014450Y-133471427D01*
X131418868Y-133471427D01*
X131452121Y-133647405D01*
X131601465Y-133842751D01*
X131746318Y-133765041D01*
X131813105Y-133455228D01*
X131813139Y-133446456D01*
X131762666Y-133144270D01*
X131665776Y-133044557D01*
X131484268Y-133176795D01*
X131418868Y-133471427D01*
X131014450Y-133471427D01*
X131019886Y-133184501D01*
X131066646Y-132877204D01*
X131172312Y-132747438D01*
X131330860Y-132723038D01*
X131655078Y-132706793D01*
X131772949Y-132687368D01*
X131919716Y-132788876D01*
G36*
X130446375Y-132769248D02*
G01*
X130565845Y-132891771D01*
X130818051Y-133346915D01*
X130782107Y-133799664D01*
X130682166Y-134019683D01*
X130399531Y-134286494D01*
X130053749Y-134290772D01*
X129754166Y-134041319D01*
X129699416Y-133940589D01*
X129584443Y-133465249D01*
X129587436Y-133446456D01*
X130044784Y-133446456D01*
X130099814Y-133748573D01*
X130205544Y-133848355D01*
X130326391Y-133710780D01*
X130366303Y-133446456D01*
X130311274Y-133144339D01*
X130205544Y-133044557D01*
X130084697Y-133182132D01*
X130044784Y-133446456D01*
X129587436Y-133446456D01*
X129650360Y-133051485D01*
X129848458Y-132758257D01*
X130130032Y-132644525D01*
X130446375Y-132769248D01*
G37*
X130446375Y-132769248D02*
X130565845Y-132891771D01*
X130818051Y-133346915D01*
X130782107Y-133799664D01*
X130682166Y-134019683D01*
X130399531Y-134286494D01*
X130053749Y-134290772D01*
X129754166Y-134041319D01*
X129699416Y-133940589D01*
X129584443Y-133465249D01*
X129587436Y-133446456D01*
X130044784Y-133446456D01*
X130099814Y-133748573D01*
X130205544Y-133848355D01*
X130326391Y-133710780D01*
X130366303Y-133446456D01*
X130311274Y-133144339D01*
X130205544Y-133044557D01*
X130084697Y-133182132D01*
X130044784Y-133446456D01*
X129587436Y-133446456D01*
X129650360Y-133051485D01*
X129848458Y-132758257D01*
X130130032Y-132644525D01*
X130446375Y-132769248D01*
G36*
X133209316Y-132693047D02*
G01*
X133450533Y-132994284D01*
X133578496Y-133329388D01*
X133581493Y-133377559D01*
X133483562Y-133620360D01*
X133170107Y-133687595D01*
X132891616Y-133739861D01*
X132862117Y-133854894D01*
X133077751Y-133947113D01*
X133292523Y-133918404D01*
X133533311Y-133892804D01*
X133547731Y-134032434D01*
X133335686Y-134243006D01*
X132991632Y-134291950D01*
X132671977Y-134159733D01*
X132655249Y-134143882D01*
X132487890Y-133810543D01*
X132463056Y-133375831D01*
X132501706Y-133205317D01*
X132777696Y-133205317D01*
X132900030Y-133361405D01*
X132938455Y-133366076D01*
X133094543Y-133243742D01*
X133099215Y-133205317D01*
X132976881Y-133049229D01*
X132938455Y-133044557D01*
X132782367Y-133166891D01*
X132777696Y-133205317D01*
X132501706Y-133205317D01*
X132559455Y-132950552D01*
X132755800Y-132645513D01*
X132959124Y-132562279D01*
X133209316Y-132693047D01*
G37*
X133209316Y-132693047D02*
X133450533Y-132994284D01*
X133578496Y-133329388D01*
X133581493Y-133377559D01*
X133483562Y-133620360D01*
X133170107Y-133687595D01*
X132891616Y-133739861D01*
X132862117Y-133854894D01*
X133077751Y-133947113D01*
X133292523Y-133918404D01*
X133533311Y-133892804D01*
X133547731Y-134032434D01*
X133335686Y-134243006D01*
X132991632Y-134291950D01*
X132671977Y-134159733D01*
X132655249Y-134143882D01*
X132487890Y-133810543D01*
X132463056Y-133375831D01*
X132501706Y-133205317D01*
X132777696Y-133205317D01*
X132900030Y-133361405D01*
X132938455Y-133366076D01*
X133094543Y-133243742D01*
X133099215Y-133205317D01*
X132976881Y-133049229D01*
X132938455Y-133044557D01*
X132782367Y-133166891D01*
X132777696Y-133205317D01*
X132501706Y-133205317D01*
X132559455Y-132950552D01*
X132755800Y-132645513D01*
X132959124Y-132562279D01*
X133209316Y-132693047D01*
G36*
X134746084Y-132666931D02*
G01*
X134825577Y-132859076D01*
X134862499Y-133233568D01*
X134859552Y-133676016D01*
X134819436Y-134072026D01*
X134744851Y-134307207D01*
X134706810Y-134330633D01*
X134606142Y-134188015D01*
X134550150Y-133831738D01*
X134546050Y-133687595D01*
X134510396Y-133284923D01*
X134421327Y-133060955D01*
X134385291Y-133044557D01*
X134284623Y-133187175D01*
X134228631Y-133543452D01*
X134224531Y-133687595D01*
X134179116Y-134162371D01*
X134043676Y-134331084D01*
X133849426Y-134223460D01*
X133782758Y-134008703D01*
X133745256Y-133600583D01*
X133742253Y-133438404D01*
X133764924Y-133003105D01*
X133872048Y-132786930D01*
X134122293Y-132688520D01*
X134183426Y-132676185D01*
X134547917Y-132638498D01*
X134746084Y-132666931D01*
G37*
X134746084Y-132666931D02*
X134825577Y-132859076D01*
X134862499Y-133233568D01*
X134859552Y-133676016D01*
X134819436Y-134072026D01*
X134744851Y-134307207D01*
X134706810Y-134330633D01*
X134606142Y-134188015D01*
X134550150Y-133831738D01*
X134546050Y-133687595D01*
X134510396Y-133284923D01*
X134421327Y-133060955D01*
X134385291Y-133044557D01*
X134284623Y-133187175D01*
X134228631Y-133543452D01*
X134224531Y-133687595D01*
X134179116Y-134162371D01*
X134043676Y-134331084D01*
X133849426Y-134223460D01*
X133782758Y-134008703D01*
X133745256Y-133600583D01*
X133742253Y-133438404D01*
X133764924Y-133003105D01*
X133872048Y-132786930D01*
X134122293Y-132688520D01*
X134183426Y-132676185D01*
X134547917Y-132638498D01*
X134746084Y-132666931D01*
G36*
X136731178Y-132788531D02*
G01*
X136756493Y-132843608D01*
X136678962Y-133006318D01*
X136448371Y-133055438D01*
X136073265Y-133066318D01*
X136442939Y-133244317D01*
X136709291Y-133503228D01*
X136778933Y-133846188D01*
X136658151Y-134152388D01*
X136388169Y-134297225D01*
X136068731Y-134286470D01*
X135946080Y-134230242D01*
X135829991Y-134001549D01*
X135977125Y-133900301D01*
X136153645Y-133928735D01*
X136424061Y-133967930D01*
X136432844Y-133844634D01*
X136182112Y-133580236D01*
X136113455Y-133522486D01*
X135872129Y-133263221D01*
X135880267Y-133026201D01*
X135930027Y-132934059D01*
X136190557Y-132705729D01*
X136502314Y-132652326D01*
X136731178Y-132788531D01*
G37*
X136731178Y-132788531D02*
X136756493Y-132843608D01*
X136678962Y-133006318D01*
X136448371Y-133055438D01*
X136073265Y-133066318D01*
X136442939Y-133244317D01*
X136709291Y-133503228D01*
X136778933Y-133846188D01*
X136658151Y-134152388D01*
X136388169Y-134297225D01*
X136068731Y-134286470D01*
X135946080Y-134230242D01*
X135829991Y-134001549D01*
X135977125Y-133900301D01*
X136153645Y-133928735D01*
X136424061Y-133967930D01*
X136432844Y-133844634D01*
X136182112Y-133580236D01*
X136113455Y-133522486D01*
X135872129Y-133263221D01*
X135880267Y-133026201D01*
X135930027Y-132934059D01*
X136190557Y-132705729D01*
X136502314Y-132652326D01*
X136731178Y-132788531D01*
G36*
X137918721Y-132696401D02*
G01*
X138079835Y-132869476D01*
X138082759Y-132900997D01*
X137947964Y-133017686D01*
X137761240Y-133044557D01*
X137509117Y-133138751D01*
X137439721Y-133446456D01*
X137512923Y-133759359D01*
X137772350Y-133848352D01*
X137774637Y-133848355D01*
X138019645Y-133925156D01*
X138042644Y-134049304D01*
X137833955Y-134264098D01*
X137515514Y-134266855D01*
X137315806Y-134142414D01*
X137160897Y-133810570D01*
X137127401Y-133353579D01*
X137212701Y-132929799D01*
X137338965Y-132739949D01*
X137620752Y-132642180D01*
X137918721Y-132696401D01*
G37*
X137918721Y-132696401D02*
X138079835Y-132869476D01*
X138082759Y-132900997D01*
X137947964Y-133017686D01*
X137761240Y-133044557D01*
X137509117Y-133138751D01*
X137439721Y-133446456D01*
X137512923Y-133759359D01*
X137772350Y-133848352D01*
X137774637Y-133848355D01*
X138019645Y-133925156D01*
X138042644Y-134049304D01*
X137833955Y-134264098D01*
X137515514Y-134266855D01*
X137315806Y-134142414D01*
X137160897Y-133810570D01*
X137127401Y-133353579D01*
X137212701Y-132929799D01*
X137338965Y-132739949D01*
X137620752Y-132642180D01*
X137918721Y-132696401D01*
G36*
X138644543Y-132818898D02*
G01*
X138716656Y-133144013D01*
X138725797Y-133436969D01*
X138682664Y-133964150D01*
X138564461Y-134248351D01*
X138387977Y-134254964D01*
X138346321Y-134219090D01*
X138283150Y-134007904D01*
X138246901Y-133600011D01*
X138243519Y-133419663D01*
X138277487Y-132952625D01*
X138392127Y-132745970D01*
X138484658Y-132723038D01*
X138644543Y-132818898D01*
G37*
X138644543Y-132818898D02*
X138716656Y-133144013D01*
X138725797Y-133436969D01*
X138682664Y-133964150D01*
X138564461Y-134248351D01*
X138387977Y-134254964D01*
X138346321Y-134219090D01*
X138283150Y-134007904D01*
X138246901Y-133600011D01*
X138243519Y-133419663D01*
X138277487Y-132952625D01*
X138392127Y-132745970D01*
X138484658Y-132723038D01*
X138644543Y-132818898D01*
G36*
X139714404Y-132692821D02*
G01*
X139786632Y-132757321D01*
X140016589Y-133124303D01*
X140018428Y-133449680D01*
X139797965Y-133643785D01*
X139728160Y-133658899D01*
X139481014Y-133749384D01*
X139451979Y-133852827D01*
X139653882Y-133926552D01*
X139797818Y-133896097D01*
X139986654Y-133888992D01*
X139981027Y-134023687D01*
X139769467Y-134265454D01*
X139448653Y-134294583D01*
X139141925Y-134120412D01*
X139028468Y-133951566D01*
X138924656Y-133503707D01*
X138967614Y-133205317D01*
X139368835Y-133205317D01*
X139491169Y-133361405D01*
X139529595Y-133366076D01*
X139685683Y-133243742D01*
X139690354Y-133205317D01*
X139568020Y-133049229D01*
X139529595Y-133044557D01*
X139373507Y-133166891D01*
X139368835Y-133205317D01*
X138967614Y-133205317D01*
X138984892Y-133085306D01*
X139165628Y-132764960D01*
X139423314Y-132611266D01*
X139714404Y-132692821D01*
G37*
X139714404Y-132692821D02*
X139786632Y-132757321D01*
X140016589Y-133124303D01*
X140018428Y-133449680D01*
X139797965Y-133643785D01*
X139728160Y-133658899D01*
X139481014Y-133749384D01*
X139451979Y-133852827D01*
X139653882Y-133926552D01*
X139797818Y-133896097D01*
X139986654Y-133888992D01*
X139981027Y-134023687D01*
X139769467Y-134265454D01*
X139448653Y-134294583D01*
X139141925Y-134120412D01*
X139028468Y-133951566D01*
X138924656Y-133503707D01*
X138967614Y-133205317D01*
X139368835Y-133205317D01*
X139491169Y-133361405D01*
X139529595Y-133366076D01*
X139685683Y-133243742D01*
X139690354Y-133205317D01*
X139568020Y-133049229D01*
X139529595Y-133044557D01*
X139373507Y-133166891D01*
X139368835Y-133205317D01*
X138967614Y-133205317D01*
X138984892Y-133085306D01*
X139165628Y-132764960D01*
X139423314Y-132611266D01*
X139714404Y-132692821D01*
G36*
X141093392Y-132689214D02*
G01*
X141289672Y-132779065D01*
X141393343Y-133021256D01*
X141446975Y-133413515D01*
X141449949Y-133839823D01*
X141401646Y-134184162D01*
X141301446Y-134330514D01*
X141297949Y-134330633D01*
X141190970Y-134189485D01*
X141138325Y-133843151D01*
X141137190Y-133777463D01*
X141099193Y-133380458D01*
X141006398Y-133145755D01*
X140993275Y-133135348D01*
X140829863Y-133176585D01*
X140706449Y-133462996D01*
X140655020Y-133918335D01*
X140654911Y-133941883D01*
X140598190Y-134237651D01*
X140494152Y-134330633D01*
X140401524Y-134186247D01*
X140343426Y-133817918D01*
X140333392Y-133545577D01*
X140350736Y-133068320D01*
X140430638Y-132820547D01*
X140614899Y-132710894D01*
X140727014Y-132685275D01*
X141093392Y-132689214D01*
G37*
X141093392Y-132689214D02*
X141289672Y-132779065D01*
X141393343Y-133021256D01*
X141446975Y-133413515D01*
X141449949Y-133839823D01*
X141401646Y-134184162D01*
X141301446Y-134330514D01*
X141297949Y-134330633D01*
X141190970Y-134189485D01*
X141138325Y-133843151D01*
X141137190Y-133777463D01*
X141099193Y-133380458D01*
X141006398Y-133145755D01*
X140993275Y-133135348D01*
X140829863Y-133176585D01*
X140706449Y-133462996D01*
X140655020Y-133918335D01*
X140654911Y-133941883D01*
X140598190Y-134237651D01*
X140494152Y-134330633D01*
X140401524Y-134186247D01*
X140343426Y-133817918D01*
X140333392Y-133545577D01*
X140350736Y-133068320D01*
X140430638Y-132820547D01*
X140614899Y-132710894D01*
X140727014Y-132685275D01*
X141093392Y-132689214D01*
G36*
X142475104Y-132653951D02*
G01*
X142719068Y-132827740D01*
X142676253Y-132987734D01*
X142423265Y-133044557D01*
X142171142Y-133138751D01*
X142101746Y-133446456D01*
X142174948Y-133759359D01*
X142434376Y-133848352D01*
X142436662Y-133848355D01*
X142681670Y-133925156D01*
X142704670Y-134049304D01*
X142491945Y-134260466D01*
X142146053Y-134269482D01*
X141954384Y-134183816D01*
X141781075Y-133907754D01*
X141735016Y-133480301D01*
X141815009Y-133044808D01*
X141966032Y-132789856D01*
X142281124Y-132636443D01*
X142475104Y-132653951D01*
G37*
X142475104Y-132653951D02*
X142719068Y-132827740D01*
X142676253Y-132987734D01*
X142423265Y-133044557D01*
X142171142Y-133138751D01*
X142101746Y-133446456D01*
X142174948Y-133759359D01*
X142434376Y-133848352D01*
X142436662Y-133848355D01*
X142681670Y-133925156D01*
X142704670Y-134049304D01*
X142491945Y-134260466D01*
X142146053Y-134269482D01*
X141954384Y-134183816D01*
X141781075Y-133907754D01*
X141735016Y-133480301D01*
X141815009Y-133044808D01*
X141966032Y-132789856D01*
X142281124Y-132636443D01*
X142475104Y-132653951D01*
G36*
X143892274Y-132875997D02*
G01*
X144030264Y-133263111D01*
X144030860Y-133293685D01*
X143964578Y-133591744D01*
X143703655Y-133685511D01*
X143619474Y-133687595D01*
X143340983Y-133739861D01*
X143311484Y-133854894D01*
X143527118Y-133947113D01*
X143741890Y-133918404D01*
X143982678Y-133892804D01*
X143997098Y-134032434D01*
X143785053Y-134243006D01*
X143440999Y-134291950D01*
X143121345Y-134159733D01*
X143104616Y-134143882D01*
X142938024Y-133804171D01*
X142910260Y-133358562D01*
X142969975Y-133120173D01*
X143294567Y-133120173D01*
X143307443Y-133205317D01*
X143444949Y-133358511D01*
X143468202Y-133366076D01*
X143596013Y-133253953D01*
X143628962Y-133205317D01*
X143590787Y-133069122D01*
X143468202Y-133044557D01*
X143294567Y-133120173D01*
X142969975Y-133120173D01*
X143012483Y-132950483D01*
X143191024Y-132742326D01*
X143579848Y-132680947D01*
X143892274Y-132875997D01*
G37*
X143892274Y-132875997D02*
X144030264Y-133263111D01*
X144030860Y-133293685D01*
X143964578Y-133591744D01*
X143703655Y-133685511D01*
X143619474Y-133687595D01*
X143340983Y-133739861D01*
X143311484Y-133854894D01*
X143527118Y-133947113D01*
X143741890Y-133918404D01*
X143982678Y-133892804D01*
X143997098Y-134032434D01*
X143785053Y-134243006D01*
X143440999Y-134291950D01*
X143121345Y-134159733D01*
X143104616Y-134143882D01*
X142938024Y-133804171D01*
X142910260Y-133358562D01*
X142969975Y-133120173D01*
X143294567Y-133120173D01*
X143307443Y-133205317D01*
X143444949Y-133358511D01*
X143468202Y-133366076D01*
X143596013Y-133253953D01*
X143628962Y-133205317D01*
X143590787Y-133069122D01*
X143468202Y-133044557D01*
X143294567Y-133120173D01*
X142969975Y-133120173D01*
X143012483Y-132950483D01*
X143191024Y-132742326D01*
X143579848Y-132680947D01*
X143892274Y-132875997D01*
G36*
X129602696Y-130526581D02*
G01*
X129946600Y-130573391D01*
X130106413Y-130732822D01*
X130170308Y-131103395D01*
X130175727Y-131166852D01*
X130148821Y-131705051D01*
X129987369Y-132053274D01*
X129722178Y-132156833D01*
X129631132Y-132133625D01*
X129443294Y-132172032D01*
X129401746Y-132384320D01*
X129337501Y-132654748D01*
X129240987Y-132723038D01*
X129158259Y-132574521D01*
X129101184Y-132177219D01*
X129080227Y-131611708D01*
X129080227Y-131237622D01*
X129401746Y-131237622D01*
X129436434Y-131611458D01*
X129512269Y-131815417D01*
X129733021Y-131892191D01*
X129902298Y-131705746D01*
X129964405Y-131345388D01*
X129879364Y-130953249D01*
X129683076Y-130824528D01*
X129476716Y-130861904D01*
X129404219Y-131129028D01*
X129401746Y-131237622D01*
X129080227Y-131237622D01*
X129080227Y-130500377D01*
X129602696Y-130526581D01*
G37*
X129602696Y-130526581D02*
X129946600Y-130573391D01*
X130106413Y-130732822D01*
X130170308Y-131103395D01*
X130175727Y-131166852D01*
X130148821Y-131705051D01*
X129987369Y-132053274D01*
X129722178Y-132156833D01*
X129631132Y-132133625D01*
X129443294Y-132172032D01*
X129401746Y-132384320D01*
X129337501Y-132654748D01*
X129240987Y-132723038D01*
X129158259Y-132574521D01*
X129101184Y-132177219D01*
X129080227Y-131611708D01*
X129080227Y-131237622D01*
X129401746Y-131237622D01*
X129436434Y-131611458D01*
X129512269Y-131815417D01*
X129733021Y-131892191D01*
X129902298Y-131705746D01*
X129964405Y-131345388D01*
X129879364Y-130953249D01*
X129683076Y-130824528D01*
X129476716Y-130861904D01*
X129404219Y-131129028D01*
X129401746Y-131237622D01*
X129080227Y-131237622D01*
X129080227Y-130500377D01*
X129602696Y-130526581D01*
G36*
X145268773Y-130496692D02*
G01*
X145291996Y-130609938D01*
X145227288Y-130872719D01*
X145063318Y-131345612D01*
X144945671Y-131665978D01*
X144725378Y-132176299D01*
X144504380Y-132551503D01*
X144352379Y-132696868D01*
X144196920Y-132722785D01*
X144267800Y-132587604D01*
X144336107Y-132502941D01*
X144451572Y-132207626D01*
X144416160Y-131748731D01*
X144223493Y-131080829D01*
X144082574Y-130696812D01*
X144092674Y-130500470D01*
X144161647Y-130472405D01*
X144307766Y-130611138D01*
X144430770Y-130945754D01*
X144432759Y-130954684D01*
X144545683Y-131292066D01*
X144671150Y-131436865D01*
X144673898Y-131436962D01*
X144798901Y-131298490D01*
X144912874Y-130964409D01*
X144915038Y-130954684D01*
X145031690Y-130617186D01*
X145166053Y-130472496D01*
X145168950Y-130472405D01*
X145268773Y-130496692D01*
G37*
X145268773Y-130496692D02*
X145291996Y-130609938D01*
X145227288Y-130872719D01*
X145063318Y-131345612D01*
X144945671Y-131665978D01*
X144725378Y-132176299D01*
X144504380Y-132551503D01*
X144352379Y-132696868D01*
X144196920Y-132722785D01*
X144267800Y-132587604D01*
X144336107Y-132502941D01*
X144451572Y-132207626D01*
X144416160Y-131748731D01*
X144223493Y-131080829D01*
X144082574Y-130696812D01*
X144092674Y-130500470D01*
X144161647Y-130472405D01*
X144307766Y-130611138D01*
X144430770Y-130945754D01*
X144432759Y-130954684D01*
X144545683Y-131292066D01*
X144671150Y-131436865D01*
X144673898Y-131436962D01*
X144798901Y-131298490D01*
X144912874Y-130964409D01*
X144915038Y-130954684D01*
X145031690Y-130617186D01*
X145166053Y-130472496D01*
X145168950Y-130472405D01*
X145268773Y-130496692D01*
G36*
X138698592Y-132166806D02*
G01*
X138725797Y-132240760D01*
X138595589Y-132383382D01*
X138484658Y-132401519D01*
X138270724Y-132314714D01*
X138243519Y-132240760D01*
X138373727Y-132098137D01*
X138484658Y-132080000D01*
X138698592Y-132166806D01*
G37*
X138698592Y-132166806D02*
X138725797Y-132240760D01*
X138595589Y-132383382D01*
X138484658Y-132401519D01*
X138270724Y-132314714D01*
X138243519Y-132240760D01*
X138373727Y-132098137D01*
X138484658Y-132080000D01*
X138698592Y-132166806D01*
G36*
X132120411Y-130717886D02*
G01*
X132276841Y-131131509D01*
X132295417Y-131370611D01*
X132201653Y-131836262D01*
X131964169Y-132105091D01*
X131648681Y-132131744D01*
X131413723Y-131979138D01*
X131230044Y-131609343D01*
X131220870Y-131275893D01*
X131428378Y-131275893D01*
X131461856Y-131637912D01*
X131619463Y-131885070D01*
X131843517Y-131874981D01*
X132034781Y-131625940D01*
X132066350Y-131526479D01*
X132090612Y-131076145D01*
X131906123Y-130828588D01*
X131735059Y-130793924D01*
X131522986Y-130931775D01*
X131428378Y-131275893D01*
X131220870Y-131275893D01*
X131217258Y-131144642D01*
X131364271Y-130733584D01*
X131518334Y-130578320D01*
X131849482Y-130515042D01*
X132120411Y-130717886D01*
G37*
X132120411Y-130717886D02*
X132276841Y-131131509D01*
X132295417Y-131370611D01*
X132201653Y-131836262D01*
X131964169Y-132105091D01*
X131648681Y-132131744D01*
X131413723Y-131979138D01*
X131230044Y-131609343D01*
X131220870Y-131275893D01*
X131428378Y-131275893D01*
X131461856Y-131637912D01*
X131619463Y-131885070D01*
X131843517Y-131874981D01*
X132034781Y-131625940D01*
X132066350Y-131526479D01*
X132090612Y-131076145D01*
X131906123Y-130828588D01*
X131735059Y-130793924D01*
X131522986Y-130931775D01*
X131428378Y-131275893D01*
X131220870Y-131275893D01*
X131217258Y-131144642D01*
X131364271Y-130733584D01*
X131518334Y-130578320D01*
X131849482Y-130515042D01*
X132120411Y-130717886D01*
G36*
X136287690Y-130578525D02*
G01*
X136531353Y-130868258D01*
X136606915Y-131091672D01*
X136592441Y-131332300D01*
X136393971Y-131425721D01*
X136145142Y-131436962D01*
X135811070Y-131456863D01*
X135744356Y-131546017D01*
X135841402Y-131689278D01*
X136143780Y-131864452D01*
X136343364Y-131865088D01*
X136584267Y-131857231D01*
X136635924Y-131915542D01*
X136506103Y-132074775D01*
X136210497Y-132127855D01*
X135889887Y-132065529D01*
X135748919Y-131973827D01*
X135545731Y-131620553D01*
X135513759Y-131214893D01*
X135588140Y-130954684D01*
X135751746Y-130954684D01*
X135809406Y-131073199D01*
X136073265Y-131115443D01*
X136352640Y-131065442D01*
X136394784Y-130954684D01*
X136161512Y-130805139D01*
X136073265Y-130793924D01*
X135803610Y-130895844D01*
X135751746Y-130954684D01*
X135588140Y-130954684D01*
X135621006Y-130839709D01*
X135835476Y-130577864D01*
X136125174Y-130512220D01*
X136287690Y-130578525D01*
G37*
X136287690Y-130578525D02*
X136531353Y-130868258D01*
X136606915Y-131091672D01*
X136592441Y-131332300D01*
X136393971Y-131425721D01*
X136145142Y-131436962D01*
X135811070Y-131456863D01*
X135744356Y-131546017D01*
X135841402Y-131689278D01*
X136143780Y-131864452D01*
X136343364Y-131865088D01*
X136584267Y-131857231D01*
X136635924Y-131915542D01*
X136506103Y-132074775D01*
X136210497Y-132127855D01*
X135889887Y-132065529D01*
X135748919Y-131973827D01*
X135545731Y-131620553D01*
X135513759Y-131214893D01*
X135588140Y-130954684D01*
X135751746Y-130954684D01*
X135809406Y-131073199D01*
X136073265Y-131115443D01*
X136352640Y-131065442D01*
X136394784Y-130954684D01*
X136161512Y-130805139D01*
X136073265Y-130793924D01*
X135803610Y-130895844D01*
X135751746Y-130954684D01*
X135588140Y-130954684D01*
X135621006Y-130839709D01*
X135835476Y-130577864D01*
X136125174Y-130512220D01*
X136287690Y-130578525D01*
G36*
X140679308Y-130527962D02*
G01*
X140951922Y-130751134D01*
X140970774Y-130783356D01*
X141095510Y-131177543D01*
X141137190Y-131568412D01*
X141076038Y-131931608D01*
X140841857Y-132094934D01*
X140745683Y-132117360D01*
X140370790Y-132132707D01*
X140168960Y-132077730D01*
X140016956Y-131829110D01*
X140042867Y-131637943D01*
X140211475Y-131637943D01*
X140258257Y-131766967D01*
X140464320Y-131885531D01*
X140685034Y-131765368D01*
X140787268Y-131544210D01*
X140720220Y-131315286D01*
X140595806Y-131276203D01*
X140303639Y-131386571D01*
X140211475Y-131637943D01*
X140042867Y-131637943D01*
X140061515Y-131500365D01*
X140261118Y-131227452D01*
X140453962Y-131144452D01*
X140761008Y-131035332D01*
X140780294Y-130892669D01*
X140523617Y-130799709D01*
X140404284Y-130793924D01*
X140130770Y-130742893D01*
X140092253Y-130633165D01*
X140344112Y-130480324D01*
X140679308Y-130527962D01*
G37*
X140679308Y-130527962D02*
X140951922Y-130751134D01*
X140970774Y-130783356D01*
X141095510Y-131177543D01*
X141137190Y-131568412D01*
X141076038Y-131931608D01*
X140841857Y-132094934D01*
X140745683Y-132117360D01*
X140370790Y-132132707D01*
X140168960Y-132077730D01*
X140016956Y-131829110D01*
X140042867Y-131637943D01*
X140211475Y-131637943D01*
X140258257Y-131766967D01*
X140464320Y-131885531D01*
X140685034Y-131765368D01*
X140787268Y-131544210D01*
X140720220Y-131315286D01*
X140595806Y-131276203D01*
X140303639Y-131386571D01*
X140211475Y-131637943D01*
X140042867Y-131637943D01*
X140061515Y-131500365D01*
X140261118Y-131227452D01*
X140453962Y-131144452D01*
X140761008Y-131035332D01*
X140780294Y-130892669D01*
X140523617Y-130799709D01*
X140404284Y-130793924D01*
X140130770Y-130742893D01*
X140092253Y-130633165D01*
X140344112Y-130480324D01*
X140679308Y-130527962D01*
G36*
X143636752Y-130665377D02*
G01*
X143828378Y-131024128D01*
X143841092Y-131091672D01*
X143824398Y-131336408D01*
X143616974Y-131428062D01*
X143404049Y-131436962D01*
X143069217Y-131473838D01*
X142990488Y-131610488D01*
X143013693Y-131692499D01*
X143238798Y-131880566D01*
X143490926Y-131875551D01*
X143779003Y-131862571D01*
X143870101Y-131922784D01*
X143736307Y-132068635D01*
X143430884Y-132131480D01*
X143097768Y-132089895D01*
X143008757Y-132050991D01*
X142813401Y-131781594D01*
X142748415Y-131358236D01*
X142809646Y-130954684D01*
X142985924Y-130954684D01*
X143035146Y-131081216D01*
X143217575Y-131115443D01*
X143483913Y-131049854D01*
X143548582Y-130954684D01*
X143419061Y-130810495D01*
X143316930Y-130793924D01*
X143043229Y-130891899D01*
X142985924Y-130954684D01*
X142809646Y-130954684D01*
X142814717Y-130921265D01*
X142999399Y-130621981D01*
X143328780Y-130513669D01*
X143636752Y-130665377D01*
G37*
X143636752Y-130665377D02*
X143828378Y-131024128D01*
X143841092Y-131091672D01*
X143824398Y-131336408D01*
X143616974Y-131428062D01*
X143404049Y-131436962D01*
X143069217Y-131473838D01*
X142990488Y-131610488D01*
X143013693Y-131692499D01*
X143238798Y-131880566D01*
X143490926Y-131875551D01*
X143779003Y-131862571D01*
X143870101Y-131922784D01*
X143736307Y-132068635D01*
X143430884Y-132131480D01*
X143097768Y-132089895D01*
X143008757Y-132050991D01*
X142813401Y-131781594D01*
X142748415Y-131358236D01*
X142809646Y-130954684D01*
X142985924Y-130954684D01*
X143035146Y-131081216D01*
X143217575Y-131115443D01*
X143483913Y-131049854D01*
X143548582Y-130954684D01*
X143419061Y-130810495D01*
X143316930Y-130793924D01*
X143043229Y-130891899D01*
X142985924Y-130954684D01*
X142809646Y-130954684D01*
X142814717Y-130921265D01*
X142999399Y-130621981D01*
X143328780Y-130513669D01*
X143636752Y-130665377D01*
G36*
X130786944Y-130632494D02*
G01*
X130841178Y-130990765D01*
X130848582Y-131266715D01*
X130819984Y-131728337D01*
X130746780Y-132023027D01*
X130687822Y-132080000D01*
X130591419Y-131936432D01*
X130534037Y-131573685D01*
X130527063Y-131366070D01*
X130560358Y-130911727D01*
X130644203Y-130606617D01*
X130687822Y-130552785D01*
X130786944Y-130632494D01*
G37*
X130786944Y-130632494D02*
X130841178Y-130990765D01*
X130848582Y-131266715D01*
X130819984Y-131728337D01*
X130746780Y-132023027D01*
X130687822Y-132080000D01*
X130591419Y-131936432D01*
X130534037Y-131573685D01*
X130527063Y-131366070D01*
X130560358Y-130911727D01*
X130644203Y-130606617D01*
X130687822Y-130552785D01*
X130786944Y-130632494D01*
G36*
X133441133Y-130570812D02*
G01*
X133648277Y-130791965D01*
X133721116Y-131236789D01*
X133721143Y-131517342D01*
X133697755Y-131838348D01*
X133657419Y-131904426D01*
X133636966Y-131838861D01*
X133545201Y-131406403D01*
X133491792Y-131155633D01*
X133351462Y-130830824D01*
X133172384Y-130781236D01*
X133014861Y-130976210D01*
X132939198Y-131385085D01*
X132938455Y-131436962D01*
X132902801Y-131839634D01*
X132813732Y-132063603D01*
X132777696Y-132080000D01*
X132685001Y-131935629D01*
X132626911Y-131567398D01*
X132616936Y-131296298D01*
X132629417Y-130827619D01*
X132698342Y-130596502D01*
X132870935Y-130519124D01*
X133059025Y-130511568D01*
X133441133Y-130570812D01*
G37*
X133441133Y-130570812D02*
X133648277Y-130791965D01*
X133721116Y-131236789D01*
X133721143Y-131517342D01*
X133697755Y-131838348D01*
X133657419Y-131904426D01*
X133636966Y-131838861D01*
X133545201Y-131406403D01*
X133491792Y-131155633D01*
X133351462Y-130830824D01*
X133172384Y-130781236D01*
X133014861Y-130976210D01*
X132939198Y-131385085D01*
X132938455Y-131436962D01*
X132902801Y-131839634D01*
X132813732Y-132063603D01*
X132777696Y-132080000D01*
X132685001Y-131935629D01*
X132626911Y-131567398D01*
X132616936Y-131296298D01*
X132629417Y-130827619D01*
X132698342Y-130596502D01*
X132870935Y-130519124D01*
X133059025Y-130511568D01*
X133441133Y-130570812D01*
G36*
X135077300Y-130661730D02*
G01*
X135189088Y-131030018D01*
X135126616Y-131336079D01*
X134875250Y-131433991D01*
X134773793Y-131436962D01*
X134470635Y-131499862D01*
X134428354Y-131637912D01*
X134624645Y-131794100D01*
X134843650Y-131826097D01*
X135117395Y-131868230D01*
X135189088Y-131946666D01*
X135049352Y-132040545D01*
X134713011Y-132079998D01*
X134709873Y-132080000D01*
X134335233Y-132014363D01*
X134155306Y-131768642D01*
X134132978Y-131690817D01*
X134086799Y-131089256D01*
X134152720Y-130954684D01*
X134385291Y-130954684D01*
X134520340Y-131084036D01*
X134716297Y-131115443D01*
X134938582Y-131053558D01*
X134947949Y-130954684D01*
X134715350Y-130806765D01*
X134616942Y-130793924D01*
X134409169Y-130883808D01*
X134385291Y-130954684D01*
X134152720Y-130954684D01*
X134290725Y-130672962D01*
X134403630Y-130584621D01*
X134784064Y-130489239D01*
X135077300Y-130661730D01*
G37*
X135077300Y-130661730D02*
X135189088Y-131030018D01*
X135126616Y-131336079D01*
X134875250Y-131433991D01*
X134773793Y-131436962D01*
X134470635Y-131499862D01*
X134428354Y-131637912D01*
X134624645Y-131794100D01*
X134843650Y-131826097D01*
X135117395Y-131868230D01*
X135189088Y-131946666D01*
X135049352Y-132040545D01*
X134713011Y-132079998D01*
X134709873Y-132080000D01*
X134335233Y-132014363D01*
X134155306Y-131768642D01*
X134132978Y-131690817D01*
X134086799Y-131089256D01*
X134152720Y-130954684D01*
X134385291Y-130954684D01*
X134520340Y-131084036D01*
X134716297Y-131115443D01*
X134938582Y-131053558D01*
X134947949Y-130954684D01*
X134715350Y-130806765D01*
X134616942Y-130793924D01*
X134409169Y-130883808D01*
X134385291Y-130954684D01*
X134152720Y-130954684D01*
X134290725Y-130672962D01*
X134403630Y-130584621D01*
X134784064Y-130489239D01*
X135077300Y-130661730D01*
G36*
X137661458Y-130527435D02*
G01*
X137761240Y-130633165D01*
X137631032Y-130775787D01*
X137520101Y-130793924D01*
X137352429Y-130900107D01*
X137283338Y-131252094D01*
X137278962Y-131436962D01*
X137243307Y-131839634D01*
X137154238Y-132063603D01*
X137118202Y-132080000D01*
X137026498Y-131935418D01*
X136968291Y-131565743D01*
X136957443Y-131276203D01*
X136970473Y-130799157D01*
X137036972Y-130561170D01*
X137198050Y-130480020D01*
X137359341Y-130472405D01*
X137661458Y-130527435D01*
G37*
X137661458Y-130527435D02*
X137761240Y-130633165D01*
X137631032Y-130775787D01*
X137520101Y-130793924D01*
X137352429Y-130900107D01*
X137283338Y-131252094D01*
X137278962Y-131436962D01*
X137243307Y-131839634D01*
X137154238Y-132063603D01*
X137118202Y-132080000D01*
X137026498Y-131935418D01*
X136968291Y-131565743D01*
X136957443Y-131276203D01*
X136970473Y-130799157D01*
X137036972Y-130561170D01*
X137198050Y-130480020D01*
X137359341Y-130472405D01*
X137661458Y-130527435D01*
G36*
X139633274Y-130522498D02*
G01*
X139657985Y-130726695D01*
X139593588Y-131100600D01*
X139473764Y-131527660D01*
X139332192Y-131891323D01*
X139202552Y-132075037D01*
X139183204Y-132080000D01*
X139026834Y-131947171D01*
X138883861Y-131671012D01*
X138684691Y-131085219D01*
X138597608Y-130686279D01*
X138629953Y-130517377D01*
X138689983Y-130530651D01*
X138844551Y-130751708D01*
X138967649Y-131118690D01*
X139090137Y-131456865D01*
X139227987Y-131481990D01*
X139364243Y-131200904D01*
X139429567Y-130932352D01*
X139524877Y-130615012D01*
X139622751Y-130514969D01*
X139633274Y-130522498D01*
G37*
X139633274Y-130522498D02*
X139657985Y-130726695D01*
X139593588Y-131100600D01*
X139473764Y-131527660D01*
X139332192Y-131891323D01*
X139202552Y-132075037D01*
X139183204Y-132080000D01*
X139026834Y-131947171D01*
X138883861Y-131671012D01*
X138684691Y-131085219D01*
X138597608Y-130686279D01*
X138629953Y-130517377D01*
X138689983Y-130530651D01*
X138844551Y-130751708D01*
X138967649Y-131118690D01*
X139090137Y-131456865D01*
X139227987Y-131481990D01*
X139364243Y-131200904D01*
X139429567Y-130932352D01*
X139524877Y-130615012D01*
X139622751Y-130514969D01*
X139633274Y-130522498D01*
G36*
X141702440Y-130110602D02*
G01*
X141760498Y-130536869D01*
X141780227Y-131044551D01*
X141757326Y-131586842D01*
X141696752Y-131957704D01*
X141619468Y-132080000D01*
X141537179Y-131931196D01*
X141480258Y-131531871D01*
X141458712Y-130952654D01*
X141458708Y-130945196D01*
X141479338Y-130326413D01*
X141538339Y-129975045D01*
X141619468Y-129909747D01*
X141702440Y-130110602D01*
G37*
X141702440Y-130110602D02*
X141760498Y-130536869D01*
X141780227Y-131044551D01*
X141757326Y-131586842D01*
X141696752Y-131957704D01*
X141619468Y-132080000D01*
X141537179Y-131931196D01*
X141480258Y-131531871D01*
X141458712Y-130952654D01*
X141458708Y-130945196D01*
X141479338Y-130326413D01*
X141538339Y-129975045D01*
X141619468Y-129909747D01*
X141702440Y-130110602D01*
G36*
X142345478Y-130110602D02*
G01*
X142403536Y-130536869D01*
X142423265Y-131044551D01*
X142400364Y-131586842D01*
X142339790Y-131957704D01*
X142262506Y-132080000D01*
X142180217Y-131931196D01*
X142123296Y-131531871D01*
X142101750Y-130952654D01*
X142101746Y-130945196D01*
X142122376Y-130326413D01*
X142181377Y-129975045D01*
X142262506Y-129909747D01*
X142345478Y-130110602D01*
G37*
X142345478Y-130110602D02*
X142403536Y-130536869D01*
X142423265Y-131044551D01*
X142400364Y-131586842D01*
X142339790Y-131957704D01*
X142262506Y-132080000D01*
X142180217Y-131931196D01*
X142123296Y-131531871D01*
X142101750Y-130952654D01*
X142101746Y-130945196D01*
X142122376Y-130326413D01*
X142181377Y-129975045D01*
X142262506Y-129909747D01*
X142345478Y-130110602D01*
G36*
X146437651Y-130748546D02*
G01*
X146442253Y-130784437D01*
X146325397Y-131002159D01*
X146281493Y-131035064D01*
X146143867Y-130998620D01*
X146120734Y-130883792D01*
X146204666Y-130663838D01*
X146281493Y-130633165D01*
X146437651Y-130748546D01*
G37*
X146437651Y-130748546D02*
X146442253Y-130784437D01*
X146325397Y-131002159D01*
X146281493Y-131035064D01*
X146143867Y-130998620D01*
X146120734Y-130883792D01*
X146204666Y-130663838D01*
X146281493Y-130633165D01*
X146437651Y-130748546D01*
G36*
X146217190Y-129732912D02*
G01*
X146224034Y-130054303D01*
X146147350Y-130188574D01*
X145972126Y-130255229D01*
X145863519Y-130086583D01*
X145856674Y-129765192D01*
X145933358Y-129630920D01*
X146108582Y-129564265D01*
X146217190Y-129732912D01*
G37*
X146217190Y-129732912D02*
X146224034Y-130054303D01*
X146147350Y-130188574D01*
X145972126Y-130255229D01*
X145863519Y-130086583D01*
X145856674Y-129765192D01*
X145933358Y-129630920D01*
X146108582Y-129564265D01*
X146217190Y-129732912D01*
G36*
X130846739Y-129953746D02*
G01*
X130848582Y-129990127D01*
X130724998Y-130144709D01*
X130678335Y-130150886D01*
X130582324Y-130052399D01*
X130607443Y-129990127D01*
X130751902Y-129836765D01*
X130777690Y-129829367D01*
X130846739Y-129953746D01*
G37*
X130846739Y-129953746D02*
X130848582Y-129990127D01*
X130724998Y-130144709D01*
X130678335Y-130150886D01*
X130582324Y-130052399D01*
X130607443Y-129990127D01*
X130751902Y-129836765D01*
X130777690Y-129829367D01*
X130846739Y-129953746D01*
G36*
X146823768Y-129233122D02*
G01*
X146965091Y-129421355D01*
X147004911Y-129668608D01*
X146928710Y-129989633D01*
X146758462Y-130112351D01*
X146581696Y-129989319D01*
X146547485Y-129916542D01*
X146511165Y-129585502D01*
X146613837Y-129314456D01*
X146805133Y-129227998D01*
X146823768Y-129233122D01*
G37*
X146823768Y-129233122D02*
X146965091Y-129421355D01*
X147004911Y-129668608D01*
X146928710Y-129989633D01*
X146758462Y-130112351D01*
X146581696Y-129989319D01*
X146547485Y-129916542D01*
X146511165Y-129585502D01*
X146613837Y-129314456D01*
X146805133Y-129227998D01*
X146823768Y-129233122D01*
D10*
%TO.C,J8*%
X71808000Y-69336000D02*
X71808000Y-69836000D01*
X72548000Y-69336000D02*
X71808000Y-69336000D01*
X75685000Y-75909000D02*
X75639000Y-75862000D01*
X77983000Y-78206000D02*
X77947000Y-78171000D01*
X75469000Y-76102000D02*
X75434000Y-76067000D01*
X77777000Y-78411000D02*
X77731000Y-78364000D01*
X81969000Y-79696000D02*
X72048000Y-79696000D01*
X81969000Y-69576000D02*
X72048000Y-69576000D01*
X72048000Y-69576000D02*
X72048000Y-79696000D01*
X81969000Y-69576000D02*
X81969000Y-79696000D01*
X79009000Y-69576000D02*
X79009000Y-79696000D01*
X74108000Y-69576000D02*
X74108000Y-79696000D01*
X72608000Y-69576000D02*
X72608000Y-79696000D01*
X78388000Y-77136000D02*
G75*
G03*
X78388000Y-77136000I-1680000J0D01*
G01*
X75027747Y-72164805D02*
G75*
G02*
X75173000Y-71452000I1680253J28805D01*
G01*
X76024958Y-70600574D02*
G75*
G02*
X77392000Y-70601000I683042J-1535426D01*
G01*
X78243426Y-71452958D02*
G75*
G02*
X78243000Y-72820000I-1535426J-683042D01*
G01*
X77391042Y-73671426D02*
G75*
G02*
X76024000Y-73671000I-683042J1535426D01*
G01*
X75173244Y-72819318D02*
G75*
G02*
X75028000Y-72136000I1534756J683318D01*
G01*
%TO.C,RS1*%
X94642000Y-102584000D02*
X97382000Y-102584000D01*
X97382000Y-102584000D02*
X97382000Y-96044000D01*
X97382000Y-96044000D02*
X94642000Y-96044000D01*
X94642000Y-96044000D02*
X94642000Y-102584000D01*
X96012000Y-103354000D02*
X96012000Y-102584000D01*
X96012000Y-95274000D02*
X96012000Y-96044000D01*
%TO.C,J2*%
X121218000Y-86928000D02*
X121218000Y-84268000D01*
X77978000Y-86928000D02*
X121218000Y-86928000D01*
X77978000Y-84268000D02*
X121218000Y-84268000D01*
X77978000Y-86928000D02*
X77978000Y-84268000D01*
X76708000Y-86928000D02*
X75378000Y-86928000D01*
X75378000Y-86928000D02*
X75378000Y-85598000D01*
%TO.C,J1*%
X121218000Y-112328000D02*
X121218000Y-109668000D01*
X77978000Y-112328000D02*
X121218000Y-112328000D01*
X77978000Y-109668000D02*
X121218000Y-109668000D01*
X77978000Y-112328000D02*
X77978000Y-109668000D01*
X76708000Y-112328000D02*
X75378000Y-112328000D01*
X75378000Y-112328000D02*
X75378000Y-110998000D01*
%TO.C,RS3*%
X102516000Y-102584000D02*
X105256000Y-102584000D01*
X105256000Y-102584000D02*
X105256000Y-96044000D01*
X105256000Y-96044000D02*
X102516000Y-96044000D01*
X102516000Y-96044000D02*
X102516000Y-102584000D01*
X103886000Y-103354000D02*
X103886000Y-102584000D01*
X103886000Y-95274000D02*
X103886000Y-96044000D01*
%TO.C,J5*%
X84836000Y-71822000D02*
X86166000Y-71822000D01*
X86166000Y-71822000D02*
X86166000Y-73152000D01*
X86166000Y-74422000D02*
X86166000Y-77022000D01*
X83506000Y-77022000D02*
X86166000Y-77022000D01*
X83506000Y-74422000D02*
X83506000Y-77022000D01*
X83506000Y-74422000D02*
X86166000Y-74422000D01*
%TO.C,SW0*%
X81134214Y-122734000D02*
G75*
G03*
X81134214Y-122734000I-1414214J0D01*
G01*
X82840000Y-125704000D02*
X82840000Y-119764000D01*
X76600000Y-125704000D02*
X76600000Y-119764000D01*
X81060000Y-125854000D02*
X78380000Y-125854000D01*
X78380000Y-119614000D02*
X81060000Y-119614000D01*
%TO.C,SW1*%
X93580214Y-122734000D02*
G75*
G03*
X93580214Y-122734000I-1414214J0D01*
G01*
X95286000Y-125704000D02*
X95286000Y-119764000D01*
X89046000Y-125704000D02*
X89046000Y-119764000D01*
X93506000Y-125854000D02*
X90826000Y-125854000D01*
X90826000Y-119614000D02*
X93506000Y-119614000D01*
%TO.C,SW3*%
X118472214Y-122734000D02*
G75*
G03*
X118472214Y-122734000I-1414214J0D01*
G01*
X120178000Y-125704000D02*
X120178000Y-119764000D01*
X113938000Y-125704000D02*
X113938000Y-119764000D01*
X118398000Y-125854000D02*
X115718000Y-125854000D01*
X115718000Y-119614000D02*
X118398000Y-119614000D01*
%TO.C,SW2*%
X106026214Y-122734000D02*
G75*
G03*
X106026214Y-122734000I-1414214J0D01*
G01*
X107732000Y-125704000D02*
X107732000Y-119764000D01*
X101492000Y-125704000D02*
X101492000Y-119764000D01*
X105952000Y-125854000D02*
X103272000Y-125854000D01*
X103272000Y-119614000D02*
X105952000Y-119614000D01*
%TO.C,RS0*%
X90832000Y-102584000D02*
X93572000Y-102584000D01*
X93572000Y-102584000D02*
X93572000Y-96044000D01*
X93572000Y-96044000D02*
X90832000Y-96044000D01*
X90832000Y-96044000D02*
X90832000Y-102584000D01*
X92202000Y-103354000D02*
X92202000Y-102584000D01*
X92202000Y-95274000D02*
X92202000Y-96044000D01*
%TO.C,RS2*%
X98706000Y-102584000D02*
X101446000Y-102584000D01*
X101446000Y-102584000D02*
X101446000Y-96044000D01*
X101446000Y-96044000D02*
X98706000Y-96044000D01*
X98706000Y-96044000D02*
X98706000Y-102584000D01*
X100076000Y-103354000D02*
X100076000Y-102584000D01*
X100076000Y-95274000D02*
X100076000Y-96044000D01*
%TO.C,J11*%
X135128000Y-85404000D02*
X135128000Y-82744000D01*
X135128000Y-85404000D02*
X152968000Y-85404000D01*
X152968000Y-85404000D02*
X152968000Y-82744000D01*
X135128000Y-82744000D02*
X152968000Y-82744000D01*
X132528000Y-82744000D02*
X133858000Y-82744000D01*
X132528000Y-84074000D02*
X132528000Y-82744000D01*
%TO.C,J9*%
X135188000Y-123190000D02*
X132528000Y-123190000D01*
X135188000Y-123190000D02*
X135188000Y-107890000D01*
X135188000Y-107890000D02*
X132528000Y-107890000D01*
X132528000Y-123190000D02*
X132528000Y-107890000D01*
X132528000Y-125790000D02*
X132528000Y-124460000D01*
X133858000Y-125790000D02*
X132528000Y-125790000D01*
%TO.C,R3*%
X139986000Y-99976000D02*
X139986000Y-102716000D01*
X139986000Y-102716000D02*
X146526000Y-102716000D01*
X146526000Y-102716000D02*
X146526000Y-99976000D01*
X146526000Y-99976000D02*
X139986000Y-99976000D01*
X139216000Y-101346000D02*
X139986000Y-101346000D01*
X147296000Y-101346000D02*
X146526000Y-101346000D01*
%TO.C,R2*%
X139986000Y-103278000D02*
X139986000Y-106018000D01*
X139986000Y-106018000D02*
X146526000Y-106018000D01*
X146526000Y-106018000D02*
X146526000Y-103278000D01*
X146526000Y-103278000D02*
X139986000Y-103278000D01*
X139216000Y-104648000D02*
X139986000Y-104648000D01*
X147296000Y-104648000D02*
X146526000Y-104648000D01*
%TO.C,J8*%
D11*
X82764380Y-79650333D02*
X83478666Y-79650333D01*
X83621523Y-79697952D01*
X83716761Y-79793190D01*
X83764380Y-79936047D01*
X83764380Y-80031285D01*
X83192952Y-79031285D02*
X83145333Y-79126523D01*
X83097714Y-79174142D01*
X83002476Y-79221761D01*
X82954857Y-79221761D01*
X82859619Y-79174142D01*
X82812000Y-79126523D01*
X82764380Y-79031285D01*
X82764380Y-78840809D01*
X82812000Y-78745571D01*
X82859619Y-78697952D01*
X82954857Y-78650333D01*
X83002476Y-78650333D01*
X83097714Y-78697952D01*
X83145333Y-78745571D01*
X83192952Y-78840809D01*
X83192952Y-79031285D01*
X83240571Y-79126523D01*
X83288190Y-79174142D01*
X83383428Y-79221761D01*
X83573904Y-79221761D01*
X83669142Y-79174142D01*
X83716761Y-79126523D01*
X83764380Y-79031285D01*
X83764380Y-78840809D01*
X83716761Y-78745571D01*
X83669142Y-78697952D01*
X83573904Y-78650333D01*
X83383428Y-78650333D01*
X83288190Y-78697952D01*
X83240571Y-78745571D01*
X83192952Y-78840809D01*
%TO.C,RS1*%
X96464380Y-99956857D02*
X95988190Y-100290190D01*
X96464380Y-100528285D02*
X95464380Y-100528285D01*
X95464380Y-100147333D01*
X95512000Y-100052095D01*
X95559619Y-100004476D01*
X95654857Y-99956857D01*
X95797714Y-99956857D01*
X95892952Y-100004476D01*
X95940571Y-100052095D01*
X95988190Y-100147333D01*
X95988190Y-100528285D01*
X96416761Y-99575904D02*
X96464380Y-99433047D01*
X96464380Y-99194952D01*
X96416761Y-99099714D01*
X96369142Y-99052095D01*
X96273904Y-99004476D01*
X96178666Y-99004476D01*
X96083428Y-99052095D01*
X96035809Y-99099714D01*
X95988190Y-99194952D01*
X95940571Y-99385428D01*
X95892952Y-99480666D01*
X95845333Y-99528285D01*
X95750095Y-99575904D01*
X95654857Y-99575904D01*
X95559619Y-99528285D01*
X95512000Y-99480666D01*
X95464380Y-99385428D01*
X95464380Y-99147333D01*
X95512000Y-99004476D01*
X96464380Y-98052095D02*
X96464380Y-98623523D01*
X96464380Y-98337809D02*
X95464380Y-98337809D01*
X95607238Y-98433047D01*
X95702476Y-98528285D01*
X95750095Y-98623523D01*
%TO.C,J2*%
X73620380Y-85931333D02*
X74334666Y-85931333D01*
X74477523Y-85978952D01*
X74572761Y-86074190D01*
X74620380Y-86217047D01*
X74620380Y-86312285D01*
X73715619Y-85502761D02*
X73668000Y-85455142D01*
X73620380Y-85359904D01*
X73620380Y-85121809D01*
X73668000Y-85026571D01*
X73715619Y-84978952D01*
X73810857Y-84931333D01*
X73906095Y-84931333D01*
X74048952Y-84978952D01*
X74620380Y-85550380D01*
X74620380Y-84931333D01*
%TO.C,J1*%
X73830380Y-111331333D02*
X74544666Y-111331333D01*
X74687523Y-111378952D01*
X74782761Y-111474190D01*
X74830380Y-111617047D01*
X74830380Y-111712285D01*
X74830380Y-110331333D02*
X74830380Y-110902761D01*
X74830380Y-110617047D02*
X73830380Y-110617047D01*
X73973238Y-110712285D01*
X74068476Y-110807523D01*
X74116095Y-110902761D01*
%TO.C,RS3*%
X104338380Y-99956857D02*
X103862190Y-100290190D01*
X104338380Y-100528285D02*
X103338380Y-100528285D01*
X103338380Y-100147333D01*
X103386000Y-100052095D01*
X103433619Y-100004476D01*
X103528857Y-99956857D01*
X103671714Y-99956857D01*
X103766952Y-100004476D01*
X103814571Y-100052095D01*
X103862190Y-100147333D01*
X103862190Y-100528285D01*
X104290761Y-99575904D02*
X104338380Y-99433047D01*
X104338380Y-99194952D01*
X104290761Y-99099714D01*
X104243142Y-99052095D01*
X104147904Y-99004476D01*
X104052666Y-99004476D01*
X103957428Y-99052095D01*
X103909809Y-99099714D01*
X103862190Y-99194952D01*
X103814571Y-99385428D01*
X103766952Y-99480666D01*
X103719333Y-99528285D01*
X103624095Y-99575904D01*
X103528857Y-99575904D01*
X103433619Y-99528285D01*
X103386000Y-99480666D01*
X103338380Y-99385428D01*
X103338380Y-99147333D01*
X103386000Y-99004476D01*
X103338380Y-98671142D02*
X103338380Y-98052095D01*
X103719333Y-98385428D01*
X103719333Y-98242571D01*
X103766952Y-98147333D01*
X103814571Y-98099714D01*
X103909809Y-98052095D01*
X104147904Y-98052095D01*
X104243142Y-98099714D01*
X104290761Y-98147333D01*
X104338380Y-98242571D01*
X104338380Y-98528285D01*
X104290761Y-98623523D01*
X104243142Y-98671142D01*
%TO.C,J5*%
X84376666Y-70049380D02*
X84376666Y-70763666D01*
X84329047Y-70906523D01*
X84233809Y-71001761D01*
X84090952Y-71049380D01*
X83995714Y-71049380D01*
X85329047Y-70049380D02*
X84852857Y-70049380D01*
X84805238Y-70525571D01*
X84852857Y-70477952D01*
X84948095Y-70430333D01*
X85186190Y-70430333D01*
X85281428Y-70477952D01*
X85329047Y-70525571D01*
X85376666Y-70620809D01*
X85376666Y-70858904D01*
X85329047Y-70954142D01*
X85281428Y-71001761D01*
X85186190Y-71049380D01*
X84948095Y-71049380D01*
X84852857Y-71001761D01*
X84805238Y-70954142D01*
%TO.C,RS0*%
X92654380Y-99956857D02*
X92178190Y-100290190D01*
X92654380Y-100528285D02*
X91654380Y-100528285D01*
X91654380Y-100147333D01*
X91702000Y-100052095D01*
X91749619Y-100004476D01*
X91844857Y-99956857D01*
X91987714Y-99956857D01*
X92082952Y-100004476D01*
X92130571Y-100052095D01*
X92178190Y-100147333D01*
X92178190Y-100528285D01*
X92606761Y-99575904D02*
X92654380Y-99433047D01*
X92654380Y-99194952D01*
X92606761Y-99099714D01*
X92559142Y-99052095D01*
X92463904Y-99004476D01*
X92368666Y-99004476D01*
X92273428Y-99052095D01*
X92225809Y-99099714D01*
X92178190Y-99194952D01*
X92130571Y-99385428D01*
X92082952Y-99480666D01*
X92035333Y-99528285D01*
X91940095Y-99575904D01*
X91844857Y-99575904D01*
X91749619Y-99528285D01*
X91702000Y-99480666D01*
X91654380Y-99385428D01*
X91654380Y-99147333D01*
X91702000Y-99004476D01*
X91654380Y-98385428D02*
X91654380Y-98290190D01*
X91702000Y-98194952D01*
X91749619Y-98147333D01*
X91844857Y-98099714D01*
X92035333Y-98052095D01*
X92273428Y-98052095D01*
X92463904Y-98099714D01*
X92559142Y-98147333D01*
X92606761Y-98194952D01*
X92654380Y-98290190D01*
X92654380Y-98385428D01*
X92606761Y-98480666D01*
X92559142Y-98528285D01*
X92463904Y-98575904D01*
X92273428Y-98623523D01*
X92035333Y-98623523D01*
X91844857Y-98575904D01*
X91749619Y-98528285D01*
X91702000Y-98480666D01*
X91654380Y-98385428D01*
%TO.C,RS2*%
X100528380Y-99956857D02*
X100052190Y-100290190D01*
X100528380Y-100528285D02*
X99528380Y-100528285D01*
X99528380Y-100147333D01*
X99576000Y-100052095D01*
X99623619Y-100004476D01*
X99718857Y-99956857D01*
X99861714Y-99956857D01*
X99956952Y-100004476D01*
X100004571Y-100052095D01*
X100052190Y-100147333D01*
X100052190Y-100528285D01*
X100480761Y-99575904D02*
X100528380Y-99433047D01*
X100528380Y-99194952D01*
X100480761Y-99099714D01*
X100433142Y-99052095D01*
X100337904Y-99004476D01*
X100242666Y-99004476D01*
X100147428Y-99052095D01*
X100099809Y-99099714D01*
X100052190Y-99194952D01*
X100004571Y-99385428D01*
X99956952Y-99480666D01*
X99909333Y-99528285D01*
X99814095Y-99575904D01*
X99718857Y-99575904D01*
X99623619Y-99528285D01*
X99576000Y-99480666D01*
X99528380Y-99385428D01*
X99528380Y-99147333D01*
X99576000Y-99004476D01*
X99623619Y-98623523D02*
X99576000Y-98575904D01*
X99528380Y-98480666D01*
X99528380Y-98242571D01*
X99576000Y-98147333D01*
X99623619Y-98099714D01*
X99718857Y-98052095D01*
X99814095Y-98052095D01*
X99956952Y-98099714D01*
X100528380Y-98671142D01*
X100528380Y-98052095D01*
%TO.C,J11*%
X130540380Y-84883523D02*
X131254666Y-84883523D01*
X131397523Y-84931142D01*
X131492761Y-85026380D01*
X131540380Y-85169238D01*
X131540380Y-85264476D01*
X131540380Y-83883523D02*
X131540380Y-84454952D01*
X131540380Y-84169238D02*
X130540380Y-84169238D01*
X130683238Y-84264476D01*
X130778476Y-84359714D01*
X130826095Y-84454952D01*
X131540380Y-82931142D02*
X131540380Y-83502571D01*
X131540380Y-83216857D02*
X130540380Y-83216857D01*
X130683238Y-83312095D01*
X130778476Y-83407333D01*
X130826095Y-83502571D01*
%TO.C,J9*%
X134032666Y-127214380D02*
X134032666Y-127928666D01*
X133985047Y-128071523D01*
X133889809Y-128166761D01*
X133746952Y-128214380D01*
X133651714Y-128214380D01*
X134556476Y-128214380D02*
X134746952Y-128214380D01*
X134842190Y-128166761D01*
X134889809Y-128119142D01*
X134985047Y-127976285D01*
X135032666Y-127785809D01*
X135032666Y-127404857D01*
X134985047Y-127309619D01*
X134937428Y-127262000D01*
X134842190Y-127214380D01*
X134651714Y-127214380D01*
X134556476Y-127262000D01*
X134508857Y-127309619D01*
X134461238Y-127404857D01*
X134461238Y-127642952D01*
X134508857Y-127738190D01*
X134556476Y-127785809D01*
X134651714Y-127833428D01*
X134842190Y-127833428D01*
X134937428Y-127785809D01*
X134985047Y-127738190D01*
X135032666Y-127642952D01*
%TO.C,R3*%
X143089333Y-101798380D02*
X142756000Y-101322190D01*
X142517904Y-101798380D02*
X142517904Y-100798380D01*
X142898857Y-100798380D01*
X142994095Y-100846000D01*
X143041714Y-100893619D01*
X143089333Y-100988857D01*
X143089333Y-101131714D01*
X143041714Y-101226952D01*
X142994095Y-101274571D01*
X142898857Y-101322190D01*
X142517904Y-101322190D01*
X143422666Y-100798380D02*
X144041714Y-100798380D01*
X143708380Y-101179333D01*
X143851238Y-101179333D01*
X143946476Y-101226952D01*
X143994095Y-101274571D01*
X144041714Y-101369809D01*
X144041714Y-101607904D01*
X143994095Y-101703142D01*
X143946476Y-101750761D01*
X143851238Y-101798380D01*
X143565523Y-101798380D01*
X143470285Y-101750761D01*
X143422666Y-101703142D01*
%TO.C,R2*%
X143089333Y-105036380D02*
X142756000Y-104560190D01*
X142517904Y-105036380D02*
X142517904Y-104036380D01*
X142898857Y-104036380D01*
X142994095Y-104084000D01*
X143041714Y-104131619D01*
X143089333Y-104226857D01*
X143089333Y-104369714D01*
X143041714Y-104464952D01*
X142994095Y-104512571D01*
X142898857Y-104560190D01*
X142517904Y-104560190D01*
X143470285Y-104131619D02*
X143517904Y-104084000D01*
X143613142Y-104036380D01*
X143851238Y-104036380D01*
X143946476Y-104084000D01*
X143994095Y-104131619D01*
X144041714Y-104226857D01*
X144041714Y-104322095D01*
X143994095Y-104464952D01*
X143422666Y-105036380D01*
X144041714Y-105036380D01*
%TD*%
M02*
