M48
; DRILL file {KiCad 5.1.6-c6e7f7d~87~ubuntu18.04.1} date Wed Nov 18 13:25:51 2020
; FORMAT={-:-/ absolute / inch / decimal}
; #@! TF.CreationDate,2020-11-18T13:25:51-05:00
; #@! TF.GenerationSoftware,Kicad,Pcbnew,5.1.6-c6e7f7d~87~ubuntu18.04.1
; #@! TF.FileFunction,Plated,1,2,PTH
FMAT,2
INCH
T1C0.0157
T2C0.0315
T3C0.0394
T4C0.0512
%
G90
G05
T1
X3.15Y-4.08
X3.16Y-4.18
X3.38Y-4.03
X3.45Y-4.06
T2
X3.63Y-3.71
X3.63Y-4.11
X3.78Y-3.71
X3.78Y-4.11
X3.94Y-3.71
X3.94Y-4.11
X4.09Y-3.71
X4.09Y-4.11
X5.44Y-4.12
X5.84Y-4.12
X5.44Y-3.99
X5.84Y-3.99
T3
X3.05Y-4.7041
X3.05Y-4.96
X3.2272Y-4.7041
X3.2272Y-4.96
X5.27Y-4.3
X5.27Y-4.4
X5.27Y-4.5
X5.27Y-4.6
X5.27Y-4.7
X5.27Y-4.8
X5.27Y-4.9
X3.02Y-3.37
X3.12Y-3.37
X3.22Y-3.37
X3.32Y-3.37
X3.42Y-3.37
X3.52Y-3.37
X3.62Y-3.37
X3.72Y-3.37
X3.82Y-3.37
X3.92Y-3.37
X4.02Y-3.37
X4.12Y-3.37
X4.22Y-3.37
X4.32Y-3.37
X4.42Y-3.37
X4.52Y-3.37
X4.62Y-3.37
X4.72Y-3.37
X5.27Y-3.31
X5.37Y-3.31
X5.47Y-3.31
X5.57Y-3.31
X5.67Y-3.31
X5.77Y-3.31
X5.87Y-3.31
X5.97Y-3.31
X3.34Y-2.88
X3.34Y-2.98
X3.54Y-4.7041
X3.54Y-4.96
X3.7172Y-4.7041
X3.7172Y-4.96
X4.52Y-4.7041
X4.52Y-4.96
X4.6972Y-4.7041
X4.6972Y-4.96
X4.03Y-4.7041
X4.03Y-4.96
X4.2072Y-4.7041
X4.2072Y-4.96
X3.02Y-4.37
X3.12Y-4.37
X3.22Y-4.37
X3.32Y-4.37
X3.42Y-4.37
X3.52Y-4.37
X3.62Y-4.37
X3.72Y-4.37
X3.82Y-4.37
X3.92Y-4.37
X4.02Y-4.37
X4.12Y-4.37
X4.22Y-4.37
X4.32Y-4.37
X4.42Y-4.37
X4.52Y-4.37
X4.62Y-4.37
X4.72Y-4.37
T4
X3.02Y-2.84
X3.02Y-3.0369
T0
M30
